<svg width="40" height="40" viewBox="0 0 40 40" fill="none" xmlns="http://www.w3.org/2000/svg">
<path d="M26.0644 14.5001C26.3258 14.5001 26.5377 14.2882 26.5377 14.0268C26.5377 13.7654 26.3258 13.5534 26.0644 13.5534C25.803 13.5534 25.5911 13.7654 25.5911 14.0268C25.5911 14.2882 25.803 14.5001 26.0644 14.5001Z" fill="#595959"/>
<path d="M28.1926 14.5001C28.454 14.5001 28.6659 14.2882 28.6659 14.0268C28.6659 13.7654 28.454 13.5534 28.1926 13.5534C27.9312 13.5534 27.7193 13.7654 27.7193 14.0268C27.7193 14.2882 27.9312 14.5001 28.1926 14.5001Z" fill="#595959"/>
<path d="M30.3208 14.5001C30.5822 14.5001 30.7941 14.2882 30.7941 14.0268C30.7941 13.7654 30.5822 13.5534 30.3208 13.5534C30.0594 13.5534 29.8474 13.7654 29.8474 14.0268C29.8474 14.2882 30.0594 14.5001 30.3208 14.5001Z" fill="#595959"/>
<path d="M24.151 20.128H31.5626C31.8324 20.128 32.0512 19.9093 32.0512 19.6394C32.0512 19.3696 31.8324 19.1509 31.5626 19.1509H24.151C23.8813 19.1509 23.6625 19.3696 23.6625 19.6394C23.6625 19.9093 23.8813 20.128 24.151 20.128Z" fill="#595959"/>
<path d="M21.5253 22.5349H31.5627C31.8325 22.5349 32.0512 22.3163 32.0512 22.0464C32.0512 21.7765 31.8325 21.5579 31.5627 21.5579H21.5253C21.2555 21.5579 21.0367 21.7765 21.0367 22.0464C21.0367 22.3163 21.2554 22.5349 21.5253 22.5349Z" fill="#595959"/>
<path d="M21.5253 24.942H31.5627C31.8325 24.942 32.0512 24.7233 32.0512 24.4534C32.0512 24.1836 31.8325 23.9649 31.5627 23.9649H21.5253C21.2555 23.9649 21.0367 24.1836 21.0367 24.4534C21.0367 24.7232 21.2554 24.942 21.5253 24.942Z" fill="#595959"/>
<path d="M21.5253 27.3489H28.6659C28.9357 27.3489 29.1544 27.1303 29.1544 26.8604C29.1544 26.5905 28.9357 26.3719 28.6659 26.3719H21.5253C21.2555 26.3719 21.0367 26.5905 21.0367 26.8604C21.0367 27.1303 21.2554 27.3489 21.5253 27.3489Z" fill="#595959"/>
<path d="M32.898 11.591H19.2458C19.1604 10.2724 18.061 9.22557 16.7212 9.22557C15.3814 9.22557 14.282 10.2724 14.1966 11.591H12.2327C11.2246 11.591 10.4044 12.4112 10.4044 13.4193V29.7952C10.4044 30.8034 11.2247 31.6236 12.2328 31.6236H14.1907V32.2793C14.1907 32.7033 14.2979 33.1242 14.5007 33.4966L15.3021 34.9683H7.8651C6.9985 34.9683 6.29349 34.2633 6.29349 33.3967C6.30182 8.99288 6.27337 10.4281 6.31569 10.2026H10.75C11.5417 10.2026 12.1858 9.55857 12.1858 8.76684V4.3326C12.2622 4.31827 12.3402 4.3104 12.4196 4.3104H28.5846C29.4512 4.3104 30.1563 5.01541 30.1563 5.88201V9.79555C30.1563 10.0654 30.375 10.2841 30.6448 10.2841C30.9146 10.2841 31.1333 10.0654 31.1333 9.79555V5.88201C31.1333 4.47667 29.99 3.33331 28.5846 3.33331H12.4195C11.8232 3.33331 11.2626 3.56547 10.841 3.98715L5.97025 8.85786C5.54863 9.27954 5.31641 9.84015 5.31641 10.4364V33.3967C5.31641 34.8021 6.45977 35.9454 7.8651 35.9454H15.8342L15.9906 36.2326C16.1364 36.5004 16.4163 36.6666 16.7212 36.6666C17.0261 36.6666 17.3061 36.5004 17.4519 36.2326L17.6083 35.9454H28.5846C29.9751 35.9454 31.1184 34.8145 31.1332 33.4243C31.1361 33.1545 30.9197 32.9335 30.6499 32.9306H30.6445C30.3772 32.9306 30.159 33.1459 30.1561 33.4139C30.147 34.2711 29.442 34.9683 28.5846 34.9683H18.1404L18.9419 33.4967C19.1447 33.1244 19.2519 32.7034 19.2519 32.2793V31.6237H32.898C33.9061 31.6237 34.7264 30.8034 34.7264 29.7953V13.4194C34.7263 12.4112 33.9061 11.591 32.898 11.591ZM11.2086 5.00141V8.76691C11.2086 9.01984 11.0029 9.22557 10.7499 9.22557H6.98444L11.2086 5.00141ZM11.3814 13.4194C11.3814 12.95 11.7633 12.5681 12.2327 12.5681H14.1906V15.4852H11.3814V13.4194ZM14.6792 20.2929C14.4094 20.2929 14.1906 20.5116 14.1906 20.7814V30.6465H12.2327C11.7633 30.6465 11.3815 30.2646 11.3815 29.7952V16.4623H14.1906V18.4974C14.1906 18.7672 14.4094 18.9859 14.6792 18.9859C14.949 18.9859 15.1677 18.7672 15.1677 18.4974V14.1986H16.2327V31.7907H15.1677V20.7814C15.1677 20.5116 14.949 20.2929 14.6792 20.2929ZM18.0837 33.0293L17.0277 34.9683H16.4146L15.3586 33.0293C15.3156 32.9502 15.2718 32.8467 15.246 32.7679H18.1962C18.1699 32.8484 18.1265 32.9508 18.0837 33.0293ZM18.2747 31.7908H17.2098V14.1986H18.2747V31.7908ZM18.2747 13.2215H15.1677V11.7562C15.1677 10.8996 15.8646 10.2027 16.7212 10.2027C17.5778 10.2027 18.2747 10.8996 18.2747 11.7562V13.2215ZM33.7492 29.7952C33.7492 30.2646 33.3673 30.6465 32.898 30.6465H19.2518V16.4623H33.7492V29.7952ZM33.7492 15.4852H19.2518V12.5681H32.898C33.3674 12.5681 33.7492 12.95 33.7492 13.4194V15.4852Z" fill="#595959"/>
</svg>
