<svg width="40" height="40" viewBox="0 0 40 40" fill="none" xmlns="http://www.w3.org/2000/svg">
<path d="M34.948 3.33331H5.68512C4.56286 3.33331 3.6499 4.24627 3.6499 5.36853V36.6666H28.6173C28.887 36.6666 29.1056 36.448 29.1056 36.1784C29.1056 35.9087 28.887 35.6901 28.6173 35.6901H14.4572V23.2769C14.4572 23.0928 14.308 22.9435 14.1239 22.9435H6.97803C6.79393 22.9435 6.64469 23.0928 6.64469 23.2769V35.6901H4.62646V8.2785H13.9689C14.2386 8.2785 14.4572 8.05988 14.4572 7.79021C14.4572 7.52054 14.2386 7.30193 13.9689 7.30193H4.62646V5.36853C4.62646 4.78475 5.10133 4.30988 5.68512 4.30988H34.9481C35.5317 4.30988 36.0067 4.78475 36.0067 5.36853V7.30193H15.922C15.6524 7.30193 15.4338 7.52054 15.4338 7.79021C15.4338 8.05988 15.6524 8.2785 15.922 8.2785H36.0067V35.6901H30.5705C30.3008 35.6901 30.0822 35.9087 30.0822 36.1784C30.0822 36.448 30.3008 36.6666 30.5705 36.6666H36.9832V5.36853C36.9832 4.24627 36.0703 3.33331 34.948 3.33331ZM13.1473 23.9201C13.3314 23.9201 13.4806 24.0693 13.4806 24.2534V24.555C13.4806 24.7391 13.3314 24.8883 13.1473 24.8883H7.95459C7.77049 24.8883 7.62126 24.7391 7.62126 24.555V24.2534C7.62126 24.0693 7.77049 23.9201 7.95459 23.9201H13.1473ZM7.62126 26.1982C7.62126 26.0141 7.77049 25.8649 7.95459 25.8649H13.1473C13.3314 25.8649 13.4806 26.0141 13.4806 26.1982V35.6901H7.62126V26.1982Z" fill="#595959"/>
<path d="M5.66813 5.83718C5.66813 5.56751 5.88674 5.3489 6.15641 5.3489C6.42608 5.3489 6.64469 5.56751 6.64469 5.83718C6.64469 6.10685 6.42608 6.32546 6.15641 6.32546C5.88674 6.32546 5.66813 6.10685 5.66813 5.83718Z" fill="#595959"/>
<path d="M7.62126 5.83718C7.62126 5.56751 7.83987 5.3489 8.10954 5.3489C8.37921 5.3489 8.59782 5.56751 8.59782 5.83718C8.59782 6.10685 8.37921 6.32546 8.10954 6.32546C7.83987 6.32546 7.62126 6.10685 7.62126 5.83718Z" fill="#595959"/>
<path d="M9.57418 5.83718C9.57418 5.56751 9.79279 5.3489 10.0625 5.3489C10.3321 5.3489 10.5507 5.56751 10.5507 5.83718C10.5507 6.10685 10.3321 6.32546 10.0625 6.32546C9.79279 6.32546 9.57418 6.10685 9.57418 5.83718Z" fill="#595959"/>
<path d="M20.3166 23.4796C23.8167 23.4796 26.6642 20.6321 26.6642 17.1319C26.6642 13.6318 23.8167 10.7843 20.3166 10.7843C16.8164 10.7843 13.9689 13.6318 13.9689 17.1319C13.9689 20.6321 16.8164 23.4796 20.3166 23.4796ZM18.3343 22.1223C18.9091 21.7139 19.6032 21.4877 20.3166 21.4877C21.031 21.4877 21.7244 21.7137 22.2989 22.1222C21.6851 22.367 21.0166 22.503 20.3166 22.503C19.6166 22.503 18.9481 22.367 18.3343 22.1223ZM20.3166 11.7608C23.2782 11.7608 25.6877 14.1703 25.6877 17.1319C25.6877 19.0134 24.7144 20.6709 23.2457 21.6305C22.4442 20.9148 21.3993 20.5111 20.3166 20.5111C19.2355 20.5111 18.1893 20.9155 17.3879 21.6308C15.9189 20.6713 14.9455 19.0136 14.9455 17.1319C14.9455 14.1703 17.3549 11.7608 20.3166 11.7608Z" fill="#595959"/>
<path d="M20.3139 19.5289C21.6616 19.5289 22.758 18.4325 22.758 17.0848V13.2055H19.8533C18.7595 13.2055 17.8697 14.0954 17.8697 15.1892V17.0848C17.8697 18.4324 18.9661 19.5289 20.3139 19.5289ZM20.3139 18.5524C19.5046 18.5524 18.8463 17.894 18.8463 17.0848V16.1255H21.7815V17.0847C21.7815 17.894 21.1231 18.5524 20.3139 18.5524ZM19.8533 14.182H21.7815V15.149H18.8483C18.8695 14.6124 19.3115 14.182 19.8533 14.182Z" fill="#595959"/>
<path d="M8.59782 28.302C8.59782 28.0323 8.81643 27.8137 9.0861 27.8137H12.0158C12.2855 27.8137 12.5041 28.0323 12.5041 28.302C12.5041 28.5717 12.2855 28.7903 12.0158 28.7903H9.0861C8.81643 28.7903 8.59782 28.5717 8.59782 28.302Z" fill="#595959"/>
<path d="M8.59782 30.7387C8.59782 30.469 8.81643 30.2504 9.0861 30.2504H12.0158C12.2855 30.2504 12.5041 30.469 12.5041 30.7387C12.5041 31.0084 12.2855 31.227 12.0158 31.227H9.0861C8.81643 31.227 8.59782 31.0084 8.59782 30.7387Z" fill="#595959"/>
<path d="M8.59782 33.1752C8.59782 32.9056 8.81643 32.687 9.0861 32.687H12.0158C12.2855 32.687 12.5041 32.9056 12.5041 33.1752C12.5041 33.4449 12.2855 33.6635 12.0158 33.6635H9.0861C8.81643 33.6635 8.59782 33.4449 8.59782 33.1752Z" fill="#595959"/>
<path d="M25.2028 26.1939C25.2028 26.0098 25.0535 25.8606 24.8694 25.8606H15.783C15.5989 25.8606 15.4496 26.0098 15.4496 26.1939V28.4569C15.4496 28.641 15.5989 28.7903 15.783 28.7903H24.8694C25.0535 28.7903 25.2028 28.641 25.2028 28.4569V26.1939ZM24.2262 27.4804C24.2262 27.6645 24.077 27.8137 23.8929 27.8137H16.7595C16.5754 27.8137 16.4262 27.6645 16.4262 27.4804V27.1705C16.4262 26.9864 16.5754 26.8371 16.7595 26.8371H23.8929C24.077 26.8371 24.2262 26.9864 24.2262 27.1705V27.4804Z" fill="#595959"/>
<path d="M15.4338 30.251C15.4338 29.9814 15.6524 29.7628 15.922 29.7628H17.8696C18.1393 29.7628 18.3579 29.9814 18.3579 30.251C18.3579 30.5207 18.1393 30.7393 17.8696 30.7393H15.922C15.6524 30.7393 15.4338 30.5207 15.4338 30.251Z" fill="#595959"/>
<path d="M19.3455 30.251C19.3455 29.9814 19.5641 29.7628 19.8338 29.7628H33.9884V30.7393H19.8338C19.5641 30.7393 19.3455 30.5207 19.3455 30.251Z" fill="#595959"/>
<path d="M15.4338 32.2042C15.4338 31.9345 15.6524 31.7159 15.922 31.7159H17.8696C18.1393 31.7159 18.3579 31.9345 18.3579 32.2042C18.3579 32.4738 18.1393 32.6924 17.8696 32.6924H15.922C15.6524 32.6924 15.4338 32.4738 15.4338 32.2042Z" fill="#595959"/>
<path d="M19.3455 32.2042C19.3455 31.9345 19.5641 31.7159 19.8338 31.7159H33.9884V32.6924H19.8338C19.5641 32.6924 19.3455 32.4738 19.3455 32.2042Z" fill="#595959"/>
</svg>
