<svg width="65" height="64" viewBox="0 0 65 64" fill="none" xmlns="http://www.w3.org/2000/svg">
<path fill-rule="evenodd" clip-rule="evenodd" d="M46.4077 7.1908L46.4119 7.19504C47.6556 8.42782 48.8993 9.6606 50.142 10.8943C50.2847 11.036 50.429 11.1763 50.5734 11.3166L50.5736 11.3169L50.5738 11.3171C50.9897 11.7215 51.4058 12.1261 51.7845 12.5629C52.0047 12.8165 52.2019 13.1942 52.204 13.5167C52.2255 17.2933 52.2236 21.0698 52.2217 24.8464C52.2213 25.6509 52.2209 26.4554 52.2207 27.2598C52.2207 27.3032 52.2145 27.3466 52.2068 27.4011C52.2026 27.4305 52.198 27.4632 52.1936 27.5009H50.4509V14.2409C50.3655 14.2371 50.2871 14.2327 50.2131 14.2285C50.0816 14.2211 49.9642 14.2144 49.8467 14.2137C49.3466 14.2129 48.8464 14.2133 48.3463 14.2136C47.6318 14.2142 46.9172 14.2147 46.2027 14.2117C44.411 14.2033 43.332 13.1191 43.3216 11.3159C43.3173 10.493 43.3184 9.66955 43.3195 8.84632V8.84529C43.32 8.47149 43.3205 8.09774 43.3205 7.72408V7.1084H17.8753C15.9573 7.1084 14.8804 8.18532 14.8804 10.1085C14.8797 15.4061 14.8799 20.7036 14.8801 26.0014L14.8802 27.328C14.8803 29.536 14.8804 31.7439 14.8804 33.952V34.6407H13.1033V10.2191C13.1033 7.59886 14.3054 6.05132 16.8495 5.38764C16.871 5.3819 16.8905 5.36731 16.9101 5.35265L16.9103 5.35254L16.9149 5.34907C16.9185 5.34644 16.922 5.34383 16.9255 5.34129C16.9294 5.33855 16.9333 5.33589 16.9372 5.33337H44.5362L44.5352 5.33442C45.1591 5.95315 45.7832 6.57176 46.4072 7.19037L46.4077 7.1908ZM48.9461 12.4325C47.7341 11.2134 46.5154 9.98875 45.3045 8.77187L45.1185 8.58499C45.1185 8.8665 45.1166 9.15247 45.1147 9.44153C45.11 10.1618 45.1051 10.9014 45.1289 11.6394C45.1446 12.1319 45.4879 12.4189 45.995 12.4272C46.7167 12.4385 47.4383 12.4363 48.1364 12.4341C48.4104 12.4333 48.6808 12.4325 48.9461 12.4325Z" fill="url(#paint0_linear_322_188)"/>
<path fill-rule="evenodd" clip-rule="evenodd" d="M11.3261 47.9089C11.3256 48.2212 11.3251 48.5336 11.3251 48.8461L11.3272 48.8451C11.3272 49.2156 11.3267 49.586 11.3263 49.9564C11.3253 50.6968 11.3244 51.4369 11.3272 52.1771C11.3303 53.0213 11.6444 53.3312 12.5001 53.3322C13.4937 53.3341 14.4873 53.3339 15.4809 53.3336C16.6735 53.3333 17.8661 53.333 19.0586 53.3364C19.522 53.3385 19.9415 53.2592 20.1387 52.7875C20.3328 52.3221 20.1241 51.9642 19.788 51.6302C17.5236 49.3783 15.2654 47.1212 13.0135 44.8588C12.6775 44.5207 12.3175 44.3214 11.8542 44.527C11.4117 44.7232 11.3188 45.1197 11.322 45.5663C11.3287 46.3475 11.3274 47.128 11.3261 47.9089ZM16.9194 51.529H13.121V47.7327C14.3753 48.986 15.6703 50.2799 16.9194 51.529Z" fill="url(#paint1_linear_322_188)"/>
<path fill-rule="evenodd" clip-rule="evenodd" d="M6 31.6844C6.60316 30.9403 7.0623 30.9163 7.7479 31.6009L7.78642 31.6394C16.2031 40.0551 24.6199 48.4708 33.0356 56.8875C33.0582 56.9101 33.0812 56.9327 33.1042 56.9552C33.2055 57.0545 33.308 57.1549 33.3862 57.2705C33.7504 57.81 33.4509 58.5227 32.8112 58.6406C32.6938 58.6625 32.5714 58.6605 32.4493 58.6585C32.4141 58.6579 32.3788 58.6573 32.3437 58.6573C30.946 58.6573 29.5483 58.6572 28.1506 58.6572C21.1675 58.6567 14.1839 58.6563 7.20109 58.6667C6.65847 58.6667 6.25879 58.5133 6 58.0333V31.6844ZM7.79172 56.8499H30.2546L7.79172 34.3871V56.8499Z" fill="url(#paint2_linear_322_188)"/>
<path fill-rule="evenodd" clip-rule="evenodd" d="M40.6762 22.8864C39.1256 19.5649 36.3529 17.9579 32.8269 17.7534V17.7544C32.6695 17.7655 32.5258 17.7753 32.3907 17.7845L32.3886 17.7846C32.1546 17.8006 31.9465 17.8147 31.7385 17.8306C31.6174 17.8389 31.4953 17.8483 31.3764 17.8702C27.8962 18.5099 25.4439 20.4582 24.2867 23.7974C23.1419 27.1012 23.8526 30.1201 26.1828 32.7362C27.5205 34.2379 28.2187 35.9764 28.2103 37.9925L28.2084 38.3941C28.2043 39.1973 28.2002 40.0004 28.2145 40.8027C28.2312 41.7731 28.7456 42.3805 29.6723 42.6393C29.8173 42.6789 29.9885 42.8803 30.0198 43.0327C30.2984 44.408 31.3252 45.319 32.6442 45.3263C33.9883 45.3336 35.0141 44.4331 35.3021 43.0149C35.3303 42.8772 35.4471 42.6883 35.5651 42.6487C36.7609 42.2469 37.1053 41.7804 37.1168 40.524C37.1196 40.2236 37.118 39.9224 37.1164 39.6212C37.1119 38.7935 37.1075 37.9648 37.194 37.1462C37.3912 35.2762 38.3283 33.7495 39.4991 32.2948C41.8043 29.4293 42.23 26.2153 40.6762 22.8864ZM31.7696 36.1772C31.7692 36.5462 31.7687 36.9173 31.7687 37.2912H29.977C29.8152 35.3576 29.1818 33.6243 27.986 32.1143C27.84 31.9298 27.6844 31.7533 27.5289 31.5768L27.5284 31.5763C27.3973 31.4275 27.2662 31.2787 27.1407 31.125C25.278 28.8491 25.0359 25.634 26.5313 23.0847C28.0256 20.5375 31.0236 19.1277 33.8412 19.6474C36.8705 20.2067 39.1527 22.4649 39.6525 25.4232C40.0073 27.5218 39.5283 29.4241 38.2031 31.0896C36.3122 33.4657 35.923 34.2754 35.3271 37.3194H33.5907C33.5863 37.2562 33.5812 37.1962 33.5763 37.1383C33.5659 37.0164 33.5563 36.9042 33.5563 36.7924C33.5556 36.5165 33.5546 36.2406 33.5535 35.9646V35.9616C33.5493 34.8848 33.5451 33.8076 33.5667 32.731C33.5719 32.4608 33.6784 32.1519 33.8359 31.9306C34.496 31.0039 35.1861 30.0981 35.8758 29.1928L35.9198 29.1351C36.1672 28.8095 36.3122 28.4776 36.1296 28.079C35.9376 27.6595 35.5734 27.5426 35.1445 27.5426C33.4947 27.5458 31.846 27.5458 30.1972 27.5426C29.7704 27.5416 29.4031 27.647 29.2017 28.0634C29.0107 28.4589 29.1453 28.7949 29.3937 29.1215C30.1074 30.0607 30.8149 31.004 31.5131 31.9557C31.6299 32.1154 31.7552 32.3199 31.7572 32.5056C31.7725 33.7211 31.7711 34.9371 31.7696 36.1772ZM30.0198 39.1383H35.3042V40.8455H30.0198V39.1383ZM32.6724 43.5482C32.1997 43.5544 31.8793 43.2351 31.8428 42.6883H33.4634C33.4707 43.2049 33.1556 43.5409 32.6724 43.5482ZM32.6667 30.517L33.5093 29.3605H31.8C32.0487 29.6932 32.265 29.9815 32.5062 30.303L32.6667 30.517Z" fill="url(#paint3_linear_322_188)"/>
<path fill-rule="evenodd" clip-rule="evenodd" d="M59.3292 30.8548C59.3051 31.8753 58.9952 32.6872 58.3399 33.3425C53.2882 38.4026 48.2334 43.4595 43.1713 48.508C42.9981 48.6802 42.7445 48.819 42.5065 48.8701C41.1176 49.1686 39.7245 49.4482 38.3283 49.7123C37.4569 49.8771 36.9915 49.4023 37.1595 48.5216C37.4256 47.1254 37.7022 45.7312 38.0037 44.3433C38.0549 44.1065 38.2156 43.8644 38.3909 43.689C43.4155 38.6509 48.4442 33.618 53.4813 28.5924C54.5394 27.5374 55.969 27.2557 57.2651 27.8369C58.5987 28.4349 59.2467 29.5086 59.3302 30.8548H59.3292ZM49.2009 39.7774C51.2201 37.7589 53.2312 35.7486 55.2281 33.7526L54.6131 33.1294C54.1095 32.6191 53.594 32.0967 53.0931 31.5884L40.2442 44.4373L42.3907 46.5838V46.5848C44.0946 44.8818 45.7975 43.1795 47.4959 41.4818L49.2009 39.7774ZM56.7057 32.4566C57.2922 31.9473 57.7179 31.3661 57.4759 30.5229C57.2859 29.8613 56.8404 29.4669 56.16 29.3605C55.3815 29.2384 54.8535 29.6339 54.4329 30.1859L54.4972 30.25C55.2395 30.9913 55.9623 31.7131 56.7057 32.4566ZM39.7551 47.6239L39.9157 47.5914C40.1245 47.5492 40.3244 47.5088 40.5218 47.4687L40.2215 47.1393C40.0776 46.9815 39.9346 46.8248 39.7877 46.6635C39.6718 46.5362 39.5534 46.4062 39.4302 46.2707C39.3259 46.7747 39.2362 47.2099 39.1255 47.7515C39.3482 47.7062 39.5562 47.664 39.7551 47.6239Z" fill="url(#paint4_linear_322_188)"/>
<path d="M31.8063 51.5582V53.3343L31.8052 53.3354H32.351C33.866 53.3354 35.3811 53.3356 36.8961 53.3359H36.9055C40.4359 53.3366 43.9663 53.3372 47.4967 53.3343C50.3267 53.3322 52.2155 51.433 52.2217 48.5905C52.2238 47.5039 52.2231 46.4168 52.2224 45.3295C52.2221 44.7859 52.2217 44.2422 52.2217 43.6984V42.6956H50.4446V43.3009C50.4446 43.8794 50.4448 44.4577 50.4449 45.0361C50.4451 46.1926 50.4453 47.3491 50.4446 48.5059C50.4425 50.4918 49.3771 51.5582 47.3913 51.5582H31.8063Z" fill="url(#paint5_linear_322_188)"/>
<path d="M22.857 16.8914V16.8925C22.5573 16.8925 22.2601 16.8923 21.9651 16.8922L21.5598 16.8919C20.5727 16.8912 19.6064 16.8906 18.6402 16.8935C17.8763 16.8956 17.5633 17.2055 17.5601 17.9621C17.5549 19.2446 17.557 20.5281 17.5601 21.8106C17.5601 21.9027 17.5726 21.9942 17.5845 22.0801V22.0808L17.5849 22.0843C17.5873 22.1017 17.5896 22.1189 17.5918 22.1358C17.594 22.1522 17.596 22.1683 17.5977 22.1842H19.3425V18.6477H22.857V16.8925H22.8591L22.857 16.8914Z" fill="url(#paint6_linear_322_188)"/>
<path d="M46.0128 22.1904H47.7649C47.7649 21.7741 47.7658 21.3611 47.7668 20.9504L47.7668 20.9259C47.7694 19.8522 47.7718 18.7944 47.7576 17.7367C47.7503 17.2212 47.3746 16.9039 46.8247 16.8956C46.2433 16.8866 45.6614 16.8884 45.0793 16.8901C44.8465 16.8907 44.6136 16.8914 44.3807 16.8914H42.4857V18.6967H46.0128V22.1904Z" fill="url(#paint7_linear_322_188)"/>
<path d="M18.3949 10.6282H16.7003V8.91578H18.3949V10.6282Z" fill="url(#paint8_linear_322_188)"/>
<path d="M21.9555 8.90535H20.2524V10.6219H21.9555V8.90535Z" fill="url(#paint9_linear_322_188)"/>
<path d="M23.8087 10.6292V8.921H25.5264V10.6292H23.8087Z" fill="url(#paint10_linear_322_188)"/>
<defs>
<linearGradient id="paint0_linear_322_188" x1="6" y1="58.6667" x2="59.3333" y2="5.3365" gradientUnits="userSpaceOnUse">
<stop stop-color="#733480"/>
<stop offset="1" stop-color="#FD6748"/>
</linearGradient>
<linearGradient id="paint1_linear_322_188" x1="6" y1="58.6667" x2="59.3333" y2="5.3365" gradientUnits="userSpaceOnUse">
<stop stop-color="#733480"/>
<stop offset="1" stop-color="#FD6748"/>
</linearGradient>
<linearGradient id="paint2_linear_322_188" x1="6" y1="58.6667" x2="59.3333" y2="5.3365" gradientUnits="userSpaceOnUse">
<stop stop-color="#733480"/>
<stop offset="1" stop-color="#FD6748"/>
</linearGradient>
<linearGradient id="paint3_linear_322_188" x1="6" y1="58.6667" x2="59.3333" y2="5.3365" gradientUnits="userSpaceOnUse">
<stop stop-color="#733480"/>
<stop offset="1" stop-color="#FD6748"/>
</linearGradient>
<linearGradient id="paint4_linear_322_188" x1="6" y1="58.6667" x2="59.3333" y2="5.3365" gradientUnits="userSpaceOnUse">
<stop stop-color="#733480"/>
<stop offset="1" stop-color="#FD6748"/>
</linearGradient>
<linearGradient id="paint5_linear_322_188" x1="6" y1="58.6667" x2="59.3333" y2="5.3365" gradientUnits="userSpaceOnUse">
<stop stop-color="#733480"/>
<stop offset="1" stop-color="#FD6748"/>
</linearGradient>
<linearGradient id="paint6_linear_322_188" x1="6" y1="58.6667" x2="59.3333" y2="5.3365" gradientUnits="userSpaceOnUse">
<stop stop-color="#733480"/>
<stop offset="1" stop-color="#FD6748"/>
</linearGradient>
<linearGradient id="paint7_linear_322_188" x1="6" y1="58.6667" x2="59.3333" y2="5.3365" gradientUnits="userSpaceOnUse">
<stop stop-color="#733480"/>
<stop offset="1" stop-color="#FD6748"/>
</linearGradient>
<linearGradient id="paint8_linear_322_188" x1="6" y1="58.6667" x2="59.3333" y2="5.3365" gradientUnits="userSpaceOnUse">
<stop stop-color="#733480"/>
<stop offset="1" stop-color="#FD6748"/>
</linearGradient>
<linearGradient id="paint9_linear_322_188" x1="6" y1="58.6667" x2="59.3333" y2="5.3365" gradientUnits="userSpaceOnUse">
<stop stop-color="#733480"/>
<stop offset="1" stop-color="#FD6748"/>
</linearGradient>
<linearGradient id="paint10_linear_322_188" x1="6" y1="58.6667" x2="59.3333" y2="5.3365" gradientUnits="userSpaceOnUse">
<stop stop-color="#733480"/>
<stop offset="1" stop-color="#FD6748"/>
</linearGradient>
</defs>
</svg>
