<svg width="65" height="64" viewBox="0 0 65 64" fill="none" xmlns="http://www.w3.org/2000/svg">
<path d="M38.0839 23.2222C37.9041 23.8978 37.8158 24.5808 37.536 25.1724C37.2722 25.7309 36.8051 26.1937 36.3381 26.8182H37.1073C43.6332 26.8182 50.1602 26.8182 56.6862 26.8182C58.4352 26.8182 59.3321 27.7162 59.3321 29.4727C59.3332 33.1612 59.3342 36.8508 59.3321 40.5393C59.3321 42.2607 58.4246 43.1735 56.717 43.1778C56.1532 43.1789 55.5893 43.1778 54.951 43.1778C54.951 43.4342 54.951 43.6406 54.951 43.8459C54.951 47.5706 54.952 51.2953 54.951 55.0201C54.9499 57.1287 53.8796 58.2022 51.7816 58.2022C48.7846 58.2022 45.7876 58.2032 42.7906 58.2022C40.7713 58.2011 39.6798 57.101 39.6798 55.0701C39.6798 51.3273 39.6798 47.5855 39.6798 43.8427V43.2204H36.4689C36.4689 43.4182 36.4689 43.6236 36.4689 43.8278C36.4689 47.6057 36.4806 51.3836 36.4551 55.1605C36.4519 55.6967 36.3551 56.268 36.1487 56.7585C35.7168 57.7883 34.8805 58.2841 33.7517 58.282C31.109 58.2766 28.4673 58.2809 25.8246 58.2809C20.8413 58.2809 15.857 58.2394 10.8747 58.3011C8.84374 58.3266 7.88623 56.8819 7.88836 55.3254C7.89048 53.7827 7.88836 52.2401 7.88836 50.6974C7.88836 42.9288 7.88623 35.1603 7.8958 27.3917C7.8958 26.9884 7.81495 26.731 7.44471 26.4863C6.6021 25.9288 6.1308 25.0873 6.0542 24.0851C5.98504 23.168 5.99355 22.2424 6.01696 21.3211C6.02228 21.1125 6.18931 20.7774 6.34996 20.7306C6.70849 20.6242 6.77233 20.3657 6.90425 20.0986C7.72558 18.4411 7.99581 16.7037 7.90963 14.8547C7.81601 12.8726 7.88836 10.8832 7.88836 8.89579C7.88836 8.06169 8.05433 7.27441 8.5501 6.58394C9.12673 5.78069 9.90976 5.35407 10.9024 5.35301C18.439 5.34982 25.9768 5.34343 33.5134 5.35726C35.0625 5.36045 35.9093 6.32435 36.4157 7.6755C40.6075 5.95198 44.2865 6.56372 47.1409 10.2278C49.257 12.945 49.2868 16.7559 47.4324 19.6646C45.8504 22.1456 42.4778 24.333 38.085 23.2212L38.0839 23.2222ZM26.0576 42.0511C26.0576 42.5043 26.0246 42.8991 26.0725 43.2821C26.0949 43.4629 26.2342 43.697 26.3896 43.7821C27.3609 44.3183 27.8301 45.1918 27.6652 46.245C27.5226 47.1515 26.7428 47.9366 25.8353 48.0887C24.8192 48.259 23.9277 47.7749 23.3723 46.8025C23.284 46.6482 23.0415 46.4961 22.8659 46.4908C21.7499 46.4631 20.6307 46.5025 19.5157 46.4631C19.0646 46.4472 18.8391 46.5897 18.6242 46.9844C18.0188 48.0962 16.6325 48.4377 15.5452 47.7951C14.4579 47.1525 14.0951 45.7726 14.7484 44.7002C15.1984 43.9608 15.8676 43.5757 16.7379 43.5948C17.6326 43.614 18.2837 44.0491 18.7039 44.83C18.8199 45.046 18.8816 45.2481 19.221 45.2396C20.4615 45.212 21.7031 45.2364 22.9447 45.2184C23.0787 45.2162 23.2755 45.1003 23.334 44.9832C23.6043 44.4353 24.0011 44.0353 24.5437 43.7587C24.6597 43.6991 24.7926 43.5448 24.8001 43.4268C24.8299 42.9746 24.8118 42.5182 24.8118 42.0192H24.116C20.8711 42.0192 17.6252 42.0192 14.3803 42.0192C13.6749 42.0192 13.5547 41.9277 13.3802 41.2596C12.7482 38.8445 12.1152 36.4295 11.4875 34.0134C11.246 33.0835 11.4237 32.8537 12.3812 32.8537C17.0272 32.8537 21.6733 32.8548 26.3193 32.8505C26.7917 32.8505 27.3864 32.9761 27.7013 32.742C27.9918 32.526 27.9854 31.9069 28.1046 31.4643C28.4003 30.3706 29.127 29.8067 30.2675 29.7939C30.7026 29.7897 31.1377 29.7939 31.6069 29.7939C31.4548 28.2055 32.0761 27.1938 33.5379 26.8065C33.0783 26.4288 32.6314 26.0618 32.1825 25.6926C30.4217 27.4427 29.1472 27.4449 27.0704 25.6767C26.4268 26.5246 25.6108 27.0619 24.5075 27.0565C23.416 27.0512 22.6031 26.515 21.9605 25.6735C20.4977 27.4183 18.3071 27.4246 16.8645 25.665C15.2527 27.5576 13.0589 27.2927 11.7822 25.7118C11.3907 26.0363 11.0343 26.4246 10.597 26.6682C10.164 26.9097 9.64911 27.0055 9.17035 27.164V50.8177H35.1763V43.1789C34.7805 43.1789 34.4262 43.182 34.073 43.1789C32.5346 43.1629 31.5952 42.2192 31.5941 40.6808C31.591 37.6657 31.5941 34.6506 31.5941 31.6356C31.5941 31.4472 31.5941 31.2589 31.5941 31.0376C31.1845 31.0376 30.8484 31.0366 30.5122 31.0376C29.5898 31.0419 29.477 31.1398 29.244 32.0441C28.4535 35.1124 27.6524 38.1785 26.8694 41.2489C26.7577 41.6862 26.58 42.0096 26.0608 42.0533L26.0576 42.0511ZM32.8389 31.726C32.8389 34.8336 32.8293 37.8838 32.8464 40.934C32.8495 41.5936 33.3102 41.9267 34.0911 41.9267C41.6639 41.9267 49.2357 41.9267 56.8085 41.9267C57.7224 41.9267 58.0863 41.5575 58.0873 40.6298C58.0884 37.8274 58.0873 35.0251 58.0873 32.2228V31.726H32.8389ZM40.383 22.2711C44.3248 22.2669 47.5196 19.0805 47.5271 15.1462C47.5345 11.2055 44.2918 7.97339 40.3479 7.99041C36.42 8.00743 33.2336 11.2279 33.24 15.1568C33.2464 19.1454 36.5508 22.3073 40.383 22.2722V22.2711ZM9.14588 14.094C9.17674 14.094 9.20759 14.0951 9.23844 14.0961C9.42463 13.6184 9.63315 13.1471 9.78954 12.6599C9.95551 12.1428 10.2672 11.946 10.8141 11.9513C13.0291 11.9736 15.2431 11.9641 17.4581 11.9598C19.0699 11.9566 20.6817 11.9343 22.2935 11.9353C25.6055 11.9385 28.9184 11.9481 32.2304 11.9651C32.5197 11.9662 32.6666 11.8694 32.7878 11.6013C33.2464 10.5895 33.9007 9.7118 34.7188 8.9575C35.3508 8.37448 35.3827 8.08616 34.8954 7.36697C34.5145 6.80523 33.9922 6.58394 33.3113 6.585C25.9204 6.5967 18.5284 6.60947 11.1375 6.57649C9.83104 6.57011 9.18099 7.52868 9.15972 8.42235C9.11397 10.3118 9.14588 12.2035 9.14588 14.0929V14.094ZM9.14482 52.1114C9.14482 53.3221 9.10758 54.4924 9.15652 55.6584C9.19482 56.567 9.77571 57.0393 10.7034 57.0393C18.3624 57.0393 26.0204 57.0393 33.6794 57.0393C34.539 57.0393 35.122 56.6233 35.172 55.7871C35.2454 54.5753 35.1912 53.355 35.1912 52.1114H9.14482ZM25.7033 40.7691C26.2842 38.536 26.8566 36.3369 27.4364 34.1059H12.8302C12.8631 34.2932 12.878 34.4474 12.9163 34.5953C13.4025 36.4795 13.9068 38.3605 14.3707 40.2499C14.4771 40.684 14.675 40.7819 15.0952 40.7787C17.7709 40.7585 20.4466 40.7681 23.1223 40.7681H25.7012L25.7033 40.7691ZM50.956 43.2129H43.5439C43.5183 43.2799 43.496 43.3118 43.496 43.3438C43.4907 46.2684 43.4853 49.192 43.4907 52.1167C43.4907 52.2337 43.5609 52.4231 43.6471 52.4561C44.4067 52.755 44.8578 53.3391 45.1493 54.0636C46.4451 54.0636 47.7026 54.054 48.9602 54.0711C49.2378 54.0742 49.3176 53.9338 49.4676 53.7391C49.7911 53.3157 50.1496 52.8859 50.5837 52.5912C50.8741 52.3933 50.9869 52.2433 50.9858 51.905C50.9741 49.1761 50.9794 46.4461 50.9784 43.7172C50.9784 43.5608 50.9656 43.4055 50.9571 43.214L50.956 43.2129ZM52.2306 43.2033V43.8438C52.2306 46.7706 52.2306 49.6963 52.2306 52.6231C52.2306 53.3444 52.1423 53.4593 51.4624 53.5827C50.905 53.6838 50.5869 53.9913 50.5071 54.5626C50.423 55.1637 50.2432 55.3137 49.6315 55.3158C48.0356 55.3211 46.4398 55.3116 44.8439 55.3211C44.3173 55.3243 44.0088 55.1296 43.9492 54.5721C43.8928 54.037 43.5726 53.7136 43.0438 53.5955C42.2821 53.4253 42.2374 53.3668 42.2374 52.5593C42.2374 49.6325 42.2374 46.7067 42.2374 43.78V43.2161H40.9533C40.9426 43.3544 40.9288 43.4587 40.9288 43.5619C40.9277 47.4813 40.9235 51.4007 40.9309 55.3201C40.933 56.3797 41.5235 56.9446 42.598 56.9457C45.7014 56.95 48.8048 56.9478 51.9082 56.9457C53.1658 56.9457 53.72 56.3904 53.7211 55.1296C53.7222 51.3347 53.7211 47.5387 53.7211 43.7438C53.7211 43.5714 53.7073 43.3991 53.6988 43.2033H52.2306ZM32.8474 30.4121H58.0873C58.0873 30.0631 58.0873 29.7471 58.0873 29.4312C58.0863 28.3949 57.7629 28.0715 56.7213 28.0715C50.04 28.0715 43.3598 28.0715 36.6785 28.0715C35.7412 28.0715 34.805 28.063 33.8677 28.0758C33.307 28.0832 32.8953 28.4343 32.8549 28.962C32.8187 29.4333 32.8474 29.9088 32.8474 30.4121ZM21.5722 13.228H18.8008C18.4954 15.693 18.1943 18.1294 17.8879 20.6008H21.5722V13.228ZM26.8045 13.1961C27.1417 15.7154 27.4662 18.1506 27.795 20.6061H31.4761C30.8366 18.207 30.2068 15.8324 29.561 13.462C29.5312 13.3525 29.3568 13.211 29.2461 13.2078C28.4525 13.1854 27.6577 13.1961 26.8045 13.1961ZM12.9483 20.6327C14.0622 20.6327 15.1218 20.6189 16.1814 20.6402C16.541 20.6476 16.6634 20.537 16.7028 20.172C16.8453 18.8337 17.0304 17.4985 17.1953 16.1622C17.3156 15.1877 17.4273 14.2121 17.5475 13.195C16.7006 13.195 15.9219 13.1801 15.1452 13.2099C15.0175 13.2152 14.825 13.4003 14.7845 13.5376C14.5643 14.2844 14.3813 15.0419 14.1877 15.7962C13.7792 17.3878 13.3717 18.9805 12.9483 20.6317V20.6327ZM25.5597 13.2237H22.8904V20.6019H26.5396C26.2108 18.1272 25.8874 15.6909 25.5586 13.2237H25.5597ZM13.577 13.195C12.7738 13.195 12.0663 13.2152 11.3609 13.1865C11.0162 13.1727 10.8662 13.3035 10.7481 13.611C9.97041 15.6409 9.17567 17.6634 8.38733 19.689C8.27349 19.9805 8.16284 20.2721 8.03411 20.6082H11.6716C12.3025 18.1528 12.9312 15.709 13.577 13.195ZM11.0577 21.9009H7.20214C7.23725 22.6669 7.20427 23.4116 7.32023 24.134C7.48514 25.1639 8.31285 25.8565 9.19908 25.8341C10.0683 25.8128 10.9194 25.0564 11.0407 24.0702C11.1258 23.3776 11.0566 22.6658 11.0566 21.9009H11.0577ZM26.514 21.8775C25.2203 21.8775 24.0234 21.8711 22.8255 21.8913C22.7436 21.8924 22.5968 22.0977 22.5957 22.2094C22.5893 22.8095 22.5744 23.4159 22.6457 24.0095C22.7702 25.0426 23.567 25.8033 24.4788 25.8331C25.3246 25.8607 26.1885 25.1734 26.364 24.1925C26.4959 23.4563 26.4672 22.6924 26.514 21.8775ZM21.3956 21.8785C20.1008 21.8785 18.9008 21.8732 17.7007 21.8902C17.6209 21.8913 17.4762 22.0669 17.4762 22.1605C17.4805 22.8148 17.4528 23.4786 17.556 24.1202C17.7081 25.066 18.5263 25.7394 19.3955 25.7469C20.2679 25.7543 21.0945 25.1032 21.2562 24.1489C21.3786 23.4265 21.352 22.6786 21.3946 21.8775L21.3956 21.8785ZM12.3089 21.9105C12.3525 22.6914 12.3248 23.4403 12.4504 24.1627C12.6153 25.1139 13.4494 25.7618 14.3207 25.7479C15.1888 25.7341 16.0038 25.0585 16.1506 24.1095C16.2602 23.401 16.2357 22.6722 16.2729 21.9115H12.3089V21.9105ZM27.7099 21.8924C27.7099 22.4403 27.7035 22.9329 27.713 23.4254C27.7173 23.6553 27.729 23.8882 27.7737 24.1127C27.9556 25.0128 28.7259 25.7064 29.5664 25.7458C30.4175 25.7852 31.2782 25.1873 31.4601 24.2649C31.6112 23.4989 31.5793 22.6967 31.6293 21.8924H27.7088H27.7099ZM32.8485 21.8743C32.8485 22.5584 32.8187 23.1765 32.8549 23.7893C32.9187 24.8777 33.7528 25.7267 34.7305 25.7469C35.7029 25.7671 36.57 24.9404 36.6849 23.8627C36.7189 23.5467 36.703 23.2254 36.6998 22.9063C36.6998 22.8233 36.687 22.6946 36.636 22.6658C36.1487 22.3924 35.6753 22.002 35.1508 21.9073C34.4316 21.7775 33.6709 21.8743 32.8495 21.8743H32.8485ZM34.0198 20.6157C32.2325 18.3868 31.6569 15.942 32.2091 13.2163H30.792C31.4548 15.7058 32.1091 18.1581 32.7634 20.6157H34.0198ZM24.4405 45.8556C24.4416 46.4386 24.8512 46.8685 25.4172 46.8802C25.98 46.8929 26.4747 46.4078 26.4715 45.8471C26.4683 45.2833 25.9768 44.8088 25.4097 44.8247C24.8458 44.8396 24.4394 45.2726 24.4405 45.8556ZM17.6911 45.8758C17.7018 45.2832 17.2549 44.813 16.6836 44.8162C16.1506 44.8183 15.6676 45.2907 15.6516 45.8258C15.6346 46.3812 16.1229 46.8791 16.6857 46.8802C17.2464 46.8812 17.6805 46.4472 17.6911 45.8758Z" fill="url(#paint0_linear_322_4057)"/>
<path d="M51.7965 9.09793C51.9188 7.5074 52.6051 6.34775 54.0062 5.71154C55.4223 5.06788 56.7979 5.24449 57.9809 6.252C59.1395 7.2393 59.6108 8.52874 59.1512 10.0214C58.8927 10.8608 58.531 11.68 58.1203 12.4577C57.5107 13.6152 56.8287 14.7355 56.1532 15.8569C55.8563 16.3495 55.3563 16.4154 55.0765 15.9792C53.8424 14.0578 52.6242 12.1237 51.9391 9.9182C51.8508 9.63414 51.8348 9.32773 51.7965 9.09687V9.09793ZM55.5712 14.4802C56.516 12.8546 57.4745 11.3608 57.9831 9.6469C58.2714 8.6745 57.8597 7.64145 57.0032 7.04461C56.134 6.43818 54.9871 6.4435 54.1137 7.05844C53.2657 7.65528 52.8647 8.70003 53.1604 9.6735C53.6807 11.3811 54.6275 12.8758 55.5701 14.4791L55.5712 14.4802Z" fill="url(#paint1_linear_322_4057)"/>
<path d="M52.7923 39.2712C52.1721 38.9041 51.3858 39.1509 50.5752 39.252C49.5123 39.3829 48.5772 38.7435 48.1527 37.786C47.7484 36.8742 47.9292 35.7911 48.608 35.0634C49.3261 34.2921 50.3751 34.0687 51.389 34.424C51.605 34.4996 51.8955 34.4804 52.1167 34.4038C53.0711 34.0708 54.1945 34.3006 54.8552 35.0464C55.5819 35.8667 55.7276 36.8093 55.3031 37.8179C54.9159 38.7392 53.9924 39.2988 52.7934 39.2722L52.7923 39.2712ZM51.7188 36.754C51.7125 36.0369 51.1401 35.4837 50.4209 35.4996C49.7315 35.5145 49.174 36.0741 49.1666 36.7582C49.1591 37.4551 49.7496 38.0466 50.4507 38.0455C51.1592 38.0455 51.7252 37.4689 51.7188 36.754ZM52.6902 37.9466C53.2987 38.1094 53.753 37.9551 54.0637 37.503C54.3594 37.0721 54.3509 36.4274 54.0445 36.0071C53.7211 35.5624 53.2615 35.423 52.6944 35.6103C53.0679 36.3859 53.053 37.17 52.6902 37.9455V37.9466Z" fill="url(#paint2_linear_322_4057)"/>
<path d="M40.5905 37.5593C42.0618 37.5593 43.5332 37.5583 45.0046 37.5593C45.5919 37.5593 45.8802 37.77 45.8525 38.1902C45.8174 38.7105 45.4482 38.7935 45.0216 38.7935C42.0608 38.7924 39.0999 38.7924 36.1402 38.7935C35.7093 38.7935 35.3476 38.6956 35.3178 38.1807C35.2933 37.7657 35.5891 37.5604 36.1774 37.5593C37.6488 37.5572 39.1202 37.5593 40.5915 37.5593H40.5905Z" fill="url(#paint3_linear_322_4057)"/>
<path d="M40.582 35.9805C39.0755 35.9805 37.569 35.9858 36.0625 35.9773C35.4731 35.9741 35.0976 35.5028 35.3965 35.1113C35.5529 34.906 35.9263 34.7677 36.2029 34.7655C38.6308 34.739 41.0596 34.7507 43.4875 34.7496C43.9832 34.7496 44.4801 34.7464 44.9759 34.7507C45.5812 34.756 45.8504 34.9443 45.8557 35.3571C45.8621 35.7709 45.5823 35.9773 44.995 35.9784C43.5236 35.9816 42.0523 35.9784 40.582 35.9784V35.9805Z" fill="url(#paint4_linear_322_4057)"/>
<path d="M40.7554 19.4188H40.0415C40.3106 18.4847 39.7596 18.2996 39.0223 18.1602C38.4435 18.0506 38.4361 17.8974 38.7244 17.2985C39.185 17.4006 39.6372 17.5453 40.1 17.5942C40.7841 17.6676 41.2745 17.3602 41.4118 16.8527C41.548 16.3516 41.3128 15.925 40.6883 15.5845C40.4096 15.4324 40.1106 15.3175 39.8244 15.1781C38.8818 14.7217 38.5265 14.2089 38.5861 13.4003C38.6456 12.6035 39.0265 12.2141 40.1106 11.879V10.881H40.7586C40.7777 11.1757 40.7958 11.4694 40.8171 11.8002C41.0447 11.8385 41.2724 11.8609 41.4905 11.9183C41.6905 11.9715 41.882 12.062 42.1097 12.1481C42.0225 12.3779 41.9501 12.5694 41.8991 12.7045C41.382 12.6343 40.916 12.5365 40.4479 12.5173C39.983 12.4982 39.6106 12.7067 39.4968 13.1971C39.384 13.6855 39.6244 14.0238 40.0457 14.2323C40.4734 14.443 40.9288 14.5993 41.349 14.8238C42.2863 15.3239 42.7034 16.1824 42.314 17.0144C42.1193 17.4293 41.7331 17.8442 41.3277 18.0464C40.8798 18.2698 40.7266 18.506 40.7841 18.9603C40.8011 19.0954 40.7671 19.2369 40.7532 19.4177L40.7554 19.4188Z" fill="url(#paint5_linear_322_4057)"/>
<path d="M22.3052 9.72563C21.5275 9.72563 20.7487 9.72563 19.971 9.72563C19.5465 9.72563 19.2178 9.58413 19.2284 9.10112C19.2391 8.6245 19.5657 8.49683 19.9923 8.49789C21.5307 8.50427 23.0691 8.5064 24.6086 8.49683C25.0426 8.49364 25.3448 8.63833 25.3916 9.09474C25.431 9.47561 25.1118 9.71818 24.5873 9.7235C23.8266 9.73095 23.0659 9.72563 22.3063 9.72563H22.3052Z" fill="url(#paint6_linear_322_4057)"/>
<path d="M22.2574 55.1318C21.7786 55.1318 21.2999 55.1286 20.8222 55.1318C20.3966 55.136 20.1232 54.9317 20.1253 54.5083C20.1274 54.1104 20.4019 53.9115 20.7956 53.9093C21.7701 53.9051 22.7446 53.904 23.7202 53.9093C24.1107 53.9115 24.383 54.0913 24.3841 54.5062C24.3862 54.9434 24.116 55.1318 23.6936 55.1307C23.2149 55.1286 22.7361 55.1307 22.2584 55.1307L22.2574 55.1318Z" fill="url(#paint7_linear_322_4057)"/>
<path d="M30.8271 55.1318C30.3664 55.1318 29.9057 55.1275 29.444 55.1328C29.0323 55.1381 28.7355 54.9839 28.7184 54.5424C28.7014 54.0976 28.9897 53.9125 29.4015 53.9104C30.359 53.9051 31.3154 53.9061 32.2729 53.9104C32.6815 53.9115 32.9793 54.0806 32.973 54.5275C32.9666 54.9669 32.6783 55.136 32.2633 55.1328C31.7846 55.1286 31.3058 55.1328 30.8271 55.1328V55.1318Z" fill="url(#paint8_linear_322_4057)"/>
<path d="M13.7366 55.1307C13.2579 55.1307 12.7791 55.1275 12.3003 55.1318C11.8961 55.1349 11.6375 54.9328 11.6226 54.5413C11.6077 54.1466 11.8599 53.9168 12.2599 53.9136C13.2344 53.9051 14.21 53.903 15.1846 53.9157C15.5835 53.921 15.8293 54.1583 15.8091 54.5551C15.791 54.9179 15.5537 55.1286 15.1718 55.1307C14.6931 55.1339 14.2143 55.1307 13.7355 55.1307H13.7366Z" fill="url(#paint9_linear_322_4057)"/>
<path d="M50.3751 46.8174C50.1687 46.8302 49.9613 46.844 49.7613 46.8568C49.6687 47.1834 49.5847 47.4813 49.4868 47.826C49.2953 47.7579 49.157 47.7089 49.074 47.6802C49.1155 47.2419 49.2187 46.8493 49.1623 46.4823C49.1283 46.2588 48.8793 45.9673 48.6676 45.9035C48.491 45.8503 48.158 46.029 48.0197 46.2046C47.7824 46.5035 47.6399 46.8791 47.4633 47.2249C47.1803 47.777 46.7472 48.109 46.1121 48.077C45.4812 48.0451 45.1025 47.6994 44.861 47.1014C44.7822 46.9068 44.379 46.844 44.0183 46.6695C44.113 46.5993 44.2375 46.4301 44.3482 46.4386C44.7365 46.4674 44.8833 46.3259 44.9078 45.9397C44.9227 45.7035 45.0535 45.4758 45.145 45.2035C45.3237 45.2609 45.4674 45.3067 45.5802 45.3428C45.4918 45.7365 45.3716 46.0907 45.3418 46.4514C45.3089 46.8578 45.4248 47.2451 45.8823 47.3738C46.3653 47.51 46.6547 47.2302 46.8536 46.8365C47.0122 46.5216 47.1271 46.1844 47.2941 45.8737C47.5399 45.4162 47.9218 45.1705 48.4633 45.2056C49.0038 45.2418 49.3793 45.5301 49.5272 46.0216C49.6304 46.3642 49.84 46.3205 50.0847 46.362C50.2336 46.3876 50.3613 46.5365 50.4986 46.6291C50.4571 46.6918 50.4156 46.7536 50.3741 46.8163L50.3751 46.8174Z" fill="url(#paint10_linear_322_4057)"/>
<path d="M57.1628 9.04473C57.1554 9.92458 56.4521 10.6299 55.5787 10.6353C54.6967 10.6406 53.9466 9.89053 53.9573 9.01388C53.9679 8.12234 54.7063 7.41591 55.6085 7.43399C56.4904 7.45208 57.1692 8.15532 57.1617 9.04473H57.1628ZM55.5404 9.5586C55.7329 9.30113 55.9276 9.15325 55.9117 9.03197C55.8936 8.89792 55.7 8.72769 55.5531 8.69258C55.4691 8.67237 55.2446 8.88302 55.235 9.00112C55.2244 9.13729 55.3818 9.2873 55.5404 9.55753V9.5586Z" fill="url(#paint11_linear_322_4057)"/>
<defs>
<linearGradient id="paint0_linear_322_4057" x1="6" y1="58.3014" x2="58.9668" y2="4.96937" gradientUnits="userSpaceOnUse">
<stop stop-color="#733480"/>
<stop offset="1" stop-color="#FD6748"/>
</linearGradient>
<linearGradient id="paint1_linear_322_4057" x1="6" y1="58.3014" x2="58.9668" y2="4.96937" gradientUnits="userSpaceOnUse">
<stop stop-color="#733480"/>
<stop offset="1" stop-color="#FD6748"/>
</linearGradient>
<linearGradient id="paint2_linear_322_4057" x1="6" y1="58.3014" x2="58.9668" y2="4.96937" gradientUnits="userSpaceOnUse">
<stop stop-color="#733480"/>
<stop offset="1" stop-color="#FD6748"/>
</linearGradient>
<linearGradient id="paint3_linear_322_4057" x1="6" y1="58.3014" x2="58.9668" y2="4.96937" gradientUnits="userSpaceOnUse">
<stop stop-color="#733480"/>
<stop offset="1" stop-color="#FD6748"/>
</linearGradient>
<linearGradient id="paint4_linear_322_4057" x1="6" y1="58.3014" x2="58.9668" y2="4.96937" gradientUnits="userSpaceOnUse">
<stop stop-color="#733480"/>
<stop offset="1" stop-color="#FD6748"/>
</linearGradient>
<linearGradient id="paint5_linear_322_4057" x1="6" y1="58.3014" x2="58.9668" y2="4.96937" gradientUnits="userSpaceOnUse">
<stop stop-color="#733480"/>
<stop offset="1" stop-color="#FD6748"/>
</linearGradient>
<linearGradient id="paint6_linear_322_4057" x1="6" y1="58.3014" x2="58.9668" y2="4.96937" gradientUnits="userSpaceOnUse">
<stop stop-color="#733480"/>
<stop offset="1" stop-color="#FD6748"/>
</linearGradient>
<linearGradient id="paint7_linear_322_4057" x1="6" y1="58.3014" x2="58.9668" y2="4.96937" gradientUnits="userSpaceOnUse">
<stop stop-color="#733480"/>
<stop offset="1" stop-color="#FD6748"/>
</linearGradient>
<linearGradient id="paint8_linear_322_4057" x1="6" y1="58.3014" x2="58.9668" y2="4.96937" gradientUnits="userSpaceOnUse">
<stop stop-color="#733480"/>
<stop offset="1" stop-color="#FD6748"/>
</linearGradient>
<linearGradient id="paint9_linear_322_4057" x1="6" y1="58.3014" x2="58.9668" y2="4.96937" gradientUnits="userSpaceOnUse">
<stop stop-color="#733480"/>
<stop offset="1" stop-color="#FD6748"/>
</linearGradient>
<linearGradient id="paint10_linear_322_4057" x1="6" y1="58.3014" x2="58.9668" y2="4.96937" gradientUnits="userSpaceOnUse">
<stop stop-color="#733480"/>
<stop offset="1" stop-color="#FD6748"/>
</linearGradient>
<linearGradient id="paint11_linear_322_4057" x1="6" y1="58.3014" x2="58.9668" y2="4.96937" gradientUnits="userSpaceOnUse">
<stop stop-color="#733480"/>
<stop offset="1" stop-color="#FD6748"/>
</linearGradient>
</defs>
</svg>
