<svg width="80" height="80" viewBox="0 0 80 80" fill="none" xmlns="http://www.w3.org/2000/svg">
<path d="M40 79.9968C62.0914 79.9968 80 62.0889 80 39.9984C80 17.9079 62.0914 0 40 0C17.9086 0 0 17.9079 0 39.9984C0 62.0889 17.9086 79.9968 40 79.9968Z" fill="#2ABDE2"/>
<path d="M5.41182 60.1577H11.2484C11.2484 60.1577 14.1017 60.3701 14.853 57.8244L26.5262 23.3421C26.5262 23.3421 27.1603 21.2213 28.7454 21.2213H18.0361C16.4509 21.1135 15.4998 23.4404 15.4998 23.4404L3.71252 56.9748C4.2047 58.0738 4.77249 59.1373 5.41182 60.1577Z" fill="white"/>
<path d="M74.8197 59.7329H69.6204C68.7707 59.7329 66.9668 59.3081 66.4501 57.3997L58.8096 35.1195L62.6013 23.8716C62.6864 23.6991 62.8056 23.5455 62.9516 23.4202C63.0976 23.2949 63.2675 23.2005 63.4509 23.1425C63.6411 23.073 63.8443 23.0464 64.046 23.0645C64.2476 23.0825 64.4428 23.1449 64.6176 23.2471L76.5 56.4454C76.5 56.4454 75.6503 58.5663 74.8197 59.7329Z" fill="white"/>
<path d="M47.1111 59.5205C47.9576 59.5205 48.3792 59.0957 48.8072 57.5043L60.4804 23.022C60.4804 23.022 61.1144 20.9011 62.6996 20.9011H51.9934C50.5097 20.9011 49.5523 23.2344 49.5523 23.2344L41.2777 46.6939L44.9902 57.1967C44.9902 57.1967 45.415 58.7818 46.7941 59.4159" fill="white"/>
<path d="M28.4348 24.1918L24.6304 35.4365L32.2709 57.7166C32.8003 59.6188 34.712 60.0531 35.4412 60.0531H45.3104C45.3104 60.0531 43.2941 59.8407 42.4571 57.1999L30.5589 23.4595C30.3811 23.3653 30.1864 23.3076 29.9861 23.2896C29.7858 23.2716 29.5839 23.2938 29.3922 23.3548C28.9802 23.5052 28.6389 23.8036 28.4348 24.1918Z" fill="white"/>
</svg>
