<svg width="160" height="120" viewBox="0 0 160 120" fill="none" xmlns="http://www.w3.org/2000/svg">
<rect width="160" height="120" rx="12" fill="white"/>
<path d="M16.016 37.136C15.7493 37.136 15.5147 37.1147 15.312 37.072C15.1093 37.04 14.928 36.992 14.768 36.928V35.488C14.9387 35.5307 15.12 35.568 15.312 35.6C15.504 35.632 15.7067 35.648 15.92 35.648C16.1867 35.648 16.4373 35.5947 16.672 35.488C16.9173 35.3813 17.1093 35.1893 17.248 34.912C17.3867 34.6347 17.456 34.2453 17.456 33.744V22.576H19.184V33.664C19.184 34.464 19.0507 35.12 18.784 35.632C18.528 36.1547 18.16 36.5333 17.68 36.768C17.2107 37.0133 16.656 37.136 16.016 37.136ZM25.3606 25.216C26.118 25.216 26.7686 25.376 27.3126 25.696C27.8566 26.0053 28.2726 26.4533 28.5606 27.04C28.8593 27.6267 29.0086 28.32 29.0086 29.12V30.048H23.2166C23.238 30.9333 23.4673 31.6107 23.9046 32.08C24.3526 32.5493 24.9766 32.784 25.7766 32.784C26.3313 32.784 26.822 32.736 27.2486 32.64C27.686 32.5333 28.134 32.3787 28.5926 32.176V33.584C28.166 33.776 27.7286 33.92 27.2806 34.016C26.8433 34.112 26.3206 34.16 25.7126 34.16C24.8806 34.16 24.1446 33.9947 23.5046 33.664C22.8646 33.3333 22.3633 32.8427 22.0006 32.192C21.6486 31.5307 21.4726 30.72 21.4726 29.76C21.4726 28.7893 21.6326 27.968 21.9526 27.296C22.2833 26.624 22.7366 26.112 23.3126 25.76C23.8993 25.3973 24.582 25.216 25.3606 25.216ZM25.3606 26.528C24.7526 26.528 24.262 26.7253 23.8886 27.12C23.526 27.5147 23.3126 28.0747 23.2486 28.8H27.3126C27.3126 28.352 27.2433 27.9573 27.1046 27.616C26.966 27.2747 26.7526 27.008 26.4646 26.816C26.1766 26.624 25.8086 26.528 25.3606 26.528ZM35.4929 25.216C36.4955 25.216 37.2635 25.4667 37.7969 25.968C38.3302 26.4693 38.5969 27.2747 38.5969 28.384V34H36.9169V28.624C36.9169 27.952 36.7729 27.4507 36.4849 27.12C36.2075 26.7787 35.7595 26.608 35.1409 26.608C34.2662 26.608 33.6582 26.8693 33.3169 27.392C32.9862 27.9147 32.8209 28.6667 32.8209 29.648V34H31.1249V25.376H32.4689L32.7089 26.528H32.8049C32.9969 26.2293 33.2315 25.984 33.5089 25.792C33.7862 25.6 34.0955 25.456 34.4369 25.36C34.7782 25.264 35.1302 25.216 35.4929 25.216ZM42.899 25.376V34H41.203V25.376H42.899ZM42.067 22.096C42.323 22.096 42.547 22.1707 42.739 22.32C42.931 22.4693 43.027 22.72 43.027 23.072C43.027 23.4133 42.931 23.664 42.739 23.824C42.547 23.9733 42.323 24.048 42.067 24.048C41.7897 24.048 41.555 23.9733 41.363 23.824C41.1817 23.664 41.091 23.4133 41.091 23.072C41.091 22.72 41.1817 22.4693 41.363 22.32C41.555 22.1707 41.7897 22.096 42.067 22.096ZM51.2904 31.568C51.2904 32.1333 51.1517 32.608 50.8744 32.992C50.597 33.376 50.197 33.6693 49.6744 33.872C49.1517 34.064 48.5224 34.16 47.7864 34.16C47.1784 34.16 46.6557 34.112 46.2184 34.016C45.7917 33.9307 45.397 33.8027 45.0344 33.632V32.144C45.4184 32.3253 45.861 32.4907 46.3624 32.64C46.8637 32.7787 47.3544 32.848 47.8344 32.848C48.4744 32.848 48.933 32.7467 49.2104 32.544C49.4984 32.3413 49.6424 32.0693 49.6424 31.728C49.6424 31.536 49.589 31.3653 49.4824 31.216C49.3757 31.056 49.173 30.896 48.8744 30.736C48.5864 30.5653 48.1597 30.3733 47.5944 30.16C47.0504 29.936 46.5864 29.7173 46.2024 29.504C45.8184 29.28 45.525 29.0187 45.3224 28.72C45.1197 28.4107 45.0184 28.016 45.0184 27.536C45.0184 26.7893 45.317 26.2187 45.9144 25.824C46.5224 25.4187 47.3224 25.216 48.3144 25.216C48.837 25.216 49.3277 25.2693 49.7864 25.376C50.2557 25.472 50.709 25.6213 51.1464 25.824L50.5864 27.12C50.341 27.0027 50.085 26.9067 49.8184 26.832C49.5624 26.7467 49.301 26.6773 49.0344 26.624C48.7784 26.5707 48.5117 26.544 48.2344 26.544C47.7224 26.544 47.333 26.624 47.0664 26.784C46.7997 26.944 46.6664 27.168 46.6664 27.456C46.6664 27.6587 46.725 27.8347 46.8424 27.984C46.9704 28.1333 47.189 28.2827 47.4984 28.432C47.8077 28.5813 48.229 28.7627 48.7624 28.976C49.2957 29.1787 49.749 29.3867 50.1224 29.6C50.5064 29.8133 50.7944 30.0747 50.9864 30.384C51.189 30.6933 51.2904 31.088 51.2904 31.568ZM59.3726 34H57.6606V22.576H64.0926V24.048H59.3726V27.776H63.7886V29.248H59.3726V34ZM67.6178 25.376V34H65.9218V25.376H67.6178ZM66.7858 22.096C67.0418 22.096 67.2658 22.1707 67.4578 22.32C67.6498 22.4693 67.7458 22.72 67.7458 23.072C67.7458 23.4133 67.6498 23.664 67.4578 23.824C67.2658 23.9733 67.0418 24.048 66.7858 24.048C66.5084 24.048 66.2738 23.9733 66.0818 23.824C65.9004 23.664 65.8098 23.4133 65.8098 23.072C65.8098 22.72 65.9004 22.4693 66.0818 22.32C66.2738 22.1707 66.5084 22.096 66.7858 22.096ZM71.9771 34H70.2811V21.84H71.9771V34ZM78.0325 25.216C78.7898 25.216 79.4405 25.376 79.9845 25.696C80.5285 26.0053 80.9445 26.4533 81.2325 27.04C81.5312 27.6267 81.6805 28.32 81.6805 29.12V30.048H75.8885C75.9098 30.9333 76.1392 31.6107 76.5765 32.08C77.0245 32.5493 77.6485 32.784 78.4485 32.784C79.0032 32.784 79.4938 32.736 79.9205 32.64C80.3578 32.5333 80.8058 32.3787 81.2645 32.176V33.584C80.8378 33.776 80.4005 33.92 79.9525 34.016C79.5152 34.112 78.9925 34.16 78.3845 34.16C77.5525 34.16 76.8165 33.9947 76.1765 33.664C75.5365 33.3333 75.0352 32.8427 74.6725 32.192C74.3205 31.5307 74.1445 30.72 74.1445 29.76C74.1445 28.7893 74.3045 27.968 74.6245 27.296C74.9552 26.624 75.4085 26.112 75.9845 25.76C76.5712 25.3973 77.2538 25.216 78.0325 25.216ZM78.0325 26.528C77.4245 26.528 76.9338 26.7253 76.5605 27.12C76.1978 27.5147 75.9845 28.0747 75.9205 28.8H79.9845C79.9845 28.352 79.9152 27.9573 79.7765 27.616C79.6378 27.2747 79.4245 27.008 79.1365 26.816C78.8485 26.624 78.4805 26.528 78.0325 26.528Z" fill="#111111"/>
<path d="M17.152 65.136C17.152 64.7413 17.248 64.464 17.44 64.304C17.632 64.144 17.8613 64.064 18.128 64.064C18.4053 64.064 18.64 64.144 18.832 64.304C19.0347 64.464 19.136 64.7413 19.136 65.136C19.136 65.52 19.0347 65.7973 18.832 65.968C18.64 66.1387 18.4053 66.224 18.128 66.224C17.8613 66.224 17.632 66.1387 17.44 65.968C17.248 65.7973 17.152 65.52 17.152 65.136ZM24.6813 66.16C23.6146 66.16 22.7613 65.792 22.1213 65.056C21.4813 64.3093 21.1613 63.2 21.1613 61.728C21.1613 60.256 21.4813 59.1467 22.1213 58.4C22.7719 57.6427 23.6306 57.264 24.6973 57.264C25.1453 57.264 25.5346 57.3227 25.8653 57.44C26.1959 57.5467 26.4839 57.696 26.7293 57.888C26.9746 58.08 27.1826 58.2933 27.3533 58.528H27.4493C27.4386 58.3893 27.4173 58.1867 27.3853 57.92C27.3639 57.6427 27.3533 57.424 27.3533 57.264V53.84H28.7613V66H27.6253L27.4173 64.848H27.3533C27.1826 65.0933 26.9746 65.3173 26.7293 65.52C26.4839 65.712 26.1906 65.8667 25.8493 65.984C25.5186 66.1013 25.1293 66.16 24.6813 66.16ZM24.9053 64.992C25.8119 64.992 26.4466 64.7467 26.8093 64.256C27.1826 63.7547 27.3693 63.0027 27.3693 62V61.744C27.3693 60.6773 27.1933 59.8613 26.8413 59.296C26.4893 58.72 25.8386 58.432 24.8893 58.432C24.1319 58.432 23.5613 58.736 23.1773 59.344C22.8039 59.9413 22.6173 60.7467 22.6173 61.76C22.6173 62.784 22.8039 63.5787 23.1773 64.144C23.5613 64.7093 24.1373 64.992 24.9053 64.992ZM38.941 61.696C38.941 62.4107 38.845 63.0453 38.653 63.6C38.4717 64.144 38.205 64.608 37.853 64.992C37.5117 65.376 37.0903 65.6693 36.589 65.872C36.0983 66.064 35.549 66.16 34.941 66.16C34.3757 66.16 33.853 66.064 33.373 65.872C32.893 65.6693 32.477 65.376 32.125 64.992C31.773 64.608 31.4957 64.144 31.293 63.6C31.101 63.0453 31.005 62.4107 31.005 61.696C31.005 60.7467 31.165 59.9467 31.485 59.296C31.805 58.6347 32.2637 58.1333 32.861 57.792C33.4583 57.44 34.1677 57.264 34.989 57.264C35.7677 57.264 36.4503 57.44 37.037 57.792C37.6343 58.1333 38.0983 58.6347 38.429 59.296C38.7703 59.9467 38.941 60.7467 38.941 61.696ZM32.461 61.696C32.461 62.368 32.5463 62.9547 32.717 63.456C32.8983 63.9467 33.1757 64.3253 33.549 64.592C33.9223 64.8587 34.397 64.992 34.973 64.992C35.549 64.992 36.0237 64.8587 36.397 64.592C36.7703 64.3253 37.0423 63.9467 37.213 63.456C37.3943 62.9547 37.485 62.368 37.485 61.696C37.485 61.0133 37.3943 60.432 37.213 59.952C37.0317 59.472 36.7543 59.104 36.381 58.848C36.0183 58.5813 35.5437 58.448 34.957 58.448C34.0823 58.448 33.4477 58.736 33.053 59.312C32.6583 59.888 32.461 60.6827 32.461 61.696ZM44.6125 66.16C43.8552 66.16 43.1778 66.0053 42.5805 65.696C41.9938 65.3867 41.5298 64.9067 41.1885 64.256C40.8578 63.6053 40.6925 62.7733 40.6925 61.76C40.6925 60.704 40.8685 59.8453 41.2205 59.184C41.5725 58.5227 42.0472 58.0373 42.6445 57.728C43.2525 57.4187 43.9405 57.264 44.7085 57.264C45.1458 57.264 45.5672 57.312 45.9725 57.408C46.3778 57.4933 46.7085 57.6 46.9645 57.728L46.5325 58.896C46.2765 58.8 45.9778 58.7093 45.6365 58.624C45.2952 58.5387 44.9752 58.496 44.6765 58.496C44.1005 58.496 43.6258 58.6187 43.2525 58.864C42.8792 59.1093 42.6018 59.472 42.4205 59.952C42.2392 60.432 42.1485 61.0293 42.1485 61.744C42.1485 62.4267 42.2392 63.008 42.4205 63.488C42.6018 63.968 42.8738 64.3307 43.2365 64.576C43.5992 64.8213 44.0525 64.944 44.5965 64.944C45.0658 64.944 45.4765 64.896 45.8285 64.8C46.1912 64.704 46.5218 64.5867 46.8205 64.448V65.696C46.5325 65.8453 46.2125 65.9573 45.8605 66.032C45.5192 66.1173 45.1032 66.16 44.6125 66.16ZM50.892 61.616L47.932 57.424H49.532L51.74 60.656L53.932 57.424H55.516L52.556 61.616L55.676 66H54.076L51.74 62.576L49.372 66H47.788L50.892 61.616Z" fill="url(#paint0_linear_311_6997)"/>
<path d="M69.152 65.136C69.152 64.7413 69.248 64.464 69.44 64.304C69.632 64.144 69.8613 64.064 70.128 64.064C70.4053 64.064 70.64 64.144 70.832 64.304C71.0347 64.464 71.136 64.7413 71.136 65.136C71.136 65.52 71.0347 65.7973 70.832 65.968C70.64 66.1387 70.4053 66.224 70.128 66.224C69.8613 66.224 69.632 66.1387 69.44 65.968C69.248 65.7973 69.152 65.52 69.152 65.136ZM76.6813 66.16C75.6146 66.16 74.7613 65.792 74.1213 65.056C73.4813 64.3093 73.1613 63.2 73.1613 61.728C73.1613 60.256 73.4813 59.1467 74.1213 58.4C74.7719 57.6427 75.6306 57.264 76.6973 57.264C77.1453 57.264 77.5346 57.3227 77.8653 57.44C78.1959 57.5467 78.4839 57.696 78.7293 57.888C78.9746 58.08 79.1826 58.2933 79.3533 58.528H79.4493C79.4386 58.3893 79.4173 58.1867 79.3853 57.92C79.3639 57.6427 79.3533 57.424 79.3533 57.264V53.84H80.7613V66H79.6253L79.4173 64.848H79.3533C79.1826 65.0933 78.9746 65.3173 78.7293 65.52C78.4839 65.712 78.1906 65.8667 77.8493 65.984C77.5186 66.1013 77.1293 66.16 76.6813 66.16ZM76.9053 64.992C77.8119 64.992 78.4466 64.7467 78.8093 64.256C79.1826 63.7547 79.3693 63.0027 79.3693 62V61.744C79.3693 60.6773 79.1933 59.8613 78.8413 59.296C78.4893 58.72 77.8386 58.432 76.8893 58.432C76.1319 58.432 75.5613 58.736 75.1773 59.344C74.8039 59.9413 74.6173 60.7467 74.6173 61.76C74.6173 62.784 74.8039 63.5787 75.1773 64.144C75.5613 64.7093 76.1373 64.992 76.9053 64.992ZM90.941 61.696C90.941 62.4107 90.845 63.0453 90.653 63.6C90.4717 64.144 90.205 64.608 89.853 64.992C89.5117 65.376 89.0903 65.6693 88.589 65.872C88.0983 66.064 87.549 66.16 86.941 66.16C86.3757 66.16 85.853 66.064 85.373 65.872C84.893 65.6693 84.477 65.376 84.125 64.992C83.773 64.608 83.4957 64.144 83.293 63.6C83.101 63.0453 83.005 62.4107 83.005 61.696C83.005 60.7467 83.165 59.9467 83.485 59.296C83.805 58.6347 84.2637 58.1333 84.861 57.792C85.4583 57.44 86.1677 57.264 86.989 57.264C87.7677 57.264 88.4503 57.44 89.037 57.792C89.6343 58.1333 90.0983 58.6347 90.429 59.296C90.7703 59.9467 90.941 60.7467 90.941 61.696ZM84.461 61.696C84.461 62.368 84.5463 62.9547 84.717 63.456C84.8983 63.9467 85.1757 64.3253 85.549 64.592C85.9223 64.8587 86.397 64.992 86.973 64.992C87.549 64.992 88.0237 64.8587 88.397 64.592C88.7703 64.3253 89.0423 63.9467 89.213 63.456C89.3943 62.9547 89.485 62.368 89.485 61.696C89.485 61.0133 89.3943 60.432 89.213 59.952C89.0317 59.472 88.7543 59.104 88.381 58.848C88.0183 58.5813 87.5437 58.448 86.957 58.448C86.0823 58.448 85.4477 58.736 85.053 59.312C84.6583 59.888 84.461 60.6827 84.461 61.696ZM96.6125 66.16C95.8552 66.16 95.1778 66.0053 94.5805 65.696C93.9938 65.3867 93.5298 64.9067 93.1885 64.256C92.8578 63.6053 92.6925 62.7733 92.6925 61.76C92.6925 60.704 92.8685 59.8453 93.2205 59.184C93.5725 58.5227 94.0472 58.0373 94.6445 57.728C95.2525 57.4187 95.9405 57.264 96.7085 57.264C97.1458 57.264 97.5672 57.312 97.9725 57.408C98.3778 57.4933 98.7085 57.6 98.9645 57.728L98.5325 58.896C98.2765 58.8 97.9778 58.7093 97.6365 58.624C97.2952 58.5387 96.9752 58.496 96.6765 58.496C96.1005 58.496 95.6258 58.6187 95.2525 58.864C94.8792 59.1093 94.6018 59.472 94.4205 59.952C94.2392 60.432 94.1485 61.0293 94.1485 61.744C94.1485 62.4267 94.2392 63.008 94.4205 63.488C94.6018 63.968 94.8738 64.3307 95.2365 64.576C95.5992 64.8213 96.0525 64.944 96.5965 64.944C97.0658 64.944 97.4765 64.896 97.8285 64.8C98.1912 64.704 98.5218 64.5867 98.8205 64.448V65.696C98.5325 65.8453 98.2125 65.9573 97.8605 66.032C97.5192 66.1173 97.1032 66.16 96.6125 66.16Z" fill="url(#paint1_linear_311_6997)"/>
<path d="M113.152 65.136C113.152 64.7413 113.248 64.464 113.44 64.304C113.632 64.144 113.861 64.064 114.128 64.064C114.405 64.064 114.64 64.144 114.832 64.304C115.035 64.464 115.136 64.7413 115.136 65.136C115.136 65.52 115.035 65.7973 114.832 65.968C114.64 66.1387 114.405 66.224 114.128 66.224C113.861 66.224 113.632 66.1387 113.44 65.968C113.248 65.7973 113.152 65.52 113.152 65.136ZM121.721 57.264C122.777 57.264 123.625 57.632 124.265 58.368C124.916 59.104 125.241 60.2133 125.241 61.696C125.241 62.6667 125.092 63.488 124.793 64.16C124.505 64.8213 124.095 65.3227 123.561 65.664C123.039 65.9947 122.42 66.16 121.705 66.16C121.268 66.16 120.879 66.1013 120.537 65.984C120.196 65.8667 119.903 65.7173 119.657 65.536C119.423 65.344 119.22 65.136 119.049 64.912H118.953C118.975 65.0933 118.996 65.3227 119.017 65.6C119.039 65.8773 119.049 66.1173 119.049 66.32V69.84H117.641V57.424H118.793L118.985 58.592H119.049C119.22 58.3467 119.423 58.1227 119.657 57.92C119.903 57.7173 120.191 57.5573 120.521 57.44C120.863 57.3227 121.263 57.264 121.721 57.264ZM121.465 58.448C120.889 58.448 120.425 58.56 120.073 58.784C119.721 58.9973 119.465 59.3227 119.305 59.76C119.145 60.1973 119.06 60.752 119.049 61.424V61.696C119.049 62.4 119.124 62.9973 119.273 63.488C119.423 63.9787 119.673 64.352 120.025 64.608C120.388 64.864 120.879 64.992 121.497 64.992C122.02 64.992 122.447 64.848 122.777 64.56C123.119 64.272 123.369 63.8827 123.529 63.392C123.7 62.8907 123.785 62.32 123.785 61.68C123.785 60.6987 123.593 59.9147 123.209 59.328C122.836 58.7413 122.255 58.448 121.465 58.448ZM130.525 66.16C129.458 66.16 128.605 65.792 127.965 65.056C127.325 64.3093 127.005 63.2 127.005 61.728C127.005 60.256 127.325 59.1467 127.965 58.4C128.616 57.6427 129.474 57.264 130.541 57.264C130.989 57.264 131.378 57.3227 131.709 57.44C132.04 57.5467 132.328 57.696 132.573 57.888C132.818 58.08 133.026 58.2933 133.197 58.528H133.293C133.282 58.3893 133.261 58.1867 133.229 57.92C133.208 57.6427 133.197 57.424 133.197 57.264V53.84H134.605V66H133.469L133.261 64.848H133.197C133.026 65.0933 132.818 65.3173 132.573 65.52C132.328 65.712 132.034 65.8667 131.693 65.984C131.362 66.1013 130.973 66.16 130.525 66.16ZM130.749 64.992C131.656 64.992 132.29 64.7467 132.653 64.256C133.026 63.7547 133.213 63.0027 133.213 62V61.744C133.213 60.6773 133.037 59.8613 132.685 59.296C132.333 58.72 131.682 58.432 130.733 58.432C129.976 58.432 129.405 58.736 129.021 59.344C128.648 59.9413 128.461 60.7467 128.461 61.76C128.461 62.784 128.648 63.5787 129.021 64.144C129.405 64.7093 129.981 64.992 130.749 64.992ZM141.281 58.512H139.121V66H137.713V58.512H136.209V57.856L137.713 57.376V56.88C137.713 56.144 137.819 55.5467 138.033 55.088C138.257 54.6293 138.577 54.2933 138.993 54.08C139.409 53.8667 139.91 53.76 140.497 53.76C140.838 53.76 141.147 53.792 141.425 53.856C141.713 53.9093 141.958 53.9733 142.161 54.048L141.793 55.152C141.622 55.0987 141.425 55.0453 141.201 54.992C140.977 54.9387 140.747 54.912 140.513 54.912C140.043 54.912 139.691 55.072 139.457 55.392C139.233 55.7013 139.121 56.192 139.121 56.864V57.424H141.281V58.512Z" fill="url(#paint2_linear_311_6997)"/>
<path d="M17.152 97.136C17.152 96.7413 17.248 96.464 17.44 96.304C17.632 96.144 17.8613 96.064 18.128 96.064C18.4053 96.064 18.64 96.144 18.832 96.304C19.0347 96.464 19.136 96.7413 19.136 97.136C19.136 97.52 19.0347 97.7973 18.832 97.968C18.64 98.1387 18.4053 98.224 18.128 98.224C17.8613 98.224 17.632 98.1387 17.44 97.968C17.248 97.7973 17.152 97.52 17.152 97.136ZM24.5052 97.008C24.7186 97.008 24.9373 96.992 25.1613 96.96C25.3853 96.9173 25.5666 96.8747 25.7053 96.832V97.904C25.5559 97.9787 25.3426 98.0373 25.0653 98.08C24.7879 98.1333 24.5213 98.16 24.2653 98.16C23.8173 98.16 23.4013 98.0853 23.0173 97.936C22.6439 97.776 22.3399 97.504 22.1053 97.12C21.8706 96.736 21.7533 96.1973 21.7533 95.504V90.512H20.5373V89.84L21.7693 89.28L22.3293 87.456H23.1613V89.424H25.6413V90.512H23.1613V95.472C23.1613 95.9947 23.2839 96.384 23.5293 96.64C23.7853 96.8853 24.1106 97.008 24.5052 97.008ZM29.4545 93.616L26.4945 89.424H28.0945L30.3025 92.656L32.4945 89.424H34.0785L31.1185 93.616L34.2385 98H32.6385L30.3025 94.576L27.9345 98H26.3505L29.4545 93.616ZM38.7552 97.008C38.9686 97.008 39.1873 96.992 39.4113 96.96C39.6353 96.9173 39.8166 96.8747 39.9553 96.832V97.904C39.8059 97.9787 39.5926 98.0373 39.3153 98.08C39.0379 98.1333 38.7713 98.16 38.5153 98.16C38.0673 98.16 37.6513 98.0853 37.2673 97.936C36.8939 97.776 36.5899 97.504 36.3553 97.12C36.1206 96.736 36.0033 96.1973 36.0033 95.504V90.512H34.7873V89.84L36.0193 89.28L36.5793 87.456H37.4113V89.424H39.8913V90.512H37.4113V95.472C37.4113 95.9947 37.5339 96.384 37.7793 96.64C38.0353 96.8853 38.3606 97.008 38.7552 97.008Z" fill="url(#paint3_linear_311_6997)"/>
<path d="M54.152 97.136C54.152 96.7413 54.248 96.464 54.44 96.304C54.632 96.144 54.8613 96.064 55.128 96.064C55.4053 96.064 55.64 96.144 55.832 96.304C56.0347 96.464 56.136 96.7413 56.136 97.136C56.136 97.52 56.0347 97.7973 55.832 97.968C55.64 98.1387 55.4053 98.224 55.128 98.224C54.8613 98.224 54.632 98.1387 54.44 97.968C54.248 97.7973 54.152 97.52 54.152 97.136ZM60.6733 93.616L57.7133 89.424H59.3133L61.5213 92.656L63.7133 89.424H65.2973L62.3373 93.616L65.4573 98H63.8573L61.5213 94.576L59.1533 98H57.5693L60.6733 93.616ZM68.518 98H67.11V85.84H68.518V98ZM76.819 95.632C76.819 96.1867 76.6803 96.6507 76.403 97.024C76.1257 97.3973 75.731 97.68 75.219 97.872C74.707 98.064 74.099 98.16 73.395 98.16C72.7977 98.16 72.2803 98.112 71.843 98.016C71.4163 97.92 71.0377 97.7867 70.707 97.616V96.336C71.0483 96.5067 71.459 96.6667 71.939 96.816C72.4297 96.9547 72.9257 97.024 73.427 97.024C74.1417 97.024 74.659 96.912 74.979 96.688C75.299 96.4533 75.459 96.144 75.459 95.76C75.459 95.5467 75.4003 95.3547 75.283 95.184C75.1657 95.0133 74.9523 94.8427 74.643 94.672C74.3443 94.5013 73.9123 94.3093 73.347 94.096C72.7923 93.8827 72.3177 93.6693 71.923 93.456C71.5283 93.2427 71.2243 92.9867 71.011 92.688C70.7977 92.3893 70.691 92.0053 70.691 91.536C70.691 90.8107 70.9843 90.2507 71.571 89.856C72.1683 89.4613 72.947 89.264 73.907 89.264C74.4297 89.264 74.915 89.3173 75.363 89.424C75.8217 89.52 76.2483 89.6587 76.643 89.84L76.163 90.96C75.9283 90.8533 75.6777 90.7627 75.411 90.688C75.155 90.6027 74.8937 90.5387 74.627 90.496C74.3603 90.4427 74.0883 90.416 73.811 90.416C73.235 90.416 72.7923 90.512 72.483 90.704C72.1843 90.8853 72.035 91.136 72.035 91.456C72.035 91.6907 72.1043 91.8933 72.243 92.064C72.3817 92.224 72.611 92.384 72.931 92.544C73.2617 92.6933 73.699 92.8747 74.243 93.088C74.787 93.2907 75.251 93.4987 75.635 93.712C76.019 93.9253 76.3123 94.1867 76.515 94.496C76.7177 94.7947 76.819 95.1733 76.819 95.632ZM80.9233 93.616L77.9633 89.424H79.5633L81.7713 92.656L83.9633 89.424H85.5473L82.5873 93.616L85.7073 98H84.1073L81.7713 94.576L79.4033 98H77.8193L80.9233 93.616Z" fill="url(#paint4_linear_311_6997)"/>
<path d="M104.448 87.68C103.84 87.68 103.291 87.7867 102.8 88C102.309 88.2027 101.893 88.5067 101.552 88.912C101.211 89.3067 100.949 89.792 100.768 90.368C100.587 90.9333 100.496 91.5733 100.496 92.288C100.496 93.2267 100.64 94.0427 100.928 94.736C101.227 95.4293 101.664 95.9627 102.24 96.336C102.827 96.7093 103.557 96.896 104.432 96.896C104.933 96.896 105.408 96.8533 105.856 96.768C106.304 96.6827 106.741 96.576 107.168 96.448V97.696C106.741 97.856 106.299 97.9733 105.84 98.048C105.392 98.1227 104.853 98.16 104.224 98.16C103.061 98.16 102.091 97.92 101.312 97.44C100.533 96.96 99.9467 96.2773 99.552 95.392C99.168 94.5067 98.976 93.4667 98.976 92.272C98.976 91.408 99.0933 90.6187 99.328 89.904C99.5733 89.1893 99.9253 88.5707 100.384 88.048C100.853 87.5253 101.429 87.1253 102.112 86.848C102.795 86.56 103.579 86.416 104.464 86.416C105.051 86.416 105.616 86.4747 106.16 86.592C106.704 86.7093 107.189 86.8747 107.616 87.088L107.04 88.304C106.688 88.144 106.293 88 105.856 87.872C105.429 87.744 104.96 87.68 104.448 87.68ZM114.701 98L110.941 87.984H110.877C110.899 88.1973 110.915 88.4693 110.925 88.8C110.947 89.1307 110.963 89.4933 110.973 89.888C110.984 90.272 110.989 90.6667 110.989 91.072V98H109.661V86.576H111.789L115.309 95.936H115.373L118.957 86.576H121.069V98H119.645V90.976C119.645 90.6027 119.651 90.2347 119.661 89.872C119.672 89.4987 119.688 89.152 119.709 88.832C119.731 88.5013 119.747 88.224 119.757 88H119.693L115.885 98H114.701ZM130.657 94.944C130.657 95.6267 130.492 96.208 130.161 96.688C129.83 97.1573 129.356 97.52 128.737 97.776C128.129 98.032 127.409 98.16 126.577 98.16C126.15 98.16 125.74 98.1387 125.345 98.096C124.961 98.0533 124.609 97.9947 124.289 97.92C123.969 97.8347 123.686 97.7333 123.441 97.616V96.24C123.825 96.4107 124.3 96.5653 124.865 96.704C125.441 96.8427 126.033 96.912 126.641 96.912C127.206 96.912 127.681 96.8373 128.065 96.688C128.449 96.5387 128.737 96.3253 128.929 96.048C129.121 95.7707 129.217 95.4453 129.217 95.072C129.217 94.6987 129.137 94.384 128.977 94.128C128.817 93.872 128.54 93.6373 128.145 93.424C127.761 93.2 127.222 92.9653 126.529 92.72C126.038 92.5387 125.606 92.3467 125.233 92.144C124.87 91.9307 124.566 91.6907 124.321 91.424C124.076 91.1573 123.889 90.8533 123.761 90.512C123.644 90.1707 123.585 89.776 123.585 89.328C123.585 88.72 123.74 88.2027 124.049 87.776C124.358 87.3387 124.785 87.0027 125.329 86.768C125.884 86.5333 126.518 86.416 127.233 86.416C127.862 86.416 128.438 86.4747 128.961 86.592C129.484 86.7093 129.958 86.864 130.385 87.056L129.937 88.288C129.542 88.1173 129.11 87.9733 128.641 87.856C128.182 87.7387 127.702 87.68 127.201 87.68C126.721 87.68 126.321 87.7493 126.001 87.888C125.681 88.0267 125.441 88.224 125.281 88.48C125.121 88.7253 125.041 89.0133 125.041 89.344C125.041 89.728 125.121 90.048 125.281 90.304C125.441 90.56 125.702 90.7893 126.065 90.992C126.428 91.1947 126.918 91.4133 127.537 91.648C128.209 91.8933 128.774 92.16 129.233 92.448C129.702 92.7253 130.054 93.0613 130.289 93.456C130.534 93.8507 130.657 94.3467 130.657 94.944Z" fill="url(#paint5_linear_311_6997)"/>
<defs>
<linearGradient id="paint0_linear_311_6997" x1="16" y1="72" x2="37.1765" y2="36.7059" gradientUnits="userSpaceOnUse">
<stop stop-color="#733480"/>
<stop offset="1" stop-color="#FD6748"/>
</linearGradient>
<linearGradient id="paint1_linear_311_6997" x1="68" y1="72" x2="91.04" y2="41.28" gradientUnits="userSpaceOnUse">
<stop stop-color="#733480"/>
<stop offset="1" stop-color="#FD6748"/>
</linearGradient>
<linearGradient id="paint2_linear_311_6997" x1="112" y1="72" x2="135.415" y2="42.7317" gradientUnits="userSpaceOnUse">
<stop stop-color="#733480"/>
<stop offset="1" stop-color="#FD6748"/>
</linearGradient>
<linearGradient id="paint3_linear_311_6997" x1="16" y1="104" x2="39.98" y2="79.0208" gradientUnits="userSpaceOnUse">
<stop stop-color="#733480"/>
<stop offset="1" stop-color="#FD6748"/>
</linearGradient>
<linearGradient id="paint4_linear_311_6997" x1="53" y1="104" x2="75.8324" y2="72.6054" gradientUnits="userSpaceOnUse">
<stop stop-color="#733480"/>
<stop offset="1" stop-color="#FD6748"/>
</linearGradient>
<linearGradient id="paint5_linear_311_6997" x1="98" y1="104" x2="120.614" y2="71.963" gradientUnits="userSpaceOnUse">
<stop stop-color="#733480"/>
<stop offset="1" stop-color="#FD6748"/>
</linearGradient>
</defs>
</svg>
