<svg width="160" height="120" viewBox="0 0 160 120" fill="none" xmlns="http://www.w3.org/2000/svg">
<rect width="160" height="120" rx="12" fill="white"/>
<path d="M16.016 37.136C15.7493 37.136 15.5147 37.1147 15.312 37.072C15.1093 37.04 14.928 36.992 14.768 36.928V35.488C14.9387 35.5307 15.12 35.568 15.312 35.6C15.504 35.632 15.7067 35.648 15.92 35.648C16.1867 35.648 16.4373 35.5947 16.672 35.488C16.9173 35.3813 17.1093 35.1893 17.248 34.912C17.3867 34.6347 17.456 34.2453 17.456 33.744V22.576H19.184V33.664C19.184 34.464 19.0507 35.12 18.784 35.632C18.528 36.1547 18.16 36.5333 17.68 36.768C17.2107 37.0133 16.656 37.136 16.016 37.136ZM25.3606 25.216C26.118 25.216 26.7686 25.376 27.3126 25.696C27.8566 26.0053 28.2726 26.4533 28.5606 27.04C28.8593 27.6267 29.0086 28.32 29.0086 29.12V30.048H23.2166C23.238 30.9333 23.4673 31.6107 23.9046 32.08C24.3526 32.5493 24.9766 32.784 25.7766 32.784C26.3313 32.784 26.822 32.736 27.2486 32.64C27.686 32.5333 28.134 32.3787 28.5926 32.176V33.584C28.166 33.776 27.7286 33.92 27.2806 34.016C26.8433 34.112 26.3206 34.16 25.7126 34.16C24.8806 34.16 24.1446 33.9947 23.5046 33.664C22.8646 33.3333 22.3633 32.8427 22.0006 32.192C21.6486 31.5307 21.4726 30.72 21.4726 29.76C21.4726 28.7893 21.6326 27.968 21.9526 27.296C22.2833 26.624 22.7366 26.112 23.3126 25.76C23.8993 25.3973 24.582 25.216 25.3606 25.216ZM25.3606 26.528C24.7526 26.528 24.262 26.7253 23.8886 27.12C23.526 27.5147 23.3126 28.0747 23.2486 28.8H27.3126C27.3126 28.352 27.2433 27.9573 27.1046 27.616C26.966 27.2747 26.7526 27.008 26.4646 26.816C26.1766 26.624 25.8086 26.528 25.3606 26.528ZM35.4929 25.216C36.4955 25.216 37.2635 25.4667 37.7969 25.968C38.3302 26.4693 38.5969 27.2747 38.5969 28.384V34H36.9169V28.624C36.9169 27.952 36.7729 27.4507 36.4849 27.12C36.2075 26.7787 35.7595 26.608 35.1409 26.608C34.2662 26.608 33.6582 26.8693 33.3169 27.392C32.9862 27.9147 32.8209 28.6667 32.8209 29.648V34H31.1249V25.376H32.4689L32.7089 26.528H32.8049C32.9969 26.2293 33.2315 25.984 33.5089 25.792C33.7862 25.6 34.0955 25.456 34.4369 25.36C34.7782 25.264 35.1302 25.216 35.4929 25.216ZM42.899 25.376V34H41.203V25.376H42.899ZM42.067 22.096C42.323 22.096 42.547 22.1707 42.739 22.32C42.931 22.4693 43.027 22.72 43.027 23.072C43.027 23.4133 42.931 23.664 42.739 23.824C42.547 23.9733 42.323 24.048 42.067 24.048C41.7897 24.048 41.555 23.9733 41.363 23.824C41.1817 23.664 41.091 23.4133 41.091 23.072C41.091 22.72 41.1817 22.4693 41.363 22.32C41.555 22.1707 41.7897 22.096 42.067 22.096ZM51.2904 31.568C51.2904 32.1333 51.1517 32.608 50.8744 32.992C50.597 33.376 50.197 33.6693 49.6744 33.872C49.1517 34.064 48.5224 34.16 47.7864 34.16C47.1784 34.16 46.6557 34.112 46.2184 34.016C45.7917 33.9307 45.397 33.8027 45.0344 33.632V32.144C45.4184 32.3253 45.861 32.4907 46.3624 32.64C46.8637 32.7787 47.3544 32.848 47.8344 32.848C48.4744 32.848 48.933 32.7467 49.2104 32.544C49.4984 32.3413 49.6424 32.0693 49.6424 31.728C49.6424 31.536 49.589 31.3653 49.4824 31.216C49.3757 31.056 49.173 30.896 48.8744 30.736C48.5864 30.5653 48.1597 30.3733 47.5944 30.16C47.0504 29.936 46.5864 29.7173 46.2024 29.504C45.8184 29.28 45.525 29.0187 45.3224 28.72C45.1197 28.4107 45.0184 28.016 45.0184 27.536C45.0184 26.7893 45.317 26.2187 45.9144 25.824C46.5224 25.4187 47.3224 25.216 48.3144 25.216C48.837 25.216 49.3277 25.2693 49.7864 25.376C50.2557 25.472 50.709 25.6213 51.1464 25.824L50.5864 27.12C50.341 27.0027 50.085 26.9067 49.8184 26.832C49.5624 26.7467 49.301 26.6773 49.0344 26.624C48.7784 26.5707 48.5117 26.544 48.2344 26.544C47.7224 26.544 47.333 26.624 47.0664 26.784C46.7997 26.944 46.6664 27.168 46.6664 27.456C46.6664 27.6587 46.725 27.8347 46.8424 27.984C46.9704 28.1333 47.189 28.2827 47.4984 28.432C47.8077 28.5813 48.229 28.7627 48.7624 28.976C49.2957 29.1787 49.749 29.3867 50.1224 29.6C50.5064 29.8133 50.7944 30.0747 50.9864 30.384C51.189 30.6933 51.2904 31.088 51.2904 31.568ZM59.3726 34H57.6606V22.576H64.0926V24.048H59.3726V27.776H63.7886V29.248H59.3726V34ZM67.6178 25.376V34H65.9218V25.376H67.6178ZM66.7858 22.096C67.0418 22.096 67.2658 22.1707 67.4578 22.32C67.6498 22.4693 67.7458 22.72 67.7458 23.072C67.7458 23.4133 67.6498 23.664 67.4578 23.824C67.2658 23.9733 67.0418 24.048 66.7858 24.048C66.5084 24.048 66.2738 23.9733 66.0818 23.824C65.9004 23.664 65.8098 23.4133 65.8098 23.072C65.8098 22.72 65.9004 22.4693 66.0818 22.32C66.2738 22.1707 66.5084 22.096 66.7858 22.096ZM71.9771 34H70.2811V21.84H71.9771V34ZM78.0325 25.216C78.7898 25.216 79.4405 25.376 79.9845 25.696C80.5285 26.0053 80.9445 26.4533 81.2325 27.04C81.5312 27.6267 81.6805 28.32 81.6805 29.12V30.048H75.8885C75.9098 30.9333 76.1392 31.6107 76.5765 32.08C77.0245 32.5493 77.6485 32.784 78.4485 32.784C79.0032 32.784 79.4938 32.736 79.9205 32.64C80.3578 32.5333 80.8058 32.3787 81.2645 32.176V33.584C80.8378 33.776 80.4005 33.92 79.9525 34.016C79.5152 34.112 78.9925 34.16 78.3845 34.16C77.5525 34.16 76.8165 33.9947 76.1765 33.664C75.5365 33.3333 75.0352 32.8427 74.6725 32.192C74.3205 31.5307 74.1445 30.72 74.1445 29.76C74.1445 28.7893 74.3045 27.968 74.6245 27.296C74.9552 26.624 75.4085 26.112 75.9845 25.76C76.5712 25.3973 77.2538 25.216 78.0325 25.216ZM78.0325 26.528C77.4245 26.528 76.9338 26.7253 76.5605 27.12C76.1978 27.5147 75.9845 28.0747 75.9205 28.8H79.9845C79.9845 28.352 79.9152 27.9573 79.7765 27.616C79.6378 27.2747 79.4245 27.008 79.1365 26.816C78.8485 26.624 78.4805 26.528 78.0325 26.528Z" fill="#111111"/>
<path d="M17.152 65.136C17.152 64.7413 17.248 64.464 17.44 64.304C17.632 64.144 17.8613 64.064 18.128 64.064C18.4053 64.064 18.64 64.144 18.832 64.304C19.0347 64.464 19.136 64.7413 19.136 65.136C19.136 65.52 19.0347 65.7973 18.832 65.968C18.64 66.1387 18.4053 66.224 18.128 66.224C17.8613 66.224 17.632 66.1387 17.44 65.968C17.248 65.7973 17.152 65.52 17.152 65.136ZM25.7213 57.264C26.7773 57.264 27.6253 57.632 28.2653 58.368C28.9159 59.104 29.2413 60.2133 29.2413 61.696C29.2413 62.6667 29.0919 63.488 28.7933 64.16C28.5052 64.8213 28.0946 65.3227 27.5613 65.664C27.0386 65.9947 26.4199 66.16 25.7053 66.16C25.2679 66.16 24.8786 66.1013 24.5373 65.984C24.1959 65.8667 23.9026 65.7173 23.6573 65.536C23.4226 65.344 23.2199 65.136 23.0493 64.912H22.9533C22.9746 65.0933 22.9959 65.3227 23.0173 65.6C23.0386 65.8773 23.0493 66.1173 23.0493 66.32V69.84H21.6413V57.424H22.7933L22.9853 58.592H23.0493C23.2199 58.3467 23.4226 58.1227 23.6573 57.92C23.9026 57.7173 24.1906 57.5573 24.5213 57.44C24.8626 57.3227 25.2626 57.264 25.7213 57.264ZM25.4653 58.448C24.8893 58.448 24.4253 58.56 24.0733 58.784C23.7213 58.9973 23.4653 59.3227 23.3053 59.76C23.1453 60.1973 23.0599 60.752 23.0493 61.424V61.696C23.0493 62.4 23.1239 62.9973 23.2733 63.488C23.4226 63.9787 23.6733 64.352 24.0253 64.608C24.3879 64.864 24.8786 64.992 25.4973 64.992C26.0199 64.992 26.4466 64.848 26.7773 64.56C27.1186 64.272 27.3693 63.8827 27.5293 63.392C27.6999 62.8907 27.7853 62.32 27.7853 61.68C27.7853 60.6987 27.5933 59.9147 27.2093 59.328C26.8359 58.7413 26.2546 58.448 25.4653 58.448ZM34.525 66.16C33.4583 66.16 32.605 65.792 31.965 65.056C31.325 64.3093 31.005 63.2 31.005 61.728C31.005 60.256 31.325 59.1467 31.965 58.4C32.6157 57.6427 33.4743 57.264 34.541 57.264C34.989 57.264 35.3783 57.3227 35.709 57.44C36.0397 57.5467 36.3277 57.696 36.573 57.888C36.8183 58.08 37.0263 58.2933 37.197 58.528H37.293C37.2823 58.3893 37.261 58.1867 37.229 57.92C37.2077 57.6427 37.197 57.424 37.197 57.264V53.84H38.605V66H37.469L37.261 64.848H37.197C37.0263 65.0933 36.8183 65.3173 36.573 65.52C36.3277 65.712 36.0343 65.8667 35.693 65.984C35.3623 66.1013 34.973 66.16 34.525 66.16ZM34.749 64.992C35.6557 64.992 36.2903 64.7467 36.653 64.256C37.0263 63.7547 37.213 63.0027 37.213 62V61.744C37.213 60.6773 37.037 59.8613 36.685 59.296C36.333 58.72 35.6823 58.432 34.733 58.432C33.9757 58.432 33.405 58.736 33.021 59.344C32.6477 59.9413 32.461 60.7467 32.461 61.76C32.461 62.784 32.6477 63.5787 33.021 64.144C33.405 64.7093 33.981 64.992 34.749 64.992ZM45.2808 58.512H43.1208V66H41.7128V58.512H40.2088V57.856L41.7128 57.376V56.88C41.7128 56.144 41.8194 55.5467 42.0328 55.088C42.2568 54.6293 42.5768 54.2933 42.9928 54.08C43.4088 53.8667 43.9101 53.76 44.4968 53.76C44.8381 53.76 45.1474 53.792 45.4248 53.856C45.7128 53.9093 45.9581 53.9733 46.1608 54.048L45.7928 55.152C45.6221 55.0987 45.4248 55.0453 45.2008 54.992C44.9768 54.9387 44.7474 54.912 44.5128 54.912C44.0434 54.912 43.6914 55.072 43.4568 55.392C43.2328 55.7013 43.1208 56.192 43.1208 56.864V57.424H45.2808V58.512Z" fill="url(#paint0_linear_287_5933)"/>
<path d="M59.152 65.136C59.152 64.7413 59.248 64.464 59.44 64.304C59.632 64.144 59.8613 64.064 60.128 64.064C60.4053 64.064 60.64 64.144 60.832 64.304C61.0347 64.464 61.136 64.7413 61.136 65.136C61.136 65.52 61.0347 65.7973 60.832 65.968C60.64 66.1387 60.4053 66.224 60.128 66.224C59.8613 66.224 59.632 66.1387 59.44 65.968C59.248 65.7973 59.152 65.52 59.152 65.136ZM66.9533 57.264C67.6893 57.264 68.3186 57.424 68.8413 57.744C69.3746 58.064 69.7799 58.5173 70.0573 59.104C70.3453 59.68 70.4893 60.3573 70.4893 61.136V61.984H64.6173C64.6386 62.9547 64.8839 63.696 65.3533 64.208C65.8333 64.7093 66.4999 64.96 67.3533 64.96C67.8973 64.96 68.3773 64.912 68.7933 64.816C69.2199 64.7093 69.6573 64.56 70.1053 64.368V65.6C69.6679 65.792 69.2359 65.9307 68.8093 66.016C68.3826 66.112 67.8759 66.16 67.2893 66.16C66.4786 66.16 65.7586 65.9947 65.1293 65.664C64.5106 65.3333 64.0253 64.8427 63.6733 64.192C63.3319 63.5307 63.1613 62.7253 63.1613 61.776C63.1613 60.8373 63.3159 60.032 63.6253 59.36C63.9453 58.688 64.3879 58.1707 64.9533 57.808C65.5293 57.4453 66.1959 57.264 66.9533 57.264ZM66.9373 58.416C66.2653 58.416 65.7319 58.6347 65.3373 59.072C64.9533 59.4987 64.7239 60.096 64.6493 60.864H69.0173C69.0173 60.3733 68.9426 59.9467 68.7933 59.584C68.6439 59.2213 68.4146 58.9387 68.1053 58.736C67.8066 58.5227 67.4173 58.416 66.9373 58.416ZM76.7525 57.264C77.8085 57.264 78.6565 57.632 79.2965 58.368C79.9472 59.104 80.2725 60.2133 80.2725 61.696C80.2725 62.6667 80.1232 63.488 79.8245 64.16C79.5365 64.8213 79.1258 65.3227 78.5925 65.664C78.0698 65.9947 77.4512 66.16 76.7365 66.16C76.2992 66.16 75.9098 66.1013 75.5685 65.984C75.2272 65.8667 74.9338 65.7173 74.6885 65.536C74.4538 65.344 74.2512 65.136 74.0805 64.912H73.9845C74.0058 65.0933 74.0272 65.3227 74.0485 65.6C74.0698 65.8773 74.0805 66.1173 74.0805 66.32V69.84H72.6725V57.424H73.8245L74.0165 58.592H74.0805C74.2512 58.3467 74.4538 58.1227 74.6885 57.92C74.9338 57.7173 75.2218 57.5573 75.5525 57.44C75.8938 57.3227 76.2938 57.264 76.7525 57.264ZM76.4965 58.448C75.9205 58.448 75.4565 58.56 75.1045 58.784C74.7525 58.9973 74.4965 59.3227 74.3365 59.76C74.1765 60.1973 74.0912 60.752 74.0805 61.424V61.696C74.0805 62.4 74.1552 62.9973 74.3045 63.488C74.4538 63.9787 74.7045 64.352 75.0565 64.608C75.4192 64.864 75.9098 64.992 76.5285 64.992C77.0512 64.992 77.4778 64.848 77.8085 64.56C78.1498 64.272 78.4005 63.8827 78.5605 63.392C78.7312 62.8907 78.8165 62.32 78.8165 61.68C78.8165 60.6987 78.6245 59.9147 78.2405 59.328C77.8672 58.7413 77.2858 58.448 76.4965 58.448ZM88.1003 63.632C88.1003 64.1867 87.9616 64.6507 87.6843 65.024C87.4069 65.3973 87.0123 65.68 86.5003 65.872C85.9883 66.064 85.3803 66.16 84.6763 66.16C84.0789 66.16 83.5616 66.112 83.1243 66.016C82.6976 65.92 82.3189 65.7867 81.9883 65.616V64.336C82.3296 64.5067 82.7403 64.6667 83.2203 64.816C83.7109 64.9547 84.2069 65.024 84.7083 65.024C85.4229 65.024 85.9403 64.912 86.2603 64.688C86.5803 64.4533 86.7403 64.144 86.7403 63.76C86.7403 63.5467 86.6816 63.3547 86.5643 63.184C86.4469 63.0133 86.2336 62.8427 85.9243 62.672C85.6256 62.5013 85.1936 62.3093 84.6283 62.096C84.0736 61.8827 83.5989 61.6693 83.2043 61.456C82.8096 61.2427 82.5056 60.9867 82.2923 60.688C82.0789 60.3893 81.9723 60.0053 81.9723 59.536C81.9723 58.8107 82.2656 58.2507 82.8523 57.856C83.4496 57.4613 84.2283 57.264 85.1883 57.264C85.7109 57.264 86.1963 57.3173 86.6443 57.424C87.1029 57.52 87.5296 57.6587 87.9243 57.84L87.4443 58.96C87.2096 58.8533 86.9589 58.7627 86.6923 58.688C86.4363 58.6027 86.1749 58.5387 85.9083 58.496C85.6416 58.4427 85.3696 58.416 85.0923 58.416C84.5163 58.416 84.0736 58.512 83.7643 58.704C83.4656 58.8853 83.3163 59.136 83.3163 59.456C83.3163 59.6907 83.3856 59.8933 83.5243 60.064C83.6629 60.224 83.8923 60.384 84.2123 60.544C84.5429 60.6933 84.9803 60.8747 85.5243 61.088C86.0683 61.2907 86.5323 61.4987 86.9163 61.712C87.3003 61.9253 87.5936 62.1867 87.7963 62.496C87.9989 62.7947 88.1003 63.1733 88.1003 63.632Z" fill="url(#paint1_linear_287_5933)"/>
<path d="M102.152 65.136C102.152 64.7413 102.248 64.464 102.44 64.304C102.632 64.144 102.861 64.064 103.128 64.064C103.405 64.064 103.64 64.144 103.832 64.304C104.035 64.464 104.136 64.7413 104.136 65.136C104.136 65.52 104.035 65.7973 103.832 65.968C103.64 66.1387 103.405 66.224 103.128 66.224C102.861 66.224 102.632 66.1387 102.44 65.968C102.248 65.7973 102.152 65.52 102.152 65.136ZM109.889 57.28C110.935 57.28 111.708 57.5093 112.209 57.968C112.711 58.4267 112.961 59.1573 112.961 60.16V66H111.937L111.665 64.784H111.601C111.356 65.0933 111.1 65.3547 110.833 65.568C110.577 65.7707 110.279 65.92 109.937 66.016C109.607 66.112 109.201 66.16 108.721 66.16C108.209 66.16 107.745 66.0693 107.329 65.888C106.924 65.7067 106.604 65.4293 106.369 65.056C106.135 64.672 106.017 64.192 106.017 63.616C106.017 62.7627 106.353 62.1067 107.025 61.648C107.697 61.1787 108.732 60.9227 110.129 60.88L111.585 60.832V60.32C111.585 59.6053 111.431 59.1093 111.121 58.832C110.812 58.5547 110.375 58.416 109.809 58.416C109.361 58.416 108.935 58.4853 108.529 58.624C108.124 58.752 107.745 58.9013 107.393 59.072L106.961 58.016C107.335 57.8133 107.777 57.6427 108.289 57.504C108.801 57.3547 109.335 57.28 109.889 57.28ZM110.305 61.856C109.239 61.8987 108.497 62.0693 108.081 62.368C107.676 62.6667 107.473 63.088 107.473 63.632C107.473 64.112 107.617 64.464 107.905 64.688C108.204 64.912 108.583 65.024 109.041 65.024C109.767 65.024 110.369 64.8267 110.849 64.432C111.329 64.0267 111.569 63.408 111.569 62.576V61.808L110.305 61.856ZM117.018 57.424V66H115.61V57.424H117.018ZM116.33 54.208C116.543 54.208 116.73 54.2827 116.89 54.432C117.061 54.5707 117.146 54.7947 117.146 55.104C117.146 55.4027 117.061 55.6267 116.89 55.776C116.73 55.9253 116.543 56 116.33 56C116.095 56 115.898 55.9253 115.738 55.776C115.578 55.6267 115.498 55.4027 115.498 55.104C115.498 54.7947 115.578 54.5707 115.738 54.432C115.898 54.2827 116.095 54.208 116.33 54.208Z" fill="url(#paint2_linear_287_5933)"/>
<path d="M17.152 97.136C17.152 96.7413 17.248 96.464 17.44 96.304C17.632 96.144 17.8613 96.064 18.128 96.064C18.4053 96.064 18.64 96.144 18.832 96.304C19.0347 96.464 19.136 96.7413 19.136 97.136C19.136 97.52 19.0347 97.7973 18.832 97.968C18.64 98.1387 18.4053 98.224 18.128 98.224C17.8613 98.224 17.632 98.1387 17.44 97.968C17.248 97.7973 17.152 97.52 17.152 97.136ZM25.7213 89.264C26.7773 89.264 27.6253 89.632 28.2653 90.368C28.9159 91.104 29.2413 92.2133 29.2413 93.696C29.2413 94.6667 29.0919 95.488 28.7933 96.16C28.5052 96.8213 28.0946 97.3227 27.5613 97.664C27.0386 97.9947 26.4199 98.16 25.7053 98.16C25.2679 98.16 24.8786 98.1013 24.5373 97.984C24.1959 97.8667 23.9026 97.7173 23.6573 97.536C23.4226 97.344 23.2199 97.136 23.0493 96.912H22.9533C22.9746 97.0933 22.9959 97.3227 23.0173 97.6C23.0386 97.8773 23.0493 98.1173 23.0493 98.32V101.84H21.6413V89.424H22.7933L22.9853 90.592H23.0493C23.2199 90.3467 23.4226 90.1227 23.6573 89.92C23.9026 89.7173 24.1906 89.5573 24.5213 89.44C24.8626 89.3227 25.2626 89.264 25.7213 89.264ZM25.4653 90.448C24.8893 90.448 24.4253 90.56 24.0733 90.784C23.7213 90.9973 23.4653 91.3227 23.3053 91.76C23.1453 92.1973 23.0599 92.752 23.0493 93.424V93.696C23.0493 94.4 23.1239 94.9973 23.2733 95.488C23.4226 95.9787 23.6733 96.352 24.0253 96.608C24.3879 96.864 24.8786 96.992 25.4973 96.992C26.0199 96.992 26.4466 96.848 26.7773 96.56C27.1186 96.272 27.3693 95.8827 27.5293 95.392C27.6999 94.8907 27.7853 94.32 27.7853 93.68C27.7853 92.6987 27.5933 91.9147 27.2093 91.328C26.8359 90.7413 26.2546 90.448 25.4653 90.448ZM35.565 89.264C36.621 89.264 37.469 89.632 38.109 90.368C38.7597 91.104 39.085 92.2133 39.085 93.696C39.085 94.6667 38.9357 95.488 38.637 96.16C38.349 96.8213 37.9383 97.3227 37.405 97.664C36.8823 97.9947 36.2637 98.16 35.549 98.16C35.1117 98.16 34.7223 98.1013 34.381 97.984C34.0397 97.8667 33.7463 97.7173 33.501 97.536C33.2663 97.344 33.0637 97.136 32.893 96.912H32.797C32.8183 97.0933 32.8397 97.3227 32.861 97.6C32.8823 97.8773 32.893 98.1173 32.893 98.32V101.84H31.485V89.424H32.637L32.829 90.592H32.893C33.0637 90.3467 33.2663 90.1227 33.501 89.92C33.7463 89.7173 34.0343 89.5573 34.365 89.44C34.7063 89.3227 35.1063 89.264 35.565 89.264ZM35.309 90.448C34.733 90.448 34.269 90.56 33.917 90.784C33.565 90.9973 33.309 91.3227 33.149 91.76C32.989 92.1973 32.9037 92.752 32.893 93.424V93.696C32.893 94.4 32.9677 94.9973 33.117 95.488C33.2663 95.9787 33.517 96.352 33.869 96.608C34.2317 96.864 34.7223 96.992 35.341 96.992C35.8637 96.992 36.2903 96.848 36.621 96.56C36.9623 96.272 37.213 95.8827 37.373 95.392C37.5437 94.8907 37.629 94.32 37.629 93.68C37.629 92.6987 37.437 91.9147 37.053 91.328C36.6797 90.7413 36.0983 90.448 35.309 90.448ZM44.1927 97.008C44.4061 97.008 44.6248 96.992 44.8488 96.96C45.0728 96.9173 45.2541 96.8747 45.3928 96.832V97.904C45.2434 97.9787 45.0301 98.0373 44.7528 98.08C44.4754 98.1333 44.2088 98.16 43.9528 98.16C43.5048 98.16 43.0888 98.0853 42.7048 97.936C42.3314 97.776 42.0274 97.504 41.7928 97.12C41.5581 96.736 41.4408 96.1973 41.4408 95.504V90.512H40.2248V89.84L41.4568 89.28L42.0168 87.456H42.8488V89.424H45.3288V90.512H42.8488V95.472C42.8488 95.9947 42.9714 96.384 43.2168 96.64C43.4728 96.8853 43.7981 97.008 44.1927 97.008ZM49.142 93.616L46.182 89.424H47.782L49.99 92.656L52.182 89.424H53.766L50.806 93.616L53.926 98H52.326L49.99 94.576L47.622 98H46.038L49.142 93.616Z" fill="url(#paint3_linear_287_5933)"/>
<path d="M68.152 97.136C68.152 96.7413 68.248 96.464 68.44 96.304C68.632 96.144 68.8613 96.064 69.128 96.064C69.4053 96.064 69.64 96.144 69.832 96.304C70.0347 96.464 70.136 96.7413 70.136 97.136C70.136 97.52 70.0347 97.7973 69.832 97.968C69.64 98.1387 69.4053 98.224 69.128 98.224C68.8613 98.224 68.632 98.1387 68.44 97.968C68.248 97.7973 68.152 97.52 68.152 97.136ZM71.6333 101.84C71.3666 101.84 71.1319 101.819 70.9292 101.776C70.7266 101.744 70.5506 101.701 70.4012 101.648V100.512C70.5612 100.555 70.7266 100.592 70.8972 100.624C71.0679 100.656 71.2546 100.672 71.4573 100.672C71.7986 100.672 72.0813 100.576 72.3053 100.384C72.5293 100.203 72.6413 99.8507 72.6413 99.328V89.424H74.0493V99.28C74.0493 99.8133 73.9639 100.272 73.7933 100.656C73.6226 101.04 73.3613 101.333 73.0093 101.536C72.6573 101.739 72.1986 101.84 71.6333 101.84ZM72.5293 87.104C72.5293 86.7947 72.6093 86.5707 72.7693 86.432C72.9293 86.2827 73.1266 86.208 73.3613 86.208C73.5746 86.208 73.7613 86.2827 73.9213 86.432C74.0919 86.5707 74.1773 86.7947 74.1773 87.104C74.1773 87.4027 74.0919 87.6267 73.9213 87.776C73.7613 87.9253 73.5746 88 73.3613 88C73.1266 88 72.9293 87.9253 72.7693 87.776C72.6093 87.6267 72.5293 87.4027 72.5293 87.104ZM80.8463 89.264C81.9023 89.264 82.7503 89.632 83.3903 90.368C84.0409 91.104 84.3663 92.2133 84.3663 93.696C84.3663 94.6667 84.2169 95.488 83.9183 96.16C83.6302 96.8213 83.2196 97.3227 82.6863 97.664C82.1636 97.9947 81.5449 98.16 80.8303 98.16C80.3929 98.16 80.0036 98.1013 79.6623 97.984C79.3209 97.8667 79.0276 97.7173 78.7823 97.536C78.5476 97.344 78.3449 97.136 78.1743 96.912H78.0783C78.0996 97.0933 78.1209 97.3227 78.1423 97.6C78.1636 97.8773 78.1743 98.1173 78.1743 98.32V101.84H76.7663V89.424H77.9183L78.1103 90.592H78.1743C78.3449 90.3467 78.5476 90.1227 78.7823 89.92C79.0276 89.7173 79.3156 89.5573 79.6463 89.44C79.9876 89.3227 80.3876 89.264 80.8463 89.264ZM80.5903 90.448C80.0143 90.448 79.5503 90.56 79.1983 90.784C78.8463 90.9973 78.5903 91.3227 78.4303 91.76C78.2703 92.1973 78.1849 92.752 78.1743 93.424V93.696C78.1743 94.4 78.2489 94.9973 78.3983 95.488C78.5476 95.9787 78.7983 96.352 79.1503 96.608C79.5129 96.864 80.0036 96.992 80.6223 96.992C81.1449 96.992 81.5716 96.848 81.9023 96.56C82.2436 96.272 82.4943 95.8827 82.6543 95.392C82.8249 94.8907 82.9103 94.32 82.9103 93.68C82.9103 92.6987 82.7183 91.9147 82.3343 91.328C81.9609 90.7413 81.3796 90.448 80.5903 90.448ZM89.65 89.264C90.2153 89.264 90.722 89.3707 91.17 89.584C91.6287 89.7973 92.018 90.1227 92.338 90.56H92.418L92.61 89.424H93.73V98.144C93.73 98.9547 93.5913 99.632 93.314 100.176C93.0367 100.731 92.6153 101.147 92.05 101.424C91.4847 101.701 90.7647 101.84 89.89 101.84C89.2713 101.84 88.7007 101.792 88.178 101.696C87.666 101.611 87.2073 101.477 86.802 101.296V100C87.0793 100.139 87.3833 100.256 87.714 100.352C88.0447 100.459 88.402 100.539 88.786 100.592C89.17 100.645 89.5647 100.672 89.97 100.672C90.706 100.672 91.282 100.453 91.698 100.016C92.1247 99.5893 92.338 99.0027 92.338 98.256V97.92C92.338 97.792 92.3433 97.6107 92.354 97.376C92.3647 97.1307 92.3753 96.96 92.386 96.864H92.322C92.0233 97.3013 91.65 97.6267 91.202 97.84C90.7647 98.0533 90.2527 98.16 89.666 98.16C88.5567 98.16 87.6873 97.7707 87.058 96.992C86.4393 96.2133 86.13 95.1253 86.13 93.728C86.13 92.8107 86.2687 92.0213 86.546 91.36C86.834 90.688 87.2393 90.1707 87.762 89.808C88.2847 89.4453 88.914 89.264 89.65 89.264ZM89.842 90.448C89.362 90.448 88.9513 90.576 88.61 90.832C88.2793 91.088 88.0233 91.4613 87.842 91.952C87.6713 92.4427 87.586 93.04 87.586 93.744C87.586 94.8 87.778 95.6107 88.162 96.176C88.5567 96.7307 89.1273 97.008 89.874 97.008C90.3113 97.008 90.6847 96.9547 90.994 96.848C91.3033 96.7307 91.5593 96.5547 91.762 96.32C91.9647 96.0747 92.114 95.7653 92.21 95.392C92.306 95.0187 92.354 94.576 92.354 94.064V93.728C92.354 92.9493 92.2633 92.32 92.082 91.84C91.9113 91.36 91.6393 91.008 91.266 90.784C90.8927 90.56 90.418 90.448 89.842 90.448Z" fill="url(#paint4_linear_287_5933)"/>
<path d="M109.152 97.136C109.152 96.7413 109.248 96.464 109.44 96.304C109.632 96.144 109.861 96.064 110.128 96.064C110.405 96.064 110.64 96.144 110.832 96.304C111.035 96.464 111.136 96.7413 111.136 97.136C111.136 97.52 111.035 97.7973 110.832 97.968C110.64 98.1387 110.405 98.224 110.128 98.224C109.861 98.224 109.632 98.1387 109.44 97.968C109.248 97.7973 109.152 97.52 109.152 97.136ZM117.721 89.264C118.777 89.264 119.625 89.632 120.265 90.368C120.916 91.104 121.241 92.2133 121.241 93.696C121.241 94.6667 121.092 95.488 120.793 96.16C120.505 96.8213 120.095 97.3227 119.561 97.664C119.039 97.9947 118.42 98.16 117.705 98.16C117.268 98.16 116.879 98.1013 116.537 97.984C116.196 97.8667 115.903 97.7173 115.657 97.536C115.423 97.344 115.22 97.136 115.049 96.912H114.953C114.975 97.0933 114.996 97.3227 115.017 97.6C115.039 97.8773 115.049 98.1173 115.049 98.32V101.84H113.641V89.424H114.793L114.985 90.592H115.049C115.22 90.3467 115.423 90.1227 115.657 89.92C115.903 89.7173 116.191 89.5573 116.521 89.44C116.863 89.3227 117.263 89.264 117.721 89.264ZM117.465 90.448C116.889 90.448 116.425 90.56 116.073 90.784C115.721 90.9973 115.465 91.3227 115.305 91.76C115.145 92.1973 115.06 92.752 115.049 93.424V93.696C115.049 94.4 115.124 94.9973 115.273 95.488C115.423 95.9787 115.673 96.352 116.025 96.608C116.388 96.864 116.879 96.992 117.497 96.992C118.02 96.992 118.447 96.848 118.777 96.56C119.119 96.272 119.369 95.8827 119.529 95.392C119.7 94.8907 119.785 94.32 119.785 93.68C119.785 92.6987 119.593 91.9147 119.209 91.328C118.836 90.7413 118.255 90.448 117.465 90.448ZM127.613 89.264C128.637 89.264 129.41 89.5147 129.933 90.016C130.456 90.5067 130.717 91.3067 130.717 92.416V98H129.325V92.512C129.325 91.8187 129.17 91.3013 128.861 90.96C128.552 90.6187 128.066 90.448 127.405 90.448C126.456 90.448 125.8 90.7147 125.437 91.248C125.074 91.7813 124.893 92.5493 124.893 93.552V98H123.485V89.424H124.621L124.829 90.592H124.909C125.101 90.2933 125.336 90.048 125.613 89.856C125.901 89.6533 126.216 89.504 126.557 89.408C126.898 89.312 127.25 89.264 127.613 89.264ZM136.416 89.264C136.981 89.264 137.488 89.3707 137.936 89.584C138.394 89.7973 138.784 90.1227 139.104 90.56H139.184L139.376 89.424H140.496V98.144C140.496 98.9547 140.357 99.632 140.08 100.176C139.802 100.731 139.381 101.147 138.816 101.424C138.25 101.701 137.53 101.84 136.656 101.84C136.037 101.84 135.466 101.792 134.944 101.696C134.432 101.611 133.973 101.477 133.568 101.296V100C133.845 100.139 134.149 100.256 134.48 100.352C134.81 100.459 135.168 100.539 135.552 100.592C135.936 100.645 136.33 100.672 136.736 100.672C137.472 100.672 138.048 100.453 138.464 100.016C138.89 99.5893 139.104 99.0027 139.104 98.256V97.92C139.104 97.792 139.109 97.6107 139.12 97.376C139.13 97.1307 139.141 96.96 139.152 96.864H139.088C138.789 97.3013 138.416 97.6267 137.968 97.84C137.53 98.0533 137.018 98.16 136.432 98.16C135.322 98.16 134.453 97.7707 133.824 96.992C133.205 96.2133 132.896 95.1253 132.896 93.728C132.896 92.8107 133.034 92.0213 133.312 91.36C133.6 90.688 134.005 90.1707 134.528 89.808C135.05 89.4453 135.68 89.264 136.416 89.264ZM136.608 90.448C136.128 90.448 135.717 90.576 135.376 90.832C135.045 91.088 134.789 91.4613 134.608 91.952C134.437 92.4427 134.352 93.04 134.352 93.744C134.352 94.8 134.544 95.6107 134.928 96.176C135.322 96.7307 135.893 97.008 136.64 97.008C137.077 97.008 137.45 96.9547 137.76 96.848C138.069 96.7307 138.325 96.5547 138.528 96.32C138.73 96.0747 138.88 95.7653 138.976 95.392C139.072 95.0187 139.12 94.576 139.12 94.064V93.728C139.12 92.9493 139.029 92.32 138.848 91.84C138.677 91.36 138.405 91.008 138.032 90.784C137.658 90.56 137.184 90.448 136.608 90.448Z" fill="url(#paint5_linear_287_5933)"/>
<defs>
<linearGradient id="paint0_linear_287_5933" x1="16" y1="72" x2="39.4146" y2="42.7317" gradientUnits="userSpaceOnUse">
<stop stop-color="#733480"/>
<stop offset="1" stop-color="#FD6748"/>
</linearGradient>
<linearGradient id="paint1_linear_287_5933" x1="58" y1="72" x2="81.2349" y2="41.9883" gradientUnits="userSpaceOnUse">
<stop stop-color="#733480"/>
<stop offset="1" stop-color="#FD6748"/>
</linearGradient>
<linearGradient id="paint2_linear_287_5933" x1="101" y1="72" x2="124.04" y2="54.72" gradientUnits="userSpaceOnUse">
<stop stop-color="#733480"/>
<stop offset="1" stop-color="#FD6748"/>
</linearGradient>
<linearGradient id="paint3_linear_287_5933" x1="16" y1="104" x2="37.4249" y2="69.1845" gradientUnits="userSpaceOnUse">
<stop stop-color="#733480"/>
<stop offset="1" stop-color="#FD6748"/>
</linearGradient>
<linearGradient id="paint4_linear_287_5933" x1="67" y1="104" x2="90.5766" y2="75.5116" gradientUnits="userSpaceOnUse">
<stop stop-color="#733480"/>
<stop offset="1" stop-color="#FD6748"/>
</linearGradient>
<linearGradient id="paint5_linear_287_5933" x1="108" y1="104" x2="130.614" y2="71.963" gradientUnits="userSpaceOnUse">
<stop stop-color="#733480"/>
<stop offset="1" stop-color="#FD6748"/>
</linearGradient>
</defs>
</svg>
