<svg width="160" height="160" viewBox="0 0 160 160" fill="none" xmlns="http://www.w3.org/2000/svg">
<path d="M0 16C0 7.16345 7.16344 0 16 0H148C154.627 0 160 5.37258 160 12V112C160 138.51 138.51 160 112 160H12C5.37258 160 0 154.627 0 148V16Z" fill="white"/>
<path d="M35 13.75C34.1781 13.75 33.3719 14.0841 32.7906 14.6656C32.2094 15.2472 31.875 16.0531 31.875 16.875C31.875 17.6969 32.2091 18.5031 32.7906 19.0841C33.3719 19.6656 34.1781 20 35 20C35.8219 20 36.6281 19.6656 37.2091 19.0841C37.7906 18.5031 38.125 17.6969 38.125 16.875C38.125 16.0531 37.7906 15.2469 37.2091 14.6656C36.6281 14.0841 35.8219 13.75 35 13.75Z" fill="#FF9E00"/>
<path d="M20 13.75C19.1781 13.75 18.3719 14.0841 17.7906 14.6656C17.2094 15.2472 16.875 16.0497 16.875 16.875C16.875 17.6969 17.2091 18.5031 17.7906 19.0841C18.3719 19.6656 19.1781 20 20 20C20.8219 20 21.6281 19.6656 22.2091 19.0841C22.7906 18.5031 23.125 17.6969 23.125 16.875C23.125 16.0531 22.7906 15.2469 22.2091 14.6656C21.6281 14.0841 20.8219 13.75 20 13.75Z" fill="#FF9E00"/>
<path d="M50 13.75C49.1781 13.75 48.3719 14.0841 47.7906 14.6656C47.2094 15.2472 46.875 16.0531 46.875 16.875C46.875 17.6969 47.2091 18.5031 47.7906 19.0841C48.3719 19.6656 49.1781 20 50 20C50.8219 20 51.6281 19.6656 52.2091 19.0841C52.7906 18.5031 53.125 17.6969 53.125 16.875C53.125 16.0531 52.7906 15.2469 52.2091 14.6656C51.6281 14.0841 50.825 13.75 50 13.75Z" fill="#FF9E00"/>
<path d="M143.125 85.0228V13.125C143.125 5.88781 137.237 0 130 0H13.125C5.88781 0 0 5.88781 0 13.125V134.375C0 141.612 5.88781 147.5 13.125 147.5H37.5353C39.2609 147.5 40.6603 146.101 40.6603 144.375C40.6603 142.649 39.2609 141.25 37.5353 141.25H13.125C9.33406 141.25 6.25 138.166 6.25 134.375V33.75H136.875V81.1959C131.316 78.4325 125.056 76.875 118.438 76.875C95.5197 76.875 76.875 95.5197 76.875 118.438C76.875 126.856 79.3934 134.697 83.7131 141.25H65.6603C63.9347 141.25 62.5353 142.649 62.5353 144.375C62.5353 146.101 63.9347 147.5 65.6603 147.5H88.7566C96.3056 155.208 106.822 160 118.438 160C141.355 160 160 141.355 160 118.438C160 104.757 153.355 92.6009 143.125 85.0228ZM6.25 27.5V13.125C6.25 9.33406 9.33406 6.25 13.125 6.25H130C133.791 6.25 136.875 9.33406 136.875 13.125V27.5H6.25ZM118.438 153.75C98.9659 153.75 83.125 137.909 83.125 118.438C83.125 98.9659 98.9659 83.125 118.438 83.125C137.909 83.125 153.75 98.9659 153.75 118.438C153.75 137.909 137.909 153.75 118.438 153.75Z" fill="#FF9E00"/>
<path d="M105.346 106.998C104.126 105.778 102.147 105.778 100.926 106.998L91.6965 116.228C90.4762 117.448 90.4762 119.427 91.6965 120.647L100.926 129.878C101.537 130.488 102.336 130.793 103.136 130.793C103.936 130.793 104.736 130.488 105.346 129.878C106.566 128.657 106.566 126.678 105.346 125.458L98.3262 118.438L105.346 111.417C106.567 110.197 106.567 108.218 105.346 106.998Z" fill="#FF9E00"/>
<path d="M145.231 116.228L136.001 106.998C134.781 105.778 132.803 105.778 131.582 106.998C130.361 108.218 130.361 110.197 131.582 111.418L138.602 118.438L131.582 125.458C130.361 126.678 130.361 128.657 131.582 129.878C132.192 130.488 132.992 130.793 133.791 130.793C134.591 130.793 135.391 130.488 136.001 129.878L145.231 120.647C146.452 119.427 146.452 117.448 145.231 116.228Z" fill="#FF9E00"/>
<path d="M122.565 103.355C120.899 102.903 119.182 103.887 118.73 105.553L112.18 129.685C111.728 131.351 112.712 133.068 114.377 133.52C114.652 133.594 114.927 133.63 115.198 133.63C116.574 133.63 117.834 132.714 118.212 131.322L124.762 107.19C125.214 105.524 124.23 103.808 122.565 103.355Z" fill="#FF9E00"/>
<path d="M20.625 96.25H64.0169C65.7425 96.25 67.1419 94.8506 67.1419 93.125C67.1419 91.3994 65.7425 90 64.0169 90H20.625C18.8994 90 17.5 91.3994 17.5 93.125C17.5 94.8506 18.8994 96.25 20.625 96.25Z" fill="#FF9E00"/>
<path d="M18.4156 80.3341C18.9969 80.9156 19.8031 81.25 20.625 81.25C21.4469 81.25 22.2531 80.9156 22.8341 80.3341C23.4156 79.7531 23.75 78.9469 23.75 78.125C23.75 77.3031 23.4156 76.4969 22.8341 75.9156C22.2531 75.3341 21.4469 75 20.625 75C19.8031 75 18.9969 75.3341 18.4156 75.9156C17.8344 76.4972 17.5 77.3031 17.5 78.125C17.5 78.9469 17.8341 79.7531 18.4156 80.3341Z" fill="#FF9E00"/>
<path d="M79.9216 75H34.6875C32.9619 75 31.5625 76.3994 31.5625 78.125C31.5625 79.8506 32.9619 81.25 34.6875 81.25H79.9216C81.6472 81.25 83.0466 79.8506 83.0466 78.125C83.0466 76.3994 81.6472 75 79.9216 75Z" fill="#FF9E00"/>
<path d="M20.625 111.25H30.9463C32.6719 111.25 34.0713 109.851 34.0713 108.125C34.0713 106.399 32.6719 105 30.9463 105H20.625C18.8994 105 17.5 106.399 17.5 108.125C17.5 109.851 18.8994 111.25 20.625 111.25Z" fill="#FF9E00"/>
<path d="M64.0169 105H45.9375C44.2119 105 42.8125 106.399 42.8125 108.125C42.8125 109.851 44.2119 111.25 45.9375 111.25H64.0169C65.7425 111.25 67.1419 109.851 67.1419 108.125C67.1419 106.399 65.7425 105 64.0169 105Z" fill="#FF9E00"/>
<path d="M20.625 126.25H64.0169C65.7425 126.25 67.1419 124.851 67.1419 123.125C67.1419 121.399 65.7425 120 64.0169 120H20.625C18.8994 120 17.5 121.399 17.5 123.125C17.5 124.851 18.8994 126.25 20.625 126.25Z" fill="#FF9E00"/>
<path d="M20.625 66.25H35.4494C37.175 66.25 38.5744 64.8506 38.5744 63.125C38.5744 61.3994 37.175 60 35.4494 60H20.625C18.8994 60 17.5 61.3994 17.5 63.125C17.5 64.8506 18.8994 66.25 20.625 66.25Z" fill="#FF9E00"/>
<path d="M47.832 63.125C47.832 64.8506 49.2314 66.25 50.957 66.25H79.922C81.6477 66.25 83.047 64.8506 83.047 63.125C83.047 61.3994 81.6477 60 79.922 60H50.957C49.2311 60 47.832 61.3994 47.832 63.125Z" fill="#FF9E00"/>
<path d="M90.7812 63.125C90.7812 64.8506 92.1806 66.25 93.9062 66.25H122.5C124.226 66.25 125.625 64.8506 125.625 63.125C125.625 61.3994 124.226 60 122.5 60H93.9062C92.1806 60 90.7812 61.3994 90.7812 63.125Z" fill="#FF9E00"/>
<path d="M122.5 51.25C124.226 51.25 125.625 49.8506 125.625 48.125C125.625 46.3994 124.226 45 122.5 45H104.089C102.363 45 100.964 46.3994 100.964 48.125C100.964 49.8506 102.363 51.25 104.089 51.25H122.5Z" fill="#FF9E00"/>
<path d="M45.9375 45H20.625C18.8994 45 17.5 46.3994 17.5 48.125C17.5 49.8506 18.8994 51.25 20.625 51.25H45.9375C47.6631 51.25 49.0625 49.8506 49.0625 48.125C49.0625 46.3994 47.6631 45 45.9375 45Z" fill="#FF9E00"/>
<path d="M90.1042 45H61.673C59.9473 45 58.548 46.3994 58.548 48.125C58.548 49.8506 59.9473 51.25 61.673 51.25H90.1042C91.8298 51.25 93.2292 49.8506 93.2292 48.125C93.2292 46.3994 91.8298 45 90.1042 45Z" fill="#FF9E00"/>
<path d="M51.5967 141.25C50.7748 141.25 49.9686 141.584 49.3876 142.166C48.8064 142.747 48.4717 143.553 48.4717 144.375C48.4717 145.197 48.8061 146.003 49.3876 146.584C49.9686 147.165 50.7748 147.5 51.5967 147.5C52.4189 147.5 53.2248 147.166 53.8061 146.584C54.3904 146.003 54.7217 145.197 54.7217 144.375C54.7217 143.553 54.3904 142.747 53.8061 142.166C53.2248 141.584 52.422 141.25 51.5967 141.25Z" fill="#FF9E00"/>
</svg>
