<svg width="160" height="140" viewBox="0 0 160 140" fill="none" xmlns="http://www.w3.org/2000/svg">
<rect width="160" height="140" rx="12" fill="#F1F5FF"/>
<mask id="mask0_287_7970" style="mask-type:alpha" maskUnits="userSpaceOnUse" x="0" y="0" width="160" height="140">
<rect width="160" height="140" fill="#D9D9D9"/>
</mask>
<g mask="url(#mask0_287_7970)">
<path d="M19.0543 102.876L33.8541 95.4753L43.2732 70.9722C43.3841 70.6825 43.5535 70.4188 43.7709 70.1975C43.9882 69.9762 44.2489 69.8021 44.5366 69.6861L102.98 46.3225C103.389 46.1598 103.836 46.1201 104.267 46.2083C104.698 46.2965 105.093 46.5087 105.405 46.8189L113.2 54.6143C113.506 54.9264 113.715 55.3208 113.801 55.7494C113.887 56.178 113.847 56.6223 113.685 57.0285L90.3234 115.477C90.2074 115.765 90.0334 116.025 89.8121 116.243C89.5909 116.46 89.3272 116.63 89.0375 116.741L64.5366 126.161L57.1367 140.962C56.9809 141.288 56.7489 141.572 56.4603 141.79C56.1717 142.008 55.835 142.153 55.4785 142.214C55.3584 142.225 55.2376 142.225 55.1175 142.214C54.5201 142.211 53.9481 141.972 53.527 141.548L18.4677 106.486C18.2097 106.237 18.0147 105.93 17.899 105.591C17.7832 105.251 17.7501 104.889 17.8022 104.534C17.8627 104.178 18.0081 103.841 18.226 103.552C18.4439 103.264 18.728 103.032 19.0543 102.876ZM108.959 56.7352L107.706 55.4942L78.6145 84.5888C80.5317 87.3058 81.3598 90.6434 80.9349 93.9416C80.5099 97.2398 78.863 100.258 76.3197 102.401C73.7764 104.543 70.522 105.653 67.1998 105.511C63.8777 105.369 60.7298 103.985 58.3785 101.634C56.0273 99.2824 54.6439 96.1342 54.5019 92.8118C54.3599 89.4894 55.4697 86.2346 57.6118 83.6911C59.7538 81.1476 62.7722 79.5005 66.0701 79.0756C69.3681 78.6506 72.7053 79.4787 75.4221 81.3962L104.514 52.3016L103.273 51.0494L47.1311 73.5105L38.276 96.547L63.465 121.738L86.4994 112.882L108.959 56.7352ZM67.7741 83.4719C65.7464 83.4749 63.7826 84.1809 62.217 85.4696C60.6515 86.7583 59.5812 88.5499 59.1883 90.5393C58.7955 92.5287 59.1045 94.5927 60.0627 96.3798C61.0209 98.1669 62.569 99.5665 64.4432 100.34C66.3175 101.114 68.402 101.214 70.3416 100.623C72.2812 100.032 73.9559 98.7863 75.0804 97.099C76.2049 95.4116 76.7097 93.3865 76.5087 91.3687C76.3078 89.3509 75.4135 87.4652 73.9782 86.0328C72.3312 84.3908 70.0997 83.4697 67.7741 83.4719ZM54.4971 136.144L60.1373 124.863L35.1739 99.8976L23.8936 105.538L54.4971 136.144Z" fill="#F94E1D"/>
<path d="M119.042 118.523C119.473 118.115 120.045 117.888 120.638 117.888C121.232 117.888 121.803 118.115 122.234 118.523L125.1 121.389C132.746 111.01 136.964 98.5049 137.166 85.6154C137.368 72.7259 133.544 60.0943 126.228 49.4813C124.035 50.6876 121.512 51.151 119.034 50.802C116.556 50.453 114.259 49.3105 112.485 47.5456C110.711 45.7806 109.557 43.4884 109.196 41.0124C108.834 38.5363 109.285 36.0099 110.48 33.8115C99.8682 26.4941 87.2378 22.6701 74.3494 22.8723C61.461 23.0745 48.9568 27.2929 38.5794 34.9397L41.4898 37.7713C41.9093 38.1943 42.1445 38.7661 42.144 39.3619C42.1457 39.6589 42.0888 39.9532 41.9766 40.2281C41.8643 40.503 41.6989 40.7531 41.4898 40.9639L31.5405 50.8351C31.1178 51.2553 30.546 51.4912 29.95 51.4912C29.354 51.4912 28.7822 51.2553 28.3595 50.8351L18.4666 40.9413C18.2568 40.7318 18.0904 40.4829 17.9769 40.209C17.8634 39.9351 17.8049 39.6415 17.8049 39.345C17.8049 39.0485 17.8634 38.7549 17.9769 38.481C18.0904 38.2071 18.2568 37.9583 18.4666 37.7487L28.3595 27.855C28.7822 27.4347 29.354 27.1989 29.95 27.1989C30.546 27.1989 31.1178 27.4347 31.5405 27.855L35.3645 31.6568C44.7892 24.5642 55.9316 20.108 67.6477 18.746C79.3637 17.384 91.2311 19.1651 102.031 23.9065L89.0251 10.933C87.5503 11.6377 85.8737 11.7972 84.2925 11.3832C82.7114 10.9692 81.328 10.0085 80.3878 8.67151C79.4475 7.3345 79.0112 5.70762 79.1563 4.0795C79.3013 2.45137 80.0184 0.927265 81.1802 -0.222442C82.342 -1.37215 83.8734 -2.07313 85.5028 -2.20102C87.1322 -2.32891 88.7543 -1.87545 90.0812 -0.921078C91.4081 0.033293 92.3541 1.42687 92.7513 3.01243C93.1486 4.59799 92.9714 6.27302 92.2512 7.74036L114.203 29.7277C116.432 28.2325 119.11 27.5575 121.781 27.8182C124.453 28.0789 126.95 29.259 128.848 31.1569C130.746 33.0548 131.926 35.5528 132.187 38.2242C132.447 40.8956 131.772 43.5746 130.277 45.8036L152.263 67.7571C153.736 67.0393 155.415 66.867 157.003 67.2707C158.591 67.6745 159.985 68.6283 160.936 69.9625C161.887 71.2968 162.335 72.9251 162.199 74.5581C162.063 76.1911 161.353 77.7231 160.194 78.8818C159.035 80.0406 157.504 80.7509 155.871 80.8868C154.238 81.0226 152.61 80.5751 151.276 79.6238C149.941 78.6725 148.988 77.2789 148.584 75.6908C148.18 74.1026 148.353 72.4228 149.07 70.9497L136.064 57.9762C140.81 68.7744 142.596 80.6412 141.24 92.3582C139.884 104.075 135.435 115.22 128.348 124.649L132.161 128.473C132.581 128.896 132.817 129.468 132.817 130.064C132.817 130.66 132.581 131.232 132.161 131.655L122.268 141.548C121.847 141.972 121.275 142.211 120.678 142.214C120.38 142.214 120.085 142.155 119.81 142.041C119.535 141.927 119.286 141.759 119.076 141.548L109.172 131.655C108.752 131.232 108.516 130.66 108.516 130.064C108.516 129.468 108.752 128.896 109.172 128.473L119.042 118.523ZM29.9274 32.6157L23.2269 39.3168L29.9274 46.0179L36.6279 39.3168L29.9274 32.6157ZM87.7391 3.03604C87.4039 2.69803 86.9758 2.46723 86.5092 2.37293C86.0426 2.27863 85.5585 2.32507 85.1183 2.50636C84.6781 2.68766 84.3017 2.99564 84.0368 3.39122C83.7719 3.7868 83.6305 4.25215 83.6305 4.72824C83.6305 5.20433 83.7719 5.66968 84.0368 6.06526C84.3017 6.46085 84.6781 6.76882 85.1183 6.95012C85.5585 7.13141 86.0426 7.17786 86.5092 7.08355C86.9758 6.98925 87.4039 6.75845 87.7391 6.42044C87.9615 6.19832 88.1379 5.93453 88.2583 5.64417C88.3786 5.35381 88.4406 5.04257 88.4406 4.72824C88.4406 4.41392 88.3786 4.10267 88.2583 3.81231C88.1379 3.52195 87.9615 3.25816 87.7391 3.03604ZM125.641 34.3643C124.986 33.706 124.207 33.1836 123.35 32.8272C122.492 32.4707 121.573 32.2872 120.644 32.2872C119.715 32.2872 118.796 32.4707 117.938 32.8272C117.08 33.1836 116.302 33.706 115.647 34.3643C114.656 35.3531 113.982 36.6134 113.708 37.9858C113.434 39.3583 113.573 40.7811 114.108 42.0742C114.643 43.3674 115.55 44.4728 116.713 45.2505C117.877 46.0282 119.244 46.4434 120.644 46.4434C122.043 46.4434 123.411 46.0282 124.574 45.2505C125.738 44.4728 126.644 43.3674 127.179 42.0742C127.714 40.7811 127.854 39.3583 127.58 37.9858C127.306 36.6134 126.631 35.3531 125.641 34.3643ZM153.571 75.654C154.032 76.0381 154.619 76.2361 155.218 76.209C155.818 76.182 156.385 75.9318 156.809 75.5077C157.233 75.0836 157.483 74.5162 157.51 73.917C157.537 73.3179 157.339 72.7302 156.955 72.2696C156.504 71.8259 155.896 71.5773 155.263 71.5773C154.63 71.5773 154.023 71.8259 153.571 72.2696C153.349 72.4917 153.172 72.7555 153.052 73.0459C152.932 73.3362 152.87 73.6475 152.87 73.9618C152.87 74.2761 152.932 74.5874 153.052 74.8777C153.172 75.1681 153.349 75.4319 153.571 75.654ZM120.644 136.72L127.344 130.019L120.644 123.318L113.943 130.019L120.644 136.72Z" fill="#F94E1D"/>
</g>
</svg>
