<svg width="65" height="64" viewBox="0 0 65 64" fill="none" xmlns="http://www.w3.org/2000/svg">
<path d="M38.0785 22.2738H33.9145C33.9032 22.4916 33.884 22.6902 33.884 22.8899C33.8818 24.3355 33.8863 25.781 33.8806 27.2277C33.8716 29.9348 31.9002 31.9063 29.1806 31.9153C26.496 31.9243 23.8114 31.93 21.1268 31.9063C20.6314 31.9017 20.4859 32.0428 20.4893 32.5382C20.5084 35.6922 20.5051 38.8474 20.4893 42.0014C20.487 42.4347 20.6224 42.5972 21.0591 42.7112C23.1964 43.2698 24.5822 44.633 25.1317 46.7838C25.2434 47.2205 25.4172 47.3289 25.8472 47.3277C29.7516 47.3108 33.6572 47.3097 37.5617 47.3277C38.0232 47.33 38.1767 47.2217 38.2579 46.7308C38.8707 43.0306 41.7178 40.2399 45.3965 39.6678C50.373 38.8937 54.9658 42.8252 55.0933 47.8728C55.1926 51.8133 52.3997 55.7945 47.8137 56.4693C43.2039 57.1475 38.9237 53.9247 38.2399 49.2991C38.18 48.8974 38.0345 48.8162 37.6734 48.8173C33.6933 48.8263 29.7132 48.8353 25.7332 48.8071C25.1859 48.8037 25.1994 49.1434 25.1125 49.4673C24.4908 51.7795 22.4234 53.4496 20.1733 53.576C17.2607 53.7385 15.1855 51.7998 14.531 49.7923C13.5312 46.724 15.3717 43.412 18.5303 42.7022C18.9546 42.6074 19.0674 42.4291 19.0651 42.0229C19.0516 38.8496 19.0482 35.6764 19.0651 32.5032C19.0674 32.027 18.9128 31.9029 18.4535 31.9063C15.7497 31.9254 13.0471 31.9232 10.3433 31.9119C8.14847 31.9029 6.38244 30.5736 5.84981 28.522C5.73358 28.074 5.67828 27.5967 5.67715 27.1329C5.66474 21.4624 5.66587 15.7919 5.66925 10.1214C5.67151 7.28788 7.55265 5.35597 10.3772 5.34807C16.648 5.32888 22.9188 5.32775 29.1885 5.34807C32.0142 5.35709 33.8761 7.29014 33.8784 10.1338C33.8806 13.4199 33.8784 16.706 33.8784 19.9909C33.8784 20.2121 33.8784 20.4344 33.8784 20.6996H38.0627C38.136 20.3125 38.1755 19.9379 38.2793 19.5835C38.6664 18.2734 39.8276 17.4203 41.2765 17.3571C41.2957 17.3571 41.3149 17.3548 41.333 17.3571C43.9566 17.6821 46.3546 16.9396 48.7108 15.8788C50.2635 15.1803 51.8716 14.6037 53.4605 13.9875C53.7787 13.8645 53.9626 13.7189 54.0439 13.3443C54.2549 12.3693 54.9918 11.8254 55.9938 11.8152C56.3132 11.8119 56.6325 11.813 56.9508 11.8152C58.1481 11.8254 58.9876 12.6176 58.991 13.8171C59.0034 18.9426 59.0034 24.0691 58.991 29.1946C58.9876 30.3783 58.1943 31.1446 57.0038 31.1886C56.7228 31.1987 56.4407 31.1942 56.1586 31.1919C54.897 31.1784 54.3328 30.727 53.9818 29.5049C53.9355 29.3458 53.7595 29.1743 53.6015 29.1054C52.9323 28.8132 52.2395 28.5762 51.5714 28.2817C51.2261 28.1293 51.0433 28.188 50.8515 28.5175C50.2387 29.5715 49.582 30.5995 48.9658 31.6524C48.7085 32.0913 48.3644 32.2786 47.8611 32.2662C46.9978 32.2459 46.1334 32.2662 45.2701 32.2583C44.5524 32.2516 44.2985 31.9898 44.2963 31.2642C44.2929 29.5737 44.2805 27.8844 44.3042 26.1951C44.3109 25.7393 44.1552 25.6061 43.7196 25.623C42.9692 25.6512 42.2177 25.632 41.4672 25.6298C39.594 25.6253 38.4114 24.5984 38.1372 22.7387C38.1157 22.5931 38.0977 22.4475 38.074 22.2726L38.0785 22.2738ZM19.7738 12.5691V12.5668C15.7938 12.5668 11.8148 12.5747 7.83476 12.5566C7.32921 12.5544 7.16671 12.6819 7.16897 13.2123C7.18928 17.8683 7.17913 22.5243 7.18026 27.1803C7.18026 29.1652 8.42607 30.4144 10.4031 30.4144C16.6164 30.4144 22.8308 30.3738 29.0429 30.4393C30.8067 30.4573 32.434 29.1652 32.399 27.0618C32.3234 22.4633 32.3629 17.8626 32.3899 13.2631C32.3933 12.6627 32.1981 12.5555 31.6553 12.5578C27.6944 12.5781 23.7336 12.5691 19.7727 12.5691H19.7738ZM39.6267 48.0161C39.6177 51.898 42.7379 55.0678 46.5814 55.0813C50.4294 55.0938 53.623 51.9352 53.641 48.0985C53.6579 44.2956 50.4813 41.0783 46.6909 41.0603C42.8203 41.0422 39.6358 44.1782 39.6256 48.0161H39.6267ZM19.7761 11.1224V11.1201C23.5485 11.1201 27.3198 11.1201 31.0922 11.1201C31.9664 11.1201 32.3937 10.6826 32.3741 9.80772C32.338 8.15115 31.0572 6.82296 29.4063 6.81844C22.9888 6.80264 16.5701 6.80377 10.1526 6.81844C9.0896 6.8207 8.25116 7.32399 7.65421 8.21209C7.23781 8.83274 7.15205 9.52674 7.17687 10.2557C7.20847 11.1698 7.03356 11.1212 8.06497 11.1212C11.9683 11.1224 15.8716 11.1212 19.7749 11.1212L19.7761 11.1224ZM53.9649 15.4218C53.7042 15.5075 53.5259 15.5561 53.3555 15.6238C51.0049 16.5514 48.6589 17.4925 46.2993 18.3987C45.8682 18.5645 45.7463 18.7947 45.752 19.2292C45.7734 20.7492 45.7802 22.2693 45.7486 23.7882C45.7384 24.2689 45.9258 24.4799 46.3489 24.6424C48.4445 25.4504 50.5299 26.2866 52.6198 27.1092C53.0486 27.2773 53.483 27.4308 53.9649 27.6102V15.4218ZM23.8126 48.077C23.8126 45.8404 22.0206 44.0202 19.7986 44.0022C17.5948 43.9841 15.7464 45.8224 15.7407 48.0375C15.7351 50.3001 17.5564 52.1474 19.7874 52.1406C22.0059 52.1338 23.8114 50.3114 23.8126 48.077ZM57.4902 21.5087C57.4902 19.0114 57.4823 16.5141 57.4969 14.018C57.5003 13.5158 57.3232 13.2732 56.8097 13.3127C56.6788 13.3229 56.5468 13.3127 56.4159 13.3127C55.5176 13.3138 55.4928 13.3364 55.4928 14.2245C55.4928 18.9933 55.4928 23.7622 55.4928 28.531C55.4928 29.3383 55.8983 29.7374 56.7093 29.7283C57.3931 29.7204 57.4902 29.6279 57.4902 28.9429C57.4924 26.4648 57.4902 23.9868 57.4902 21.5087ZM44.2985 21.5245C44.2985 20.7944 44.2827 20.0631 44.3053 19.333C44.3166 18.9606 44.1767 18.8455 43.8156 18.8545C42.9737 18.8749 42.1296 18.85 41.2878 18.8647C40.3162 18.8816 39.6504 19.561 39.6324 20.5438C39.6211 21.1431 39.6267 21.7423 39.6301 22.3415C39.6369 23.4688 40.2553 24.1357 41.377 24.1752C42.1996 24.2046 43.0245 24.1741 43.8483 24.1842C44.1846 24.1888 44.3121 24.0545 44.3042 23.7159C44.2872 22.9858 44.2985 22.2557 44.2985 21.5245ZM45.8095 30.7045C45.9495 30.7225 46.0578 30.7462 46.1661 30.7496C47.2216 30.7857 48.0213 30.3535 48.5652 29.453C48.9365 28.8369 49.3044 28.2185 49.705 27.5493C48.3734 27.0257 47.131 26.5371 45.8095 26.0169V30.7045Z" fill="url(#paint0_linear_322_2109)"/>
<path d="M22.5193 21.4985C22.5193 23.0005 22.5216 24.5025 22.5182 26.0033C22.516 26.7774 22.3185 26.9862 21.5681 26.9896C20.3674 26.9964 19.1656 26.9964 17.9638 26.9896C17.2528 26.9851 17.0407 26.7616 17.0396 26.0338C17.0362 23.0118 17.0362 19.9886 17.0396 16.9666C17.0396 16.2422 17.2901 15.9962 18.0213 15.9939C19.2039 15.9894 20.3866 15.9894 21.5692 15.9939C22.2677 15.9973 22.5171 16.2433 22.5193 16.9373C22.525 18.4573 22.5205 19.9785 22.5193 21.4985ZM18.6149 17.5004C18.5619 17.5929 18.5269 17.6257 18.5269 17.6573C18.5145 20.1681 18.4987 22.68 18.5133 25.1908C18.5133 25.3104 18.7875 25.5192 18.9467 25.5316C19.4872 25.5745 20.0334 25.535 20.5761 25.5531C20.935 25.5655 21.0919 25.4334 21.0783 25.0656C21.0614 24.6164 21.0761 24.1662 21.0761 23.7159C21.0761 21.8224 21.0828 19.9288 21.0603 18.0353C21.058 17.8559 20.8741 17.5309 20.759 17.523C20.0345 17.4756 19.3066 17.4993 18.616 17.4993L18.6149 17.5004Z" fill="url(#paint1_linear_322_2109)"/>
<path d="M24.0022 22.4205C24.0022 21.2209 23.9976 20.0214 24.0033 18.8218C24.0078 18.0658 24.1883 17.8728 24.9196 17.8671C26.1372 17.857 27.3559 17.8581 28.5735 17.8671C29.254 17.8728 29.4887 18.1098 29.4898 18.7801C29.4943 21.2164 29.4943 23.6527 29.4887 26.0891C29.4876 26.7289 29.2416 26.9839 28.6164 26.9884C27.3616 26.9975 26.1056 26.9986 24.8496 26.9884C24.2278 26.9828 24.0112 26.7628 24.0055 26.132C23.9954 24.8952 24.0022 23.6584 24.0022 22.4216H23.9999L24.0022 22.4205ZM25.4477 22.4385C25.4477 23.321 25.4567 24.2034 25.4432 25.0847C25.4387 25.4199 25.5617 25.5621 25.9036 25.5531C26.4475 25.5384 26.9926 25.5373 27.5365 25.5531C27.8682 25.5621 28.0037 25.447 28.0014 25.0994C27.9901 23.3165 27.9879 21.5335 28.0014 19.7494C28.0037 19.3849 27.8412 19.3048 27.5229 19.3138C26.9982 19.3285 26.4712 19.3375 25.9465 19.3116C25.5346 19.2901 25.4342 19.4752 25.4421 19.8476C25.459 20.7109 25.4477 21.5741 25.4477 22.4374V22.4385Z" fill="url(#paint2_linear_322_2109)"/>
<path d="M15.5579 23.2262C15.5579 24.1842 15.5658 25.1412 15.5545 26.0992C15.5466 26.7729 15.339 26.9828 14.68 26.9873C13.4409 26.9964 12.2019 26.9952 10.9629 26.9873C10.3275 26.9828 10.0691 26.7312 10.0669 26.1049C10.059 24.2091 10.059 22.3121 10.0669 20.4152C10.0691 19.7991 10.34 19.5124 10.9572 19.5045C12.1963 19.4887 13.4353 19.4887 14.6743 19.5045C15.3052 19.5124 15.5478 19.7686 15.5568 20.4096C15.5692 21.3484 15.5602 22.2873 15.5591 23.2262H15.5579ZM11.5655 21.0009C11.5655 22.4555 11.5576 23.8389 11.5801 25.2202C11.5824 25.3308 11.7934 25.526 11.9153 25.5327C12.5134 25.5655 13.116 25.5734 13.7129 25.5294C13.8528 25.5192 14.0864 25.2777 14.0898 25.1389C14.1191 23.8829 14.1169 22.6258 14.0898 21.3699C14.0876 21.2446 13.8698 21.0234 13.7434 21.0167C13.0528 20.9817 12.3599 20.9997 11.5643 20.9997L11.5655 21.0009Z" fill="url(#paint3_linear_322_2109)"/>
<path d="M46.2305 49.0825C46.5284 48.683 46.7236 48.3546 46.9809 48.086C47.7482 47.2894 48.5336 46.5107 49.3258 45.7377C49.6711 45.4014 50.1575 45.3902 50.4283 45.6915C50.7443 46.0447 50.7149 46.4193 50.3933 46.7432C49.1667 47.9822 47.9367 49.219 46.6909 50.4389C46.3456 50.7774 45.9337 50.7515 45.5884 50.4107C44.6664 49.5034 43.7512 48.5882 42.8451 47.6651C42.5212 47.3356 42.4998 46.9474 42.8327 46.6168C43.1656 46.285 43.556 46.311 43.8799 46.6382C44.6168 47.383 45.3345 48.147 46.2305 49.0802V49.0825Z" fill="url(#paint4_linear_322_2109)"/>
<path d="M11.9085 8.2166C12.2651 8.2166 12.6217 8.20193 12.9771 8.22112C13.4026 8.24256 13.6881 8.45471 13.7219 8.90496C13.7558 9.3586 13.4996 9.65313 13.081 9.67682C12.2967 9.72083 11.5068 9.71971 10.7236 9.67344C10.3016 9.64861 10.0364 9.33603 10.0793 8.89819C10.121 8.47502 10.4043 8.23353 10.8399 8.21886C11.1953 8.20645 11.553 8.2166 11.9096 8.2166H11.9085Z" fill="url(#paint5_linear_322_2109)"/>
<path d="M16.6649 9.70955C16.3095 9.70955 15.9506 9.73325 15.5974 9.70391C15.1551 9.6678 14.856 9.43082 14.8346 8.95913C14.8154 8.53934 15.1573 8.22789 15.6482 8.21886C16.323 8.20532 16.9978 8.20983 17.6715 8.21773C18.1206 8.22225 18.431 8.41408 18.4716 8.89932C18.51 9.35409 18.2459 9.65651 17.7325 9.70278C17.3793 9.73438 17.0215 9.70842 16.6649 9.70955Z" fill="url(#paint6_linear_322_2109)"/>
<path d="M21.4078 9.71292C21.0704 9.71292 20.7307 9.73662 20.3956 9.70728C19.9397 9.66779 19.5955 9.4703 19.6147 8.93993C19.6339 8.42423 19.9544 8.21998 20.4317 8.21659C21.1065 8.21095 21.7813 8.21321 22.4562 8.21659C22.9245 8.21885 23.219 8.47275 23.2483 8.92075C23.2788 9.38341 22.9798 9.65424 22.5295 9.696C22.1582 9.73098 21.7802 9.70277 21.4056 9.70277V9.71179L21.4078 9.71292Z" fill="url(#paint7_linear_322_2109)"/>
<defs>
<linearGradient id="paint0_linear_322_2109" x1="5.66699" y1="56.5595" x2="56.8516" y2="3.26945" gradientUnits="userSpaceOnUse">
<stop stop-color="#733480"/>
<stop offset="1" stop-color="#FD6748"/>
</linearGradient>
<linearGradient id="paint1_linear_322_2109" x1="5.66699" y1="56.5595" x2="56.8516" y2="3.26945" gradientUnits="userSpaceOnUse">
<stop stop-color="#733480"/>
<stop offset="1" stop-color="#FD6748"/>
</linearGradient>
<linearGradient id="paint2_linear_322_2109" x1="5.66699" y1="56.5595" x2="56.8516" y2="3.26945" gradientUnits="userSpaceOnUse">
<stop stop-color="#733480"/>
<stop offset="1" stop-color="#FD6748"/>
</linearGradient>
<linearGradient id="paint3_linear_322_2109" x1="5.66699" y1="56.5595" x2="56.8516" y2="3.26945" gradientUnits="userSpaceOnUse">
<stop stop-color="#733480"/>
<stop offset="1" stop-color="#FD6748"/>
</linearGradient>
<linearGradient id="paint4_linear_322_2109" x1="5.66699" y1="56.5595" x2="56.8516" y2="3.26945" gradientUnits="userSpaceOnUse">
<stop stop-color="#733480"/>
<stop offset="1" stop-color="#FD6748"/>
</linearGradient>
<linearGradient id="paint5_linear_322_2109" x1="5.66699" y1="56.5595" x2="56.8516" y2="3.26945" gradientUnits="userSpaceOnUse">
<stop stop-color="#733480"/>
<stop offset="1" stop-color="#FD6748"/>
</linearGradient>
<linearGradient id="paint6_linear_322_2109" x1="5.66699" y1="56.5595" x2="56.8516" y2="3.26945" gradientUnits="userSpaceOnUse">
<stop stop-color="#733480"/>
<stop offset="1" stop-color="#FD6748"/>
</linearGradient>
<linearGradient id="paint7_linear_322_2109" x1="5.66699" y1="56.5595" x2="56.8516" y2="3.26945" gradientUnits="userSpaceOnUse">
<stop stop-color="#733480"/>
<stop offset="1" stop-color="#FD6748"/>
</linearGradient>
</defs>
</svg>
