<svg width="160" height="80" viewBox="0 0 160 80" fill="none" xmlns="http://www.w3.org/2000/svg">
<rect width="160" height="80" rx="12" fill="#F1F5FF"/>
<path d="M13.088 30.056C13.088 29.64 13.1947 29.3467 13.408 29.176C13.6213 29.0053 13.8773 28.92 14.176 28.92C14.4853 28.92 14.7467 29.0053 14.96 29.176C15.1733 29.3467 15.28 29.64 15.28 30.056C15.28 30.472 15.1733 30.7707 14.96 30.952C14.7467 31.1333 14.4853 31.224 14.176 31.224C13.8773 31.224 13.6213 31.1333 13.408 30.952C13.1947 30.7707 13.088 30.472 13.088 30.056ZM21.175 31.16C20.3857 31.16 19.6923 31.0053 19.095 30.696C18.4977 30.3867 18.0337 29.9067 17.703 29.256C17.3723 28.5947 17.207 27.7573 17.207 26.744C17.207 25.6773 17.383 24.8133 17.735 24.152C18.0977 23.4907 18.583 23.0053 19.191 22.696C19.8097 22.376 20.5137 22.216 21.303 22.216C21.783 22.216 22.231 22.2693 22.647 22.376C23.0737 22.472 23.4257 22.584 23.703 22.712L23.191 24.088C22.8923 23.9707 22.5723 23.8693 22.231 23.784C21.9003 23.6987 21.5857 23.656 21.287 23.656C20.7537 23.656 20.311 23.7733 19.959 24.008C19.6177 24.232 19.3617 24.5733 19.191 25.032C19.031 25.48 18.951 26.0453 18.951 26.728C18.951 27.3787 19.0363 27.928 19.207 28.376C19.3777 28.824 19.6283 29.1653 19.959 29.4C20.3003 29.624 20.7217 29.736 21.223 29.736C21.703 29.736 22.1243 29.6827 22.487 29.576C22.8497 29.4693 23.191 29.3307 23.511 29.16V30.632C23.2017 30.8133 22.8657 30.9467 22.503 31.032C22.1403 31.1173 21.6977 31.16 21.175 31.16ZM33.1468 26.68C33.1468 27.3947 33.0508 28.0293 32.8588 28.584C32.6668 29.1387 32.3948 29.608 32.0428 29.992C31.6908 30.376 31.2641 30.6693 30.7628 30.872C30.2614 31.064 29.6961 31.16 29.0668 31.16C28.4908 31.16 27.9574 31.064 27.4668 30.872C26.9761 30.6693 26.5494 30.376 26.1868 29.992C25.8348 29.608 25.5574 29.1387 25.3548 28.584C25.1521 28.0293 25.0508 27.3893 25.0508 26.664C25.0508 25.7147 25.2108 24.9093 25.5308 24.248C25.8614 23.5867 26.3308 23.0853 26.9388 22.744C27.5574 22.392 28.2828 22.216 29.1148 22.216C29.9041 22.216 30.5974 22.392 31.1948 22.744C31.8028 23.0853 32.2774 23.5867 32.6188 24.248C32.9708 24.9093 33.1468 25.72 33.1468 26.68ZM26.7948 26.68C26.7948 27.32 26.8748 27.8747 27.0348 28.344C27.1948 28.8027 27.4454 29.1547 27.7868 29.4C28.1281 29.6453 28.5654 29.768 29.0988 29.768C29.6321 29.768 30.0694 29.6453 30.4108 29.4C30.7521 29.1547 31.0028 28.8027 31.1628 28.344C31.3228 27.8747 31.4028 27.32 31.4028 26.68C31.4028 26.0187 31.3174 25.464 31.1468 25.016C30.9868 24.568 30.7361 24.2267 30.3948 23.992C30.0641 23.7467 29.6268 23.624 29.0828 23.624C28.2828 23.624 27.7014 23.8907 27.3388 24.424C26.9761 24.9573 26.7948 25.7093 26.7948 26.68ZM44.9608 22.216C45.9314 22.216 46.6621 22.4667 47.1528 22.968C47.6434 23.4693 47.8888 24.2747 47.8888 25.384V31H46.1928V25.608C46.1928 24.9467 46.0594 24.4507 45.7928 24.12C45.5368 23.7787 45.1314 23.608 44.5768 23.608C43.8088 23.608 43.2594 23.848 42.9288 24.328C42.5981 24.7973 42.4328 25.48 42.4328 26.376V31H40.7528V25.608C40.7528 25.1707 40.6888 24.8027 40.5608 24.504C40.4434 24.2053 40.2674 23.9813 40.0328 23.832C39.7981 23.6827 39.4941 23.608 39.1208 23.608C38.5874 23.608 38.1661 23.7253 37.8568 23.96C37.5474 24.1947 37.3234 24.5413 37.1848 25C37.0568 25.448 36.9928 25.9973 36.9928 26.648V31H35.2968V22.376H36.6408L36.8808 23.528H36.9768C37.1581 23.2293 37.3768 22.984 37.6328 22.792C37.8994 22.6 38.1928 22.456 38.5128 22.36C38.8328 22.264 39.1634 22.216 39.5048 22.216C40.1554 22.216 40.7048 22.3333 41.1528 22.568C41.6008 22.792 41.9261 23.1387 42.1288 23.608H42.2568C42.5341 23.128 42.9181 22.776 43.4088 22.552C43.8994 22.328 44.4168 22.216 44.9608 22.216Z" fill="url(#paint0_linear_287_7770)"/>
<path d="M59.088 30.056C59.088 29.64 59.1947 29.3467 59.408 29.176C59.6213 29.0053 59.8773 28.92 60.176 28.92C60.4853 28.92 60.7467 29.0053 60.96 29.176C61.1733 29.3467 61.28 29.64 61.28 30.056C61.28 30.472 61.1733 30.7707 60.96 30.952C60.7467 31.1333 60.4853 31.224 60.176 31.224C59.8773 31.224 59.6213 31.1333 59.408 30.952C59.1947 30.7707 59.088 30.472 59.088 30.056ZM65.399 22.376V31H63.703V22.376H65.399ZM64.567 19.096C64.823 19.096 65.047 19.1707 65.239 19.32C65.431 19.4693 65.527 19.72 65.527 20.072C65.527 20.4133 65.431 20.664 65.239 20.824C65.047 20.9733 64.823 21.048 64.567 21.048C64.2897 21.048 64.055 20.9733 63.863 20.824C63.6817 20.664 63.591 20.4133 63.591 20.072C63.591 19.72 63.6817 19.4693 63.863 19.32C64.055 19.1707 64.2897 19.096 64.567 19.096ZM71.0224 31.16C69.9877 31.16 69.1504 30.7867 68.5104 30.04C67.881 29.2933 67.5664 28.184 67.5664 26.712C67.5664 25.2293 67.8864 24.1093 68.5264 23.352C69.1664 22.5947 70.009 22.216 71.0544 22.216C71.4917 22.216 71.8704 22.2747 72.1904 22.392C72.521 22.4987 72.8037 22.648 73.0384 22.84C73.2837 23.032 73.4917 23.2453 73.6624 23.48H73.7584C73.737 23.3307 73.7104 23.1173 73.6784 22.84C73.6464 22.552 73.6304 22.296 73.6304 22.072V18.84H75.3264V31H73.9984L73.7104 29.848H73.6304C73.4704 30.0933 73.2677 30.3173 73.0224 30.52C72.7877 30.712 72.505 30.8667 72.1744 30.984C71.8437 31.1013 71.4597 31.16 71.0224 31.16ZM71.4224 29.768C72.2544 29.768 72.841 29.5387 73.1824 29.08C73.5237 28.6107 73.6944 27.912 73.6944 26.984V26.728C73.6944 25.7147 73.529 24.9413 73.1984 24.408C72.8784 23.8747 72.281 23.608 71.4064 23.608C70.713 23.608 70.1904 23.8907 69.8384 24.456C69.4864 25.0107 69.3104 25.7733 69.3104 26.744C69.3104 27.7147 69.4864 28.4613 69.8384 28.984C70.1904 29.5067 70.7184 29.768 71.4224 29.768Z" fill="url(#paint1_linear_287_7770)"/>
<path d="M86.088 30.056C86.088 29.64 86.1947 29.3467 86.408 29.176C86.6213 29.0053 86.8773 28.92 87.176 28.92C87.4853 28.92 87.7467 29.0053 87.96 29.176C88.1733 29.3467 88.28 29.64 88.28 30.056C88.28 30.472 88.1733 30.7707 87.96 30.952C87.7467 31.1333 87.4853 31.224 87.176 31.224C86.8773 31.224 86.6213 31.1333 86.408 30.952C86.1947 30.7707 86.088 30.472 86.088 30.056ZM94.175 31.16C93.3857 31.16 92.6923 31.0053 92.095 30.696C91.4977 30.3867 91.0337 29.9067 90.703 29.256C90.3723 28.5947 90.207 27.7573 90.207 26.744C90.207 25.6773 90.383 24.8133 90.735 24.152C91.0977 23.4907 91.583 23.0053 92.191 22.696C92.8097 22.376 93.5137 22.216 94.303 22.216C94.783 22.216 95.231 22.2693 95.647 22.376C96.0737 22.472 96.4257 22.584 96.703 22.712L96.191 24.088C95.8923 23.9707 95.5723 23.8693 95.231 23.784C94.9003 23.6987 94.5857 23.656 94.287 23.656C93.7537 23.656 93.311 23.7733 92.959 24.008C92.6177 24.232 92.3617 24.5733 92.191 25.032C92.031 25.48 91.951 26.0453 91.951 26.728C91.951 27.3787 92.0363 27.928 92.207 28.376C92.3777 28.824 92.6283 29.1653 92.959 29.4C93.3003 29.624 93.7217 29.736 94.223 29.736C94.703 29.736 95.1243 29.6827 95.487 29.576C95.8497 29.4693 96.191 29.3307 96.511 29.16V30.632C96.2017 30.8133 95.8657 30.9467 95.503 31.032C95.1403 31.1173 94.6977 31.16 94.175 31.16ZM106.147 26.68C106.147 27.3947 106.051 28.0293 105.859 28.584C105.667 29.1387 105.395 29.608 105.043 29.992C104.691 30.376 104.264 30.6693 103.763 30.872C103.261 31.064 102.696 31.16 102.067 31.16C101.491 31.16 100.957 31.064 100.467 30.872C99.9761 30.6693 99.5494 30.376 99.1868 29.992C98.8348 29.608 98.5574 29.1387 98.3548 28.584C98.1521 28.0293 98.0508 27.3893 98.0508 26.664C98.0508 25.7147 98.2108 24.9093 98.5308 24.248C98.8614 23.5867 99.3308 23.0853 99.9388 22.744C100.557 22.392 101.283 22.216 102.115 22.216C102.904 22.216 103.597 22.392 104.195 22.744C104.803 23.0853 105.277 23.5867 105.619 24.248C105.971 24.9093 106.147 25.72 106.147 26.68ZM99.7948 26.68C99.7948 27.32 99.8748 27.8747 100.035 28.344C100.195 28.8027 100.445 29.1547 100.787 29.4C101.128 29.6453 101.565 29.768 102.099 29.768C102.632 29.768 103.069 29.6453 103.411 29.4C103.752 29.1547 104.003 28.8027 104.163 28.344C104.323 27.8747 104.403 27.32 104.403 26.68C104.403 26.0187 104.317 25.464 104.147 25.016C103.987 24.568 103.736 24.2267 103.395 23.992C103.064 23.7467 102.627 23.624 102.083 23.624C101.283 23.624 100.701 23.8907 100.339 24.424C99.9761 24.9573 99.7948 25.7093 99.7948 26.68ZM108.057 30.056C108.057 29.64 108.163 29.3467 108.377 29.176C108.59 29.0053 108.846 28.92 109.145 28.92C109.454 28.92 109.715 29.0053 109.929 29.176C110.142 29.3467 110.249 29.64 110.249 30.056C110.249 30.472 110.142 30.7707 109.929 30.952C109.715 31.1333 109.454 31.224 109.145 31.224C108.846 31.224 108.59 31.1333 108.377 30.952C108.163 30.7707 108.057 30.472 108.057 30.056ZM114.368 22.376V31H112.672V22.376H114.368ZM113.536 19.096C113.792 19.096 114.016 19.1707 114.208 19.32C114.4 19.4693 114.496 19.72 114.496 20.072C114.496 20.4133 114.4 20.664 114.208 20.824C114.016 20.9733 113.792 21.048 113.536 21.048C113.258 21.048 113.024 20.9733 112.832 20.824C112.65 20.664 112.56 20.4133 112.56 20.072C112.56 19.72 112.65 19.4693 112.832 19.32C113.024 19.1707 113.258 19.096 113.536 19.096ZM119.991 31.16C118.956 31.16 118.119 30.7867 117.479 30.04C116.85 29.2933 116.535 28.184 116.535 26.712C116.535 25.2293 116.855 24.1093 117.495 23.352C118.135 22.5947 118.978 22.216 120.023 22.216C120.46 22.216 120.839 22.2747 121.159 22.392C121.49 22.4987 121.772 22.648 122.007 22.84C122.252 23.032 122.46 23.2453 122.631 23.48H122.727C122.706 23.3307 122.679 23.1173 122.647 22.84C122.615 22.552 122.599 22.296 122.599 22.072V18.84H124.295V31H122.967L122.679 29.848H122.599C122.439 30.0933 122.236 30.3173 121.991 30.52C121.756 30.712 121.474 30.8667 121.143 30.984C120.812 31.1013 120.428 31.16 119.991 31.16ZM120.391 29.768C121.223 29.768 121.81 29.5387 122.151 29.08C122.492 28.6107 122.663 27.912 122.663 26.984V26.728C122.663 25.7147 122.498 24.9413 122.167 24.408C121.847 23.8747 121.25 23.608 120.375 23.608C119.682 23.608 119.159 23.8907 118.807 24.456C118.455 25.0107 118.279 25.7733 118.279 26.744C118.279 27.7147 118.455 28.4613 118.807 28.984C119.159 29.5067 119.687 29.768 120.391 29.768Z" fill="url(#paint2_linear_287_7770)"/>
<path d="M13.088 60.056C13.088 59.64 13.1947 59.3467 13.408 59.176C13.6213 59.0053 13.8773 58.92 14.176 58.92C14.4853 58.92 14.7467 59.0053 14.96 59.176C15.1733 59.3467 15.28 59.64 15.28 60.056C15.28 60.472 15.1733 60.7707 14.96 60.952C14.7467 61.1333 14.4853 61.224 14.176 61.224C13.8773 61.224 13.6213 61.1333 13.408 60.952C13.1947 60.7707 13.088 60.472 13.088 60.056ZM22.071 52.216C23.0737 52.216 23.8417 52.4667 24.375 52.968C24.9083 53.4693 25.175 54.2747 25.175 55.384V61H23.495V55.624C23.495 54.952 23.351 54.4507 23.063 54.12C22.7857 53.7787 22.3377 53.608 21.719 53.608C20.8443 53.608 20.2363 53.8693 19.895 54.392C19.5643 54.9147 19.399 55.6667 19.399 56.648V61H17.703V52.376H19.047L19.287 53.528H19.383C19.575 53.2293 19.8097 52.984 20.087 52.792C20.3643 52.6 20.6737 52.456 21.015 52.36C21.3563 52.264 21.7083 52.216 22.071 52.216ZM31.1731 52.216C31.9305 52.216 32.5811 52.376 33.1251 52.696C33.6691 53.0053 34.0851 53.4533 34.3731 54.04C34.6718 54.6267 34.8211 55.32 34.8211 56.12V57.048H29.0291C29.0505 57.9333 29.2798 58.6107 29.7171 59.08C30.1651 59.5493 30.7891 59.784 31.5891 59.784C32.1438 59.784 32.6345 59.736 33.0611 59.64C33.4985 59.5333 33.9465 59.3787 34.4051 59.176V60.584C33.9785 60.776 33.5411 60.92 33.0931 61.016C32.6558 61.112 32.1331 61.16 31.5251 61.16C30.6931 61.16 29.9571 60.9947 29.3171 60.664C28.6771 60.3333 28.1758 59.8427 27.8131 59.192C27.4611 58.5307 27.2851 57.72 27.2851 56.76C27.2851 55.7893 27.4451 54.968 27.7651 54.296C28.0958 53.624 28.5491 53.112 29.1251 52.76C29.7118 52.3973 30.3945 52.216 31.1731 52.216ZM31.1731 53.528C30.5651 53.528 30.0745 53.7253 29.7011 54.12C29.3385 54.5147 29.1251 55.0747 29.0611 55.8H33.1251C33.1251 55.352 33.0558 54.9573 32.9171 54.616C32.7785 54.2747 32.5651 54.008 32.2771 53.816C31.9891 53.624 31.6211 53.528 31.1731 53.528ZM40.0414 59.784C40.2654 59.784 40.4947 59.7627 40.7294 59.72C40.964 59.6773 41.1667 59.6293 41.3374 59.576V60.856C41.156 60.9413 40.9107 61.0107 40.6014 61.064C40.292 61.128 39.9827 61.16 39.6734 61.16C39.204 61.16 38.772 61.08 38.3774 60.92C37.9934 60.76 37.684 60.4827 37.4494 60.088C37.2147 59.6933 37.0974 59.144 37.0974 58.44V53.672H35.8974V52.904L37.1614 52.264L37.7534 50.44H38.7934V52.376H41.2574V53.672H38.7934V58.408C38.7934 58.8773 38.9054 59.224 39.1294 59.448C39.364 59.672 39.668 59.784 40.0414 59.784Z" fill="url(#paint3_linear_287_7770)"/>
<path d="M51.088 60.056C51.088 59.64 51.1947 59.3467 51.408 59.176C51.6213 59.0053 51.8773 58.92 52.176 58.92C52.4853 58.92 52.7467 59.0053 52.96 59.176C53.1733 59.3467 53.28 59.64 53.28 60.056C53.28 60.472 53.1733 60.7707 52.96 60.952C52.7467 61.1333 52.4853 61.224 52.176 61.224C51.8773 61.224 51.6213 61.1333 51.408 60.952C51.1947 60.7707 51.088 60.472 51.088 60.056ZM63.303 56.68C63.303 57.3947 63.207 58.0293 63.015 58.584C62.823 59.1387 62.551 59.608 62.199 59.992C61.847 60.376 61.4203 60.6693 60.919 60.872C60.4177 61.064 59.8523 61.16 59.223 61.16C58.647 61.16 58.1137 61.064 57.623 60.872C57.1323 60.6693 56.7057 60.376 56.343 59.992C55.991 59.608 55.7137 59.1387 55.511 58.584C55.3083 58.0293 55.207 57.3893 55.207 56.664C55.207 55.7147 55.367 54.9093 55.687 54.248C56.0177 53.5867 56.487 53.0853 57.095 52.744C57.7137 52.392 58.439 52.216 59.271 52.216C60.0603 52.216 60.7537 52.392 61.351 52.744C61.959 53.0853 62.4337 53.5867 62.775 54.248C63.127 54.9093 63.303 55.72 63.303 56.68ZM56.951 56.68C56.951 57.32 57.031 57.8747 57.191 58.344C57.351 58.8027 57.6017 59.1547 57.943 59.4C58.2843 59.6453 58.7217 59.768 59.255 59.768C59.7883 59.768 60.2257 59.6453 60.567 59.4C60.9083 59.1547 61.159 58.8027 61.319 58.344C61.479 57.8747 61.559 57.32 61.559 56.68C61.559 56.0187 61.4737 55.464 61.303 55.016C61.143 54.568 60.8923 54.2267 60.551 53.992C60.2203 53.7467 59.783 53.624 59.239 53.624C58.439 53.624 57.8577 53.8907 57.495 54.424C57.1323 54.9573 56.951 55.7093 56.951 56.68ZM69.709 52.216C69.8583 52.216 70.0237 52.2267 70.205 52.248C70.3863 52.2587 70.5357 52.2747 70.653 52.296L70.477 53.88C70.3597 53.848 70.221 53.8213 70.061 53.8C69.901 53.7787 69.7517 53.768 69.613 53.768C69.293 53.768 68.9837 53.832 68.685 53.96C68.397 54.0773 68.1357 54.2533 67.901 54.488C67.6663 54.712 67.4797 54.9893 67.341 55.32C67.213 55.6507 67.149 56.0293 67.149 56.456V61H65.453V52.376H66.797L67.021 53.912H67.085C67.2663 53.6027 67.485 53.32 67.741 53.064C67.997 52.808 68.2903 52.6053 68.621 52.456C68.9517 52.296 69.3143 52.216 69.709 52.216ZM75.0696 52.216C75.6243 52.216 76.1256 52.3227 76.5736 52.536C77.0216 52.7493 77.4003 53.0747 77.7096 53.512H77.7896L77.9816 52.376H79.3576V61.112C79.3576 61.9227 79.2136 62.6053 78.9256 63.16C78.6376 63.7147 78.195 64.1307 77.5976 64.408C77.011 64.696 76.2696 64.84 75.3736 64.84C74.755 64.84 74.1843 64.7973 73.6616 64.712C73.139 64.6267 72.659 64.4933 72.2216 64.312V62.824C72.531 62.9733 72.8563 63.096 73.1976 63.192C73.539 63.2987 73.9016 63.3733 74.2856 63.416C74.6696 63.4693 75.0643 63.496 75.4696 63.496C76.1736 63.496 76.7176 63.2933 77.1016 62.888C77.4856 62.4933 77.6776 61.9333 77.6776 61.208V60.92C77.6776 60.7813 77.683 60.6 77.6936 60.376C77.7043 60.1413 77.715 59.9707 77.7256 59.864H77.6616C77.363 60.312 76.995 60.6427 76.5576 60.856C76.131 61.0587 75.635 61.16 75.0696 61.16C73.9816 61.16 73.1283 60.7707 72.5096 59.992C71.9016 59.2027 71.5976 58.1093 71.5976 56.712C71.5976 55.7733 71.7363 54.9733 72.0136 54.312C72.291 53.64 72.6856 53.1227 73.1976 52.76C73.7203 52.3973 74.3443 52.216 75.0696 52.216ZM75.4216 53.624C74.9736 53.624 74.595 53.7467 74.2856 53.992C73.9763 54.2267 73.7416 54.5733 73.5816 55.032C73.4216 55.4907 73.3416 56.056 73.3416 56.728C73.3416 57.7307 73.5176 58.4933 73.8696 59.016C74.2323 59.5387 74.7603 59.8 75.4536 59.8C75.859 59.8 76.2003 59.7467 76.4776 59.64C76.7656 59.5333 77.0003 59.368 77.1816 59.144C77.3736 58.92 77.5123 58.6373 77.5976 58.296C77.6936 57.944 77.7416 57.5227 77.7416 57.032V56.712C77.7416 55.976 77.6563 55.384 77.4856 54.936C77.3256 54.4773 77.075 54.1467 76.7336 53.944C76.3923 53.7307 75.955 53.624 75.4216 53.624Z" fill="url(#paint4_linear_287_7770)"/>
<path d="M90.088 60.056C90.088 59.64 90.1947 59.3467 90.408 59.176C90.6213 59.0053 90.8773 58.92 91.176 58.92C91.4853 58.92 91.7467 59.0053 91.96 59.176C92.1733 59.3467 92.28 59.64 92.28 60.056C92.28 60.472 92.1733 60.7707 91.96 60.952C91.7467 61.1333 91.4853 61.224 91.176 61.224C90.8773 61.224 90.6213 61.1333 90.408 60.952C90.1947 60.7707 90.088 60.472 90.088 60.056ZM98.047 52.216C99.135 52.216 99.9457 52.456 100.479 52.936C101.012 53.4053 101.279 54.1467 101.279 55.16V61H100.079L99.743 59.8H99.679C99.4337 60.1093 99.1777 60.3653 98.911 60.568C98.655 60.7707 98.3563 60.92 98.015 61.016C97.6843 61.112 97.279 61.16 96.799 61.16C96.287 61.16 95.823 61.0693 95.407 60.888C95.0017 60.696 94.6817 60.408 94.447 60.024C94.2123 59.6293 94.095 59.1387 94.095 58.552C94.095 57.6773 94.4257 57.0107 95.087 56.552C95.759 56.0933 96.7777 55.8427 98.143 55.8L99.615 55.752V55.272C99.615 54.632 99.471 54.184 99.183 53.928C98.895 53.672 98.4897 53.544 97.967 53.544C97.519 53.544 97.0923 53.608 96.687 53.736C96.2817 53.864 95.8977 54.0187 95.535 54.2L94.991 52.968C95.3963 52.7547 95.8603 52.5787 96.383 52.44C96.9163 52.2907 97.471 52.216 98.047 52.216ZM98.447 56.888C97.4657 56.9307 96.783 57.096 96.399 57.384C96.0257 57.6613 95.839 58.056 95.839 58.568C95.839 59.016 95.9723 59.3413 96.239 59.544C96.5163 59.7467 96.863 59.848 97.279 59.848C97.951 59.848 98.5057 59.6613 98.943 59.288C99.3803 58.9147 99.599 58.3547 99.599 57.608V56.856L98.447 56.888ZM107.363 61.16C106.573 61.16 105.88 61.0053 105.283 60.696C104.685 60.3867 104.221 59.9067 103.891 59.256C103.56 58.5947 103.395 57.7573 103.395 56.744C103.395 55.6773 103.571 54.8133 103.923 54.152C104.285 53.4907 104.771 53.0053 105.379 52.696C105.997 52.376 106.701 52.216 107.491 52.216C107.971 52.216 108.419 52.2693 108.835 52.376C109.261 52.472 109.613 52.584 109.891 52.712L109.379 54.088C109.08 53.9707 108.76 53.8693 108.419 53.784C108.088 53.6987 107.773 53.656 107.475 53.656C106.941 53.656 106.499 53.7733 106.147 54.008C105.805 54.232 105.549 54.5733 105.379 55.032C105.219 55.48 105.139 56.0453 105.139 56.728C105.139 57.3787 105.224 57.928 105.395 58.376C105.565 58.824 105.816 59.1653 106.147 59.4C106.488 59.624 106.909 59.736 107.411 59.736C107.891 59.736 108.312 59.6827 108.675 59.576C109.037 59.4693 109.379 59.3307 109.699 59.16V60.632C109.389 60.8133 109.053 60.9467 108.691 61.032C108.328 61.1173 107.885 61.16 107.363 61.16ZM111.494 60.056C111.494 59.64 111.601 59.3467 111.814 59.176C112.028 59.0053 112.284 58.92 112.582 58.92C112.892 58.92 113.153 59.0053 113.366 59.176C113.58 59.3467 113.686 59.64 113.686 60.056C113.686 60.472 113.58 60.7707 113.366 60.952C113.153 61.1333 112.892 61.224 112.582 61.224C112.284 61.224 112.028 61.1333 111.814 60.952C111.601 60.7707 111.494 60.472 111.494 60.056ZM117.805 52.376V61H116.109V52.376H117.805ZM116.973 49.096C117.229 49.096 117.453 49.1707 117.645 49.32C117.837 49.4693 117.933 49.72 117.933 50.072C117.933 50.4133 117.837 50.664 117.645 50.824C117.453 50.9733 117.229 51.048 116.973 51.048C116.696 51.048 116.461 50.9733 116.269 50.824C116.088 50.664 115.997 50.4133 115.997 50.072C115.997 49.72 116.088 49.4693 116.269 49.32C116.461 49.1707 116.696 49.096 116.973 49.096ZM123.429 61.16C122.394 61.16 121.557 60.7867 120.917 60.04C120.287 59.2933 119.973 58.184 119.973 56.712C119.973 55.2293 120.293 54.1093 120.933 53.352C121.573 52.5947 122.415 52.216 123.461 52.216C123.898 52.216 124.277 52.2747 124.597 52.392C124.927 52.4987 125.21 52.648 125.445 52.84C125.69 53.032 125.898 53.2453 126.069 53.48H126.165C126.143 53.3307 126.117 53.1173 126.085 52.84C126.053 52.552 126.037 52.296 126.037 52.072V48.84H127.733V61H126.405L126.117 59.848H126.037C125.877 60.0933 125.674 60.3173 125.429 60.52C125.194 60.712 124.911 60.8667 124.581 60.984C124.25 61.1013 123.866 61.16 123.429 61.16ZM123.829 59.768C124.661 59.768 125.247 59.5387 125.589 59.08C125.93 58.6107 126.101 57.912 126.101 56.984V56.728C126.101 55.7147 125.935 54.9413 125.605 54.408C125.285 53.8747 124.687 53.608 123.813 53.608C123.119 53.608 122.597 53.8907 122.245 54.456C121.893 55.0107 121.717 55.7733 121.717 56.744C121.717 57.7147 121.893 58.4613 122.245 58.984C122.597 59.5067 123.125 59.768 123.829 59.768Z" fill="url(#paint5_linear_287_7770)"/>
<defs>
<linearGradient id="paint0_linear_287_7770" x1="12" y1="37" x2="33.6713" y2="2.68713" gradientUnits="userSpaceOnUse">
<stop stop-color="#733480"/>
<stop offset="1" stop-color="#FD6748"/>
</linearGradient>
<linearGradient id="paint1_linear_287_7770" x1="58" y1="37" x2="81.3597" y2="18.5069" gradientUnits="userSpaceOnUse">
<stop stop-color="#733480"/>
<stop offset="1" stop-color="#FD6748"/>
</linearGradient>
<linearGradient id="paint2_linear_287_7770" x1="85" y1="37" x2="105.927" y2="1.24989" gradientUnits="userSpaceOnUse">
<stop stop-color="#733480"/>
<stop offset="1" stop-color="#FD6748"/>
</linearGradient>
<linearGradient id="paint3_linear_287_7770" x1="12" y1="67" x2="35.4146" y2="37.7317" gradientUnits="userSpaceOnUse">
<stop stop-color="#733480"/>
<stop offset="1" stop-color="#FD6748"/>
</linearGradient>
<linearGradient id="paint4_linear_287_7770" x1="50" y1="67" x2="73.2349" y2="36.9883" gradientUnits="userSpaceOnUse">
<stop stop-color="#733480"/>
<stop offset="1" stop-color="#FD6748"/>
</linearGradient>
<linearGradient id="paint5_linear_287_7770" x1="89" y1="67" x2="109.927" y2="31.2499" gradientUnits="userSpaceOnUse">
<stop stop-color="#733480"/>
<stop offset="1" stop-color="#FD6748"/>
</linearGradient>
</defs>
</svg>
