<svg width="284" height="156" viewBox="0 0 284 156" fill="none" xmlns="http://www.w3.org/2000/svg">
<rect width="284" height="156" rx="12" fill="white"/>
<path d="M20.768 30H16.64V29.168L17.984 28.864V19.728L16.64 19.408V18.576H20.768V19.408L19.424 19.728V28.864L20.768 29.168V30ZM26.9099 21.264C27.9339 21.264 28.7072 21.5147 29.2299 22.016C29.7525 22.5067 30.0139 23.3067 30.0139 24.416V30H28.6219V24.512C28.6219 23.8187 28.4672 23.3013 28.1579 22.96C27.8485 22.6187 27.3632 22.448 26.7019 22.448C25.7525 22.448 25.0965 22.7147 24.7339 23.248C24.3712 23.7813 24.1899 24.5493 24.1899 25.552V30H22.7819V21.424H23.9179L24.1259 22.592H24.2059C24.3979 22.2933 24.6325 22.048 24.9099 21.856C25.1979 21.6533 25.5125 21.504 25.8539 21.408C26.1952 21.312 26.5472 21.264 26.9099 21.264ZM35.5365 29.008C35.7498 29.008 35.9685 28.992 36.1925 28.96C36.4165 28.9173 36.5978 28.8747 36.7365 28.832V29.904C36.5872 29.9787 36.3738 30.0373 36.0965 30.08C35.8192 30.1333 35.5525 30.16 35.2965 30.16C34.8485 30.16 34.4325 30.0853 34.0485 29.936C33.6752 29.776 33.3712 29.504 33.1365 29.12C32.9018 28.736 32.7845 28.1973 32.7845 27.504V22.512H31.5685V21.84L32.8005 21.28L33.3605 19.456H34.1925V21.424H36.6725V22.512H34.1925V27.472C34.1925 27.9947 34.3152 28.384 34.5605 28.64C34.8165 28.8853 35.1418 29.008 35.5365 29.008ZM41.7658 21.264C42.5018 21.264 43.1311 21.424 43.6538 21.744C44.1871 22.064 44.5924 22.5173 44.8698 23.104C45.1578 23.68 45.3018 24.3573 45.3018 25.136V25.984H39.4298C39.4511 26.9547 39.6964 27.696 40.1658 28.208C40.6458 28.7093 41.3124 28.96 42.1658 28.96C42.7098 28.96 43.1898 28.912 43.6058 28.816C44.0324 28.7093 44.4698 28.56 44.9178 28.368V29.6C44.4804 29.792 44.0484 29.9307 43.6218 30.016C43.1951 30.112 42.6884 30.16 42.1018 30.16C41.2911 30.16 40.5711 29.9947 39.9418 29.664C39.3231 29.3333 38.8378 28.8427 38.4858 28.192C38.1444 27.5307 37.9738 26.7253 37.9738 25.776C37.9738 24.8373 38.1284 24.032 38.4378 23.36C38.7578 22.688 39.2004 22.1707 39.7658 21.808C40.3418 21.4453 41.0084 21.264 41.7658 21.264ZM41.7498 22.416C41.0778 22.416 40.5444 22.6347 40.1498 23.072C39.7658 23.4987 39.5364 24.096 39.4618 24.864H43.8298C43.8298 24.3733 43.7551 23.9467 43.6058 23.584C43.4564 23.2213 43.2271 22.9387 42.9178 22.736C42.6191 22.5227 42.2298 22.416 41.7498 22.416ZM50.525 21.264C51.0903 21.264 51.597 21.3707 52.045 21.584C52.5037 21.7973 52.893 22.1227 53.213 22.56H53.293L53.485 21.424H54.605V30.144C54.605 30.9547 54.4663 31.632 54.189 32.176C53.9117 32.7307 53.4903 33.1467 52.925 33.424C52.3597 33.7013 51.6397 33.84 50.765 33.84C50.1463 33.84 49.5757 33.792 49.053 33.696C48.541 33.6107 48.0823 33.4773 47.677 33.296V32C47.9543 32.1387 48.2583 32.256 48.589 32.352C48.9197 32.4587 49.277 32.5387 49.661 32.592C50.045 32.6453 50.4397 32.672 50.845 32.672C51.581 32.672 52.157 32.4533 52.573 32.016C52.9997 31.5893 53.213 31.0027 53.213 30.256V29.92C53.213 29.792 53.2183 29.6107 53.229 29.376C53.2397 29.1307 53.2503 28.96 53.261 28.864H53.197C52.8983 29.3013 52.525 29.6267 52.077 29.84C51.6397 30.0533 51.1277 30.16 50.541 30.16C49.4317 30.16 48.5623 29.7707 47.933 28.992C47.3143 28.2133 47.005 27.1253 47.005 25.728C47.005 24.8107 47.1437 24.0213 47.421 23.36C47.709 22.688 48.1143 22.1707 48.637 21.808C49.1597 21.4453 49.789 21.264 50.525 21.264ZM50.717 22.448C50.237 22.448 49.8263 22.576 49.485 22.832C49.1543 23.088 48.8983 23.4613 48.717 23.952C48.5463 24.4427 48.461 25.04 48.461 25.744C48.461 26.8 48.653 27.6107 49.037 28.176C49.4317 28.7307 50.0023 29.008 50.749 29.008C51.1863 29.008 51.5597 28.9547 51.869 28.848C52.1783 28.7307 52.4343 28.5547 52.637 28.32C52.8397 28.0747 52.989 27.7653 53.085 27.392C53.181 27.0187 53.229 26.576 53.229 26.064V25.728C53.229 24.9493 53.1383 24.32 52.957 23.84C52.7863 23.36 52.5143 23.008 52.141 22.784C51.7677 22.56 51.293 22.448 50.717 22.448ZM61.3288 21.264C61.4888 21.264 61.6594 21.2747 61.8408 21.296C62.0328 21.3067 62.1981 21.328 62.3368 21.36L62.1608 22.656C62.0221 22.624 61.8674 22.5973 61.6968 22.576C61.5368 22.5547 61.3821 22.544 61.2328 22.544C60.9021 22.544 60.5874 22.6133 60.2888 22.752C59.9901 22.8907 59.7234 23.088 59.4888 23.344C59.2541 23.5893 59.0674 23.888 58.9288 24.24C58.8008 24.592 58.7368 24.9867 58.7368 25.424V30H57.3288V21.424H58.4808L58.6408 22.992H58.7048C58.8861 22.672 59.1048 22.384 59.3608 22.128C59.6168 21.8613 59.9101 21.6533 60.2408 21.504C60.5714 21.344 60.9341 21.264 61.3288 21.264ZM66.8736 21.28C67.919 21.28 68.6923 21.5093 69.1936 21.968C69.695 22.4267 69.9456 23.1573 69.9456 24.16V30H68.9216L68.6496 28.784H68.5856C68.3403 29.0933 68.0843 29.3547 67.8176 29.568C67.5616 29.7707 67.263 29.92 66.9216 30.016C66.591 30.112 66.1856 30.16 65.7056 30.16C65.1936 30.16 64.7296 30.0693 64.3136 29.888C63.9083 29.7067 63.5883 29.4293 63.3536 29.056C63.119 28.672 63.0016 28.192 63.0016 27.616C63.0016 26.7627 63.3376 26.1067 64.0096 25.648C64.6816 25.1787 65.7163 24.9227 67.1136 24.88L68.5696 24.832V24.32C68.5696 23.6053 68.415 23.1093 68.1056 22.832C67.7963 22.5547 67.359 22.416 66.7936 22.416C66.3456 22.416 65.919 22.4853 65.5136 22.624C65.1083 22.752 64.7296 22.9013 64.3776 23.072L63.9456 22.016C64.319 21.8133 64.7616 21.6427 65.2736 21.504C65.7856 21.3547 66.319 21.28 66.8736 21.28ZM67.2896 25.856C66.223 25.8987 65.4816 26.0693 65.0656 26.368C64.6603 26.6667 64.4576 27.088 64.4576 27.632C64.4576 28.112 64.6016 28.464 64.8896 28.688C65.1883 28.912 65.567 29.024 66.0256 29.024C66.751 29.024 67.3536 28.8267 67.8336 28.432C68.3136 28.0267 68.5536 27.408 68.5536 26.576V25.808L67.2896 25.856ZM78.1784 27.632C78.1784 28.1867 78.0397 28.6507 77.7624 29.024C77.485 29.3973 77.0904 29.68 76.5784 29.872C76.0664 30.064 75.4584 30.16 74.7544 30.16C74.157 30.16 73.6397 30.112 73.2024 30.016C72.7757 29.92 72.397 29.7867 72.0664 29.616V28.336C72.4077 28.5067 72.8184 28.6667 73.2984 28.816C73.789 28.9547 74.285 29.024 74.7864 29.024C75.501 29.024 76.0184 28.912 76.3384 28.688C76.6584 28.4533 76.8184 28.144 76.8184 27.76C76.8184 27.5467 76.7597 27.3547 76.6424 27.184C76.525 27.0133 76.3117 26.8427 76.0024 26.672C75.7037 26.5013 75.2717 26.3093 74.7064 26.096C74.1517 25.8827 73.677 25.6693 73.2824 25.456C72.8877 25.2427 72.5837 24.9867 72.3704 24.688C72.157 24.3893 72.0504 24.0053 72.0504 23.536C72.0504 22.8107 72.3437 22.2507 72.9304 21.856C73.5277 21.4613 74.3064 21.264 75.2664 21.264C75.789 21.264 76.2744 21.3173 76.7224 21.424C77.181 21.52 77.6077 21.6587 78.0024 21.84L77.5224 22.96C77.2877 22.8533 77.037 22.7627 76.7704 22.688C76.5144 22.6027 76.253 22.5387 75.9864 22.496C75.7197 22.4427 75.4477 22.416 75.1704 22.416C74.5944 22.416 74.1517 22.512 73.8424 22.704C73.5437 22.8853 73.3944 23.136 73.3944 23.456C73.3944 23.6907 73.4637 23.8933 73.6024 24.064C73.741 24.224 73.9704 24.384 74.2904 24.544C74.621 24.6933 75.0584 24.8747 75.6024 25.088C76.1464 25.2907 76.6104 25.4987 76.9944 25.712C77.3784 25.9253 77.6717 26.1867 77.8744 26.496C78.077 26.7947 78.1784 27.1733 78.1784 27.632ZM81.6586 21.424V30H80.2506V21.424H81.6586ZM80.9706 18.208C81.184 18.208 81.3706 18.2827 81.5306 18.432C81.7013 18.5707 81.7866 18.7947 81.7866 19.104C81.7866 19.4027 81.7013 19.6267 81.5306 19.776C81.3706 19.9253 81.184 20 80.9706 20C80.736 20 80.5386 19.9253 80.3786 19.776C80.2186 19.6267 80.1386 19.4027 80.1386 19.104C80.1386 18.7947 80.2186 18.5707 80.3786 18.432C80.5386 18.2827 80.736 18.208 80.9706 18.208ZM91.7479 18.576C93.2412 18.576 94.3292 18.8693 95.0119 19.456C95.6945 20.0427 96.0359 20.8693 96.0359 21.936C96.0359 22.4053 95.9559 22.8587 95.7959 23.296C95.6465 23.7227 95.3959 24.1067 95.0439 24.448C94.6919 24.7893 94.2225 25.0613 93.6359 25.264C93.0492 25.456 92.3292 25.552 91.4759 25.552H90.1639V30H88.7239V18.576H91.7479ZM91.6199 19.808H90.1639V24.32H91.3159C92.0412 24.32 92.6439 24.2453 93.1239 24.096C93.6039 23.936 93.9612 23.6853 94.1959 23.344C94.4305 23.0027 94.5479 22.5547 94.5479 22C94.5479 21.264 94.3132 20.7147 93.8439 20.352C93.3745 19.9893 92.6332 19.808 91.6199 19.808ZM101.467 21.28C102.513 21.28 103.286 21.5093 103.787 21.968C104.289 22.4267 104.539 23.1573 104.539 24.16V30H103.515L103.243 28.784H103.179C102.934 29.0933 102.678 29.3547 102.411 29.568C102.155 29.7707 101.857 29.92 101.515 30.016C101.185 30.112 100.779 30.16 100.299 30.16C99.7874 30.16 99.3234 30.0693 98.9074 29.888C98.502 29.7067 98.182 29.4293 97.9474 29.056C97.7127 28.672 97.5954 28.192 97.5954 27.616C97.5954 26.7627 97.9314 26.1067 98.6034 25.648C99.2754 25.1787 100.31 24.9227 101.707 24.88L103.163 24.832V24.32C103.163 23.6053 103.009 23.1093 102.699 22.832C102.39 22.5547 101.953 22.416 101.387 22.416C100.939 22.416 100.513 22.4853 100.107 22.624C99.702 22.752 99.3234 22.9013 98.9714 23.072L98.5394 22.016C98.9127 21.8133 99.3554 21.6427 99.8674 21.504C100.379 21.3547 100.913 21.28 101.467 21.28ZM101.883 25.856C100.817 25.8987 100.075 26.0693 99.6594 26.368C99.254 26.6667 99.0514 27.088 99.0514 27.632C99.0514 28.112 99.1954 28.464 99.4834 28.688C99.782 28.912 100.161 29.024 100.619 29.024C101.345 29.024 101.947 28.8267 102.427 28.432C102.907 28.0267 103.147 27.408 103.147 26.576V25.808L101.883 25.856ZM105.844 21.424H107.348L109.204 26.304C109.311 26.592 109.407 26.8693 109.492 27.136C109.588 27.4027 109.673 27.664 109.748 27.92C109.823 28.1653 109.881 28.4053 109.924 28.64H109.988C110.052 28.3733 110.153 28.0267 110.292 27.6C110.431 27.1627 110.575 26.7253 110.724 26.288L112.468 21.424H113.988L110.292 31.184C110.089 31.7173 109.849 32.1813 109.572 32.576C109.305 32.9813 108.975 33.2907 108.58 33.504C108.196 33.728 107.727 33.84 107.172 33.84C106.916 33.84 106.692 33.824 106.5 33.792C106.308 33.7707 106.143 33.744 106.004 33.712V32.592C106.121 32.6133 106.26 32.6347 106.42 32.656C106.591 32.6773 106.767 32.688 106.948 32.688C107.279 32.688 107.561 32.624 107.796 32.496C108.041 32.3787 108.249 32.2027 108.42 31.968C108.591 31.744 108.735 31.4773 108.852 31.168L109.3 30.032L105.844 21.424ZM124.752 21.264C125.723 21.264 126.448 21.5147 126.928 22.016C127.408 22.5067 127.648 23.3067 127.648 24.416V30H126.256V24.48C126.256 23.808 126.112 23.3013 125.824 22.96C125.547 22.6187 125.11 22.448 124.512 22.448C123.68 22.448 123.083 22.688 122.72 23.168C122.368 23.648 122.192 24.3467 122.192 25.264V30H120.8V24.48C120.8 24.032 120.736 23.6587 120.608 23.36C120.48 23.0507 120.288 22.8213 120.032 22.672C119.776 22.5227 119.446 22.448 119.04 22.448C118.464 22.448 118.011 22.5707 117.68 22.816C117.35 23.0507 117.11 23.3973 116.96 23.856C116.822 24.3147 116.752 24.88 116.752 25.552V30H115.344V21.424H116.48L116.688 22.592H116.768C116.95 22.2933 117.168 22.048 117.424 21.856C117.691 21.6533 117.984 21.504 118.304 21.408C118.624 21.312 118.955 21.264 119.296 21.264C119.958 21.264 120.507 21.3813 120.944 21.616C121.392 21.8507 121.718 22.2133 121.92 22.704H122C122.288 22.2133 122.678 21.8507 123.168 21.616C123.67 21.3813 124.198 21.264 124.752 21.264ZM133.61 21.264C134.346 21.264 134.975 21.424 135.498 21.744C136.031 22.064 136.436 22.5173 136.714 23.104C137.002 23.68 137.146 24.3573 137.146 25.136V25.984H131.274C131.295 26.9547 131.54 27.696 132.01 28.208C132.49 28.7093 133.156 28.96 134.01 28.96C134.554 28.96 135.034 28.912 135.45 28.816C135.876 28.7093 136.314 28.56 136.762 28.368V29.6C136.324 29.792 135.892 29.9307 135.466 30.016C135.039 30.112 134.532 30.16 133.946 30.16C133.135 30.16 132.415 29.9947 131.786 29.664C131.167 29.3333 130.682 28.8427 130.33 28.192C129.988 27.5307 129.818 26.7253 129.818 25.776C129.818 24.8373 129.972 24.032 130.282 23.36C130.602 22.688 131.044 22.1707 131.61 21.808C132.186 21.4453 132.852 21.264 133.61 21.264ZM133.594 22.416C132.922 22.416 132.388 22.6347 131.994 23.072C131.61 23.4987 131.38 24.096 131.306 24.864H135.674C135.674 24.3733 135.599 23.9467 135.45 23.584C135.3 23.2213 135.071 22.9387 134.762 22.736C134.463 22.5227 134.074 22.416 133.594 22.416ZM143.457 21.264C144.481 21.264 145.254 21.5147 145.777 22.016C146.299 22.5067 146.561 23.3067 146.561 24.416V30H145.169V24.512C145.169 23.8187 145.014 23.3013 144.705 22.96C144.395 22.6187 143.91 22.448 143.249 22.448C142.299 22.448 141.643 22.7147 141.281 23.248C140.918 23.7813 140.737 24.5493 140.737 25.552V30H139.329V21.424H140.465L140.673 22.592H140.753C140.945 22.2933 141.179 22.048 141.457 21.856C141.745 21.6533 142.059 21.504 142.401 21.408C142.742 21.312 143.094 21.264 143.457 21.264ZM152.083 29.008C152.297 29.008 152.515 28.992 152.739 28.96C152.963 28.9173 153.145 28.8747 153.283 28.832V29.904C153.134 29.9787 152.921 30.0373 152.643 30.08C152.366 30.1333 152.099 30.16 151.843 30.16C151.395 30.16 150.979 30.0853 150.595 29.936C150.222 29.776 149.918 29.504 149.683 29.12C149.449 28.736 149.331 28.1973 149.331 27.504V22.512H148.115V21.84L149.347 21.28L149.907 19.456H150.739V21.424H153.219V22.512H150.739V27.472C150.739 27.9947 150.862 28.384 151.107 28.64C151.363 28.8853 151.689 29.008 152.083 29.008ZM164.309 23.968H168.261V29.568C167.642 29.7707 167.018 29.92 166.389 30.016C165.76 30.112 165.045 30.16 164.245 30.16C163.061 30.16 162.064 29.9253 161.253 29.456C160.442 28.976 159.824 28.2987 159.397 27.424C158.981 26.5387 158.773 25.4933 158.773 24.288C158.773 23.0933 159.008 22.0587 159.477 21.184C159.946 20.3093 160.618 19.632 161.493 19.152C162.378 18.6613 163.445 18.416 164.693 18.416C165.333 18.416 165.936 18.4747 166.501 18.592C167.077 18.7093 167.61 18.8747 168.101 19.088L167.557 20.336C167.152 20.1547 166.693 20 166.181 19.872C165.68 19.744 165.157 19.68 164.613 19.68C163.706 19.68 162.928 19.8667 162.277 20.24C161.626 20.6133 161.13 21.1467 160.789 21.84C160.448 22.5227 160.277 23.3387 160.277 24.288C160.277 25.1947 160.421 26 160.709 26.704C161.008 27.3973 161.472 27.9413 162.101 28.336C162.73 28.72 163.557 28.912 164.581 28.912C164.922 28.912 165.221 28.9013 165.477 28.88C165.744 28.848 165.984 28.8107 166.197 28.768C166.421 28.7253 166.629 28.6827 166.821 28.64V25.248H164.309V23.968ZM174.046 21.28C175.091 21.28 175.864 21.5093 176.366 21.968C176.867 22.4267 177.118 23.1573 177.118 24.16V30H176.094L175.822 28.784H175.758C175.512 29.0933 175.256 29.3547 174.99 29.568C174.734 29.7707 174.435 29.92 174.094 30.016C173.763 30.112 173.358 30.16 172.878 30.16C172.366 30.16 171.902 30.0693 171.486 29.888C171.08 29.7067 170.76 29.4293 170.526 29.056C170.291 28.672 170.174 28.192 170.174 27.616C170.174 26.7627 170.51 26.1067 171.182 25.648C171.854 25.1787 172.888 24.9227 174.286 24.88L175.742 24.832V24.32C175.742 23.6053 175.587 23.1093 175.278 22.832C174.968 22.5547 174.531 22.416 173.966 22.416C173.518 22.416 173.091 22.4853 172.686 22.624C172.28 22.752 171.902 22.9013 171.549 23.072L171.118 22.016C171.491 21.8133 171.934 21.6427 172.446 21.504C172.958 21.3547 173.491 21.28 174.046 21.28ZM174.462 25.856C173.395 25.8987 172.654 26.0693 172.238 26.368C171.832 26.6667 171.63 27.088 171.63 27.632C171.63 28.112 171.774 28.464 172.062 28.688C172.36 28.912 172.739 29.024 173.198 29.024C173.923 29.024 174.526 28.8267 175.006 28.432C175.486 28.0267 175.726 27.408 175.726 26.576V25.808L174.462 25.856ZM182.63 29.008C182.844 29.008 183.062 28.992 183.286 28.96C183.51 28.9173 183.692 28.8747 183.83 28.832V29.904C183.681 29.9787 183.468 30.0373 183.19 30.08C182.913 30.1333 182.646 30.16 182.39 30.16C181.942 30.16 181.526 30.0853 181.142 29.936C180.769 29.776 180.465 29.504 180.23 29.12C179.996 28.736 179.878 28.1973 179.878 27.504V22.512H178.662V21.84L179.894 21.28L180.454 19.456H181.286V21.424H183.766V22.512H181.286V27.472C181.286 27.9947 181.409 28.384 181.654 28.64C181.91 28.8853 182.236 29.008 182.63 29.008ZM188.86 21.264C189.596 21.264 190.225 21.424 190.748 21.744C191.281 22.064 191.686 22.5173 191.964 23.104C192.252 23.68 192.396 24.3573 192.396 25.136V25.984H186.524C186.545 26.9547 186.79 27.696 187.26 28.208C187.74 28.7093 188.406 28.96 189.26 28.96C189.804 28.96 190.284 28.912 190.7 28.816C191.126 28.7093 191.564 28.56 192.012 28.368V29.6C191.574 29.792 191.142 29.9307 190.716 30.016C190.289 30.112 189.782 30.16 189.196 30.16C188.385 30.16 187.665 29.9947 187.036 29.664C186.417 29.3333 185.932 28.8427 185.58 28.192C185.238 27.5307 185.068 26.7253 185.068 25.776C185.068 24.8373 185.222 24.032 185.532 23.36C185.852 22.688 186.294 22.1707 186.86 21.808C187.436 21.4453 188.102 21.264 188.86 21.264ZM188.844 22.416C188.172 22.416 187.638 22.6347 187.244 23.072C186.86 23.4987 186.63 24.096 186.556 24.864H190.924C190.924 24.3733 190.849 23.9467 190.7 23.584C190.55 23.2213 190.321 22.9387 190.012 22.736C189.713 22.5227 189.324 22.416 188.844 22.416ZM199.802 25.152C199.738 24.928 199.674 24.7093 199.61 24.496C199.546 24.272 199.488 24.064 199.434 23.872C199.392 23.6693 199.349 23.4827 199.306 23.312C199.264 23.1413 199.232 22.9973 199.21 22.88H199.146C199.125 22.9973 199.093 23.1413 199.05 23.312C199.018 23.4827 198.976 23.6693 198.922 23.872C198.88 24.0747 198.826 24.288 198.762 24.512C198.709 24.7253 198.645 24.944 198.57 25.168L197.034 29.984H195.434L193.082 21.408H194.538L195.722 25.984C195.808 26.2933 195.888 26.608 195.962 26.928C196.037 27.2373 196.101 27.536 196.154 27.824C196.218 28.1013 196.261 28.3413 196.282 28.544H196.346C196.378 28.416 196.416 28.256 196.458 28.064C196.501 27.872 196.544 27.6693 196.586 27.456C196.64 27.2427 196.693 27.0293 196.746 26.816C196.81 26.6027 196.869 26.4107 196.922 26.24L198.442 21.408H199.978L201.45 26.24C201.525 26.4853 201.6 26.7467 201.674 27.024C201.76 27.3013 201.834 27.5733 201.898 27.84C201.962 28.096 202.005 28.3253 202.026 28.528H202.09C202.112 28.3467 202.149 28.1227 202.202 27.856C202.266 27.5787 202.336 27.28 202.41 26.96C202.496 26.6293 202.581 26.304 202.666 25.984L203.866 21.408H205.306L202.922 29.984H201.274L199.802 25.152ZM210.092 21.28C211.138 21.28 211.911 21.5093 212.412 21.968C212.914 22.4267 213.164 23.1573 213.164 24.16V30H212.14L211.868 28.784H211.804C211.559 29.0933 211.303 29.3547 211.036 29.568C210.78 29.7707 210.482 29.92 210.14 30.016C209.81 30.112 209.404 30.16 208.924 30.16C208.412 30.16 207.948 30.0693 207.532 29.888C207.127 29.7067 206.807 29.4293 206.572 29.056C206.338 28.672 206.22 28.192 206.22 27.616C206.22 26.7627 206.556 26.1067 207.228 25.648C207.9 25.1787 208.935 24.9227 210.332 24.88L211.788 24.832V24.32C211.788 23.6053 211.634 23.1093 211.324 22.832C211.015 22.5547 210.578 22.416 210.012 22.416C209.564 22.416 209.138 22.4853 208.732 22.624C208.327 22.752 207.948 22.9013 207.596 23.072L207.164 22.016C207.538 21.8133 207.98 21.6427 208.492 21.504C209.004 21.3547 209.538 21.28 210.092 21.28ZM210.508 25.856C209.442 25.8987 208.7 26.0693 208.284 26.368C207.879 26.6667 207.676 27.088 207.676 27.632C207.676 28.112 207.82 28.464 208.108 28.688C208.407 28.912 208.786 29.024 209.244 29.024C209.97 29.024 210.572 28.8267 211.052 28.432C211.532 28.0267 211.772 27.408 211.772 26.576V25.808L210.508 25.856ZM214.469 21.424H215.973L217.829 26.304C217.936 26.592 218.032 26.8693 218.117 27.136C218.213 27.4027 218.298 27.664 218.373 27.92C218.448 28.1653 218.506 28.4053 218.549 28.64H218.613C218.677 28.3733 218.778 28.0267 218.917 27.6C219.056 27.1627 219.2 26.7253 219.349 26.288L221.093 21.424H222.613L218.917 31.184C218.714 31.7173 218.474 32.1813 218.197 32.576C217.93 32.9813 217.6 33.2907 217.205 33.504C216.821 33.728 216.352 33.84 215.797 33.84C215.541 33.84 215.317 33.824 215.125 33.792C214.933 33.7707 214.768 33.744 214.629 33.712V32.592C214.746 32.6133 214.885 32.6347 215.045 32.656C215.216 32.6773 215.392 32.688 215.573 32.688C215.904 32.688 216.186 32.624 216.421 32.496C216.666 32.3787 216.874 32.2027 217.045 31.968C217.216 31.744 217.36 31.4773 217.477 31.168L217.925 30.032L214.469 21.424Z" fill="black"/>
<rect x="16.25" y="44.25" width="43.5" height="43.5" rx="5.75" fill="white"/>
<rect x="16.25" y="44.25" width="43.5" height="43.5" rx="5.75" stroke="#E1E1E1" stroke-width="0.5"/>
<path d="M27.306 60.7679C28.773 60.7729 30.287 61.1229 31.847 61.8159L31.92 61.8469L31.947 61.9199V61.9249C32.1967 62.6759 32.3791 63.4476 32.492 64.2309C32.564 64.7309 32.605 65.2339 32.615 65.7389V66.3309C32.581 67.6309 32.355 68.9179 31.947 70.1519L31.921 70.2259L31.848 70.2579C30.374 70.9099 28.895 71.2319 27.422 71.2319H27.306V70.8729H27.421C28.821 70.8729 30.227 70.5729 31.631 69.9629C32.242 68.0679 32.411 66.1729 32.137 64.2769C32.0819 63.9006 32.0098 63.5268 31.921 63.1569C31.842 62.8089 31.742 62.4559 31.629 62.1089C30.141 61.4589 28.699 61.1309 27.306 61.1259V60.7679ZM22.984 61.8209C24.3088 61.1307 25.7802 60.7695 27.274 60.7679H27.306V61.1259H27.273C25.8583 61.1277 24.4641 61.465 23.205 62.1099C22.674 63.3729 22.374 64.6579 22.358 65.9679C22.343 67.2789 22.605 68.5999 23.2 69.9579C24.569 70.5519 25.937 70.8579 27.306 70.8729V71.2309C25.868 71.2149 24.431 70.8939 22.993 70.2579L22.898 70.1679C22.292 68.7989 22.005 67.4519 22 66.1309V65.9619C22.016 64.5889 22.337 63.2369 22.9 61.9099L22.984 61.8199V61.8209Z" fill="#003399"/>
<path fill-rule="evenodd" clip-rule="evenodd" d="M27.4 68.9209C27.327 67.9159 27.374 66.8679 27.074 65.9099C26.794 65.0149 25.737 64.5049 25.716 63.5199C25.7111 63.301 25.7506 63.0832 25.8322 62.88C25.9138 62.6767 26.0358 62.4921 26.1908 62.3373C26.3457 62.1825 26.5305 62.0607 26.7339 61.9794C26.9373 61.898 27.155 61.8588 27.374 61.8639C28.397 61.8589 29.037 62.6059 29.11 63.4379C29.2 64.4009 28.031 65.0459 27.727 65.9639C27.409 66.8999 27.5 67.9359 27.4 68.9209Z" fill="#003399"/>
<path fill-rule="evenodd" clip-rule="evenodd" d="M27.806 68.6779C27.763 67.8019 27.763 66.9679 28.006 66.2259C28.273 65.3839 28.832 64.6729 29.686 64.4419C30.271 64.2839 31.129 64.9679 30.992 65.6679C30.876 66.2309 30.312 66.8939 29.407 66.9679C28.987 67.0049 28.807 67.3419 28.545 67.5359C29.723 67.4209 30.486 66.9569 31.018 66.4729C31.098 66.8829 31.15 67.5699 30.828 67.8099C30.197 68.2579 29.613 67.8949 28.871 68.1029C28.453 68.2239 28.194 68.4889 27.806 68.6789V68.6779ZM27 68.6779C27.048 67.8019 27.042 66.9679 26.806 66.2259C26.536 65.3839 25.979 64.6729 25.124 64.4419C24.542 64.2839 23.681 64.9679 23.821 65.6659C23.937 66.2289 24.5 66.8919 25.405 66.9659C25.821 67.0029 26.005 67.3399 26.268 67.5339C25.084 67.4199 24.326 66.9569 23.795 66.4739C23.715 66.8839 23.663 67.5699 23.984 67.8099C24.615 68.2579 25.2 67.8949 25.942 68.1029C26.358 68.2239 26.61 68.4889 27 68.6789V68.6779ZM29.806 69.9779V69.8369L29.911 69.8099L29.806 69.6519V69.3889L30.279 70.0469L30.11 70.0889L29.995 69.9259L29.806 69.9779ZM29.806 69.3889V69.6519L29.732 69.5469L29.701 69.8629L29.806 69.8369V69.9789L29.685 70.0049L29.664 70.1989L29.496 70.2419L29.602 69.3839L29.77 69.3419L29.803 69.3889H29.806ZM28.236 70.4359V70.2989H28.273C28.3104 70.297 28.3475 70.292 28.384 70.2839C28.4064 70.2774 28.4259 70.2635 28.4394 70.2444C28.4528 70.2253 28.4594 70.2022 28.458 70.1789C28.4558 70.1553 28.4464 70.133 28.431 70.1149C28.4178 70.0989 28.3994 70.088 28.379 70.0839C28.3318 70.0783 28.2842 70.0783 28.237 70.0839V69.9469C28.279 69.9469 28.306 69.9419 28.316 69.9419C28.3402 69.936 28.3621 69.9232 28.379 69.9049C28.387 69.8968 28.3928 69.8867 28.3956 69.8756C28.3984 69.8645 28.3982 69.8529 28.395 69.8419C28.3957 69.8308 28.3936 69.8196 28.3889 69.8095C28.3842 69.7994 28.377 69.7906 28.368 69.7839C28.3606 69.7749 28.351 69.7678 28.3402 69.7633C28.3294 69.7587 28.3177 69.7569 28.306 69.7579C28.2826 69.7577 28.2592 69.7594 28.236 69.7629V69.6259C28.2781 69.6198 28.3209 69.6198 28.363 69.6259C28.3937 69.6283 28.4236 69.6369 28.4508 69.6514C28.478 69.6659 28.5019 69.6858 28.521 69.7099C28.5378 69.7392 28.5487 69.7715 28.553 69.8049C28.5562 69.842 28.5484 69.8793 28.5306 69.912C28.5129 69.9447 28.4859 69.9714 28.453 69.9889C28.4989 69.9961 28.5411 70.0183 28.573 70.0519C28.605 70.0829 28.623 70.1239 28.626 70.1679C28.6261 70.2052 28.6207 70.2423 28.61 70.2779C28.5958 70.3119 28.5747 70.3426 28.548 70.3679C28.5158 70.3901 28.4799 70.4063 28.442 70.4159C28.416 70.4209 28.347 70.4259 28.247 70.4359H28.236ZM29.232 69.9979L29.395 70.0179C29.3956 70.0967 29.3667 70.1728 29.3139 70.2313C29.2612 70.2898 29.1884 70.3264 29.11 70.3339C29.0618 70.3425 29.0124 70.3414 28.9646 70.3305C28.9169 70.3197 28.8718 70.2995 28.832 70.2709C28.7475 70.197 28.6907 70.0964 28.6713 69.9858C28.6518 69.8752 28.6708 69.7613 28.725 69.6629C28.7526 69.6206 28.7889 69.5846 28.8315 69.5573C28.8741 69.5301 28.922 69.5122 28.972 69.5049C29.0592 69.4869 29.1501 69.5037 29.225 69.5519C29.2731 69.5838 29.3098 69.63 29.33 69.6839L29.178 69.7469C29.1635 69.7114 29.1374 69.6818 29.104 69.6629C29.0747 69.6463 29.0412 69.6385 29.0075 69.6402C28.9739 69.642 28.9414 69.6534 28.914 69.6729C28.891 69.6883 28.8716 69.7084 28.857 69.7319C28.8243 69.7988 28.8172 69.8752 28.837 69.9469C28.846 70.0239 28.879 70.0949 28.931 70.1529C28.9515 70.171 28.9758 70.1842 29.0022 70.1913C29.0286 70.1984 29.0562 70.1993 29.083 70.1939C29.1225 70.1848 29.1577 70.1626 29.183 70.1309C29.2126 70.0915 29.2297 70.0442 29.232 69.9949V69.9979ZM28.237 69.6319V69.7689C28.216 69.7689 28.194 69.7739 28.168 69.7739L28.074 69.7839L28.089 69.9679L28.2 69.9579C28.2125 69.9589 28.2252 69.9572 28.237 69.9529V70.0899H28.232L28.105 70.0999L28.121 70.3199L28.237 70.3079V70.4449L27.974 70.4709L27.9 69.6679L28.22 69.6419C28.2224 69.6401 28.2251 69.6387 28.228 69.6379C28.231 69.6369 28.234 69.6359 28.237 69.6369L28.236 69.6329L28.237 69.6319ZM27.221 70.1629V70.0269C27.246 70.0269 27.271 70.0239 27.294 70.0159C27.3144 70.0086 27.3324 69.9958 27.346 69.9789C27.3567 69.9596 27.3625 69.938 27.363 69.9159C27.3651 69.9029 27.3642 69.8896 27.3604 69.8769C27.3566 69.8643 27.35 69.8526 27.341 69.8429C27.3258 69.8225 27.3032 69.8088 27.278 69.8049C27.262 69.8049 27.246 69.7999 27.22 69.7999V69.6639C27.2715 69.6607 27.3231 69.6658 27.373 69.6789C27.4199 69.6904 27.4611 69.7185 27.489 69.7579C27.5221 69.8036 27.5371 69.8599 27.531 69.9159C27.5309 69.9594 27.5217 70.0023 27.504 70.0419C27.4855 70.0719 27.4626 70.0989 27.436 70.1219C27.4068 70.1359 27.3768 70.148 27.346 70.1579C27.3044 70.1609 27.2626 70.1609 27.221 70.1579V70.1629ZM27.221 69.6629L27.22 69.7999H27.158L27.078 69.7949V70.0269H27.221V70.1629H27.075L27.069 70.4679L26.906 70.4629L26.922 69.6589L27.18 69.6639H27.22L27.221 69.6629ZM25.701 70.0849V69.8319C25.7318 69.8394 25.7633 69.8431 25.795 69.8429C25.8145 69.8396 25.8326 69.8306 25.847 69.8169C25.8603 69.7999 25.8696 69.7801 25.874 69.7589C25.8787 69.7355 25.8752 69.7111 25.864 69.6899C25.8504 69.6694 25.8298 69.6545 25.806 69.6479C25.7714 69.6391 25.7364 69.6325 25.701 69.6279V69.4879L25.769 69.4999C25.8314 69.5077 25.8921 69.5252 25.949 69.5519C25.9853 69.5735 26.013 69.6071 26.027 69.6469C26.044 69.6879 26.047 69.7339 26.037 69.7779C26.0296 69.8325 26.0012 69.8819 25.958 69.9159C25.9091 69.9504 25.8497 69.9667 25.79 69.9619C25.8184 69.9846 25.843 70.0116 25.863 70.0419C25.891 70.0879 25.913 70.1369 25.931 70.1879L26 70.3619L25.81 70.3239L25.728 70.1309C25.718 70.1149 25.712 70.0939 25.702 70.0789L25.7 70.0849H25.701ZM26.167 69.5789L26.325 69.5939L26.288 70.0329C26.283 70.1009 26.283 70.1479 26.283 70.1639C26.2871 70.1959 26.3019 70.2255 26.325 70.2479C26.3536 70.2746 26.3909 70.2899 26.43 70.2909C26.465 70.2969 26.502 70.2899 26.532 70.2709C26.5564 70.2567 26.5752 70.2345 26.585 70.2079C26.5926 70.1626 26.5979 70.1168 26.601 70.0709L26.637 69.6229L26.8 69.6389L26.764 70.0599C26.764 70.1299 26.753 70.1999 26.732 70.2659C26.7223 70.3033 26.7023 70.3372 26.6744 70.3639C26.6465 70.3905 26.6118 70.4089 26.574 70.4169C26.5244 70.4315 26.4721 70.4349 26.421 70.4269C26.3606 70.4258 26.3013 70.4114 26.247 70.3849C26.2127 70.3664 26.1822 70.3416 26.157 70.3119C26.1383 70.2833 26.126 70.2508 26.121 70.2169C26.115 70.1484 26.115 70.0795 26.121 70.0109L26.167 69.5789ZM24.888 69.8149L24.92 69.6839L25.262 69.7739L25.178 70.0839C25.1262 70.1136 25.0677 70.1298 25.008 70.1309C24.9429 70.1364 24.8773 70.1309 24.814 70.1149C24.7392 70.0984 24.6701 70.0621 24.614 70.0099C24.5639 69.9593 24.5292 69.8955 24.514 69.8259C24.5015 69.7506 24.5056 69.6735 24.526 69.5999C24.5464 69.5263 24.5825 69.4581 24.632 69.3999C24.6819 69.3513 24.7441 69.3171 24.812 69.3013C24.8798 69.2854 24.9507 69.2884 25.017 69.3099C25.0984 69.3261 25.1722 69.3686 25.227 69.4309C25.2697 69.4865 25.2901 69.5561 25.284 69.6259L25.121 69.6129C25.1223 69.573 25.1092 69.534 25.084 69.5029C25.0562 69.4718 25.0196 69.4498 24.979 69.4399C24.9492 69.4309 24.9179 69.428 24.8869 69.4314C24.856 69.4348 24.8261 69.4445 24.799 69.4599C24.7404 69.5043 24.6996 69.5681 24.684 69.6399C24.6587 69.7135 24.6604 69.7936 24.689 69.8659C24.7041 69.8938 24.725 69.9181 24.7504 69.9371C24.7758 69.9561 24.805 69.9693 24.836 69.9759C24.87 69.9849 24.906 69.9879 24.941 69.9859C24.9751 69.9807 25.0086 69.972 25.041 69.9599L25.067 69.8599L24.888 69.8129V69.8149ZM25.704 69.4889L25.43 69.4419L25.29 70.2369L25.447 70.2629L25.505 69.9309L25.542 69.9359C25.5692 69.9406 25.596 69.9476 25.622 69.9569C25.636 69.9699 25.65 69.9839 25.663 69.9999C25.668 70.0149 25.684 70.0409 25.7 70.0789V69.8319C25.684 69.8319 25.668 69.8269 25.648 69.8269L25.531 69.8059L25.563 69.6059L25.689 69.6279H25.7L25.704 69.4889ZM50.784 68.5049V67.0209H51.437V64.4099L50.784 65.7149V62.4579H53.347L54 69.9619H51.437V68.5049H50.784ZM50.784 62.4579V65.7149L50.132 67.0209H50.784V68.5049H49.553L49.047 69.8839H47.457V68.1679L49.232 64.3419H48.866L49.876 62.4569L50.784 62.4579ZM47.458 64.9569L48.253 63.0739L47.458 62.6309V64.9569ZM41.137 64.2369C41.174 64.0289 41.174 63.8169 41.137 63.6099V64.2369ZM47.457 62.6279V64.9579L47.352 65.2099C45.784 64.0889 43.469 65.1099 43.337 66.2939C43.205 67.5309 44.147 68.5309 46.553 67.7839L45.727 69.9939C42.553 70.3469 41.322 69.0889 41.137 67.6199V66.7899C41.186 66.4099 41.281 66.0389 41.422 65.6839C42.985 61.7989 45.522 62.6729 46.485 62.5999L46.627 62.1679L47.458 62.6309L47.457 62.6279ZM47.457 68.1649L46.663 69.8839H47.457L47.458 68.1639L47.457 68.1649ZM38.284 69.8369C39.983 69.4999 41.653 67.4569 39.983 65.8309C40.2845 65.6709 40.5455 65.4441 40.746 65.1679C40.9465 64.8916 41.0813 64.5732 41.14 64.2369V63.6099C41.025 62.9619 40.525 62.4359 39.583 62.4199L38.288 62.3939V63.8379H38.825C39.398 63.8379 39.325 65.3219 38.605 65.3219H38.285V66.4569C39.058 66.6029 38.785 67.6789 38.285 68.0099L38.284 69.8369ZM41.135 66.7889V67.6199C41.105 67.3439 41.105 67.0649 41.137 66.7899H41.135V66.7889ZM36.042 62.3479L34.995 64.3789L35.463 64.3429L34.2 69.8849H37.816C37.973 69.8849 38.13 69.8679 38.284 69.8369V68.0079C38.1995 68.0709 38.0974 68.1059 37.992 68.1079H36.693L37.125 66.4399H38.099C38.16 66.4399 38.222 66.4449 38.283 66.4559V65.3199H37.379L37.744 63.8359H38.287L38.288 62.3939L36.042 62.3479Z" fill="#003399"/>
<rect x="68.25" y="44.25" width="43.5" height="43.5" rx="5.75" fill="white"/>
<rect x="68.25" y="44.25" width="43.5" height="43.5" rx="5.75" stroke="#E1E1E1" stroke-width="0.5"/>
<path d="M74.0389 67.744C74.0389 67.282 74.0299 66.894 74.0049 66.547H74.8809L74.9219 67.142H74.9469C75.1449 66.828 75.5079 66.456 76.1849 66.456C76.7139 66.456 77.1259 66.754 77.2999 67.2H77.3169C77.4569 66.977 77.6219 66.811 77.8119 66.696C78.0349 66.539 78.2919 66.456 78.6219 66.456C79.2899 66.456 79.9669 66.91 79.9669 68.199V70.569H78.9759V68.347C78.9759 67.679 78.7449 67.282 78.2579 67.282C77.9109 67.282 77.6549 67.53 77.5479 67.819C77.5179 67.929 77.5009 68.043 77.4979 68.157V70.569H76.5079V68.239C76.5079 67.679 76.2839 67.282 75.8129 67.282C75.4339 67.282 75.1789 67.58 75.0869 67.86C75.0466 67.9653 75.0269 68.0773 75.0289 68.19V70.569H74.0389V67.744ZM83.8269 69.603C83.8269 69.966 83.8439 70.32 83.8839 70.569H82.9679L82.9019 70.123H82.8769C82.6289 70.437 82.2079 70.659 81.6889 70.659C80.8789 70.659 80.4249 70.073 80.4249 69.462C80.4249 68.445 81.3249 67.935 82.8119 67.942V67.877C82.8119 67.612 82.7039 67.175 81.9939 67.175C81.5969 67.175 81.1839 67.299 80.9119 67.472L80.7139 66.811C81.0109 66.629 81.5319 66.456 82.1669 66.456C83.4549 66.456 83.8269 67.274 83.8269 68.148V69.603ZM82.8359 68.604C82.1169 68.587 81.4319 68.744 81.4319 69.355C81.4319 69.751 81.6889 69.933 82.0109 69.933C82.1843 69.9359 82.3542 69.884 82.4964 69.7847C82.6386 69.6854 82.7459 69.5438 82.8029 69.38C82.8251 69.3077 82.8362 69.2326 82.8359 69.157V68.604ZM84.5289 67.744C84.5289 67.282 84.5199 66.894 84.4959 66.547H85.3869L85.4369 67.151H85.4609C85.6339 66.837 86.0719 66.456 86.7409 66.456C87.4429 66.456 88.1689 66.91 88.1689 68.183V70.568H87.1539V68.298C87.1539 67.72 86.9389 67.281 86.3859 67.281C85.9819 67.281 85.6999 67.571 85.5929 67.876C85.5599 67.966 85.5529 68.091 85.5529 68.206V70.568H84.5279L84.5289 67.744ZM92.5729 64.932V69.437C92.5729 69.85 92.5899 70.297 92.6059 70.569H91.6979L91.6569 69.933H91.6399C91.3999 70.379 90.9129 70.659 90.3269 70.659C89.3689 70.659 88.6099 69.842 88.6099 68.604C88.6009 67.258 89.4429 66.457 90.4099 66.457C90.9629 66.457 91.3599 66.687 91.5399 66.987H91.5579V64.931L92.5729 64.932ZM91.5579 68.224C91.558 68.1351 91.5496 68.0463 91.5329 67.959C91.4419 67.564 91.1209 67.241 90.6579 67.241C90.0059 67.241 89.6419 67.819 89.6419 68.571C89.6419 69.305 90.0049 69.841 90.6499 69.841C90.8559 69.84 91.0553 69.7681 91.2145 69.6373C91.3737 69.5065 91.483 69.3249 91.5239 69.123C91.5489 69.033 91.5579 68.933 91.5579 68.826V68.224ZM93.2909 70.569V66.547H94.3159V70.569H93.2909ZM95.0329 67.844C95.0329 67.299 95.0259 66.911 95.0009 66.548H95.8839L95.9169 67.315H95.9499C96.1479 66.745 96.6189 66.548 97.0499 66.548C97.1479 66.548 97.2049 66.531 97.2879 66.548V67.44C97.1903 67.4185 97.0908 67.4074 96.9909 67.407C96.5029 67.407 96.1729 67.721 96.0819 68.174C96.0619 68.278 96.0519 68.384 96.0499 68.489V70.569H95.0329V67.844ZM97.7589 70.569V66.547H98.7819V70.569H97.7589Z" fill="#0D2B5B"/>
<path d="M105.155 62.295C104.648 61.716 104.11 61.978 103.681 62.191C103.501 62.28 102.201 63.017 102.201 63.017C101.488 63.311 100.934 62.99 100.716 62.72C100.695 62.6948 100.676 62.668 100.66 62.64L100.609 62.551C100.523 62.4026 100.428 62.26 100.324 62.124C100.26 62.0416 100.192 61.9635 100.118 61.89C99.6309 61.398 98.8519 61.053 97.5499 61.68C96.9329 62.037 94.9249 63.184 94.9249 63.184C94.1699 63.494 93.5929 63.116 93.4049 62.839C93.3965 62.8284 93.3891 62.817 93.3829 62.805L93.3589 62.763L93.2319 62.555C93.1222 62.3738 92.9912 62.2062 92.8419 62.056C92.3569 61.567 91.5819 61.223 90.2919 61.837L86.3659 64.081L87.0539 64.925C87.3439 65.2 87.8869 65.653 88.7279 65.271L91.0579 63.923C93.0439 62.833 94.0229 63.874 94.4559 64.568C94.4709 64.59 94.4829 64.613 94.4969 64.634L94.5109 64.66L94.5609 64.74C94.7709 65.06 95.1039 65.266 95.5009 65.257C95.7189 65.252 95.8679 65.181 96.0839 65.061L98.3299 63.758L98.3349 63.756C100.345 62.653 101.341 63.762 101.766 64.456C101.799 64.516 101.836 64.573 101.876 64.626C102.086 64.912 102.376 65.099 102.746 65.09C102.989 65.085 103.262 64.939 103.303 64.912L105.996 63.357C105.996 63.357 105.721 62.942 105.155 62.295Z" fill="#FDD213"/>
<rect x="120.25" y="44.25" width="43.5" height="43.5" rx="5.75" fill="white"/>
<rect x="120.25" y="44.25" width="43.5" height="43.5" rx="5.75" stroke="#E1E1E1" stroke-width="0.5"/>
<path fill-rule="evenodd" clip-rule="evenodd" d="M126.38 64.6105L129.015 67.9355L126.38 70.1195V64.6095V64.6105ZM127.44 70.1195L129.424 68.4595L130.794 70.1195H127.44ZM126.38 62.8315L127.067 63.7015L129.895 67.2355L130.812 66.5055C130.812 66.5055 130.051 65.6105 129.54 64.6105C128.542 62.6565 129.249 61.4405 129.249 61.4405H126.379L126.38 62.8315ZM130.299 67.7805L131.232 67.0105C131.232 67.0105 132.123 68.1835 133.157 68.4605C134.511 68.8235 135.111 67.9355 135.111 67.9355V70.1195H132.136L132.806 69.5395C132.806 69.5395 132.456 69.7725 131.601 69.1795C131.096 68.8295 130.299 67.7805 130.299 67.7805ZM130.384 61.4335C130.384 61.4335 130.087 61.8395 130.298 62.8315C130.525 63.8915 131.426 65.0145 131.424 64.9895C131.424 64.9895 131.482 63.8755 132.136 63.2205C133.53 61.8265 135.111 62.6565 135.111 62.6565V61.4405L130.384 61.4335Z" fill="#F15A23"/>
<path fill-rule="evenodd" clip-rule="evenodd" d="M135.111 64.1265C135.111 64.1265 134.229 63.3715 133.462 63.3715C132.482 63.3715 131.946 64.2175 131.946 64.8315C131.946 65.7265 132.376 66.2235 132.806 66.6545C133.426 67.2745 134.179 67.9415 135.111 67.4045V64.1265Z" fill="#F15A23"/>
<path fill-rule="evenodd" clip-rule="evenodd" d="M145.153 61.5245H147.233C147.233 61.5245 149.077 64.3155 149.983 65.4685C150.619 66.2835 151.246 67.1059 151.863 67.9355V62.1495C151.863 61.8995 151.207 61.5245 151.207 61.5245H153.607C153.607 61.5245 152.819 61.8485 152.819 62.1495V70.5665C152.819 70.5665 152.064 70.1475 151.207 69.1525C150.245 68.0335 146.821 63.5185 146.821 63.5185V69.3665C146.821 69.6665 147.477 70.1195 147.477 70.1195H145.153C145.153 70.1195 145.79 69.6625 145.79 69.3665V62.1495C145.79 61.8845 145.153 61.5245 145.153 61.5245ZM154.951 61.5245H157.621C157.621 61.5245 156.904 61.8645 156.904 62.1495V69.3665C156.904 69.6785 157.621 70.1195 157.621 70.1195H154.951C154.951 70.1195 155.618 69.6685 155.618 69.3665V62.1495C155.618 61.8755 154.951 61.5245 154.951 61.5245ZM137.296 61.5245C137.296 61.5245 137.988 61.8695 137.988 62.1495V69.3665C137.988 69.6735 137.296 70.1195 137.296 70.1195H141.252C141.499 70.1195 144.269 69.6665 144.269 67.5315C144.269 65.3965 142.118 65.1965 142.118 65.1965C142.118 65.1965 143.428 64.8325 143.428 63.3715C143.428 61.7965 141.499 61.5245 141.252 61.5245H137.296ZM139.397 65.0545V62.3675H141.005C141.252 62.3675 142.118 62.6575 142.118 63.7275C142.118 64.6105 141.252 65.0545 141.005 65.0545H139.397ZM139.397 65.7595H141.252C141.499 65.7595 142.958 66.1385 142.958 67.4045C142.958 68.6945 141.499 69.1525 141.252 69.1525H139.397V65.7595Z" fill="#005E6A"/>
<rect x="172.25" y="44.25" width="43.5" height="43.5" rx="5.75" fill="white"/>
<rect x="172.25" y="44.25" width="43.5" height="43.5" rx="5.75" stroke="#E1E1E1" stroke-width="0.5"/>
<path d="M196.534 60.271V67.4747H198.624V62.0772C198.624 61.6735 198.358 60.4559 196.534 60.271ZM185.428 66.2231C185.693 66.2231 185.91 66.1944 186.079 66.1403C186.248 66.0861 186.379 66.0149 186.475 65.9278C186.564 65.85 186.632 65.7484 186.671 65.6334C186.706 65.5266 186.725 65.4142 186.725 65.3009C186.725 65.1734 186.704 65.0565 186.662 64.9534C186.617 64.846 186.542 64.7554 186.448 64.6931C186.324 64.6131 186.188 64.5577 186.046 64.5295C185.838 64.4868 185.627 64.4672 185.416 64.4711H184.01V66.2221H185.427L185.428 66.2231ZM184.01 61.6438V63.3799H185.058C185.259 63.3813 185.459 63.3686 185.658 63.3416C185.838 63.3161 185.988 63.2715 186.114 63.2067C186.232 63.1495 186.331 63.0572 186.4 62.9411C186.469 62.8122 186.503 62.6654 186.498 62.5171C186.502 62.3734 186.476 62.2306 186.42 62.0996C186.367 61.9873 186.284 61.8942 186.182 61.8318C186.056 61.7575 185.918 61.7085 185.775 61.6873C185.581 61.6564 185.385 61.6422 185.189 61.6448L184.01 61.6438ZM185.189 60.424C185.788 60.424 186.297 60.4686 186.718 60.5589C187.138 60.6493 187.482 60.7757 187.748 60.9404C188.013 61.104 188.206 61.3038 188.328 61.5375C188.448 61.7723 188.509 62.0347 188.509 62.3238C188.509 62.4821 188.481 62.634 188.426 62.7806C188.365 62.9343 188.276 63.0734 188.164 63.1897C188.044 63.3172 187.892 63.4341 187.706 63.5403C187.519 63.6466 187.296 63.7369 187.033 63.8144C187.605 63.9271 188.027 64.1088 188.301 64.3595C188.575 64.6103 188.711 64.9354 188.711 65.3338C188.711 65.6324 188.641 65.9108 188.497 66.1679C188.34 66.4408 188.125 66.671 187.869 66.8404C187.594 67.0317 187.254 67.1815 186.849 67.2888C186.395 67.4029 185.929 67.4575 185.462 67.4514H182V60.4251H185.19L185.189 60.424ZM194.758 61.852C194.707 61.9222 194.643 61.9813 194.571 62.0263C194.493 62.0678 194.406 62.0876 194.318 62.0836C194.216 62.0812 194.116 62.0574 194.023 62.0135C193.904 61.9611 193.785 61.909 193.666 61.8573C193.518 61.794 193.366 61.7414 193.211 61.7001C193.02 61.6509 192.824 61.6273 192.628 61.6299C192.251 61.6299 191.97 61.6958 191.786 61.8254C191.7 61.8799 191.63 61.9573 191.581 62.05C191.532 62.1427 191.507 62.2474 191.509 62.3535C191.509 62.4959 191.565 62.6127 191.676 62.7062C191.786 62.7997 191.933 62.8794 192.113 62.9474C192.293 63.0144 192.5 63.0771 192.733 63.1323C192.964 63.1886 193.201 63.2513 193.443 63.3204C193.685 63.3905 193.923 63.4713 194.154 63.5648C194.387 63.6572 194.593 63.7772 194.774 63.9217C194.954 64.0662 195.1 64.2416 195.211 64.4498C195.321 64.657 195.377 64.9067 195.377 65.1989C195.377 65.524 195.308 65.8279 195.169 66.1105C195.03 66.3942 194.829 66.6407 194.565 66.8511C194.301 67.0614 193.975 67.2272 193.589 67.3483C193.202 67.4684 192.763 67.5289 192.271 67.5289C192.001 67.5289 191.726 67.5066 191.447 67.4609C191.173 67.4172 190.901 67.3537 190.635 67.2708C190.383 67.1928 190.136 67.0955 189.897 66.9796C189.684 66.8778 189.483 66.7513 189.296 66.6024L189.891 65.8406C189.948 65.7788 190.017 65.73 190.093 65.6969C190.168 65.6639 190.249 65.6474 190.331 65.6483C190.45 65.6483 190.57 65.6781 190.691 65.7397L191.101 65.9416C191.254 66.0159 191.43 66.0839 191.628 66.1445C191.827 66.2061 192.061 66.2369 192.331 66.2369C192.695 66.2369 192.979 66.1711 193.181 66.0414C193.384 65.9107 193.485 65.7046 193.485 65.4209C193.487 65.3451 193.473 65.2698 193.444 65.2005C193.415 65.1312 193.372 65.0696 193.318 65.0204C193.189 64.907 193.04 64.8204 192.881 64.7654C192.68 64.6918 192.474 64.6321 192.265 64.5869C192.035 64.5359 191.799 64.4785 191.557 64.4158C191.317 64.3537 191.08 64.2764 190.849 64.1842C190.619 64.0928 190.413 63.9717 190.233 63.8229C190.051 63.6718 189.901 63.4809 189.795 63.263C189.685 63.0399 189.629 62.7636 189.629 62.4353C189.629 62.1718 189.694 61.9147 189.825 61.6639C189.956 61.4132 190.148 61.1901 190.402 60.9946C190.656 60.798 190.968 60.6408 191.337 60.5239C191.706 60.407 192.128 60.3475 192.604 60.3475C192.87 60.3475 193.129 60.3645 193.381 60.3985C193.633 60.4314 193.871 60.4814 194.098 60.5473C194.324 60.6131 194.535 60.6928 194.732 60.7842C194.928 60.8756 195.104 60.9797 195.258 61.0955L194.758 61.852Z" fill="#168F8C"/>
<path d="M198.852 57.6743C198.848 57.6158 198.841 57.5576 198.83 57.5C199.297 57.891 199.965 58.1205 200.688 58.0844C201.034 58.0653 201.358 57.9887 201.645 57.8655C201.422 58.1821 201.305 58.5529 201.336 58.9439C201.374 59.4274 201.629 59.8577 202.02 60.1764C201.82 60.1446 201.612 60.1318 201.399 60.1435C200.553 60.186 199.839 60.5834 199.461 61.1454C199.311 60.3146 198.517 59.6696 197.524 59.5273C198.364 59.1947 198.916 58.4764 198.854 57.6743H198.852Z" fill="#F9AD3C"/>
<path d="M182.898 71.61C182.994 71.61 183.076 71.6015 183.146 71.5834C183.206 71.5697 183.264 71.5445 183.316 71.5091C183.357 71.4803 183.391 71.4408 183.414 71.3943C183.435 71.348 183.446 71.297 183.445 71.2456C183.445 71.1955 183.433 71.1462 183.408 71.1032C183.384 71.0602 183.35 71.0249 183.308 71.0012C183.218 70.9396 183.08 70.9098 182.898 70.9098H182.36V71.61H182.898ZM182.361 70.029V70.7164H182.804C182.899 70.7164 182.981 70.7069 183.05 70.6909C183.111 70.678 183.17 70.6543 183.224 70.6208C183.266 70.5948 183.302 70.5574 183.326 70.5124C183.348 70.4694 183.359 70.4211 183.359 70.3722C183.359 70.2532 183.315 70.1671 183.227 70.1119C183.139 70.0566 183.003 70.0301 182.818 70.0301H182.361V70.029ZM182.818 69.8144C182.971 69.8144 183.102 69.8271 183.211 69.8516C183.322 69.876 183.413 69.91 183.484 69.9557C183.55 69.9943 183.604 70.0513 183.641 70.1204C183.675 70.1852 183.691 70.2585 183.691 70.3392C183.691 70.3892 183.681 70.437 183.661 70.4827C183.641 70.5306 183.613 70.5739 183.577 70.6102C183.534 70.6531 183.484 70.6889 183.431 70.7164C183.366 70.7495 183.297 70.7745 183.227 70.7908C183.41 70.8195 183.547 70.8726 183.637 70.9502C183.682 70.9852 183.718 71.031 183.742 71.0839C183.766 71.1368 183.778 71.1952 183.777 71.2541C183.777 71.336 183.757 71.4165 183.717 71.4867C183.675 71.5608 183.617 71.6228 183.547 71.6674C183.463 71.7225 183.371 71.7623 183.274 71.7853C183.152 71.8138 183.028 71.8274 182.903 71.8257H182.026V69.8144H182.818ZM185.551 71.0788L185.161 70.2606C185.133 70.1997 185.109 70.1369 185.089 70.0726C185.069 70.138 185.044 70.2016 185.014 70.2627L184.624 71.0798L185.551 71.0788ZM186.251 71.8257H185.991C185.966 71.8269 185.941 71.8206 185.919 71.8076C185.901 71.7967 185.887 71.7809 185.877 71.7619L185.645 71.2764H184.53L184.298 71.7619C184.289 71.7808 184.275 71.7963 184.258 71.8066C184.236 71.8202 184.211 71.8268 184.185 71.8257H183.925L184.918 69.8144H185.258L186.25 71.8257H186.251ZM188.59 69.8144V71.8257H188.421C188.398 71.8264 188.376 71.8228 188.354 71.8151C188.335 71.806 188.317 71.793 188.302 71.7768L186.865 70.2606C186.869 70.3047 186.872 70.3491 186.872 70.3934V71.8257H186.578V69.8144H186.751C186.773 69.8147 186.796 69.8182 186.817 69.825C186.835 69.834 186.852 69.8462 186.867 69.8611L188.304 71.3752L188.296 71.3051C188.295 71.2831 188.295 71.2612 188.295 71.2392V69.8154H188.589L188.59 69.8144ZM189.559 70.6962H189.685C189.729 70.6962 189.765 70.692 189.791 70.6835C189.818 70.6736 189.842 70.6576 189.863 70.6368L190.69 69.8792C190.71 69.8569 190.735 69.8399 190.763 69.8293C190.793 69.8189 190.824 69.8139 190.856 69.8144H191.14L190.194 70.6803C190.173 70.7011 190.151 70.7199 190.127 70.7366C190.106 70.7509 190.083 70.7627 190.059 70.7717C190.12 70.7903 190.175 70.825 190.219 70.8726L191.206 71.8257H190.916C190.893 71.8257 190.874 71.8257 190.858 71.8236C190.844 71.8213 190.831 71.8178 190.818 71.8129C190.807 71.8074 190.797 71.801 190.787 71.7938C190.779 71.7858 190.771 71.7773 190.763 71.7683L189.907 70.9704C189.886 70.9479 189.86 70.9309 189.832 70.9204C189.793 70.9085 189.752 70.9035 189.711 70.9056H189.559V71.8257H189.224V69.8144H189.559V70.6962ZM193.675 70.1289C193.665 70.1419 193.654 70.1527 193.64 70.1608C193.627 70.168 193.612 70.1717 193.597 70.1714C193.572 70.17 193.548 70.162 193.527 70.148C193.45 70.1022 193.368 70.0665 193.283 70.0417C193.217 70.0247 193.149 70.0168 193.081 70.0184C193.014 70.0174 192.946 70.0259 192.881 70.0439C192.83 70.0573 192.782 70.0795 192.738 70.1097C192.702 70.1353 192.672 70.1695 192.651 70.2096C192.631 70.2469 192.621 70.289 192.621 70.3318C192.621 70.3871 192.638 70.4349 192.671 70.4721C192.711 70.5117 192.757 70.5434 192.807 70.5656C192.863 70.5921 192.927 70.6144 192.997 70.6346C193.069 70.6537 193.142 70.6729 193.216 70.6941C193.291 70.7143 193.364 70.7366 193.434 70.7642C193.501 70.7871 193.565 70.8192 193.624 70.8599C193.679 70.8971 193.725 70.9468 193.76 71.0054C193.795 71.0628 193.812 71.1329 193.812 71.2158C193.813 71.3039 193.793 71.3909 193.755 71.4692C193.717 71.5475 193.662 71.6148 193.594 71.6653C193.515 71.7268 193.426 71.7725 193.332 71.8002C193.229 71.8321 193.112 71.8491 192.98 71.8491C192.831 71.8511 192.682 71.8274 192.54 71.7789C192.418 71.7365 192.303 71.6714 192.202 71.5866L192.299 71.457C192.32 71.4346 192.348 71.4217 192.377 71.4209C192.395 71.4215 192.412 71.4266 192.427 71.4357C192.447 71.4464 192.469 71.457 192.493 71.4729C192.518 71.4878 192.545 71.5048 192.577 71.5218C192.653 71.5646 192.734 71.5941 192.819 71.6089C192.947 71.631 193.078 71.6266 193.204 71.5962C193.26 71.5813 193.313 71.5561 193.361 71.5218C193.402 71.4916 193.437 71.4516 193.461 71.4049C193.485 71.3591 193.497 71.3075 193.497 71.2551C193.498 71.2279 193.494 71.2008 193.485 71.1752C193.476 71.1497 193.462 71.1263 193.445 71.1064C193.407 71.0638 193.362 71.0301 193.311 71.0076C193.25 70.9794 193.186 70.9573 193.121 70.9417C193.048 70.923 192.975 70.9046 192.902 70.8864C192.829 70.8667 192.756 70.844 192.684 70.8184C192.617 70.7954 192.553 70.7625 192.494 70.7207C192.439 70.6813 192.393 70.6298 192.358 70.5698C192.323 70.5012 192.306 70.4238 192.308 70.3456C192.308 70.2744 192.325 70.2054 192.358 70.1395C192.396 70.0697 192.447 70.0092 192.508 69.9621C192.581 69.907 192.662 69.8653 192.748 69.8388C192.844 69.8069 192.954 69.7921 193.078 69.7921C193.216 69.7921 193.342 69.8101 193.455 69.8452C193.563 69.8779 193.665 69.9304 193.756 70.0003L193.675 70.1289ZM195.168 71.0256V71.8257H194.832V71.0246L193.922 69.8144H194.217C194.247 69.8144 194.27 69.8208 194.287 69.8335C194.305 69.8441 194.32 69.859 194.333 69.8781L194.901 70.6601L194.958 70.7526C194.975 70.7797 194.99 70.8081 195.003 70.8376C195.033 70.7769 195.066 70.7174 195.1 70.6591L195.667 69.8781C195.679 69.8609 195.693 69.8461 195.71 69.8346C195.731 69.8205 195.756 69.8135 195.781 69.8144H196.078L195.168 71.0256ZM197.473 71.0788L197.083 70.2606C197.055 70.1996 197.031 70.1368 197.011 70.0726C196.986 70.1491 196.961 70.2117 196.936 70.2627L196.546 71.0798L197.473 71.0788ZM198.173 71.8257H197.913C197.888 71.8271 197.862 71.8208 197.84 71.8076C197.823 71.7966 197.809 71.7808 197.799 71.7619L197.567 71.2764H196.453L196.22 71.7619C196.211 71.7808 196.197 71.7963 196.18 71.8066C196.158 71.82 196.133 71.8266 196.108 71.8257H195.848L196.841 69.8144H197.181L198.173 71.8257ZM199.188 70.7887C199.285 70.7887 199.37 70.7791 199.444 70.7611C199.51 70.7452 199.573 70.7175 199.631 70.6792C199.678 70.65 199.717 70.608 199.743 70.5576C199.77 70.5072 199.784 70.4502 199.783 70.3924C199.785 70.3372 199.773 70.2824 199.747 70.2343C199.722 70.1862 199.684 70.1468 199.638 70.1204C199.541 70.0598 199.395 70.0301 199.201 70.0301H198.834V70.7887H199.188ZM200.335 71.8257H200.036C199.976 71.8257 199.93 71.8066 199.901 71.7683L199.257 71.0501C199.239 71.0291 199.218 71.0128 199.193 71.0023C199.16 70.9902 199.124 70.9852 199.089 70.9874H198.834V71.8267H198.5V69.8144H199.201C199.358 69.8144 199.494 69.8282 199.609 69.8537C199.708 69.8733 199.804 69.911 199.891 69.9653C199.96 70.0074 200.017 70.0683 200.057 70.1416C200.093 70.2122 200.112 70.2917 200.111 70.3722C200.112 70.4408 200.098 70.5088 200.07 70.5709C200.041 70.6351 199.999 70.6922 199.948 70.7387C199.891 70.7907 199.826 70.8327 199.756 70.8631C199.681 70.8981 199.596 70.9236 199.499 70.9417C199.542 70.9619 199.579 70.9906 199.61 71.0267L200.335 71.8257ZM201.008 71.8257H200.672V69.8144H201.008V71.8257ZM202.962 71.0788L202.572 70.2606C202.544 70.1998 202.519 70.1369 202.499 70.0726C202.475 70.1491 202.45 70.2117 202.425 70.2627L202.035 71.0798L202.962 71.0788ZM203.662 71.8257H203.402C203.377 71.8271 203.351 71.8208 203.329 71.8076C203.312 71.7966 203.298 71.7808 203.288 71.7619L203.055 71.2764H201.942L201.709 71.7619C201.7 71.7808 201.686 71.7963 201.669 71.8066C201.647 71.82 201.622 71.8266 201.597 71.8257H201.337L202.329 69.8144H202.669L203.662 71.8257ZM206 69.8144V71.8257H205.664V70.9119H204.324V71.8257H203.988V69.8144H204.325V70.7122H205.664V69.8144H206ZM182.362 74.4777H182.026V72.4664H182.362V74.4777ZM185.009 72.4653V74.4777H184.841C184.818 74.4785 184.795 74.4749 184.773 74.4671C184.753 74.4576 184.736 74.4442 184.721 74.4277L183.285 72.9126C183.289 72.9564 183.292 73.0004 183.292 73.0444V74.4777H182.997V72.4664H183.171C183.193 72.4661 183.216 72.4693 183.237 72.4759C183.255 72.4849 183.272 72.4971 183.287 72.5121L184.723 74.0272C184.718 73.9821 184.715 73.9367 184.714 73.8912V72.4664H185.009V72.4653ZM187.796 73.4726C187.797 73.6136 187.768 73.753 187.709 73.8794C187.65 74.0059 187.564 74.1158 187.458 74.2004C187.341 74.2932 187.21 74.3627 187.07 74.4054C186.92 74.4532 186.753 74.4777 186.57 74.4777H185.644V72.4664H186.571C186.753 72.4664 186.92 72.4897 187.07 72.5386C187.221 72.5864 187.35 72.6555 187.458 72.7437C187.564 72.8283 187.65 72.9385 187.709 73.0651C187.768 73.1918 187.798 73.3314 187.796 73.4726ZM187.451 73.4726C187.451 73.3483 187.431 73.2388 187.388 73.1411C187.348 73.0454 187.288 72.9607 187.212 72.8935C187.13 72.8231 187.036 72.7708 186.935 72.7394C186.817 72.7025 186.694 72.6846 186.571 72.6863H185.98V74.2567H186.57C186.705 74.2567 186.826 74.2386 186.935 74.2036C187.036 74.1723 187.13 74.1203 187.212 74.0506C187.288 73.9835 187.349 73.8988 187.389 73.803C187.432 73.6988 187.453 73.5862 187.451 73.4726ZM190.574 73.4726C190.575 73.6152 190.545 73.7562 190.487 73.8845C190.428 74.0129 190.342 74.125 190.236 74.2121C190.12 74.3077 189.989 74.3797 189.848 74.4246C189.698 74.4734 189.531 74.4989 189.348 74.4989C189.166 74.4989 189 74.4734 188.85 74.4246C188.71 74.3794 188.579 74.3074 188.464 74.2121C188.358 74.1249 188.272 74.0128 188.213 73.8845C188.155 73.7562 188.125 73.6152 188.126 73.4726C188.124 73.3298 188.154 73.1886 188.212 73.0601C188.271 72.9317 188.357 72.8197 188.464 72.7331C188.571 72.6406 188.7 72.5694 188.85 72.5195C189 72.4685 189.166 72.4441 189.349 72.4441C189.531 72.4441 189.698 72.4685 189.848 72.5184C189.999 72.5694 190.128 72.6406 190.236 72.7331C190.343 72.8196 190.429 72.9317 190.488 73.0601C190.547 73.1885 190.576 73.3298 190.574 73.4726ZM190.229 73.4726C190.229 73.3493 190.209 73.2388 190.167 73.14C190.127 73.0437 190.066 72.9586 189.99 72.8914C189.908 72.82 189.814 72.7665 189.713 72.7341C189.595 72.696 189.472 72.6774 189.349 72.6789C189.216 72.6789 189.095 72.698 188.987 72.7341C188.885 72.7666 188.79 72.8201 188.707 72.8914C188.631 72.9588 188.571 73.0438 188.531 73.14C188.488 73.2449 188.467 73.3583 188.469 73.4726C188.469 73.5958 188.489 73.7063 188.531 73.8051C188.573 73.9029 188.631 73.9858 188.708 74.0537C188.785 74.1207 188.878 74.1727 188.987 74.2099C189.095 74.245 189.217 74.2631 189.349 74.2631C189.483 74.2631 189.604 74.245 189.713 74.2099C189.814 74.1775 189.908 74.1245 189.99 74.0537C190.066 73.9861 190.126 73.9011 190.167 73.8051C190.21 73.7002 190.231 73.5868 190.229 73.4726ZM193.066 72.4653V74.4777H192.898C192.875 74.4784 192.853 74.4748 192.831 74.4671C192.811 74.4576 192.794 74.4442 192.779 74.4277L191.342 72.9126C191.346 72.9564 191.349 73.0004 191.349 73.0444V74.4777H191.055V72.4664H191.228C191.25 72.4661 191.273 72.4693 191.294 72.4759C191.312 72.4848 191.329 72.4971 191.344 72.5121L192.78 74.0272C192.775 73.982 192.772 73.9367 192.771 73.8912V72.4664H193.066V72.4653ZM195.233 74.2556L195.231 74.4777H193.701V72.4664H195.231V72.6874H194.037V73.3567H195.004V73.5693H194.037V74.2556H195.233ZM196.971 72.7809C196.961 72.7939 196.95 72.8047 196.936 72.8128C196.923 72.82 196.908 72.8236 196.893 72.8234C196.868 72.8217 196.844 72.8133 196.823 72.7989C196.746 72.7537 196.664 72.718 196.579 72.6927C196.513 72.6757 196.445 72.6679 196.377 72.6693C196.31 72.6683 196.242 72.6768 196.177 72.6948C196.126 72.7082 196.078 72.7304 196.034 72.7607C195.998 72.7862 195.968 72.8204 195.947 72.8606C195.927 72.8979 195.917 72.94 195.917 72.9828C195.917 73.0391 195.934 73.0858 195.967 73.123C196.007 73.1627 196.053 73.1943 196.103 73.2165C196.16 73.2431 196.223 73.2664 196.293 73.2856C196.365 73.3047 196.438 73.3238 196.512 73.3451C196.587 73.3663 196.66 73.3886 196.73 73.4152C196.797 73.4379 196.861 73.4701 196.92 73.5108C196.975 73.548 197.021 73.5978 197.056 73.6564C197.091 73.7137 197.108 73.7839 197.108 73.8667C197.109 73.9548 197.089 74.0417 197.051 74.12C197.013 74.1983 196.958 74.2656 196.89 74.3162C196.811 74.3777 196.722 74.4234 196.628 74.4511C196.525 74.483 196.408 74.5 196.276 74.5C196.115 74.5 195.968 74.4766 195.836 74.4299C195.714 74.3875 195.599 74.3224 195.498 74.2376L195.595 74.1079C195.616 74.0856 195.644 74.0726 195.673 74.0718C195.691 74.0728 195.708 74.0783 195.723 74.0877C195.743 74.0962 195.765 74.109 195.789 74.1239C195.817 74.1407 195.845 74.1569 195.873 74.1727C195.949 74.2156 196.03 74.245 196.115 74.2599C196.243 74.2819 196.374 74.2775 196.5 74.2471C196.556 74.2323 196.609 74.2071 196.657 74.1727C196.699 74.1426 196.733 74.1026 196.758 74.0559C196.781 74.0102 196.793 73.959 196.793 73.9071C196.794 73.8799 196.79 73.8528 196.781 73.8272C196.772 73.8017 196.758 73.7783 196.741 73.7584C196.703 73.7158 196.658 73.6822 196.607 73.6596C196.546 73.6313 196.482 73.6092 196.417 73.5937C196.344 73.5746 196.271 73.5559 196.198 73.5374C196.125 73.5176 196.052 73.495 195.98 73.4694C195.913 73.4463 195.849 73.4134 195.79 73.3716C195.735 73.3326 195.689 73.2815 195.654 73.2218C195.619 73.1528 195.601 73.075 195.604 72.9966C195.604 72.9254 195.621 72.8563 195.654 72.7904C195.691 72.7205 195.743 72.66 195.804 72.613C195.877 72.5579 195.958 72.5162 196.044 72.4897C196.14 72.4589 196.25 72.4441 196.374 72.4441C196.512 72.4441 196.638 72.4611 196.751 72.4972C196.859 72.5296 196.961 72.5817 197.052 72.6512L196.971 72.7809ZM197.919 74.4777H197.583V72.4664H197.919V74.4777ZM199.872 73.7307L199.482 72.9126C199.454 72.8518 199.43 72.789 199.41 72.7246C199.386 72.7989 199.36 72.8627 199.335 72.9137L198.945 73.7307H199.872ZM200.572 74.4777H200.312C200.287 74.4788 200.262 74.4725 200.24 74.4596C200.222 74.4484 200.208 74.4322 200.198 74.4129L199.966 73.9273H198.852L198.62 74.4129C198.611 74.4317 198.597 74.4473 198.58 74.4575C198.558 74.4715 198.533 74.4785 198.507 74.4777H198.247L199.24 72.4664H199.58L200.572 74.4777Z" fill="#168F8C"/>
<rect x="224.25" y="44.25" width="43.5" height="43.5" rx="5.75" fill="white"/>
<rect x="224.25" y="44.25" width="43.5" height="43.5" rx="5.75" stroke="#E1E1E1" stroke-width="0.5"/>
<path d="M261.607 64.181H256.21V63.103H261.607V60.948H252.972V66.336H258.37V67.414H252.972V69.569H261.607V64.181ZM251.893 60.948H249.734V69.568H251.894L251.893 60.948ZM240.02 60.948V63.103H246.496V64.181H240.02V69.569H242.178V66.369L245.418 69.569H248.655L245.277 66.336H248.655V60.948H240.02ZM233.543 66.336H235.697V64.186H233.543V66.336ZM234.084 64.72H235.163V65.797H234.084V64.72Z" fill="#010101"/>
<path d="M232.465 60.948H230.575C230.522 60.9485 230.47 60.9645 230.426 60.9942C230.381 61.0239 230.347 61.0659 230.326 61.115C230.313 61.1477 230.306 61.1826 230.306 61.218V69.298C230.306 69.3335 230.313 69.3686 230.326 69.4014C230.34 69.4343 230.36 69.4641 230.385 69.4892C230.41 69.5143 230.44 69.5342 230.473 69.5477C230.505 69.5612 230.541 69.5681 230.576 69.568H235.703V67.418H232.465V60.948ZM238.67 60.948H233.544V63.103H236.784V66.336H238.937V61.218C238.938 61.1468 238.91 61.0783 238.861 61.027C238.81 60.9768 238.742 60.9482 238.671 60.947L238.67 60.948ZM238.942 67.414H236.782V72.264H238.942V67.414Z" fill="#010101"/>
<path d="M233.318 59.736H229.27C229.198 59.7362 229.13 59.7648 229.079 59.8153C229.029 59.8659 229 59.9344 229 60.006V64.046H229.54V60.54C229.542 60.4694 229.571 60.4023 229.621 60.3529C229.672 60.3036 229.739 60.2759 229.81 60.276H233.323L233.318 59.736ZM262.46 66.74V70.247C262.46 70.3186 262.432 70.3872 262.381 70.4379C262.33 70.4885 262.262 70.517 262.19 70.517H258.678V71.051H262.726C262.78 71.0513 262.833 71.0358 262.878 71.0062C262.923 70.9767 262.958 70.9345 262.979 70.885C262.993 70.852 263 70.8167 263 70.781V66.74H262.46Z" fill="#010101"/>
<rect x="16.25" y="96.25" width="43.5" height="43.5" rx="5.75" fill="white"/>
<rect x="16.25" y="96.25" width="43.5" height="43.5" rx="5.75" stroke="#E1E1E1" stroke-width="0.5"/>
<path d="M40.481 121.033C40.481 120.725 40.367 120.508 40.145 120.385C40.0637 120.348 39.9775 120.321 39.889 120.307C39.7767 120.288 39.6629 120.278 39.549 120.279H39.102V121.82H39.549C39.872 121.82 40.109 121.761 40.255 121.634C40.332 121.569 40.3901 121.484 40.423 121.388C40.463 121.274 40.483 121.154 40.483 121.033H40.481ZM39.102 118.846V120.167H39.566C40.106 120.167 40.386 119.94 40.389 119.492C40.389 119.056 40.098 118.843 39.526 118.846H39.102ZM38.737 121.611C38.737 121.561 38.742 121.482 38.745 121.375V119.292L38.738 119.09C38.738 119.047 38.738 119.018 38.732 119.002C38.7267 118.962 38.71 118.924 38.684 118.893C38.6662 118.874 38.6443 118.86 38.62 118.85C38.5524 118.828 38.4813 118.817 38.41 118.82V118.75H39.599C39.756 118.748 39.913 118.76 40.069 118.784C40.185 118.799 40.299 118.83 40.406 118.875C40.5223 118.925 40.6203 119.009 40.6866 119.116C40.7529 119.224 40.7842 119.349 40.776 119.475C40.776 119.878 40.514 120.135 39.965 120.202L39.872 120.217C39.997 120.227 40.12 120.248 40.241 120.28C40.32 120.299 40.3963 120.327 40.468 120.365C40.6019 120.426 40.7143 120.526 40.7903 120.652C40.8663 120.778 40.9025 120.924 40.894 121.07C40.894 121.462 40.704 121.718 40.314 121.839C40.2091 121.867 40.1021 121.887 39.994 121.897C39.864 121.91 39.724 121.917 39.573 121.918H38.408V121.846C38.546 121.846 38.644 121.823 38.683 121.774C38.6996 121.759 38.7126 121.74 38.721 121.718C38.7313 121.684 38.7366 121.648 38.737 121.611ZM41.476 121.339C41.4715 121.465 41.5091 121.588 41.583 121.689C41.6163 121.732 41.6591 121.767 41.708 121.791C41.7569 121.814 41.8107 121.826 41.865 121.825C41.9827 121.824 42.0981 121.792 42.2 121.733C42.3009 121.678 42.3857 121.597 42.446 121.498C42.486 121.423 42.5124 121.34 42.524 121.255C42.543 121.133 42.551 121.011 42.549 120.888V120.658C42.3913 120.67 42.2344 120.69 42.079 120.719C41.977 120.739 41.877 120.773 41.784 120.82C41.687 120.867 41.606 120.941 41.5516 121.034C41.4973 121.126 41.472 121.233 41.479 121.34H41.476V121.339ZM42.6 121.827C42.566 121.749 42.5496 121.663 42.552 121.577V121.534L42.523 121.567C42.4917 121.603 42.4583 121.636 42.423 121.667C42.386 121.697 42.346 121.727 42.305 121.753C42.2235 121.817 42.1324 121.866 42.035 121.9C41.9398 121.929 41.8405 121.943 41.741 121.94C41.5831 121.951 41.4267 121.904 41.301 121.807C41.2411 121.753 41.1943 121.686 41.164 121.61C41.1308 121.529 41.1139 121.442 41.114 121.353C41.114 121.013 41.324 120.795 41.749 120.698C41.862 120.672 41.984 120.65 42.106 120.634C42.227 120.617 42.374 120.604 42.533 120.592L42.549 120.297C42.5507 120.215 42.546 120.133 42.535 120.051C42.5271 119.994 42.5102 119.939 42.485 119.887C42.422 119.764 42.293 119.705 42.107 119.705C41.808 119.705 41.647 119.845 41.63 120.127C41.6301 120.16 41.6261 120.192 41.618 120.223C41.6132 120.24 41.603 120.255 41.589 120.265C41.5449 120.289 41.495 120.3 41.445 120.297C41.298 120.297 41.243 120.255 41.245 120.182C41.248 120.102 41.2756 120.025 41.324 119.96C41.3815 119.883 41.4548 119.82 41.539 119.773C41.736 119.673 41.955 119.626 42.175 119.633C42.459 119.633 42.65 119.699 42.754 119.822C42.7985 119.879 42.8302 119.945 42.847 120.015C42.87 120.112 42.88 120.211 42.877 120.31V120.45L42.872 120.756L42.867 121.176L42.862 121.379C42.862 121.474 42.867 121.547 42.874 121.629C42.881 121.712 42.908 121.797 42.972 121.821C43.052 121.848 43.138 121.86 43.224 121.856C43.294 121.858 43.363 121.846 43.428 121.824C43.4549 121.812 43.4781 121.792 43.4956 121.768C43.5131 121.744 43.5242 121.716 43.528 121.686C43.543 121.586 43.548 121.484 43.544 121.383V120.198C43.544 120.041 43.528 119.924 43.481 119.864C43.435 119.804 43.353 119.782 43.238 119.786V119.723L43.87 119.677V120.181L43.903 120.121C43.9766 119.978 44.0865 119.855 44.222 119.767C44.3565 119.69 44.5101 119.653 44.665 119.659C44.935 119.655 45.12 119.744 45.23 119.924C45.272 119.99 45.302 120.064 45.316 120.141C45.336 120.249 45.344 120.358 45.342 120.467V121.383C45.338 121.485 45.344 121.587 45.359 121.688C45.362 121.718 45.3728 121.746 45.3901 121.77C45.4075 121.794 45.4309 121.813 45.458 121.825C45.5345 121.846 45.6136 121.857 45.693 121.855C45.7574 121.857 45.8214 121.846 45.882 121.824C45.9083 121.811 45.9309 121.792 45.9477 121.768C45.9644 121.744 45.9749 121.716 45.978 121.686C45.994 121.586 46 121.484 45.996 121.383V119.231C45.9996 119.14 45.9939 119.048 45.979 118.957C45.9756 118.93 45.9649 118.905 45.948 118.883C45.9311 118.862 45.9086 118.845 45.883 118.835C45.818 118.817 45.7505 118.809 45.683 118.811V118.748L46.339 118.714C46.3242 119.003 46.3159 119.291 46.314 119.579V121.026L47.038 120.232C47.14 120.119 47.195 120.023 47.195 119.947C47.2 119.84 47.093 119.79 46.917 119.784V119.721H47.857V119.785C47.8084 119.79 47.7605 119.801 47.714 119.815C47.6219 119.854 47.5344 119.903 47.453 119.961C47.4112 119.994 47.3718 120.03 47.335 120.068C47.289 120.114 47.223 120.184 47.137 120.278L46.902 120.535L47.529 121.52C47.5807 121.613 47.6477 121.695 47.727 121.765C47.791 121.813 47.867 121.843 47.947 121.852V121.916H47.374C47.3529 121.875 47.3313 121.834 47.309 121.793L47.218 121.626L47.148 121.501L46.685 120.746L46.321 121.154V121.384C46.317 121.484 46.323 121.586 46.338 121.686C46.3412 121.716 46.3519 121.744 46.3691 121.768C46.3862 121.792 46.4093 121.812 46.436 121.824C46.5012 121.847 46.57 121.858 46.639 121.856V121.918H44.697V121.854C44.827 121.854 44.917 121.829 44.954 121.781C44.9684 121.762 44.9796 121.74 44.987 121.717C44.9958 121.688 45.0008 121.657 45.002 121.626C45.002 121.596 45.006 121.553 45.01 121.497L45.015 121.381V120.494C45.025 120.329 45.001 120.164 44.943 120.01C44.9089 119.933 44.8517 119.868 44.7792 119.824C44.7067 119.78 44.6225 119.76 44.538 119.765C44.4327 119.765 44.3291 119.793 44.2384 119.846C44.1477 119.9 44.0732 119.977 44.023 120.069C43.9242 120.236 43.8714 120.425 43.87 120.618V121.383C43.866 121.485 43.872 121.587 43.888 121.688C43.8909 121.718 43.9015 121.746 43.9187 121.77C43.9359 121.794 43.9591 121.813 43.986 121.825C44.0526 121.848 44.1227 121.858 44.193 121.856V121.918H43.245C43.161 121.918 43 121.925 42.92 121.924C42.84 121.924 42.797 121.914 42.72 121.909C42.653 121.889 42.625 121.871 42.602 121.83M22.862 120.461H23.066C23.312 120.461 23.491 120.401 23.607 120.287C23.6747 120.213 23.7236 120.123 23.75 120.025C23.783 119.905 23.8 119.782 23.798 119.659C23.798 119.136 23.57 118.875 23.112 118.875H22.862V120.461ZM22.862 120.584V121.368C22.858 121.462 22.865 121.557 22.884 121.649C22.889 121.678 22.9013 121.704 22.9197 121.726C22.9382 121.748 22.962 121.765 22.989 121.775C23.069 121.8 23.154 121.811 23.238 121.808V121.918H22V121.808C22.0796 121.811 22.1591 121.8 22.235 121.775C22.2602 121.765 22.2824 121.749 22.2995 121.727C22.3166 121.706 22.3281 121.681 22.333 121.654C22.351 121.561 22.358 121.467 22.353 121.372V119.3C22.3571 119.206 22.3507 119.111 22.334 119.017C22.3294 118.991 22.3185 118.966 22.3021 118.945C22.2857 118.924 22.2644 118.907 22.24 118.895C22.1679 118.871 22.0922 118.858 22.016 118.859V118.749H23.192C23.589 118.749 23.88 118.819 24.065 118.959C24.25 119.099 24.341 119.324 24.339 119.63C24.339 120.059 24.172 120.34 23.838 120.473C23.729 120.512 23.618 120.538 23.503 120.552C23.353 120.572 23.202 120.582 23.051 120.582L22.862 120.584ZM24.9 120.594H25.8C25.8002 120.489 25.7935 120.385 25.78 120.28C25.7708 120.208 25.7541 120.136 25.73 120.067C25.655 119.847 25.538 119.737 25.38 119.737C25.203 119.737 25.073 119.861 24.988 120.109C24.9649 120.178 24.9472 120.248 24.935 120.319C24.9199 120.411 24.9092 120.503 24.903 120.595L24.9 120.594ZM26.335 120.716H24.895C24.895 120.846 24.904 120.975 24.922 121.103C24.936 121.201 24.962 121.296 25 121.388C25.12 121.668 25.305 121.806 25.555 121.806C25.6933 121.806 25.8281 121.763 25.94 121.681C26.0638 121.588 26.1625 121.465 26.227 121.324L26.329 121.392C26.2478 121.569 26.1212 121.721 25.962 121.832C25.8029 121.93 25.6186 121.979 25.432 121.972C25.105 121.967 24.805 121.862 24.615 121.658C24.424 121.453 24.329 121.171 24.325 120.814C24.321 120.457 24.422 120.17 24.605 119.961C24.786 119.751 25.075 119.648 25.388 119.64C25.583 119.635 25.774 119.684 25.942 119.783C26.089 119.883 26.199 120.029 26.255 120.198C26.281 120.265 26.3 120.334 26.312 120.404C26.325 120.508 26.332 120.613 26.335 120.718M26.428 119.699L27.227 119.644C27.227 119.723 27.234 119.791 27.237 119.845V120.116C27.41 119.799 27.619 119.639 27.863 119.636C27.9579 119.634 28.0501 119.667 28.122 119.729C28.1546 119.758 28.1806 119.794 28.1984 119.833C28.2161 119.873 28.2252 119.916 28.225 119.959C28.2253 119.995 28.2177 120.03 28.2026 120.063C28.1876 120.095 28.1655 120.124 28.138 120.146C28.0752 120.195 27.9975 120.221 27.918 120.218C27.8743 120.224 27.83 120.214 27.7939 120.189C27.7577 120.163 27.7324 120.125 27.723 120.082C27.714 120.04 27.697 120 27.673 119.964C27.6643 119.954 27.653 119.945 27.6403 119.94C27.6275 119.935 27.6137 119.933 27.6 119.934H27.59C27.506 119.941 27.427 120.007 27.355 120.134C27.3192 120.2 27.293 120.27 27.277 120.342C27.259 120.429 27.2506 120.517 27.252 120.605V121.389C27.2482 121.482 27.2542 121.575 27.27 121.666C27.2747 121.692 27.2857 121.716 27.3021 121.737C27.3185 121.757 27.3398 121.773 27.364 121.783C27.438 121.805 27.5149 121.815 27.592 121.813V121.916H26.41V121.814C26.4823 121.819 26.555 121.811 26.624 121.788C26.6478 121.778 26.6685 121.761 26.6843 121.74C26.7 121.719 26.7102 121.694 26.714 121.668C26.7309 121.577 26.7376 121.484 26.734 121.391V120.215C26.734 120.04 26.72 119.927 26.681 119.875C26.641 119.822 26.557 119.795 26.428 119.804V119.699ZM29.178 119.644L29.183 120.065C29.2555 119.933 29.3626 119.824 29.4928 119.748C29.623 119.672 29.7714 119.633 29.922 119.635C30.248 119.635 30.45 119.782 30.526 120.083C30.6009 119.946 30.7084 119.829 30.839 119.743C30.9645 119.669 31.1084 119.632 31.254 119.636C31.504 119.636 31.688 119.718 31.807 119.883C31.8555 119.951 31.8889 120.028 31.905 120.109C31.927 120.223 31.937 120.339 31.934 120.457V121.391C31.93 121.484 31.936 121.577 31.953 121.669C31.957 121.695 31.9672 121.72 31.983 121.74C31.9987 121.761 32.0193 121.778 32.043 121.788C32.1119 121.811 32.1845 121.821 32.257 121.816V121.918H31.107V121.816C31.177 121.82 31.247 121.811 31.313 121.788C31.3363 121.777 31.3565 121.76 31.3717 121.739C31.3868 121.718 31.3966 121.694 31.4 121.668C31.415 121.577 31.422 121.484 31.418 121.391V120.461C31.418 120.237 31.391 120.076 31.339 119.977C31.313 119.93 31.2736 119.89 31.2256 119.865C31.1776 119.839 31.1232 119.828 31.069 119.832C30.919 119.832 30.794 119.91 30.691 120.067C30.6041 120.194 30.558 120.343 30.559 120.496V121.391C30.556 121.484 30.562 121.577 30.577 121.669C30.5808 121.695 30.5907 121.719 30.6061 121.74C30.6214 121.761 30.6417 121.777 30.665 121.788C30.7322 121.811 30.8032 121.821 30.874 121.816V121.918H29.73V121.816C29.7995 121.821 29.8692 121.811 29.935 121.788C29.9583 121.777 29.9784 121.76 29.9936 121.739C30.0087 121.718 30.0185 121.694 30.022 121.668C30.038 121.577 30.044 121.484 30.04 121.391V120.457C30.04 120.035 29.925 119.827 29.696 119.83C29.6239 119.833 29.5534 119.854 29.4905 119.889C29.4276 119.924 29.374 119.974 29.334 120.034C29.2325 120.178 29.1792 120.35 29.182 120.526V121.389C29.178 121.482 29.184 121.576 29.2 121.668C29.2033 121.694 29.2134 121.719 29.2292 121.74C29.2449 121.761 29.2659 121.778 29.29 121.788C29.3559 121.811 29.4255 121.82 29.495 121.816V121.918H28.341V121.816C28.4137 121.821 28.4866 121.811 28.556 121.789C28.5797 121.779 28.6004 121.762 28.6161 121.741C28.6319 121.721 28.6421 121.696 28.646 121.67C28.6622 121.578 28.6682 121.485 28.664 121.391V120.207C28.668 120.035 28.651 119.923 28.612 119.872C28.572 119.821 28.486 119.793 28.349 119.8V119.7L29.178 119.644ZM35.28 119.839V121.259C35.28 121.335 35.283 121.412 35.29 121.488C35.2951 121.541 35.3061 121.594 35.323 121.644C35.3401 121.688 35.3688 121.726 35.406 121.754C35.442 121.782 35.486 121.797 35.531 121.798C35.6419 121.788 35.7463 121.742 35.828 121.666L35.888 121.772C35.7264 121.913 35.5189 121.988 35.305 121.985C35.07 121.981 34.914 121.903 34.825 121.75C34.807 121.714 34.7936 121.675 34.785 121.634C34.7743 121.577 34.7679 121.519 34.766 121.46C34.766 121.386 34.761 121.288 34.761 121.163V119.839H34.52V119.712C34.6018 119.711 34.6823 119.691 34.755 119.653C34.8247 119.613 34.8829 119.556 34.924 119.486C34.9618 119.426 34.9921 119.362 35.014 119.294C35.042 119.208 35.064 119.121 35.078 119.031L35.291 119.011L35.283 119.181C35.283 119.239 35.283 119.309 35.28 119.391C35.276 119.472 35.28 119.576 35.28 119.704H35.798V119.839H35.28ZM33.725 121.019V120.691C33.421 120.711 33.205 120.77 33.078 120.86C33.0131 120.91 32.9619 120.976 32.9294 121.051C32.8968 121.127 32.884 121.209 32.892 121.29C32.8867 121.419 32.9194 121.546 32.986 121.655C33.0129 121.697 33.0499 121.732 33.0936 121.756C33.1372 121.78 33.1862 121.792 33.236 121.792C33.3222 121.791 33.4059 121.763 33.476 121.713C33.551 121.662 33.6105 121.591 33.648 121.508C33.6782 121.446 33.6984 121.38 33.708 121.311C33.721 121.213 33.726 121.114 33.725 121.016V121.019ZM34.518 121.825V121.915C34.394 121.923 34.344 121.923 34.213 121.923C34.1117 121.929 34.0103 121.917 33.913 121.888C33.8643 121.874 33.8202 121.847 33.785 121.81C33.7446 121.761 33.7245 121.698 33.729 121.634C33.6327 121.743 33.5162 121.832 33.386 121.896C33.2655 121.951 33.1342 121.978 33.002 121.974C32.8268 121.983 32.6552 121.923 32.524 121.806C32.4655 121.747 32.4197 121.676 32.3895 121.599C32.3592 121.521 32.3451 121.438 32.348 121.354C32.348 120.988 32.575 120.762 33.028 120.674C33.259 120.632 33.492 120.606 33.726 120.595V120.317C33.726 120.096 33.705 119.942 33.656 119.857C33.6285 119.814 33.589 119.78 33.5423 119.758C33.4956 119.737 33.4437 119.73 33.393 119.737C33.3368 119.731 33.2801 119.742 33.2296 119.767C33.1792 119.793 33.1373 119.832 33.109 119.881C33.0871 119.918 33.0715 119.958 33.063 119.999C33.052 120.059 33.044 120.121 33.041 120.182C33.0428 120.213 33.0378 120.243 33.0263 120.271C33.0149 120.299 32.9974 120.324 32.975 120.344C32.9173 120.381 32.8491 120.398 32.781 120.391C32.584 120.391 32.485 120.326 32.484 120.196C32.485 120.119 32.5094 120.044 32.554 119.981C32.6046 119.908 32.6704 119.847 32.747 119.801C32.96 119.681 33.202 119.625 33.446 119.637C33.738 119.637 33.948 119.694 34.073 119.811C34.133 119.868 34.176 119.939 34.199 120.018C34.229 120.122 34.242 120.23 34.239 120.338L34.235 120.708L34.23 121.078C34.23 121.199 34.224 121.276 34.225 121.308C34.222 121.419 34.227 121.531 34.24 121.643C34.2406 121.67 34.247 121.697 34.2587 121.721C34.2705 121.745 34.2873 121.766 34.308 121.783C34.372 121.817 34.443 121.833 34.515 121.829M37.384 121.019V120.691C37.08 120.712 36.864 120.77 36.736 120.861C36.609 120.951 36.547 121.096 36.55 121.291C36.5451 121.419 36.5781 121.546 36.645 121.655C36.6718 121.697 36.7087 121.732 36.7524 121.756C36.7961 121.78 36.8452 121.792 36.895 121.792C36.981 121.792 37.065 121.766 37.135 121.717C37.2103 121.666 37.2701 121.595 37.308 121.512C37.338 121.449 37.358 121.382 37.368 121.314C37.38 121.216 37.385 121.118 37.384 121.019ZM38.177 121.829V121.918C38.0755 121.925 37.9737 121.928 37.872 121.927C37.7707 121.933 37.6692 121.921 37.572 121.891C37.5236 121.877 37.4798 121.85 37.445 121.813C37.4045 121.764 37.3845 121.702 37.389 121.638C37.2926 121.747 37.1762 121.835 37.046 121.899C36.9259 121.956 36.7946 121.984 36.662 121.982C36.4863 121.99 36.3144 121.929 36.183 121.812C36.1241 121.753 36.0781 121.681 36.048 121.603C36.0179 121.525 36.0043 121.441 36.008 121.357C36.008 120.992 36.235 120.765 36.688 120.677C36.9183 120.636 37.1512 120.61 37.385 120.599V120.317C37.385 120.096 37.363 119.943 37.314 119.857C37.2867 119.814 37.2475 119.78 37.201 119.758C37.154 119.737 37.103 119.73 37.052 119.737C36.9958 119.731 36.9391 119.742 36.8887 119.767C36.8383 119.793 36.7964 119.833 36.768 119.881C36.7462 119.918 36.7307 119.958 36.722 119.999C36.71 120.059 36.702 120.121 36.699 120.183C36.7005 120.214 36.6954 120.244 36.684 120.272C36.6726 120.3 36.6552 120.325 36.633 120.345C36.5756 120.382 36.5078 120.398 36.44 120.392C36.243 120.392 36.144 120.326 36.143 120.196C36.1447 120.119 36.1691 120.045 36.213 119.981C36.2638 119.908 36.3296 119.847 36.406 119.801C36.619 119.683 36.86 119.627 37.103 119.639C37.395 119.639 37.606 119.695 37.73 119.814C37.7894 119.871 37.8332 119.941 37.857 120.019C37.886 120.123 37.899 120.232 37.897 120.339L37.892 120.709V121.079C37.8892 121.156 37.8875 121.233 37.887 121.309C37.8836 121.421 37.8886 121.533 37.902 121.644C37.9027 121.671 37.9093 121.698 37.9214 121.722C37.9335 121.746 37.9508 121.768 37.972 121.784C38.035 121.819 38.107 121.834 38.179 121.83" fill="black"/>
<path d="M46.927 116.602L46.919 116.766L50.059 120.449L50.171 120.468L50.185 120.461L50.241 120.359L48.901 115.876L48.674 115.723L46.927 116.602Z" fill="#0096B8"/>
<path d="M46.919 116.766L50.059 120.449L50.171 120.468L47.855 116.944L46.919 116.766Z" fill="#005675"/>
<path d="M48.674 115.723L47.874 116.665L48.2 116.808L48.901 115.876L48.674 115.723Z" fill="#0BBBEF"/>
<path d="M46.919 116.766L47.855 116.944L47.873 116.665L46.927 116.602L46.919 116.766ZM48.2 116.808L50.185 120.461L50.241 120.358L48.901 115.876L48.2 116.808Z" fill="#007290"/>
<path d="M51.966 115.634L53.996 116.567L54 116.831L50.668 121.878L50.516 121.918L50.493 121.908L50.446 121.794L51.789 115.732L51.966 115.634Z" fill="#81B73E"/>
<path d="M52.648 116.946L50.516 121.918L50.668 121.878L54 116.831L52.648 116.946Z" fill="#69931D"/>
<path d="M51.788 115.732L50.446 121.794L50.493 121.908L52.264 116.735L51.788 115.732Z" fill="#277933"/>
<path d="M52.57 116.586L52.648 116.946L54 116.831L53.996 116.567L52.571 116.587L52.57 116.586Z" fill="#AECC53"/>
<path d="M51.789 115.732L52.264 116.734L52.57 116.586L51.966 115.634L51.789 115.732Z" fill="#69931D"/>
<path d="M48.864 114.197L48.946 114.042L51.545 114.014L51.712 114.189L50.467 118.349L50.388 118.395H50.386L50.3 118.338L48.864 114.198V114.197Z" fill="#E4032E"/>
<path d="M48.864 114.197L49.872 114.699L50.059 114.477L48.946 114.042L48.864 114.197Z" fill="#B51227"/>
<path d="M48.864 114.197L50.3 118.337L50.386 118.395L49.872 114.699L48.864 114.197Z" fill="#791B15"/>
<path d="M50.36 114.7L50.388 118.395L50.468 118.349L51.712 114.189L50.36 114.7Z" fill="#B51227"/>
<path d="M51.545 114.014L50.059 114.477L50.36 114.7L51.712 114.189L51.545 114.014Z" fill="#EA5160"/>
<rect x="68.25" y="96.25" width="43.5" height="43.5" rx="5.75" fill="white"/>
<rect x="68.25" y="96.25" width="43.5" height="43.5" rx="5.75" stroke="#E1E1E1" stroke-width="0.5"/>
<path d="M105 114H75V122H105V114Z" fill="white"/>
<path d="M83.276 114H75V122H83.276V114Z" fill="white"/>
<path fill-rule="evenodd" clip-rule="evenodd" d="M75 121.898H83.27V114H75V121.898Z" fill="#EF2B2B"/>
<path fill-rule="evenodd" clip-rule="evenodd" d="M80.512 115.492H76.118L78.064 117.949H82.459L80.512 115.492Z" fill="white"/>
<path fill-rule="evenodd" clip-rule="evenodd" d="M82.459 117.949H78.064L76.117 120.405H80.512L82.459 117.949Z" fill="white"/>
<path fill-rule="evenodd" clip-rule="evenodd" d="M103.178 119.599H102.107V118.38H103.178C103.678 118.38 103.858 118.693 103.858 118.986C103.858 119.282 103.678 119.598 103.178 119.598V119.599ZM102.107 116.299H103.11C103.531 116.299 103.782 116.511 103.782 116.869C103.782 117.225 103.532 117.437 103.11 117.437H102.107V116.299ZM104.241 117.884C104.481 117.757 104.875 117.403 104.875 116.824C104.875 115.922 104.231 115.361 103.193 115.361H101.013V120.536H103.285C104.312 120.536 104.951 119.963 104.951 119.038C104.951 118.342 104.524 118.021 104.241 117.884ZM96.756 118.667C96.713 118.6 94.84 115.35 94.84 115.35H93.77V120.526H94.864V117.434L96.754 120.568L98.634 117.435V120.526H99.728V115.35H98.658L96.755 118.667H96.756ZM91.336 120.537H92.433V115.36H91.335V120.535L91.336 120.537ZM89.523 119.289C89.204 119.533 88.818 119.661 88.411 119.661C87.422 119.661 86.653 118.909 86.653 117.949C86.653 116.989 87.423 116.236 88.411 116.236C88.818 116.236 89.204 116.365 89.523 116.608L89.539 116.62L90.301 115.892L90.284 115.877C89.756 115.444 89.0939 115.208 88.411 115.209C86.811 115.209 85.51 116.439 85.51 117.949C85.51 119.459 86.811 120.689 88.41 120.689C89.098 120.689 89.762 120.452 90.284 120.021L90.301 120.005L89.539 119.278L89.523 119.289Z" fill="#EE3124"/>
<rect x="120.25" y="96.25" width="43.5" height="43.5" rx="5.75" fill="white"/>
<rect x="120.25" y="96.25" width="43.5" height="43.5" rx="5.75" stroke="#E1E1E1" stroke-width="0.5"/>
<path d="M129.492 121.492C131.42 121.492 132.984 119.928 132.984 118C132.984 116.071 131.42 114.508 129.492 114.508C127.563 114.508 126 116.071 126 118C126 119.928 127.563 121.492 129.492 121.492Z" fill="#00AED6"/>
<path d="M129.492 121.492C131.42 121.492 132.984 119.928 132.984 118C132.984 116.071 131.42 114.508 129.492 114.508C127.563 114.508 126 116.071 126 118C126 119.928 127.563 121.492 129.492 121.492Z" fill="#00AED6"/>
<path fill-rule="evenodd" clip-rule="evenodd" d="M131.538 117.891C131.511 117.454 131.129 117.1 130.692 117.127H128.483C128.401 117.127 128.346 117.072 128.346 116.991C128.346 116.909 128.401 116.854 128.483 116.854H130.72C130.72 116.554 130.501 116.281 130.201 116.199C129.547 116.09 128.892 116.09 128.237 116.199C127.855 116.281 127.582 116.609 127.528 116.963C127.419 117.645 127.419 118.355 127.528 119.037C127.61 119.446 127.91 119.746 128.319 119.8C129.137 119.91 129.956 119.91 130.747 119.8C131.102 119.719 131.374 119.419 131.429 119.064C131.511 118.682 131.538 118.3 131.538 117.891ZM130.802 118.382V118.518C130.802 118.6 130.747 118.655 130.665 118.655C130.583 118.655 130.529 118.6 130.529 118.518V118.382C130.474 118.355 130.447 118.273 130.447 118.218C130.447 118.109 130.556 118 130.665 118C130.774 118 130.883 118.109 130.883 118.218C130.883 118.273 130.856 118.327 130.802 118.382Z" fill="white"/>
<path d="M135.739 119.746C136.039 120.155 136.53 120.401 137.049 120.373C137.649 120.373 138.113 119.991 138.113 119.446V119.173H138.085C137.758 119.5 137.294 119.664 136.83 119.637C136.094 119.664 135.412 119.282 135.03 118.655C134.648 118.027 134.648 117.236 135.003 116.609C135.357 115.981 136.039 115.572 136.776 115.599C137.24 115.572 137.703 115.736 138.058 116.063H138.085V115.654H139.122V119.446C139.122 120.537 138.249 121.301 137.021 121.301C136.23 121.355 135.439 121.001 134.948 120.373L135.739 119.746ZM138.058 117.373C138.058 116.936 137.567 116.527 136.994 116.527C136.285 116.527 135.821 116.963 135.821 117.591C135.794 117.891 135.903 118.191 136.121 118.409C136.339 118.627 136.639 118.737 136.939 118.682C137.54 118.682 138.031 118.3 138.031 117.836V117.373H138.058ZM141.877 115.545C143.132 115.545 144.06 116.445 144.06 117.591C144.06 118.737 143.132 119.637 141.877 119.637C141.113 119.691 140.377 119.309 139.995 118.655C139.586 118 139.586 117.182 139.995 116.527C140.404 115.872 141.113 115.49 141.877 115.545ZM141.877 116.5C141.277 116.5 140.786 116.991 140.786 117.591C140.786 118.191 141.277 118.682 141.877 118.682C142.477 118.682 142.968 118.191 142.968 117.591C142.996 117.291 142.859 117.018 142.668 116.8C142.45 116.609 142.177 116.5 141.877 116.5ZM145.696 115.654V116.008H145.724C146.051 115.708 146.515 115.545 146.979 115.545C148.097 115.572 148.997 116.472 148.997 117.591C148.997 118.709 148.097 119.61 146.979 119.637C146.542 119.637 146.106 119.5 145.751 119.228H145.724V121.165H144.633V115.654H145.696ZM146.788 116.5C146.215 116.5 145.724 116.909 145.724 117.345V117.836C145.724 118.3 146.188 118.682 146.788 118.682C147.388 118.682 147.879 118.191 147.879 117.591C147.879 116.991 147.388 116.5 146.788 116.5ZM151.016 117.236C151.725 117.154 151.944 117.045 151.944 116.827C151.944 116.581 151.671 116.418 151.262 116.418C150.825 116.39 150.389 116.663 150.307 117.127L149.27 116.909C149.407 116.118 150.225 115.545 151.234 115.545C152.38 115.545 153.062 116.118 153.062 117.072V119.555H152.08V119.118H152.053C151.725 119.5 151.234 119.691 150.743 119.664C149.898 119.664 149.298 119.2 149.298 118.518C149.325 117.782 149.789 117.4 151.016 117.236ZM152.026 117.645C151.916 117.782 151.698 117.864 151.18 117.973C150.552 118.082 150.307 118.218 150.307 118.436C150.307 118.682 150.498 118.764 150.907 118.764C151.535 118.764 152.026 118.491 152.026 118.109V117.645ZM155.026 119.337L153.226 115.654H154.426L155.599 118.191H155.627L156.8 115.654H158L155.299 121.192H154.099L155.026 119.337Z" fill="black"/>
<rect x="172.25" y="96.25" width="43.5" height="43.5" rx="5.75" fill="white"/>
<rect x="172.25" y="96.25" width="43.5" height="43.5" rx="5.75" stroke="#E1E1E1" stroke-width="0.5"/>
<path d="M190 125C193.866 125 197 121.866 197 118C197 114.134 193.866 111 190 111C186.134 111 183 114.134 183 118C183 121.866 186.134 125 190 125Z" fill="#EB001B"/>
<path d="M198 125C201.866 125 205 121.866 205 118C205 114.134 201.866 111 198 111C194.134 111 191 114.134 191 118C191 121.866 194.134 125 198 125Z" fill="#F79E1B"/>
<path d="M197 118C197 115.6 195.8 113.5 194 112.3C192.2 113.6 191 115.7 191 118C191 120.3 192.2 122.5 194 123.7C195.8 122.5 197 120.4 197 118Z" fill="#FF5F00"/>
<rect x="224.25" y="96.25" width="43.5" height="43.5" rx="5.75" fill="white"/>
<rect x="224.25" y="96.25" width="43.5" height="43.5" rx="5.75" stroke="#E1E1E1" stroke-width="0.5"/>
<path d="M245.878 114.448L244.198 121.57H242.164L243.846 114.448H245.878ZM254.432 119.046L255.502 116.372L256.118 119.046H254.432ZM256.701 121.57H258.581L256.94 114.448H255.204C254.814 114.448 254.484 114.654 254.339 114.971L251.287 121.57H253.422L253.846 120.506H256.454L256.701 121.57ZM251.394 119.245C251.403 117.365 248.526 117.261 248.546 116.422C248.552 116.166 248.82 115.895 249.408 115.825C249.699 115.791 250.502 115.765 251.412 116.144L251.769 114.634C251.157 114.426 250.515 114.32 249.868 114.318C247.858 114.318 246.444 115.286 246.432 116.672C246.419 117.697 247.442 118.27 248.212 118.61C249.004 118.96 249.27 119.183 249.267 119.495C249.261 119.973 248.635 120.185 248.049 120.192C247.028 120.207 246.435 119.942 245.962 119.742L245.593 121.302C246.068 121.5 246.945 121.672 247.854 121.682C249.99 121.682 251.388 120.725 251.394 119.245ZM242.974 114.448L239.678 121.57H237.529L235.909 115.886C235.809 115.536 235.724 115.408 235.425 115.261C234.936 115.021 234.129 114.795 233.419 114.655L233.468 114.448H236.928C237.368 114.448 237.764 114.714 237.864 115.174L238.721 119.295L240.837 114.448H242.972H242.974Z" fill="#1434CB"/>
</svg>
