<svg width="65" height="64" viewBox="0 0 65 64" fill="none" xmlns="http://www.w3.org/2000/svg">
<path d="M23.3339 5.33442C23.6355 5.4033 23.9382 5.47114 24.2398 5.54107C27.4857 6.28939 29.9425 9.29418 29.9968 12.5808C30.0083 13.2477 29.7286 13.6328 29.213 13.662C28.6839 13.6923 28.3582 13.3093 28.328 12.6204C28.1933 9.57493 25.7814 7.13583 22.7672 7.01267C22.3038 6.99388 21.8957 6.92291 21.7183 6.4282C21.5367 5.92306 21.8571 5.62352 22.1879 5.33337C22.5699 5.33337 22.9519 5.33337 23.3339 5.33337V5.33442Z" fill="url(#paint0_linear_322_3242)"/>
<path d="M36.667 26.1675C36.9113 26.1675 37.0981 26.1675 37.2849 26.1675C39.7668 26.1675 42.2497 26.1665 44.7316 26.1675C45.552 26.1675 45.8317 26.443 45.8317 27.254C45.8327 33.7468 45.8327 40.2385 45.8317 46.7313C45.8317 47.5527 45.5561 47.8324 44.7462 47.8335C42.2643 47.8356 39.7814 47.8335 37.2995 47.8335C37.1106 47.8335 36.9227 47.8335 36.666 47.8335V48.4169C36.666 50.9165 36.6681 53.4162 36.666 55.9158C36.6649 57.6483 35.6473 58.6659 33.9148 58.6659C26.3115 58.667 18.7083 58.667 11.105 58.6659C9.34115 58.6659 8.33398 57.6546 8.33398 55.8845C8.33398 43.2986 8.33398 30.7138 8.33398 18.128C8.33398 16.3266 9.3328 15.334 11.1436 15.333C18.7124 15.333 26.2813 15.333 33.8491 15.333C35.686 15.333 36.666 16.3213 36.666 18.1718C36.666 20.8092 36.666 23.4477 36.666 26.1654L36.667 26.1675ZM12.5213 51.9633H32.4756V47.8637H23.3339C23.3339 48.0975 23.337 48.3021 23.3339 48.5077C23.3224 49.1203 23.0083 49.495 22.5042 49.4971C22.0001 49.4992 21.6807 49.1256 21.6682 48.515C21.6661 48.4284 21.6682 48.3417 21.6682 48.2551C21.6682 40.7583 21.6682 33.2615 21.6682 25.7636C21.6682 25.6937 21.6682 25.6248 21.6682 25.5549C21.6744 24.8921 21.9708 24.5133 22.4885 24.5049C23.0083 24.4966 23.3255 24.8806 23.3339 25.5298C23.336 25.7312 23.3339 25.9316 23.3339 26.1289H32.4745V22.0314H12.5213V51.9633ZM34.1664 47.8585C34.1664 49.4898 34.1705 51.0835 34.1643 52.6772C34.1611 53.3577 33.8564 53.6646 33.1759 53.6656C26.059 53.6687 18.942 53.6687 11.8251 53.6656C11.1436 53.6656 10.8357 53.3598 10.8357 52.6793C10.8326 42.2289 10.8326 31.7794 10.8357 21.329C10.8357 20.6443 11.1384 20.3364 11.8168 20.3354C18.9337 20.3322 26.0506 20.3322 33.1675 20.3354C33.8689 20.3354 34.1622 20.6443 34.1643 21.3665C34.1684 22.7724 34.1653 24.1782 34.1653 25.5851C34.1653 25.7699 34.1653 25.9536 34.1653 26.1258H34.9982C34.9982 23.4299 34.9982 20.7758 34.9982 18.1207C34.9982 17.269 34.7299 17.0008 33.8793 17.0008C26.2938 17.0008 18.7083 17.0008 11.1217 17.0008C10.2679 17.0008 9.99971 17.268 9.99971 18.1175C9.99971 30.7023 9.99971 43.2872 9.99971 55.873C9.99971 56.7288 10.2669 56.9991 11.1123 56.9991C18.6978 56.9991 26.2834 56.9991 33.8699 56.9991C34.7258 56.9991 34.9982 56.7309 34.9982 55.8876C35.0003 53.3702 34.9982 50.8539 34.9982 48.3365V47.8575H34.1643L34.1664 47.8585ZM41.6548 30.3778H23.3683V43.6284H41.6548V30.3778ZM44.1294 46.1427V27.8593H23.3652V28.6671H24.0112C30.0521 28.6671 36.094 28.6671 42.1349 28.6671C43.0909 28.6671 43.3331 28.9082 43.3331 29.8653C43.3331 34.6224 43.3331 39.3785 43.3331 44.1357C43.3331 45.0917 43.0899 45.3338 42.1349 45.3338C36.0763 45.3338 30.0177 45.3338 23.9591 45.3338H23.3579V46.1416H44.1284L44.1294 46.1427Z" fill="url(#paint1_linear_322_3242)"/>
<path d="M52.4977 39.5006C52.4977 39.8231 52.5603 40.1018 52.481 40.3325C52.3892 40.6038 52.2253 40.943 51.9988 41.0484C51.7724 41.1539 51.3257 41.1152 51.1534 40.9514C49.9699 39.8315 48.8208 38.6751 47.6894 37.502C47.3711 37.1722 47.4264 36.7443 47.7458 36.4197C48.8511 35.2935 49.9574 34.1663 51.1054 33.0851C51.2923 32.9087 51.7546 32.8429 51.9884 32.9494C52.2243 33.0559 52.3798 33.4232 52.4831 33.7082C52.5603 33.9221 52.4988 34.1851 52.4988 34.4993C52.7075 34.4993 52.8901 34.4993 53.0738 34.4993C54.4786 34.4993 55.8834 34.4962 57.2883 34.5003C58.0366 34.5024 58.3288 34.7926 58.3319 35.5367C58.3372 36.4906 58.3351 37.4446 58.3319 38.3985C58.3299 39.2178 58.0554 39.4975 57.2465 39.4986C55.6883 39.5017 54.129 39.4986 52.4967 39.4986L52.4977 39.5006ZM50.9176 38.2764C51.1221 37.9257 51.4759 37.8193 51.9091 37.8287C52.6887 37.8464 53.4704 37.8339 54.2501 37.8339C55.0422 37.8339 55.8344 37.8339 56.6307 37.8339V36.1671C55.0704 36.1671 53.5466 36.1577 52.0218 36.1723C51.5542 36.1765 51.1315 36.1316 50.9176 35.7277C50.4531 36.165 50.0148 36.5773 49.567 36.9989C50.0117 37.4195 50.4479 37.8318 50.9176 38.2764Z" fill="url(#paint2_linear_322_3242)"/>
<path d="M26.6622 12.6883C26.6675 13.256 26.3627 13.6349 25.8784 13.6631C25.3973 13.6912 25.0487 13.3406 24.9996 12.7791C24.8713 11.3273 24.0102 10.4735 22.5303 10.3337C21.9938 10.2826 21.6609 9.95275 21.6713 9.48204C21.6828 8.99255 22.0575 8.67109 22.6179 8.67109C24.7304 8.66901 26.6424 10.5685 26.6622 12.6883Z" fill="url(#paint3_linear_322_3242)"/>
<path d="M22.4948 13.6631C22.0418 13.6599 21.6703 13.2842 21.6713 12.8292C21.6734 12.372 22.0439 12.0078 22.5052 12.0109C22.9665 12.014 23.3339 12.3835 23.3297 12.8396C23.3245 13.2926 22.9467 13.6662 22.4948 13.6631Z" fill="url(#paint4_linear_322_3242)"/>
<path d="M25.0048 38.863C24.9954 38.2514 25.3054 37.8746 25.7751 37.8401C26.2218 37.8067 26.5965 38.1073 26.656 38.6093C26.7144 39.1051 26.9336 39.4286 27.4419 39.4913C27.8645 39.5434 28.2632 39.2053 28.3238 38.7784C28.3874 38.338 28.0754 37.9247 27.6099 37.8454C27.3719 37.8047 27.1246 37.8036 26.8918 37.7462C25.8972 37.4989 25.1687 36.6848 25.0205 35.6745C24.8785 34.7101 25.3566 33.7197 26.2291 33.2072C26.4691 33.0663 26.6664 32.9619 26.7154 32.6217C26.7728 32.2272 27.0953 32.0049 27.5086 32.009C27.9219 32.0132 28.233 32.2428 28.2904 32.6384C28.3373 32.9557 28.5127 33.0527 28.7423 33.1874C29.4791 33.6163 29.8945 34.2739 29.9895 35.1203C30.0511 35.6766 29.7536 36.0899 29.2767 36.1577C28.8007 36.2256 28.4302 35.9041 28.3342 35.3405C28.2392 34.7873 27.9146 34.4784 27.4554 34.5045C27.0254 34.5285 26.6758 34.8959 26.6716 35.3259C26.6674 35.8123 27.0056 36.1201 27.5974 36.1681C28.8091 36.2673 29.6941 37.0229 29.9478 38.172C30.1815 39.2314 29.6618 40.2845 28.6442 40.8825C28.497 40.9691 28.3833 41.1632 28.3227 41.3323C28.1777 41.7352 27.9282 41.994 27.4909 41.9888C27.0546 41.9836 26.8156 41.7185 26.6706 41.3156C26.6059 41.1361 26.4587 40.9472 26.2959 40.8481C25.511 40.369 25.0831 39.6843 25.0038 38.8609L25.0048 38.863Z" fill="url(#paint5_linear_322_3242)"/>
<path d="M38.3317 37.0323C38.3171 38.3902 37.1889 39.5027 35.8279 39.4996C34.4471 39.4965 33.321 38.3536 33.3356 36.9687C33.3502 35.5899 34.5055 34.4753 35.8916 34.5024C37.2473 34.5285 38.3463 35.6682 38.3317 37.0313V37.0323ZM36.6629 36.9989C36.6618 36.548 36.2829 36.1702 35.8321 36.1723C35.3802 36.1734 35.0044 36.5512 35.0055 37.0031C35.0065 37.455 35.3854 37.8318 35.8363 37.8307C36.2871 37.8297 36.6649 37.4498 36.6639 36.9989H36.6629Z" fill="url(#paint6_linear_322_3242)"/>
<defs>
<linearGradient id="paint0_linear_322_3242" x1="8.33398" y1="58.6667" x2="61.5565" y2="8.76945" gradientUnits="userSpaceOnUse">
<stop stop-color="#733480"/>
<stop offset="1" stop-color="#FD6748"/>
</linearGradient>
<linearGradient id="paint1_linear_322_3242" x1="8.33398" y1="58.6667" x2="61.5565" y2="8.76945" gradientUnits="userSpaceOnUse">
<stop stop-color="#733480"/>
<stop offset="1" stop-color="#FD6748"/>
</linearGradient>
<linearGradient id="paint2_linear_322_3242" x1="8.33398" y1="58.6667" x2="61.5565" y2="8.76945" gradientUnits="userSpaceOnUse">
<stop stop-color="#733480"/>
<stop offset="1" stop-color="#FD6748"/>
</linearGradient>
<linearGradient id="paint3_linear_322_3242" x1="8.33398" y1="58.6667" x2="61.5565" y2="8.76945" gradientUnits="userSpaceOnUse">
<stop stop-color="#733480"/>
<stop offset="1" stop-color="#FD6748"/>
</linearGradient>
<linearGradient id="paint4_linear_322_3242" x1="8.33398" y1="58.6667" x2="61.5565" y2="8.76945" gradientUnits="userSpaceOnUse">
<stop stop-color="#733480"/>
<stop offset="1" stop-color="#FD6748"/>
</linearGradient>
<linearGradient id="paint5_linear_322_3242" x1="8.33398" y1="58.6667" x2="61.5565" y2="8.76945" gradientUnits="userSpaceOnUse">
<stop stop-color="#733480"/>
<stop offset="1" stop-color="#FD6748"/>
</linearGradient>
<linearGradient id="paint6_linear_322_3242" x1="8.33398" y1="58.6667" x2="61.5565" y2="8.76945" gradientUnits="userSpaceOnUse">
<stop stop-color="#733480"/>
<stop offset="1" stop-color="#FD6748"/>
</linearGradient>
</defs>
</svg>
