<svg width="160" height="112" viewBox="0 0 160 112" fill="none" xmlns="http://www.w3.org/2000/svg">
<rect width="160" height="112" rx="12" fill="white"/>
<path d="M20.116 21.004C20.9467 21.004 21.628 21.1113 22.16 21.326C22.7013 21.5313 23.1027 21.844 23.364 22.264C23.6253 22.684 23.756 23.2113 23.756 23.846C23.756 24.378 23.658 24.8213 23.462 25.176C23.266 25.5307 23.014 25.8153 22.706 26.03C22.4073 26.2353 22.09 26.3987 21.754 26.52L24.498 31H23.028L20.606 26.87H18.618V31H17.358V21.004H20.116ZM20.046 22.096H18.618V25.806H20.116C20.6573 25.806 21.1007 25.736 21.446 25.596C21.7913 25.4467 22.0433 25.232 22.202 24.952C22.37 24.672 22.454 24.322 22.454 23.902C22.454 23.4633 22.3653 23.1133 22.188 22.852C22.02 22.5907 21.7587 22.3993 21.404 22.278C21.0493 22.1567 20.5967 22.096 20.046 22.096ZM28.797 23.356C29.441 23.356 29.9917 23.496 30.449 23.776C30.9157 24.056 31.2703 24.4527 31.513 24.966C31.765 25.47 31.891 26.0627 31.891 26.744V27.486H26.753C26.7717 28.3353 26.9863 28.984 27.397 29.432C27.817 29.8707 28.4003 30.09 29.147 30.09C29.623 30.09 30.043 30.048 30.407 29.964C30.7803 29.8707 31.163 29.74 31.555 29.572V30.65C31.1723 30.818 30.7943 30.9393 30.421 31.014C30.0477 31.098 29.6043 31.14 29.091 31.14C28.3817 31.14 27.7517 30.9953 27.201 30.706C26.6597 30.4167 26.235 29.9873 25.927 29.418C25.6283 28.8393 25.479 28.1347 25.479 27.304C25.479 26.4827 25.6143 25.778 25.885 25.19C26.165 24.602 26.5523 24.1493 27.047 23.832C27.551 23.5147 28.1343 23.356 28.797 23.356ZM28.783 24.364C28.195 24.364 27.7283 24.5553 27.383 24.938C27.047 25.3113 26.8463 25.834 26.781 26.506H30.603C30.603 26.0767 30.5377 25.7033 30.407 25.386C30.2763 25.0687 30.0757 24.8213 29.805 24.644C29.5437 24.4573 29.203 24.364 28.783 24.364ZM38.6873 28.928C38.6873 29.4133 38.566 29.8193 38.3233 30.146C38.0807 30.4727 37.7353 30.72 37.2873 30.888C36.8393 31.056 36.3073 31.14 35.6913 31.14C35.1687 31.14 34.716 31.098 34.3333 31.014C33.96 30.93 33.6287 30.8133 33.3393 30.664V29.544C33.638 29.6933 33.9973 29.8333 34.4173 29.964C34.8467 30.0853 35.2807 30.146 35.7193 30.146C36.3447 30.146 36.7973 30.048 37.0773 29.852C37.3573 29.6467 37.4973 29.376 37.4973 29.04C37.4973 28.8533 37.446 28.6853 37.3433 28.536C37.2407 28.3867 37.054 28.2373 36.7833 28.088C36.522 27.9387 36.144 27.7707 35.6493 27.584C35.164 27.3973 34.7487 27.2107 34.4033 27.024C34.058 26.8373 33.792 26.6133 33.6053 26.352C33.4187 26.0907 33.3253 25.7547 33.3253 25.344C33.3253 24.7093 33.582 24.2193 34.0953 23.874C34.618 23.5287 35.2993 23.356 36.1393 23.356C36.5967 23.356 37.0213 23.4027 37.4133 23.496C37.8147 23.58 38.188 23.7013 38.5333 23.86L38.1133 24.84C37.908 24.7467 37.6887 24.6673 37.4553 24.602C37.2313 24.5273 37.0027 24.4713 36.7693 24.434C36.536 24.3873 36.298 24.364 36.0553 24.364C35.5513 24.364 35.164 24.448 34.8933 24.616C34.632 24.7747 34.5013 24.994 34.5013 25.274C34.5013 25.4793 34.562 25.6567 34.6833 25.806C34.8047 25.946 35.0053 26.086 35.2853 26.226C35.5747 26.3567 35.9573 26.5153 36.4333 26.702C36.9093 26.8793 37.3153 27.0613 37.6513 27.248C37.9873 27.4347 38.244 27.6633 38.4213 27.934C38.5987 28.1953 38.6873 28.5267 38.6873 28.928ZM44.0705 23.356C44.9945 23.356 45.7365 23.678 46.2965 24.322C46.8659 24.966 47.1505 25.9367 47.1505 27.234C47.1505 28.0833 47.0199 28.802 46.7585 29.39C46.5065 29.9687 46.1472 30.4073 45.6805 30.706C45.2232 30.9953 44.6819 31.14 44.0565 31.14C43.6739 31.14 43.3332 31.0887 43.0345 30.986C42.7359 30.8833 42.4792 30.7527 42.2645 30.594C42.0592 30.426 41.8819 30.244 41.7325 30.048H41.6485C41.6672 30.2067 41.6859 30.4073 41.7045 30.65C41.7232 30.8927 41.7325 31.1027 41.7325 31.28V34.36H40.5005V23.496H41.5085L41.6765 24.518H41.7325C41.8819 24.3033 42.0592 24.1073 42.2645 23.93C42.4792 23.7527 42.7312 23.6127 43.0205 23.51C43.3192 23.4073 43.6692 23.356 44.0705 23.356ZM43.8465 24.392C43.3425 24.392 42.9365 24.49 42.6285 24.686C42.3205 24.8727 42.0965 25.1573 41.9565 25.54C41.8165 25.9227 41.7419 26.408 41.7325 26.996V27.234C41.7325 27.85 41.7979 28.3727 41.9285 28.802C42.0592 29.2313 42.2785 29.558 42.5865 29.782C42.9039 30.006 43.3332 30.118 43.8745 30.118C44.3319 30.118 44.7052 29.992 44.9945 29.74C45.2932 29.488 45.5125 29.1473 45.6525 28.718C45.8019 28.2793 45.8765 27.78 45.8765 27.22C45.8765 26.3613 45.7085 25.6753 45.3725 25.162C45.0459 24.6487 44.5372 24.392 43.8465 24.392ZM55.6378 27.234C55.6378 27.8593 55.5538 28.4147 55.3858 28.9C55.2272 29.376 54.9938 29.782 54.6858 30.118C54.3872 30.454 54.0185 30.7107 53.5798 30.888C53.1505 31.056 52.6698 31.14 52.1378 31.14C51.6432 31.14 51.1858 31.056 50.7658 30.888C50.3458 30.7107 49.9818 30.454 49.6738 30.118C49.3658 29.782 49.1232 29.376 48.9458 28.9C48.7778 28.4147 48.6938 27.8593 48.6938 27.234C48.6938 26.4033 48.8338 25.7033 49.1138 25.134C49.3938 24.5553 49.7952 24.1167 50.3178 23.818C50.8405 23.51 51.4612 23.356 52.1798 23.356C52.8612 23.356 53.4585 23.51 53.9718 23.818C54.4945 24.1167 54.9005 24.5553 55.1898 25.134C55.4885 25.7033 55.6378 26.4033 55.6378 27.234ZM49.9678 27.234C49.9678 27.822 50.0425 28.3353 50.1918 28.774C50.3505 29.2033 50.5932 29.5347 50.9198 29.768C51.2465 30.0013 51.6618 30.118 52.1658 30.118C52.6698 30.118 53.0852 30.0013 53.4118 29.768C53.7385 29.5347 53.9765 29.2033 54.1258 28.774C54.2845 28.3353 54.3638 27.822 54.3638 27.234C54.3638 26.6367 54.2845 26.128 54.1258 25.708C53.9672 25.288 53.7245 24.966 53.3978 24.742C53.0805 24.5087 52.6652 24.392 52.1518 24.392C51.3865 24.392 50.8312 24.644 50.4858 25.148C50.1405 25.652 49.9678 26.3473 49.9678 27.234ZM61.2024 23.356C62.0984 23.356 62.7751 23.5753 63.2324 24.014C63.6897 24.4433 63.9184 25.1433 63.9184 26.114V31H62.7004V26.198C62.7004 25.5913 62.5651 25.1387 62.2944 24.84C62.0237 24.5413 61.5991 24.392 61.0204 24.392C60.1897 24.392 59.6157 24.6253 59.2984 25.092C58.9811 25.5587 58.8224 26.2307 58.8224 27.108V31H57.5904V23.496H58.5844L58.7664 24.518H58.8364C59.0044 24.2567 59.2097 24.042 59.4524 23.874C59.7044 23.6967 59.9797 23.566 60.2784 23.482C60.5771 23.398 60.8851 23.356 61.2024 23.356ZM71.1307 28.928C71.1307 29.4133 71.0094 29.8193 70.7667 30.146C70.524 30.4727 70.1787 30.72 69.7307 30.888C69.2827 31.056 68.7507 31.14 68.1347 31.14C67.612 31.14 67.1594 31.098 66.7767 31.014C66.4034 30.93 66.072 30.8133 65.7827 30.664V29.544C66.0814 29.6933 66.4407 29.8333 66.8607 29.964C67.29 30.0853 67.724 30.146 68.1627 30.146C68.788 30.146 69.2407 30.048 69.5207 29.852C69.8007 29.6467 69.9407 29.376 69.9407 29.04C69.9407 28.8533 69.8894 28.6853 69.7867 28.536C69.684 28.3867 69.4974 28.2373 69.2267 28.088C68.9654 27.9387 68.5874 27.7707 68.0927 27.584C67.6074 27.3973 67.192 27.2107 66.8467 27.024C66.5014 26.8373 66.2354 26.6133 66.0487 26.352C65.862 26.0907 65.7687 25.7547 65.7687 25.344C65.7687 24.7093 66.0254 24.2193 66.5387 23.874C67.0614 23.5287 67.7427 23.356 68.5827 23.356C69.04 23.356 69.4647 23.4027 69.8567 23.496C70.258 23.58 70.6314 23.7013 70.9767 23.86L70.5567 24.84C70.3514 24.7467 70.132 24.6673 69.8987 24.602C69.6747 24.5273 69.446 24.4713 69.2127 24.434C68.9794 24.3873 68.7414 24.364 68.4987 24.364C67.9947 24.364 67.6074 24.448 67.3367 24.616C67.0754 24.7747 66.9447 24.994 66.9447 25.274C66.9447 25.4793 67.0054 25.6567 67.1267 25.806C67.248 25.946 67.4487 26.086 67.7287 26.226C68.018 26.3567 68.4007 26.5153 68.8767 26.702C69.3527 26.8793 69.7587 27.0613 70.0947 27.248C70.4307 27.4347 70.6874 27.6633 70.8647 27.934C71.042 28.1953 71.1307 28.5267 71.1307 28.928ZM74.1759 23.496V31H72.9439V23.496H74.1759ZM73.5739 20.682C73.7606 20.682 73.9239 20.7473 74.0639 20.878C74.2132 20.9993 74.2879 21.1953 74.2879 21.466C74.2879 21.7273 74.2132 21.9233 74.0639 22.054C73.9239 22.1847 73.7606 22.25 73.5739 22.25C73.3686 22.25 73.1959 22.1847 73.0559 22.054C72.9159 21.9233 72.8459 21.7273 72.8459 21.466C72.8459 21.1953 72.9159 20.9993 73.0559 20.878C73.1959 20.7473 73.3686 20.682 73.5739 20.682ZM78.2053 31L75.3633 23.496H76.6793L78.2753 27.92C78.3499 28.1253 78.4293 28.354 78.5133 28.606C78.5973 28.858 78.6719 29.1007 78.7373 29.334C78.8026 29.558 78.8493 29.7493 78.8773 29.908H78.9333C78.9706 29.7493 79.0219 29.5533 79.0873 29.32C79.1619 29.0867 79.2413 28.844 79.3253 28.592C79.4186 28.34 79.4979 28.116 79.5633 27.92L81.1593 23.496H82.4753L79.6193 31H78.2053ZM86.5607 23.356C87.2047 23.356 87.7553 23.496 88.2127 23.776C88.6793 24.056 89.034 24.4527 89.2767 24.966C89.5287 25.47 89.6547 26.0627 89.6547 26.744V27.486H84.5167C84.5353 28.3353 84.75 28.984 85.1607 29.432C85.5807 29.8707 86.164 30.09 86.9107 30.09C87.3867 30.09 87.8067 30.048 88.1707 29.964C88.544 29.8707 88.9267 29.74 89.3187 29.572V30.65C88.936 30.818 88.558 30.9393 88.1847 31.014C87.8113 31.098 87.368 31.14 86.8547 31.14C86.1453 31.14 85.5153 30.9953 84.9647 30.706C84.4233 30.4167 83.9987 29.9873 83.6907 29.418C83.392 28.8393 83.2427 28.1347 83.2427 27.304C83.2427 26.4827 83.378 25.778 83.6487 25.19C83.9287 24.602 84.316 24.1493 84.8107 23.832C85.3147 23.5147 85.898 23.356 86.5607 23.356ZM86.5467 24.364C85.9587 24.364 85.492 24.5553 85.1467 24.938C84.8107 25.3113 84.61 25.834 84.5447 26.506H88.3667C88.3667 26.0767 88.3013 25.7033 88.1707 25.386C88.04 25.0687 87.8393 24.8213 87.5687 24.644C87.3073 24.4573 86.9667 24.364 86.5467 24.364ZM103.378 25.904C103.378 27.024 103.168 27.962 102.748 28.718C102.337 29.474 101.744 30.0433 100.97 30.426C100.195 30.8087 99.2571 31 98.1557 31H95.3697V21.004H98.4497C99.4577 21.004 100.33 21.1907 101.068 21.564C101.805 21.9373 102.374 22.488 102.776 23.216C103.177 23.9347 103.378 24.8307 103.378 25.904ZM102.048 25.946C102.048 25.0593 101.898 24.3313 101.6 23.762C101.31 23.1927 100.881 22.7727 100.312 22.502C99.7517 22.222 99.0704 22.082 98.2677 22.082H96.6297V29.922H97.9877C99.3411 29.922 100.354 29.5907 101.026 28.928C101.707 28.256 102.048 27.262 102.048 25.946ZM108.326 23.356C108.97 23.356 109.521 23.496 109.978 23.776C110.445 24.056 110.8 24.4527 111.042 24.966C111.294 25.47 111.42 26.0627 111.42 26.744V27.486H106.282C106.301 28.3353 106.516 28.984 106.926 29.432C107.346 29.8707 107.93 30.09 108.676 30.09C109.152 30.09 109.572 30.048 109.936 29.964C110.31 29.8707 110.692 29.74 111.084 29.572V30.65C110.702 30.818 110.324 30.9393 109.95 31.014C109.577 31.098 109.134 31.14 108.62 31.14C107.911 31.14 107.281 30.9953 106.73 30.706C106.189 30.4167 105.764 29.9873 105.456 29.418C105.158 28.8393 105.008 28.1347 105.008 27.304C105.008 26.4827 105.144 25.778 105.414 25.19C105.694 24.602 106.082 24.1493 106.576 23.832C107.08 23.5147 107.664 23.356 108.326 23.356ZM108.312 24.364C107.724 24.364 107.258 24.5553 106.912 24.938C106.576 25.3113 106.376 25.834 106.31 26.506H110.132C110.132 26.0767 110.067 25.7033 109.936 25.386C109.806 25.0687 109.605 24.8213 109.334 24.644C109.073 24.4573 108.732 24.364 108.312 24.364ZM118.217 28.928C118.217 29.4133 118.095 29.8193 117.853 30.146C117.61 30.4727 117.265 30.72 116.817 30.888C116.369 31.056 115.837 31.14 115.221 31.14C114.698 31.14 114.245 31.098 113.863 31.014C113.489 30.93 113.158 30.8133 112.869 30.664V29.544C113.167 29.6933 113.527 29.8333 113.947 29.964C114.376 30.0853 114.81 30.146 115.249 30.146C115.874 30.146 116.327 30.048 116.607 29.852C116.887 29.6467 117.027 29.376 117.027 29.04C117.027 28.8533 116.975 28.6853 116.873 28.536C116.77 28.3867 116.583 28.2373 116.313 28.088C116.051 27.9387 115.673 27.7707 115.179 27.584C114.693 27.3973 114.278 27.2107 113.933 27.024C113.587 26.8373 113.321 26.6133 113.135 26.352C112.948 26.0907 112.855 25.7547 112.855 25.344C112.855 24.7093 113.111 24.2193 113.625 23.874C114.147 23.5287 114.829 23.356 115.669 23.356C116.126 23.356 116.551 23.4027 116.943 23.496C117.344 23.58 117.717 23.7013 118.063 23.86L117.643 24.84C117.437 24.7467 117.218 24.6673 116.985 24.602C116.761 24.5273 116.532 24.4713 116.299 24.434C116.065 24.3873 115.827 24.364 115.585 24.364C115.081 24.364 114.693 24.448 114.423 24.616C114.161 24.7747 114.031 24.994 114.031 25.274C114.031 25.4793 114.091 25.6567 114.213 25.806C114.334 25.946 114.535 26.086 114.815 26.226C115.104 26.3567 115.487 26.5153 115.963 26.702C116.439 26.8793 116.845 27.0613 117.181 27.248C117.517 27.4347 117.773 27.6633 117.951 27.934C118.128 28.1953 118.217 28.5267 118.217 28.928ZM121.262 23.496V31H120.03V23.496H121.262ZM120.66 20.682C120.847 20.682 121.01 20.7473 121.15 20.878C121.299 20.9993 121.374 21.1953 121.374 21.466C121.374 21.7273 121.299 21.9233 121.15 22.054C121.01 22.1847 120.847 22.25 120.66 22.25C120.455 22.25 120.282 22.1847 120.142 22.054C120.002 21.9233 119.932 21.7273 119.932 21.466C119.932 21.1953 120.002 20.9993 120.142 20.878C120.282 20.7473 120.455 20.682 120.66 20.682ZM126.299 23.356C126.794 23.356 127.237 23.4493 127.629 23.636C128.031 23.8227 128.371 24.1073 128.651 24.49H128.721L128.889 23.496H129.869V31.126C129.869 31.8353 129.748 32.428 129.505 32.904C129.263 33.3893 128.894 33.7533 128.399 33.996C127.905 34.2387 127.275 34.36 126.509 34.36C125.968 34.36 125.469 34.318 125.011 34.234C124.563 34.1593 124.162 34.0427 123.807 33.884V32.75C124.05 32.8713 124.316 32.974 124.605 33.058C124.895 33.1513 125.207 33.2213 125.543 33.268C125.879 33.3147 126.225 33.338 126.579 33.338C127.223 33.338 127.727 33.1467 128.091 32.764C128.465 32.3907 128.651 31.8773 128.651 31.224V30.93C128.651 30.818 128.656 30.6593 128.665 30.454C128.675 30.2393 128.684 30.09 128.693 30.006H128.637C128.376 30.3887 128.049 30.6733 127.657 30.86C127.275 31.0467 126.827 31.14 126.313 31.14C125.343 31.14 124.582 30.7993 124.031 30.118C123.49 29.4367 123.219 28.4847 123.219 27.262C123.219 26.4593 123.341 25.7687 123.583 25.19C123.835 24.602 124.19 24.1493 124.647 23.832C125.105 23.5147 125.655 23.356 126.299 23.356ZM126.467 24.392C126.047 24.392 125.688 24.504 125.389 24.728C125.1 24.952 124.876 25.2787 124.717 25.708C124.568 26.1373 124.493 26.66 124.493 27.276C124.493 28.2 124.661 28.9093 124.997 29.404C125.343 29.8893 125.842 30.132 126.495 30.132C126.878 30.132 127.205 30.0853 127.475 29.992C127.746 29.8893 127.97 29.7353 128.147 29.53C128.325 29.3153 128.455 29.0447 128.539 28.718C128.623 28.3913 128.665 28.004 128.665 27.556V27.262C128.665 26.5807 128.586 26.03 128.427 25.61C128.278 25.19 128.04 24.882 127.713 24.686C127.387 24.49 126.971 24.392 126.467 24.392ZM135.865 23.356C136.761 23.356 137.437 23.5753 137.895 24.014C138.352 24.4433 138.581 25.1433 138.581 26.114V31H137.363V26.198C137.363 25.5913 137.227 25.1387 136.957 24.84C136.686 24.5413 136.261 24.392 135.683 24.392C134.852 24.392 134.278 24.6253 133.961 25.092C133.643 25.5587 133.485 26.2307 133.485 27.108V31H132.253V23.496H133.247L133.429 24.518H133.499C133.667 24.2567 133.872 24.042 134.115 23.874C134.367 23.6967 134.642 23.566 134.941 23.482C135.239 23.398 135.547 23.356 135.865 23.356Z" fill="#111111"/>
<path d="M61.2396 48H19.7508C17.684 48.0096 16 49.6862 16 51.7557V83.1234C16 85.1928 17.684 86.879 19.7508 86.879H35.4335L34.1131 90.9605C33.8834 91.679 33.4241 92.3114 32.8118 92.7521L32.7926 92.7713H25.9799C25.09 92.7713 24.3724 93.4898 24.3628 94.3808C24.3533 95.2719 25.0805 95.9904 25.9703 96H55.0105C55.9004 96 56.618 95.2814 56.6276 94.3904C56.6276 93.4994 55.91 92.7808 55.0201 92.7713H48.2074C47.5854 92.3305 47.1166 91.6982 46.8869 90.9701L45.5665 86.8886H61.2492C63.316 86.8886 65 85.2024 65 83.1329V51.7557C64.9904 49.6862 63.3064 48.0096 61.2396 48ZM16.6219 51.7557C16.6219 50.0311 18.0189 48.6228 19.7508 48.6228H61.2396C62.9715 48.6228 64.3685 50.0311 64.3685 51.7557V77.4994H16.6219V51.7557ZM55.0201 93.3844C55.5655 93.3653 56.0248 93.7964 56.0439 94.3521C56.0631 94.8982 55.6325 95.3581 55.0775 95.3772C55.0584 95.3772 55.0392 95.3772 55.0201 95.3772H25.9703C25.4249 95.3964 24.9656 94.9653 24.9465 94.4096C24.9274 93.8635 25.3579 93.4036 25.9129 93.3844H55.0201ZM46.2937 91.1521C46.4851 91.7557 46.82 92.3114 47.2601 92.7617H33.7303C34.1705 92.3018 34.4958 91.7557 34.6967 91.1425L36.0842 86.8695H44.9063L46.2937 91.1521ZM61.2396 86.2659H19.7508C18.0189 86.2659 16.6219 84.8575 16.6124 83.1329V78.1317H64.3685V83.1329C64.3685 84.8575 62.9715 86.2563 61.2396 86.2659Z" fill="#111111"/>
<path d="M61.919 50.8647H19.0715C18.8993 50.8647 18.7653 50.9988 18.7653 51.1713V74.7305C18.7653 74.903 18.8993 75.0371 19.0715 75.0371H61.9094C62.0817 75.0371 62.2156 74.903 62.2156 74.7305V51.1808C62.2252 51.0084 62.0912 50.8647 61.919 50.8647ZM61.6032 74.424H19.3873V51.4874H61.6128L61.6032 74.424Z" fill="#111111"/>
<path d="M41.5095 80.3545H39.481C38.4476 80.3737 37.6343 81.2359 37.663 82.2611C37.6821 83.2575 38.4859 84.0623 39.481 84.0814H41.5095C42.5429 84.0623 43.3562 83.2 43.3275 82.1749C43.3084 81.1784 42.5046 80.3737 41.5095 80.3545ZM41.5095 83.4683H39.481C38.7921 83.4683 38.2371 82.9126 38.2371 82.2228C38.2371 81.5329 38.7921 80.9772 39.481 80.9772H41.5095C42.1984 80.9772 42.7534 81.5329 42.7534 82.2228C42.7534 82.9126 42.1984 83.4683 41.5095 83.4683Z" fill="#111111"/>
<path d="M52.7046 55.9234H35.9216C35.2135 55.9234 34.6394 55.4443 34.6394 54.8599C34.6394 54.2754 35.2135 53.7964 35.9216 53.7964H52.7046C53.4127 53.7964 53.9868 54.2754 53.9868 54.8599C53.9868 55.4443 53.4127 55.9234 52.7046 55.9234ZM35.9216 54.4096C35.558 54.4096 35.2518 54.6108 35.2518 54.8599C35.2518 55.109 35.558 55.3102 35.9216 55.3102H52.7046C53.0682 55.3102 53.3744 55.109 53.3744 54.8599C53.3744 54.6108 53.0682 54.4096 52.7046 54.4096H35.9216Z" fill="#111111"/>
<path d="M32.4386 55.9234H28.2859C27.5778 55.9234 27.0037 55.4443 27.0037 54.8599C27.0037 54.2754 27.5778 53.7964 28.2859 53.7964H32.4386C33.1467 53.7964 33.7208 54.2754 33.7208 54.8599C33.7208 55.4443 33.1467 55.9234 32.4386 55.9234ZM28.2859 54.4096C27.9223 54.4096 27.6161 54.6108 27.6161 54.8599C27.6161 55.109 27.9223 55.3102 28.2859 55.3102H32.4386C32.8022 55.3102 33.1084 55.109 33.1084 54.8599C33.1084 54.6108 32.8022 54.4096 32.4386 54.4096H28.2859Z" fill="#111111"/>
<path d="M52.7046 61.2886H28.2859C27.5778 61.2886 27.0037 60.8096 27.0037 60.2252C27.0037 59.6407 27.5778 59.1617 28.2859 59.1617H52.7046C53.4126 59.1617 53.9867 59.6407 53.9867 60.2252C53.9867 60.8096 53.4126 61.2886 52.7046 61.2886ZM28.2859 59.7748C27.9223 59.7748 27.6161 59.976 27.6161 60.2252C27.6161 60.4647 27.9223 60.6755 28.2859 60.6755H52.7046C53.0682 60.6755 53.3743 60.4743 53.3743 60.2252C53.3743 59.976 53.0682 59.7748 52.7046 59.7748H28.2859Z" fill="#111111"/>
<path d="M52.7045 66.6443H42.9447C42.2366 66.6443 41.6625 66.1653 41.6625 65.5808C41.6625 64.9964 42.2366 64.5174 42.9447 64.5174H52.7045C53.4125 64.5174 53.9866 64.9964 53.9866 65.5808C53.9866 66.1653 53.4125 66.6443 52.7045 66.6443ZM42.9447 65.1305C42.5811 65.1305 42.2749 65.3317 42.2749 65.5808C42.2749 65.8299 42.5811 66.0311 42.9447 66.0311H52.7045C53.0681 66.0311 53.3743 65.8299 53.3743 65.5808C53.3743 65.3317 53.0681 65.1305 52.7045 65.1305H42.9447Z" fill="#111111"/>
<path d="M38.1701 66.6443H28.2859C27.5778 66.6443 27.0037 66.1653 27.0037 65.5808C27.0037 64.9964 27.5778 64.5174 28.2859 64.5174H38.1701C38.8781 64.5174 39.4523 64.9964 39.4523 65.5808C39.4523 66.1653 38.8781 66.6443 38.1701 66.6443ZM28.2859 65.1305C27.9223 65.1305 27.6161 65.3317 27.6161 65.5808C27.6161 65.8299 27.9223 66.0311 28.2859 66.0311H38.1701C38.5337 66.0311 38.8399 65.8299 38.8399 65.5808C38.8399 65.3317 38.5337 65.1305 38.1701 65.1305H28.2859Z" fill="#111111"/>
<path d="M52.7045 72.0096H42.9447C42.2366 72.0096 41.6625 71.5305 41.6625 70.9461C41.6625 70.3617 42.2366 69.8826 42.9447 69.8826H52.7045C53.4125 69.8826 53.9866 70.3617 53.9866 70.9461C53.9866 71.5305 53.4125 72.0096 52.7045 72.0096ZM42.9447 70.4958C42.5811 70.4958 42.2749 70.697 42.2749 70.9461C42.2749 71.1952 42.5811 71.3964 42.9447 71.3964H52.7045C53.0681 71.3964 53.3743 71.1952 53.3743 70.9461C53.3743 70.697 53.0681 70.4958 52.7045 70.4958H42.9447Z" fill="#111111"/>
<path d="M38.8877 72.0096H34.2662C33.5581 72.0096 32.984 71.5305 32.984 70.9461C32.984 70.3617 33.5581 69.8826 34.2662 69.8826H38.8877C39.5958 69.8826 40.1699 70.3617 40.1699 70.9461C40.1699 71.5305 39.5958 72.0096 38.8877 72.0096ZM34.2662 70.4958C33.9026 70.4958 33.5964 70.697 33.5964 70.9461C33.5964 71.1952 33.9026 71.3964 34.2662 71.3964H38.8877C39.2513 71.3964 39.5575 71.1952 39.5575 70.9461C39.5575 70.697 39.2513 70.4958 38.8877 70.4958H34.2662Z" fill="#111111"/>
<path d="M30.4483 72.0096H28.2859C27.5778 72.0096 27.0037 71.5305 27.0037 70.9461C27.0037 70.3617 27.5778 69.8826 28.2859 69.8826H30.4483C31.1564 69.8826 31.7305 70.3617 31.7305 70.9461C31.7305 71.5305 31.1564 72.0096 30.4483 72.0096ZM28.2859 70.4958C27.9223 70.4958 27.6161 70.697 27.6161 70.9461C27.6161 71.1952 27.9223 71.3964 28.2859 71.3964H30.4483C30.812 71.3964 31.1181 71.1952 31.1181 70.9461C31.1181 70.697 30.812 70.4958 30.4483 70.4958H28.2859Z" fill="#111111"/>
<path d="M107.676 57.5333C107.266 56.7632 106.489 56.2455 105.661 56.0709C105.453 56.0266 105.241 56.0062 105.03 56.0013L104.467 56H76.5303L75.9661 56.0013C75.7548 56.0062 75.5434 56.0274 75.3347 56.0716C74.9189 56.1603 74.5194 56.3328 74.1722 56.5811C73.468 57.0661 72.9986 57.9126 73 58.7877V93.2171C73.0027 93.6522 73.1166 94.0861 73.3239 94.4668C73.7343 95.2376 74.5111 95.7546 75.3389 95.9292C75.5476 95.9741 75.7589 95.9946 75.9703 95.9987L76.5344 96H104.47L105.034 95.9987C105.245 95.9931 105.458 95.9726 105.665 95.9277C106.081 95.8405 106.481 95.6673 106.829 95.4189C107.532 94.9332 108.001 94.0873 108 93.2117V58.7836C107.999 58.3484 107.883 57.9139 107.676 57.5333ZM93.8089 95.2169H87.1899V93.3071C87.1899 93.1685 87.3029 93.0561 87.4424 93.0561H93.5563C93.6958 93.0561 93.8089 93.1685 93.8089 93.3071V95.2169ZM107.212 93.2117C107.211 93.8226 106.89 94.4217 106.368 94.7831C106.111 94.966 105.814 95.0955 105.501 95.1623C105.345 95.1952 105.185 95.2102 105.024 95.2156L104.47 95.2169H94.5967V92.775C94.5967 92.4978 94.3706 92.2731 94.0916 92.2731H86.907C86.6281 92.2731 86.402 92.4978 86.402 92.775V95.2169H76.5344L75.9799 95.2156C75.8193 95.2113 75.6587 95.1964 75.5022 95.1623C74.8804 95.0315 74.3053 94.6425 74.017 94.0941C73.8702 93.824 73.7906 93.5212 73.7892 93.2155L73.7878 92.1053V58.7877C73.7905 58.1765 74.1117 57.5777 74.6319 57.2168C74.8886 57.034 75.1865 56.9045 75.4994 56.8383C75.6545 56.8041 75.8151 56.7892 75.9757 56.7851L76.5302 56.7837H104.467L105.02 56.7851C105.182 56.7892 105.341 56.8042 105.498 56.8376C106.12 56.9685 106.695 57.3574 106.983 57.9065C107.13 58.1772 107.209 58.4787 107.212 58.7849V93.2117Z" fill="#111111"/>
<path d="M75.6271 90.8249C75.6271 91.1946 75.9286 91.4942 76.3005 91.4942H104.698C105.07 91.4942 105.371 91.1946 105.371 90.8249V61.0769C105.371 60.7073 105.07 60.4077 104.698 60.4077H76.3005C75.9286 60.4077 75.6271 60.7073 75.6271 61.0769V90.8249ZM76.4151 61.8606C76.4151 61.491 76.7166 61.1913 77.0885 61.1913H103.91C104.282 61.1913 104.584 61.491 104.584 61.8606V90.0418C104.584 90.4114 104.282 90.7111 103.91 90.7111H77.0885C76.7166 90.7111 76.4151 90.4114 76.4151 90.0418V61.8606Z" fill="#111111"/>
<path d="M81.4414 66.048C81.4414 65.8316 81.6178 65.6563 81.8355 65.6563H87.8842C88.1018 65.6563 88.2783 65.8316 88.2783 66.048C88.2783 66.2643 88.1018 66.4397 87.8842 66.4397H81.8355C81.6178 66.4397 81.4414 66.2643 81.4414 66.048Z" fill="#111111"/>
<path d="M81.4414 69.3522C81.4414 69.1359 81.6177 68.9606 81.8353 68.9606H99.1619C99.3794 68.9606 99.5558 69.1359 99.5558 69.3522C99.5558 69.5684 99.3794 69.7437 99.1619 69.7437H81.8353C81.6177 69.7437 81.4414 69.5684 81.4414 69.3522Z" fill="#111111"/>
<path d="M81.4414 72.779C81.4414 72.5628 81.6177 72.3875 81.8353 72.3875H99.1619C99.3795 72.3875 99.5558 72.5628 99.5558 72.779C99.5558 72.9952 99.3795 73.1705 99.1619 73.1705H81.8353C81.6177 73.1705 81.4414 72.9952 81.4414 72.779Z" fill="#111111"/>
<path d="M81.4414 76.1696C81.4414 75.953 81.6181 75.7774 81.836 75.7774H99.1611C99.3791 75.7774 99.5558 75.953 99.5558 76.1696C99.5558 76.3863 99.3791 76.5619 99.1611 76.5619H81.836C81.6181 76.5619 81.4414 76.3863 81.4414 76.1696Z" fill="#111111"/>
<path d="M81.4414 79.5972C81.4414 79.381 81.6177 79.2057 81.8353 79.2057H99.1619C99.3795 79.2057 99.5558 79.381 99.5558 79.5972C99.5558 79.8134 99.3795 79.9887 99.1619 79.9887H81.8353C81.6177 79.9887 81.4414 79.8134 81.4414 79.5972Z" fill="#111111"/>
<path d="M81.4414 83.0799C81.4414 82.8637 81.6177 82.6884 81.8353 82.6884H99.1619C99.3795 82.6884 99.5558 82.8637 99.5558 83.0799C99.5558 83.2961 99.3795 83.4714 99.1619 83.4714H81.8353C81.6177 83.4714 81.4414 83.2961 81.4414 83.0799Z" fill="#111111"/>
<path d="M81.4414 86.5066C81.4414 86.2904 81.6178 86.1151 81.8354 86.1151H99.1618C99.3794 86.1151 99.5558 86.2904 99.5558 86.5066C99.5558 86.7229 99.3794 86.8982 99.1618 86.8982H81.8354C81.6178 86.8982 81.4414 86.7229 81.4414 86.5066Z" fill="#111111"/>
<path d="M130.008 76.3243H121.994C120.938 76.3243 120.079 77.197 120.079 78.2703C120.079 79.3436 120.938 80.2162 121.994 80.2162H130.008C131.064 80.2162 131.923 79.3436 131.923 78.2703C131.923 77.197 131.064 76.3243 130.008 76.3243ZM130.008 79.3514H121.994C121.407 79.3514 120.93 78.867 120.93 78.2703C120.93 77.6735 121.407 77.1892 121.994 77.1892H130.008C130.595 77.1892 131.071 77.6735 131.071 78.2703C131.071 78.867 130.595 79.3514 130.008 79.3514ZM133.448 64H118.553C117.146 64 116 65.1641 116 66.5946V93.4054C116 94.8359 117.146 96 118.553 96H133.447C134.854 96 136 94.8359 136 93.4054V66.5946C136 65.1641 134.854 64 133.447 64H133.448ZM135.15 93.4054C135.15 94.3611 134.388 95.1351 133.448 95.1351H118.553C117.613 95.1351 116.851 94.3611 116.851 93.4054V66.5946C116.851 65.6389 117.613 64.8649 118.553 64.8649H133.447C134.387 64.8649 135.149 65.6389 135.149 66.5946V93.4054H135.15ZM133.022 65.7297H130.682L129.777 67.2623C129.546 67.6532 129.131 67.8919 128.683 67.8919H123.32C122.871 67.8919 122.456 67.6532 122.226 67.2623L121.321 65.7297H118.98C118.276 65.7297 117.704 66.3109 117.704 67.027V89.5135C117.704 90.2296 118.276 90.8108 118.98 90.8108H133.023C133.728 90.8108 134.3 90.2296 134.3 89.5135V67.027C134.3 66.3109 133.728 65.7297 133.023 65.7297H133.022ZM133.448 89.5135C133.448 89.7522 133.257 89.9459 133.022 89.9459H118.979C118.744 89.9459 118.553 89.7522 118.553 89.5135V67.027C118.553 66.7883 118.744 66.5946 118.979 66.5946H120.837L121.494 67.7068C121.877 68.3546 122.576 68.7568 123.319 68.7568H128.682C129.425 68.7568 130.123 68.3546 130.506 67.7068L131.163 66.5946H133.022C133.257 66.5946 133.448 66.7883 133.448 67.027V89.5135ZM127.915 67.2432H124.085C123.85 67.2432 123.66 67.0495 123.66 66.8108C123.66 66.5721 123.85 66.3784 124.085 66.3784H127.915C128.15 66.3784 128.34 66.5721 128.34 66.8108C128.34 67.0495 128.15 67.2432 127.915 67.2432ZM127.277 94.4865H124.723C123.902 94.4865 123.234 93.8076 123.234 92.973C123.234 92.1384 123.902 91.4595 124.723 91.4595H127.277C128.098 91.4595 128.766 92.1384 128.766 92.973C128.766 93.8076 128.098 94.4865 127.277 94.4865ZM124.723 92.3243C124.371 92.3243 124.085 92.6149 124.085 92.973C124.085 93.331 124.371 93.6216 124.723 93.6216H127.277C127.629 93.6216 127.915 93.331 127.915 92.973C127.915 92.6149 127.629 92.3243 127.277 92.3243H124.723Z" fill="#111111"/>
</svg>
