<svg width="65" height="64" viewBox="0 0 65 64" fill="none" xmlns="http://www.w3.org/2000/svg">
<path d="M45.6896 38.2404V40.0272L45.6886 40.0314C45.8631 40.015 46.033 40.0012 46.1992 39.9876L46.1997 39.9876L46.2 39.9875L46.2005 39.9875L46.201 39.9874L46.2013 39.9874L46.2018 39.9873L46.2021 39.9873L46.2024 39.9872L46.2029 39.9872L46.2031 39.9872C46.6178 39.9534 47.0104 39.9215 47.3971 39.856C47.5547 39.8289 47.7446 39.6421 47.8072 39.4834C47.935 39.1574 48.0369 38.8208 48.139 38.484L48.1395 38.4823L48.14 38.4805C48.1678 38.3888 48.1956 38.2972 48.2239 38.2057C48.245 38.1375 48.2664 38.0693 48.2884 38.0014C48.4773 37.4159 48.5639 37.3909 49.0054 37.7844C49.1232 37.8891 49.2398 37.9953 49.3565 38.1016C49.612 38.3343 49.8677 38.5671 50.1356 38.7842C50.2452 38.8739 50.4738 38.9543 50.573 38.9C51.6344 38.3187 52.6895 37.7249 53.7217 37.0934C53.8647 37.0068 53.9524 36.6927 53.9304 36.4996C53.8742 35.9958 53.759 35.497 53.6445 35.0013L53.6372 34.9696C53.5495 34.5865 53.6445 34.4415 54.0546 34.5375C54.284 34.5914 54.5157 34.6348 54.7474 34.6782C55.027 34.7306 55.3064 34.7829 55.5815 34.8537C55.8831 34.932 56.0835 34.8694 56.2338 34.6043C56.3826 34.3423 56.532 34.0807 56.6814 33.8191C57.123 33.0457 57.5645 32.2724 57.9903 31.491C58.0467 31.3877 57.983 31.157 57.8964 31.0506C57.5792 30.6627 57.2391 30.2927 56.899 29.9228L56.8976 29.9213L56.7911 29.8055C56.5417 29.5352 56.5761 29.3588 56.9362 29.2471C57.1084 29.1936 57.279 29.1338 57.4496 29.074L57.4502 29.0738C57.7716 28.9612 58.0925 28.8487 58.4224 28.7785C58.8795 28.6804 59.0121 28.4153 58.9995 28.0104C58.9944 27.8492 58.989 27.6879 58.9834 27.5266L58.9576 26.8069L58.9575 26.804C58.9362 26.2183 58.9148 25.6323 58.8993 25.0464C58.89 24.7134 58.7303 24.5611 58.4193 24.4755C58.1229 24.3936 57.8309 24.297 57.5389 24.2004C57.3209 24.1283 57.1029 24.0562 56.883 23.9902C56.5114 23.8785 56.4311 23.7084 56.7108 23.4068C56.8325 23.2758 56.9492 23.1398 57.0659 23.0038L57.0663 23.0034C57.2667 22.77 57.467 22.5367 57.6918 22.3297C58.0488 21.9999 58.0811 21.621 57.8838 21.2547C57.5101 20.5589 57.1095 19.8771 56.7091 19.1958C56.575 18.9676 56.4409 18.7395 56.3079 18.5109C56.1702 18.275 55.9886 18.2009 55.6995 18.2771C55.4286 18.3486 55.1527 18.3992 54.8766 18.4497C54.6409 18.4929 54.4052 18.5361 54.1726 18.5923C53.728 18.6998 53.6424 18.5318 53.7332 18.1341C53.8532 17.6102 53.9586 17.0832 54.0432 16.553C54.0619 16.4319 54.0118 16.2232 53.9252 16.1731C52.8492 15.5479 51.7648 14.9384 50.669 14.3477C50.5667 14.2924 50.3402 14.3519 50.2348 14.4375C49.8173 14.7756 49.4176 15.1378 49.0273 15.5072C48.7006 15.8151 48.5274 15.7097 48.4105 15.3277C48.3541 15.1427 48.2941 14.9587 48.2341 14.7747L48.234 14.7742C48.1329 14.4642 48.0319 14.1543 47.9481 13.8394C47.8604 13.5086 47.6903 13.3322 47.3407 13.3333C46.249 13.3374 45.1573 13.3385 44.0657 13.3353C43.7379 13.3343 43.572 13.494 43.4875 13.8071C43.3941 14.1538 43.2823 14.4947 43.1705 14.8359L43.1702 14.8368L43.1699 14.8378L43.1291 14.9624C43.114 15.0088 43.0989 15.0552 43.0838 15.1016C43.0736 15.1331 43.0634 15.1647 43.0533 15.1962C42.8571 15.8088 42.7778 15.8328 42.3039 15.4321C42.1942 15.3393 42.0858 15.2446 41.9774 15.1498L41.9771 15.1495C41.7063 14.9126 41.4352 14.6755 41.1424 14.4698C40.9785 14.3561 40.6643 14.2757 40.5109 14.3561C39.4871 14.8946 38.481 15.4676 37.4906 16.0656C37.3622 16.1428 37.2933 16.4403 37.3152 16.6208C37.3789 17.1353 37.4926 17.6447 37.6074 18.1519C37.7035 18.5767 37.5657 18.6925 37.1482 18.5902C36.6274 18.4629 36.0983 18.3627 35.5681 18.2782C35.446 18.2583 35.2362 18.3116 35.1851 18.4003C34.5599 19.4763 33.9504 20.5607 33.3597 21.6565C33.3044 21.7588 33.3618 21.9842 33.4463 22.0886C33.7855 22.5061 34.1466 22.9047 34.5171 23.2951C34.8229 23.6176 34.7321 23.7929 34.3418 23.9108C34.2574 23.9364 34.173 23.9616 34.0885 23.9869C33.6411 24.1207 33.1936 24.2545 32.7617 24.4275C32.5937 24.4953 32.388 24.7145 32.3745 24.8783C32.3397 25.2979 32.3455 25.7214 32.3513 26.1439C32.3535 26.3036 32.3557 26.4631 32.3557 26.6223H34.0903C34.1039 26.3436 34.1153 26.1036 34.1268 25.8552C34.2927 25.8042 34.4564 25.7518 34.6188 25.6997L34.6194 25.6996C34.9951 25.5792 35.3638 25.461 35.7382 25.3678C36.0492 25.2906 36.1536 25.109 36.2736 24.8314C36.7934 23.6238 36.6274 22.6125 35.542 21.8016C35.4398 21.7254 35.2947 21.5396 35.3239 21.4801L35.359 21.4078C35.5437 21.0266 35.7325 20.6369 36.0044 20.3238C36.1087 20.2048 36.5001 20.2361 36.7088 20.3227C37.7368 20.7475 38.4831 20.4584 39.1625 19.6026C39.4756 19.2091 39.6134 18.9169 39.4902 18.4243C39.1399 17.0186 39.1592 17.0081 40.4099 16.3281L40.4243 16.3202C40.4429 16.3099 40.4648 16.3064 40.4911 16.3022L40.4915 16.3021C40.5048 16.3 40.5192 16.2976 40.5349 16.2941C40.5656 16.3197 40.5988 16.3443 40.6324 16.3692C40.7087 16.4256 40.787 16.4836 40.8428 16.5582C41.6433 17.6363 42.6557 17.7866 43.8288 17.2522C43.8415 17.2463 43.8563 17.2429 43.8708 17.2396L43.8711 17.2395C43.8797 17.2375 43.8883 17.2356 43.8964 17.2331C43.9077 17.2296 43.9179 17.225 43.9258 17.2178C43.932 17.2122 43.9382 17.2066 43.9446 17.2011L43.9568 17.1907C43.9674 17.1818 43.9781 17.173 43.989 17.1642C44.0118 17.1459 44.0352 17.1279 44.0587 17.1098C44.1696 17.0245 44.2811 16.9387 44.3224 16.8275C44.4746 16.4193 44.601 16.0023 44.7263 15.5889L44.7265 15.5883L44.7267 15.5877L44.7289 15.5805C44.7754 15.427 44.8218 15.274 44.8693 15.1221H46.3774C46.4076 15.2192 46.4371 15.3161 46.4663 15.4126C46.4822 15.4654 46.4981 15.518 46.5139 15.5705L46.5158 15.5769L46.516 15.5776L46.5163 15.5786C46.6328 15.9656 46.7476 16.3471 46.8857 16.72C46.9535 16.9026 47.108 17.1489 47.2645 17.1844C47.9356 17.3357 48.6202 17.4422 49.3049 17.5079C49.3929 17.5165 49.4921 17.4046 49.5916 17.2925L49.5917 17.2924C49.6384 17.2398 49.6851 17.1871 49.7307 17.1468C49.9057 16.992 50.0807 16.8378 50.2567 16.6826C50.4177 16.5407 50.5795 16.398 50.7431 16.2534C50.7955 16.2841 50.8468 16.3146 50.8973 16.3449C50.9492 16.376 51.0003 16.407 51.0507 16.4375C51.2637 16.5665 51.4655 16.6888 51.6761 16.7941C51.9934 16.9527 52.0831 17.1583 51.9788 17.5048C51.8598 17.9024 51.7638 18.3126 51.722 18.7238C51.7011 18.9284 51.7752 19.1799 51.8911 19.3542C52.605 20.4292 53.5474 20.8247 54.7831 20.2528C54.829 20.2319 54.8927 20.2069 54.9334 20.2215C54.9627 20.232 54.9943 20.2418 55.0263 20.2517C55.1369 20.2859 55.2534 20.322 55.306 20.3989C55.4793 20.6521 55.6333 20.9181 55.8025 21.2103C55.8697 21.3264 55.9394 21.4467 56.0136 21.572C54.8155 22.4038 54.4429 23.4829 55.0712 24.8251C55.0743 24.8319 55.0767 24.8391 55.0787 24.8467C55.0796 24.8498 55.0804 24.8531 55.0811 24.8563L55.0834 24.8666C55.088 24.8878 55.0926 24.9085 55.1056 24.9222C55.124 24.9417 55.142 24.9625 55.1598 24.9839C55.1784 25.0062 55.1967 25.0292 55.2151 25.0522C55.3023 25.1614 55.3903 25.2714 55.5032 25.3135C55.9142 25.466 56.334 25.5934 56.757 25.7218C56.9131 25.7692 57.0697 25.8167 57.2264 25.8656C57.2264 25.9925 57.2235 26.1154 57.2207 26.2353V26.2359C57.2146 26.5007 57.2089 26.7514 57.2347 26.9991C57.2744 27.3717 57.1293 27.5574 56.7765 27.5908C55.4876 27.714 54.8196 28.4185 54.7664 29.7095C54.7659 29.7186 54.7634 29.728 54.7603 29.7372C54.7577 29.7449 54.7546 29.7525 54.7518 29.7596C54.6349 30.0643 54.6913 30.3065 54.9344 30.5507C55.2162 30.8332 55.4777 31.1354 55.7351 31.4328C55.8429 31.5573 55.9499 31.681 56.0574 31.802C56.024 31.8671 55.9958 31.9237 55.9703 31.975L55.9656 31.9843C55.9293 32.0572 55.898 32.1196 55.8644 32.1809L55.8459 32.2147C55.3368 33.1465 55.3081 33.1991 54.2592 32.901C53.4733 32.6777 52.9807 32.8749 52.4213 33.4531C51.8963 33.9969 51.6866 34.4519 51.9036 35.2054C52.2008 36.2374 52.1466 36.27 51.2477 36.8119L51.1772 36.8544C50.9069 37.0172 50.7065 37.0413 50.5145 36.7793C49.7109 35.6845 48.6881 35.5165 47.4952 36.0602C47.4806 36.0665 47.4566 36.0633 47.4461 36.0738C47.4284 36.0911 47.4099 36.1081 47.3908 36.125C47.3798 36.1346 47.3686 36.1443 47.3573 36.1538C47.3363 36.1717 47.3147 36.1895 47.2932 36.2073L47.2917 36.2085L47.2902 36.2098C47.1668 36.3115 47.0429 36.4136 46.9921 36.5434C46.8426 36.9296 46.7238 37.3285 46.6063 37.7231C46.5589 37.882 46.5118 38.0402 46.463 38.1966C46.1728 38.2123 45.938 38.2258 45.6896 38.2404Z" fill="url(#paint0_linear_322_923)"/>
<path d="M5.66908 19.8938C5.9446 19.1966 6.23683 18.4817 6.96531 18.1561C7.42663 17.9494 7.95575 17.7876 8.45463 17.7866C15.09 17.7681 21.7246 17.7697 28.3597 17.7712C29.5884 17.7715 30.817 17.7718 32.0457 17.772C32.0888 17.772 32.1319 17.7773 32.1849 17.7838C32.2167 17.7877 32.252 17.7921 32.2931 17.796V19.5535H8.83036C7.63536 19.5535 7.44332 19.7456 7.44332 20.9395V24.8825H30.5282V26.6494H7.47672V50.6184C7.50891 50.6198 7.54101 50.6215 7.57306 50.6232L7.61659 50.6257L7.65557 50.6279C7.78078 50.6352 7.9053 50.6424 8.02985 50.6424C18.9665 50.6434 29.9031 50.6434 40.8387 50.6424C41.8834 50.6424 42.1171 50.4054 42.1171 49.3534V43.5631H43.8674C43.8701 43.6174 43.8734 43.6713 43.8767 43.7251C43.8837 43.8388 43.8907 43.9517 43.8914 44.0651C43.8935 45.8707 43.8956 47.6763 43.8914 49.4808C43.8872 51.3677 42.8498 52.4187 40.9597 52.4197C37.1511 52.4212 33.3425 52.4212 29.5338 52.4213H29.5045C22.2475 52.4215 14.9905 52.4216 7.73346 52.4312C6.68666 52.4323 6.03228 51.9803 5.66699 51.0369V19.8938H5.66908Z" fill="url(#paint1_linear_322_923)"/>
<path d="M12.814 38.2008H14.509V32.0129H12.814V38.2008Z" fill="url(#paint2_linear_322_923)"/>
<path d="M16.3646 38.1726V32.0055H18.0731V38.1726H16.3646Z" fill="url(#paint3_linear_322_923)"/>
<path d="M19.9423 38.1997H21.6289V32.0149H19.9423V38.1997Z" fill="url(#paint4_linear_322_923)"/>
<path d="M25.1982 38.1914H23.4876V32.0212H25.1982V38.1914Z" fill="url(#paint5_linear_322_923)"/>
<path fill-rule="evenodd" clip-rule="evenodd" d="M39.7487 37.8541L40.0601 37.5464H40.0611C39.9156 37.4039 39.7737 37.2627 39.6335 37.1233C39.292 36.7835 38.9609 36.4542 38.6146 36.1427C38.3578 35.912 38.3025 35.7043 38.4299 35.3787C38.528 35.1282 38.5572 34.8339 38.5457 34.5625C38.4799 32.9605 37.1211 31.802 35.5775 32.0129C33.964 32.2331 32.961 33.6483 33.2887 35.242C33.6008 36.7584 35.16 37.6581 36.6848 37.1686C36.9959 37.0684 37.1597 37.1529 37.3528 37.3575C37.6868 37.7114 38.027 38.0585 38.3617 38.3999C38.4997 38.5408 38.6369 38.6807 38.7722 38.8197C39.1184 38.4767 39.4273 38.1715 39.7487 37.8541ZM35.0223 34.6742C35.0139 34.144 35.3657 33.7746 35.8844 33.7714V33.7725C36.3895 33.7683 36.7736 34.1545 36.7694 34.6627C36.7652 35.1616 36.4187 35.5144 35.9219 35.5279C35.3886 35.5426 35.0306 35.2034 35.0223 34.6742Z" fill="url(#paint6_linear_322_923)"/>
<path fill-rule="evenodd" clip-rule="evenodd" d="M26.5602 28.4341H40.8293C42.8801 28.4341 43.8924 29.4506 43.8935 31.5088C43.8935 32.319 43.8937 33.1292 43.8939 33.9393V34.0042C43.8944 35.6027 43.8949 37.2011 43.8935 38.7998C43.8914 40.7118 42.8394 41.766 40.9284 41.767C31.3454 41.7691 21.7635 41.7691 12.1806 41.767C10.2727 41.767 9.22174 40.7097 9.2186 38.7946C9.21547 36.3295 9.21547 33.8643 9.2186 31.3992C9.22174 29.4882 10.2738 28.4362 12.1857 28.4352C15.3802 28.4338 18.5746 28.4342 21.7687 28.4347C23.3656 28.4349 24.9624 28.4352 26.5592 28.4352L26.5602 28.4341ZM29.6463 30.2073H12.2713C11.2412 30.2073 10.9949 30.4599 10.9949 31.5108V38.6934C10.9949 39.7391 11.2444 39.9917 12.2786 39.9928H29.6474V30.2084L29.6463 30.2073ZM34.9576 39.993C36.935 39.9932 38.9124 39.9934 40.8898 39.9928C41.8541 39.9928 42.1182 39.7235 42.1182 38.7456C42.1203 36.3169 42.1203 33.8894 42.1182 31.4608C42.1182 30.4641 41.8573 30.2084 40.8449 30.2084H31.4696V39.9928L34.9576 39.993Z" fill="url(#paint7_linear_322_923)"/>
<path d="M45.6917 33.6024C48.112 33.5063 50.0626 32.4982 51.435 30.4828C52.4004 29.0634 52.726 27.476 52.5413 25.7738C52.1979 22.6167 49.4959 20.0336 46.2459 19.7591C44.9507 19.6495 43.7265 19.8854 42.5659 20.4678C41.3887 21.0585 40.4598 21.9206 39.7647 23.0373C39.0801 24.1363 38.7722 25.3501 38.7242 26.6359H37.023C36.7923 22.9705 39.8806 18.131 45.4506 17.9598C50.2672 17.8127 54.4137 21.6565 54.3636 26.7121C54.3083 32.328 49.4729 35.5185 45.6917 35.3067V33.6024Z" fill="url(#paint8_linear_322_923)"/>
<path d="M9.23425 47.1367V48.8337H36.7412V47.1367H9.23425Z" fill="url(#paint9_linear_322_923)"/>
<path d="M31.4122 21.3779V23.0697H19.936V21.3779H31.4122Z" fill="url(#paint10_linear_322_923)"/>
<path d="M18.0731 43.5684H9.25201V45.2873H18.0731V43.5684Z" fill="url(#paint11_linear_322_923)"/>
<path d="M10.9709 21.3758V23.0749H9.24678V21.3758H10.9709Z" fill="url(#paint12_linear_322_923)"/>
<path d="M14.5256 23.0749V21.3653H12.8161V23.0749H14.5256Z" fill="url(#paint13_linear_322_923)"/>
<path d="M54.5264 41.7743V41.7607H56.2797V41.7765L56.2787 41.7774L56.2797 41.7774L56.2975 41.7774V43.5287H56.2766V43.5464H54.5233V43.5318H54.5128V41.7753H54.5264L54.5128 41.7618V41.7753H52.8012V43.5318H54.5128V43.5464L54.5233 43.5464V45.2737H56.2766V43.5464H56.2985L56.2975 43.5454V43.5287H58.0686V41.7774H56.2975V41.7617L56.2985 41.7607H56.2797V40.0314H54.5264V41.7607H54.5128L54.5264 41.7743Z" fill="url(#paint14_linear_322_923)"/>
<path d="M49.2162 46.2579V46.2412H50.9685V46.2621L50.9873 46.2621C50.9869 46.5078 50.9866 46.7535 50.9865 46.9992C50.9864 47.181 50.9863 47.3627 50.9863 47.5444L50.9863 48.0123H50.9716L50.9706 48.0134L50.9716 48.0143V48.027C50.6642 48.0275 50.3567 48.0277 50.0492 48.0279L49.2141 48.028V48.0123H49.2005C49.2012 47.6561 49.2014 47.2995 49.2015 46.943L49.2016 46.2589H49.2162L49.2016 46.2422V46.2589H47.4806V48.0123H49.2005L49.2005 48.028L49.2141 48.028V49.7427H50.9716V48.027L50.9852 48.0269L50.9716 48.0143V48.0123L50.9863 48.0259V48.0123H52.7386V46.2621H50.9873L50.9873 46.2412H50.9685V44.4701H49.2162V46.2412H49.2016L49.2162 46.2579Z" fill="url(#paint15_linear_322_923)"/>
<path d="M18.071 23.078H16.3688V21.3591H18.071V23.078Z" fill="url(#paint16_linear_322_923)"/>
<defs>
<linearGradient id="paint0_linear_322_923" x1="5.66699" y1="52.4312" x2="42.9532" y2="1.5693" gradientUnits="userSpaceOnUse">
<stop stop-color="#733480"/>
<stop offset="1" stop-color="#FD6748"/>
</linearGradient>
<linearGradient id="paint1_linear_322_923" x1="5.66699" y1="52.4312" x2="42.9532" y2="1.5693" gradientUnits="userSpaceOnUse">
<stop stop-color="#733480"/>
<stop offset="1" stop-color="#FD6748"/>
</linearGradient>
<linearGradient id="paint2_linear_322_923" x1="5.66699" y1="52.4312" x2="42.9532" y2="1.5693" gradientUnits="userSpaceOnUse">
<stop stop-color="#733480"/>
<stop offset="1" stop-color="#FD6748"/>
</linearGradient>
<linearGradient id="paint3_linear_322_923" x1="5.66699" y1="52.4312" x2="42.9532" y2="1.5693" gradientUnits="userSpaceOnUse">
<stop stop-color="#733480"/>
<stop offset="1" stop-color="#FD6748"/>
</linearGradient>
<linearGradient id="paint4_linear_322_923" x1="5.66699" y1="52.4312" x2="42.9532" y2="1.5693" gradientUnits="userSpaceOnUse">
<stop stop-color="#733480"/>
<stop offset="1" stop-color="#FD6748"/>
</linearGradient>
<linearGradient id="paint5_linear_322_923" x1="5.66699" y1="52.4312" x2="42.9532" y2="1.5693" gradientUnits="userSpaceOnUse">
<stop stop-color="#733480"/>
<stop offset="1" stop-color="#FD6748"/>
</linearGradient>
<linearGradient id="paint6_linear_322_923" x1="5.66699" y1="52.4312" x2="42.9532" y2="1.5693" gradientUnits="userSpaceOnUse">
<stop stop-color="#733480"/>
<stop offset="1" stop-color="#FD6748"/>
</linearGradient>
<linearGradient id="paint7_linear_322_923" x1="5.66699" y1="52.4312" x2="42.9532" y2="1.5693" gradientUnits="userSpaceOnUse">
<stop stop-color="#733480"/>
<stop offset="1" stop-color="#FD6748"/>
</linearGradient>
<linearGradient id="paint8_linear_322_923" x1="5.66699" y1="52.4312" x2="42.9532" y2="1.5693" gradientUnits="userSpaceOnUse">
<stop stop-color="#733480"/>
<stop offset="1" stop-color="#FD6748"/>
</linearGradient>
<linearGradient id="paint9_linear_322_923" x1="5.66699" y1="52.4312" x2="42.9532" y2="1.5693" gradientUnits="userSpaceOnUse">
<stop stop-color="#733480"/>
<stop offset="1" stop-color="#FD6748"/>
</linearGradient>
<linearGradient id="paint10_linear_322_923" x1="5.66699" y1="52.4312" x2="42.9532" y2="1.5693" gradientUnits="userSpaceOnUse">
<stop stop-color="#733480"/>
<stop offset="1" stop-color="#FD6748"/>
</linearGradient>
<linearGradient id="paint11_linear_322_923" x1="5.66699" y1="52.4312" x2="42.9532" y2="1.5693" gradientUnits="userSpaceOnUse">
<stop stop-color="#733480"/>
<stop offset="1" stop-color="#FD6748"/>
</linearGradient>
<linearGradient id="paint12_linear_322_923" x1="5.66699" y1="52.4312" x2="42.9532" y2="1.5693" gradientUnits="userSpaceOnUse">
<stop stop-color="#733480"/>
<stop offset="1" stop-color="#FD6748"/>
</linearGradient>
<linearGradient id="paint13_linear_322_923" x1="5.66699" y1="52.4312" x2="42.9532" y2="1.5693" gradientUnits="userSpaceOnUse">
<stop stop-color="#733480"/>
<stop offset="1" stop-color="#FD6748"/>
</linearGradient>
<linearGradient id="paint14_linear_322_923" x1="5.66699" y1="52.4312" x2="42.9532" y2="1.5693" gradientUnits="userSpaceOnUse">
<stop stop-color="#733480"/>
<stop offset="1" stop-color="#FD6748"/>
</linearGradient>
<linearGradient id="paint15_linear_322_923" x1="5.66699" y1="52.4312" x2="42.9532" y2="1.5693" gradientUnits="userSpaceOnUse">
<stop stop-color="#733480"/>
<stop offset="1" stop-color="#FD6748"/>
</linearGradient>
<linearGradient id="paint16_linear_322_923" x1="5.66699" y1="52.4312" x2="42.9532" y2="1.5693" gradientUnits="userSpaceOnUse">
<stop stop-color="#733480"/>
<stop offset="1" stop-color="#FD6748"/>
</linearGradient>
</defs>
</svg>
