<svg width="64" height="64" viewBox="0 0 64 64" fill="none" xmlns="http://www.w3.org/2000/svg">
<path d="M5.33454 27.8889C5.68483 27.7781 6.03303 27.5784 6.38436 27.5721C8.13686 27.5397 9.89039 27.5543 11.6439 27.5585C12.3142 27.5595 12.6687 27.8596 12.6592 28.396C12.6509 28.9126 12.3016 29.22 11.669 29.2232C9.86321 29.2315 8.05739 29.2441 6.25261 29.2085C5.94415 29.2022 5.63987 28.9607 5.3335 28.8279C5.3335 28.5153 5.3335 28.2016 5.3335 27.8889H5.33454Z" fill="url(#paint0_linear_322_1409)"/>
<path d="M45.4923 26.0298C47.4916 26.0298 49.4041 26.0475 51.3155 26.0224C52.3831 26.0088 53.1276 26.4365 53.6431 27.3765C55.0463 29.9363 56.4757 32.4814 57.903 35.0264C58.4164 35.9424 58.6799 36.9107 58.6663 37.9647C58.6486 39.3732 58.6653 40.7827 58.6611 42.1912C58.658 43.2734 58.0975 43.8956 57.032 43.8286C56.1463 43.7732 55.6674 43.9478 55.3182 44.9015C54.6783 46.6466 52.793 47.6996 50.9976 47.5856C49.037 47.4601 47.4383 46.2284 46.8475 44.386C46.7952 44.2228 46.746 44.0597 46.6802 43.8485C45.7935 43.8485 44.9099 43.8485 44.0263 43.8485C40.0602 43.8485 36.0952 43.8537 32.129 43.8391C31.7442 43.838 31.5644 43.9154 31.4452 44.3211C30.8722 46.2712 29.1082 47.5731 27.0901 47.5919C25.1118 47.6097 23.3018 46.2838 22.7193 44.3399C22.6022 43.9499 22.4517 43.8328 22.048 43.837C19.9087 43.859 17.7693 43.8485 15.6299 43.8464C14.7819 43.8464 14.5132 43.5735 14.5121 42.7203C14.51 40.9814 14.5121 39.2435 14.5121 37.4387C14.3072 37.4293 14.1252 37.4126 13.9433 37.4126C12.0998 37.4105 10.2564 37.4126 8.41185 37.4105C8.23828 37.4105 8.06052 37.4199 7.89113 37.3885C7.47914 37.3122 7.25119 37.0403 7.22192 36.6346C7.19368 36.2467 7.38399 35.9529 7.74996 35.8264C7.957 35.7552 8.19332 35.7458 8.41708 35.7448C11.7046 35.7396 14.991 35.7417 18.2785 35.7417C18.3998 35.7417 18.5232 35.7364 18.6434 35.75C19.1527 35.8065 19.4716 36.1338 19.4695 36.5907C19.4674 37.0696 19.1276 37.3969 18.5817 37.4063C17.8027 37.4199 17.0237 37.4095 16.2144 37.4095V42.1556C16.3347 42.1629 16.435 42.1755 16.5354 42.1755C18.4134 42.1765 20.2924 42.1713 22.1704 42.1817C22.4548 42.1828 22.5865 42.1159 22.6744 41.8126C23.2788 39.7454 25.0229 38.4258 27.1006 38.4289C29.1427 38.4321 30.8785 39.7548 31.4902 41.7959C31.5634 42.0395 31.6209 42.1828 31.9231 42.1817C35.8191 42.1702 39.7152 42.1713 43.6112 42.1682C43.6447 42.1682 43.6781 42.1525 43.766 42.1295V20.377H16.2186V22.9347C16.3984 22.9347 16.5825 22.9347 16.7665 22.9347C18.1405 22.9347 19.5145 22.9305 20.8884 22.9368C21.5566 22.9399 21.9299 23.2473 21.9288 23.767C21.9278 24.2835 21.5493 24.6004 20.8863 24.6014C17.6344 24.6066 14.3825 24.6035 11.1305 24.6035C11.0437 24.6035 10.9559 24.6035 10.8702 24.592C10.3923 24.5314 10.0828 24.2114 10.0776 23.7764C10.0723 23.3205 10.3965 22.9619 10.9026 22.9483C11.8761 22.9232 12.8506 22.9368 13.8241 22.9347C14.0301 22.9347 14.2361 22.9347 14.5132 22.9347C14.5132 22.095 14.5132 21.3024 14.5132 20.5109C14.5153 19.2143 15.0527 18.6674 16.3441 18.6674C25.4411 18.6664 34.5372 18.6664 43.6342 18.6674C44.9486 18.6674 45.4902 19.2185 45.4913 20.5485C45.4934 22.1661 45.4913 23.7837 45.4913 25.4013V26.0256L45.4923 26.0298ZM45.5498 27.6996V42.1828C45.7631 42.1828 45.9388 42.164 46.1082 42.1859C46.5327 42.2414 46.7513 42.1096 46.8621 41.6516C46.9656 41.2239 47.1789 40.7984 47.4351 40.4366C48.4881 38.9476 49.9541 38.2449 51.7599 38.477C53.6954 38.7259 54.992 39.851 55.5806 41.7175C55.7019 42.1012 55.8588 42.2194 56.2248 42.1828C56.4611 42.1587 56.7016 42.1786 56.9954 42.1786C56.9954 40.7064 57.0435 39.2822 56.9734 37.8653C56.9421 37.2275 56.7904 36.5384 56.4914 35.9801C55.0819 33.3461 53.5971 30.7519 52.152 28.1357C51.9648 27.7969 51.7191 27.6913 51.35 27.6944C49.7146 27.707 48.0803 27.6996 46.4449 27.6996C46.1532 27.6996 45.8614 27.6996 45.5498 27.6996ZM24.2104 43.0078C24.2167 44.6515 25.4934 45.9335 27.111 45.922C28.7161 45.9105 29.9771 44.6014 29.9677 42.9555C29.9593 41.3682 28.6586 40.0926 27.0566 40.102C25.4537 40.1114 24.2041 41.3881 24.2104 43.0088V43.0078ZM54.0822 42.9963C54.0781 41.3599 52.7971 40.0863 51.168 40.1009C49.5724 40.1156 48.3218 41.3996 48.326 43.0183C48.3302 44.6474 49.6289 45.9408 51.2423 45.922C52.8317 45.9032 54.0854 44.6108 54.0822 42.9963Z" fill="url(#paint1_linear_322_1409)"/>
<path d="M14.5132 31.9606C14.5132 30.8564 14.5132 29.8171 14.5132 28.7777C14.5132 28.2737 14.5058 27.7687 14.5163 27.2657C14.5278 26.7262 14.8498 26.3675 15.3162 26.3497C15.793 26.3309 16.1736 26.7105 16.1789 27.2615C16.1914 28.6177 16.183 29.9739 16.183 31.3301C16.183 31.5183 16.183 31.7065 16.183 31.9596C16.4047 31.9596 16.5887 31.9596 16.7738 31.9596C20.1293 31.9596 23.4847 31.9554 26.8402 31.9679C27.1016 31.9679 27.4477 32.0171 27.6014 32.1833C27.7823 32.3799 27.9141 32.7626 27.8471 33.0042C27.7802 33.2457 27.4624 33.4444 27.2145 33.5991C27.088 33.6786 26.8757 33.6274 26.7022 33.6274C22.025 33.6274 17.3489 33.6274 12.6718 33.6274C12.5327 33.6274 12.3926 33.6347 12.2546 33.619C11.7663 33.5636 11.4578 33.2081 11.4818 32.7407C11.5048 32.3005 11.8217 31.9763 12.2995 31.9638C13.0106 31.946 13.7226 31.9585 14.5132 31.9585V31.9606Z" fill="url(#paint2_linear_322_1409)"/>
<defs>
<linearGradient id="paint0_linear_322_1409" x1="5.3335" y1="47.594" x2="29.5802" y2="2.89039" gradientUnits="userSpaceOnUse">
<stop stop-color="#733480"/>
<stop offset="1" stop-color="#FD6748"/>
</linearGradient>
<linearGradient id="paint1_linear_322_1409" x1="5.3335" y1="47.594" x2="29.5802" y2="2.89039" gradientUnits="userSpaceOnUse">
<stop stop-color="#733480"/>
<stop offset="1" stop-color="#FD6748"/>
</linearGradient>
<linearGradient id="paint2_linear_322_1409" x1="5.3335" y1="47.594" x2="29.5802" y2="2.89039" gradientUnits="userSpaceOnUse">
<stop stop-color="#733480"/>
<stop offset="1" stop-color="#FD6748"/>
</linearGradient>
</defs>
</svg>
