<svg width="40" height="40" viewBox="0 0 40 40" fill="none" xmlns="http://www.w3.org/2000/svg">
<path d="M13.6435 29.0843C13.3738 29.0843 13.1552 29.3029 13.1552 29.5726V30.2236C13.1752 30.8692 14.112 30.8687 14.1318 30.2236V29.5726C14.1318 29.3029 13.9131 29.0843 13.6435 29.0843Z" fill="#595959"/>
<path d="M15.2711 29.0843C15.0014 29.0843 14.7828 29.3029 14.7828 29.5726V30.2236C14.8028 30.8692 15.7396 30.8687 15.7594 30.2236V29.5726C15.7594 29.3029 15.5407 29.0843 15.2711 29.0843Z" fill="#595959"/>
<path d="M35.0627 13.8151H30.3752V11.862H32.5562C33.1127 11.862 33.5653 11.4093 33.5653 10.8528V4.34243C33.5653 3.78598 33.1127 3.33331 32.5562 3.33331H11.5009C10.8553 3.3533 10.8558 4.29008 11.5009 4.30988H32.5562C32.5742 4.30988 32.5888 4.32446 32.5888 4.34243V10.8528C32.5888 10.8708 32.5742 10.8854 32.5562 10.8854H8.07706C8.05909 10.8854 8.04451 10.8708 8.04451 10.8528V4.34243C8.04451 4.32446 8.05909 4.30988 8.07706 4.30988H9.24393C9.8895 4.28989 9.88904 3.3531 9.24393 3.33331H8.07706C7.52062 3.33331 7.06795 3.78598 7.06795 4.34243V10.8528C7.06795 11.4093 7.52062 11.862 8.07706 11.862H10.2581V13.8151H5.57055C4.51157 13.8151 3.64998 14.6767 3.64998 15.7357V20.8463C3.63741 22.5168 5.15337 23.8489 6.80753 23.6221V33.737H5.11482C3.17368 33.8108 3.17518 36.5935 5.11482 36.6666H35.5185C37.4596 36.5928 37.4581 33.8101 35.5185 33.737H33.8258V32.7955C33.8058 32.1499 32.869 32.1504 32.8492 32.7955V33.737H30.831V25.5664C30.831 25.2967 30.6124 25.0781 30.3427 25.0781H20.7724C20.5027 25.0781 20.2841 25.2967 20.2841 25.5664V33.737H18.5914V25.5664C18.5914 25.2967 18.3728 25.0781 18.1031 25.0781H10.551C10.2814 25.0781 10.0627 25.2967 10.0627 25.5664V33.737H7.78409V23.3067C8.17531 23.0936 8.51014 22.7898 8.76066 22.4239C9.83475 24.0424 12.3096 24.0417 13.3831 22.4239C14.4571 24.0424 16.932 24.0417 18.0055 22.4239C19.0795 24.0424 21.5544 24.0417 22.6278 22.4239C23.7019 24.0424 26.1768 24.0417 27.2502 22.4239C28.3243 24.0424 30.7992 24.0417 31.8726 22.4239C32.1232 22.7898 32.458 23.0936 32.8492 23.3067V30.4918C32.8692 31.1374 33.806 31.1369 33.8258 30.4918V23.6221C35.4801 23.8489 36.9958 22.5168 36.9833 20.8463V15.7357C36.9833 14.6767 36.1217 13.8151 35.0627 13.8151ZM29.8544 33.737H27.7385V26.0547H29.8544V33.737ZM26.762 26.0547V33.737H24.3531V26.0547H26.762ZM21.2607 26.0547H23.3765V33.737H21.2607V26.0547ZM11.0393 26.0547H17.6148V33.737H11.0393V26.0547ZM35.5185 34.7135C36.1639 34.7341 36.1635 35.6697 35.5185 35.6901H5.11482C4.46938 35.6695 4.46984 34.7339 5.11482 34.7135H35.5185ZM29.3987 11.862V13.8151H28.4221V11.862H29.3987ZM13.1877 13.8151V11.862H27.4456V13.8151H13.1877ZM11.2346 11.862H12.2112V13.8151H11.2346V11.862ZM4.62654 15.7357C4.62654 15.2152 5.05005 14.7916 5.57055 14.7916H35.0627C35.5833 14.7916 36.0068 15.2152 36.0068 15.7357V17.3307H4.62654V15.7357ZM6.44946 22.6693C5.44432 22.6693 4.62654 21.8515 4.62654 20.8463V18.3073H8.27238V20.8463C8.27238 21.8515 7.45467 22.6693 6.44946 22.6693ZM11.0719 22.6693C10.0667 22.6693 9.24894 21.8515 9.24894 20.8463V18.3073H12.8948V20.8463C12.8948 21.8515 12.0771 22.6693 11.0719 22.6693ZM15.6943 22.6693C14.6891 22.6693 13.8713 21.8515 13.8713 20.8463V18.3073H17.5172V20.8463C17.5172 21.8515 16.6995 22.6693 15.6943 22.6693ZM20.3166 22.6693C19.3115 22.6693 18.4937 21.8515 18.4937 20.8463V18.3073H22.1396V20.8463C22.1396 21.8515 21.3219 22.6693 20.3166 22.6693ZM24.939 22.6693C23.9339 22.6693 23.1161 21.8515 23.1161 20.8463V18.3073H26.762V20.8463C26.762 21.8515 25.9443 22.6693 24.939 22.6693ZM29.5614 22.6693C28.5563 22.6693 27.7385 21.8515 27.7385 20.8463V18.3073H31.3844V20.8463C31.3844 21.8515 30.5666 22.6693 29.5614 22.6693ZM36.0068 20.8463C35.9148 23.262 32.452 23.2601 32.3609 20.8463V18.3073H36.0068V20.8463Z" fill="#595959"/>
<path d="M16.4068 5.235C16.1372 5.235 15.9185 5.45362 15.9185 5.72329V9.472C15.9385 10.1176 16.8753 10.1171 16.8951 9.472V8.02167H18.5127V9.472C18.5327 10.1176 19.4695 10.1171 19.4893 9.472V5.72329C19.4693 5.07771 18.5325 5.07817 18.5127 5.72329V7.0451H16.8951V5.72329C16.8951 5.45362 16.6765 5.235 16.4068 5.235Z" fill="#595959"/>
<path d="M13.4776 8.98372C13.1104 8.98372 12.7573 8.83593 12.5331 8.58847C12.352 8.38866 12.0432 8.37349 11.8433 8.55455C11.6435 8.7356 11.6283 9.0444 11.8094 9.24427C12.2218 9.69935 12.8298 9.96035 13.4776 9.96035C15.1283 9.95781 15.8705 7.86744 13.9721 7.16913C13.515 7.00051 13.0892 6.81691 12.9549 6.75819C12.8628 6.68241 12.866 6.57778 12.8723 6.53403C12.8812 6.4716 12.9269 6.31893 13.1566 6.24972C13.6743 6.0938 14.1562 6.47355 14.1702 6.48462C14.3765 6.65571 14.6827 6.62837 14.8555 6.42284C15.029 6.21639 15.0023 5.90838 14.7959 5.73488C14.7601 5.70486 13.909 5.0031 12.875 5.31463C12.35 5.47277 11.9786 5.88683 11.9056 6.39523C11.8371 6.87271 12.0441 7.33208 12.4459 7.594C12.4674 7.60806 12.4901 7.62037 12.5136 7.63085C12.5353 7.64055 13.0521 7.87063 13.6342 8.08528C13.7588 8.13124 14.1616 8.30227 14.1131 8.57362C14.0771 8.77525 13.8296 8.98372 13.4776 8.98372Z" fill="#595959"/>
<path d="M24.9965 7.59764C24.9965 6.2949 23.9366 5.235 22.6338 5.235C19.5038 5.35382 19.5047 9.84199 22.6338 9.96028C23.9367 9.96028 24.9965 8.90038 24.9965 7.59764ZM21.2478 7.59764C21.2478 6.83338 21.8696 6.21157 22.6339 6.21157C24.4702 6.28123 24.4697 8.91431 22.6339 8.98372C21.8696 8.98372 21.2478 8.3619 21.2478 7.59764Z" fill="#595959"/>
<path d="M25.8538 9.472C25.8738 10.1176 26.8106 10.1171 26.8304 9.472V8.32935C27.0344 8.32831 27.2544 8.3274 27.3835 8.3274C29.4596 8.24934 29.4587 5.31261 27.3835 5.235H26.3396C26.2098 5.235 26.0854 5.2867 25.9938 5.37862C25.9022 5.47055 25.851 5.59523 25.8514 5.72498L25.8558 7.04745C25.8547 7.06099 25.8538 7.07466 25.8538 7.08853V9.472H25.8538ZM27.3835 6.21157C28.1643 6.24822 28.1638 7.31437 27.3835 7.35083C27.2549 7.35083 27.0368 7.35174 26.8335 7.35279L26.8296 6.21163H27.3835V6.21157Z" fill="#595959"/>
</svg>
