<svg width="350" height="80" viewBox="0 0 350 80" fill="none" xmlns="http://www.w3.org/2000/svg">
<g clip-path="url(#clip0_105_1097)">
<path fill-rule="evenodd" clip-rule="evenodd" d="M78.1868 56.4118C80.4933 51.4038 81.7768 45.8478 81.7768 39.9984C81.7768 17.9079 63.4705 0 40.8884 0C18.3064 0 0 17.9079 0 39.9984C0 46.0398 1.36919 51.7684 3.82059 56.9034L3.79492 56.9748C4.29803 58.0738 4.87843 59.1373 5.53196 60.1577H5.5653C12.6581 72.0249 25.8216 79.9968 40.8884 79.9968C56.1343 79.9968 69.4314 71.8343 76.4618 59.7329H76.4815C77.3305 58.5663 78.1991 56.4454 78.1991 56.4454L78.1868 56.4118ZM78.1868 56.4118C77.6634 57.5481 77.0874 58.6561 76.4618 59.7329H71.1666C70.2981 59.7329 68.4541 59.3081 67.9259 57.3997L60.1157 35.1195L63.9916 23.8716C64.0787 23.6991 64.2005 23.5455 64.3497 23.4202C64.499 23.2949 64.6726 23.2005 64.8602 23.1425C65.0546 23.073 65.2623 23.0464 65.4684 23.0645C65.6746 23.0825 65.8741 23.1449 66.0528 23.2471L78.1868 56.4118ZM5.5653 60.1577C4.93478 59.1027 4.35223 58.017 3.82059 56.9034L15.844 23.4404C15.844 23.4404 16.8162 21.1135 18.4366 21.2213H29.3838C27.7634 21.2213 27.1153 23.3421 27.1153 23.3421L15.1829 57.8244C14.4148 60.3701 11.4982 60.1577 11.4982 60.1577H5.5653ZM48.1574 59.5205C49.0227 59.5205 49.4537 59.0957 49.8912 57.5043L61.8236 23.022C61.8236 23.022 62.4718 20.9011 64.0921 20.9011H53.1482C51.6315 20.9011 50.6528 23.2344 50.6528 23.2344L42.1945 46.6939L45.9894 57.1967C45.9894 57.1967 46.4236 58.7818 47.8334 59.4159L48.1574 59.5205ZM25.1774 35.4365L29.0663 24.1918C29.2749 23.8036 29.6238 23.5052 30.045 23.3548C30.2409 23.2938 30.4473 23.2717 30.652 23.2896C30.8568 23.3076 31.0559 23.3653 31.2376 23.4595L43.4001 57.1999C44.2556 59.8407 46.3167 60.0531 46.3167 60.0531H36.2283C35.4829 60.0531 33.5288 59.6188 32.9876 57.7166L25.1774 35.4365Z" fill="white"/>
<path d="M138.328 30.6622C137.158 30.1922 135.908 29.9406 134.644 29.9203C133.39 29.8976 132.144 30.1196 130.979 30.5732C129.814 31.0268 128.753 31.7031 127.858 32.5624C126.963 33.4218 126.252 34.447 125.767 35.5781C125.282 36.7093 125.032 37.9237 125.032 39.1504C125.032 40.3771 125.282 41.5915 125.767 42.7227C126.252 43.8538 126.963 44.879 127.858 45.7383C128.753 46.5977 129.814 47.2739 130.979 47.7276C132.144 48.1812 133.39 48.4032 134.644 48.3804C135.908 48.3602 137.158 48.1086 138.328 47.6386C139.571 47.149 140.657 46.3435 141.475 45.3053V48.2758H143.97V39.152C144.014 37.3455 143.499 35.5682 142.492 34.0532C141.485 32.5382 140.034 31.3562 138.328 30.6622ZM134.53 45.8348C133.178 45.8341 131.857 45.4414 130.733 44.7062C129.61 43.971 128.734 42.9264 128.218 41.7045C127.701 40.4825 127.566 39.1382 127.831 37.8413C128.095 36.5445 128.746 35.3535 129.703 34.4189C130.659 33.4843 131.877 32.8481 133.203 32.5907C134.529 32.3333 135.903 32.4664 137.152 32.973C138.401 33.4796 139.468 34.3371 140.218 35.4369C140.968 36.5368 141.369 37.8296 141.368 39.152C141.475 42.8643 138.328 45.8348 134.53 45.8348Z" fill="white"/>
<path d="M121.084 48.9131H118.816V32.4661L111.009 45.7302H108.186L100.269 32.5739V48.9131H97.7769V27.4794H100.694L109.576 42.7566L118.469 27.4794H121.062V48.9131H121.084Z" fill="white"/>
<path d="M151.019 26.7375V37.5606L160.673 30.3452H165.226L155.576 37.4528L164.902 48.1681H161.338L153.417 38.9396L151.032 40.7435V48.1681H148.537V26.7375H151.019Z" fill="white"/>
<path d="M337.245 50.2921L338.003 48.707L330.52 30.881H333.557L339.523 45.6287L346.355 30.881H349.067L339.523 51.4651C337.903 54.9523 334.098 54.6353 334.098 54.6353H330.955L332.04 52.0991H334.957C335.067 52.0991 336.477 52.0991 337.225 50.2953" fill="white"/>
<path d="M265.229 48.1681V26.7375H283.99V29.1659H267.939V36.0611H281.498V38.5973H267.939V45.708H283.99V48.2442H265.229V48.1681Z" fill="white"/>
<path d="M328.352 38.5148H311.974C312.191 36.4985 313.494 35.3446 313.918 34.7993C315.438 33.2142 318.151 32.466 320.319 32.9955C322.152 33.4193 323.746 34.5229 324.765 36.0737H327.801C327.126 34.6502 326.103 33.4104 324.824 32.4629C323.545 31.5154 322.048 30.8891 320.464 30.6388C318.88 30.3885 317.257 30.5219 315.738 31.0272C314.219 31.5326 312.85 32.3945 311.75 33.5376C309.689 35.7567 308.931 38.3119 309.482 41.07H325.536C325.342 42.289 324.729 43.407 323.799 44.2402C319.677 48.1649 315.014 46.1423 313.063 43.6061H309.916C314.145 50.6091 321.955 50.0797 325.75 45.9394C327.918 43.7139 328.459 41.2729 328.352 38.5148Z" fill="white"/>
<path d="M186.058 26.4174H188.77L194.737 44.1388L200.593 26.4174H204.481L210.444 44.031L216.411 26.4174H219.003L211.844 47.9557H209.025L202.411 28.9662L196.01 47.9557H193.301L186.058 26.4174Z" fill="white"/>
<path d="M185.183 39.2567C185.183 37.4522 184.636 35.6882 183.611 34.1878C182.586 32.6874 181.13 31.518 179.425 30.8274C177.721 30.1368 175.846 29.9561 174.036 30.3082C172.227 30.6602 170.565 31.5292 169.261 32.8052C167.957 34.0812 167.068 35.7069 166.708 37.4767C166.349 39.2466 166.533 41.0811 167.239 42.7483C167.945 44.4154 169.141 45.8404 170.674 46.8429C172.208 47.8454 174.011 48.3805 175.856 48.3805C179.544 48.3805 182.908 46.1614 184.535 42.7566H181.712L181.064 43.3907C180.302 44.2403 178.795 45.8317 175.856 45.8317C171.52 45.8317 169.459 42.3445 169.025 40.2078H185.086C185.192 39.9022 185.225 39.5768 185.183 39.2567ZM169.131 37.8777C169.126 37.7287 169.165 37.5815 169.242 37.4529C169.6 36.0002 170.447 34.7076 171.647 33.7831C172.847 32.8586 174.33 32.3559 175.858 32.3559C177.385 32.3559 178.868 32.8586 180.068 33.7831C181.268 34.7076 182.116 36.0002 182.474 37.4529C182.474 37.5607 182.581 37.6653 182.581 37.8777H169.131Z" fill="white"/>
<path d="M238.331 38.9396C238.332 37.1343 237.785 35.3694 236.76 33.868C235.735 32.3667 234.278 31.1963 232.574 30.5051C230.869 29.8138 228.993 29.6326 227.183 29.9844C225.373 30.3362 223.71 31.2052 222.405 32.4815C221.099 33.7578 220.211 35.3841 219.85 37.1546C219.49 38.9252 219.675 40.7605 220.381 42.4284C221.087 44.0963 222.283 45.522 223.817 46.525C225.351 47.528 227.155 48.0634 229.001 48.0634C232.689 48.0634 236.053 45.8443 237.68 42.4395H234.86C234.75 42.5473 234.316 42.9689 234.212 43.0735C233.454 43.9231 231.943 45.5146 229.004 45.5146C224.668 45.5146 222.607 42.0115 222.173 39.8906H238.234C238.342 39.5854 238.375 39.2597 238.331 38.9396ZM222.276 37.5605C222.271 37.4116 222.31 37.2643 222.387 37.1357C222.745 35.6831 223.592 34.3905 224.792 33.466C225.992 32.5414 227.475 32.0387 229.002 32.0387C230.53 32.0387 232.013 32.5414 233.213 33.466C234.413 34.3905 235.26 35.6831 235.618 37.1357C235.618 37.2403 235.725 37.3481 235.725 37.5605H222.276Z" fill="white"/>
<path d="M251.563 29.6002C250.293 29.5794 249.033 29.8339 247.875 30.3452C246.723 30.7892 245.686 31.4779 244.838 32.3615V26.6298H242.123V47.9557H244.618V44.9852C245.449 46.0095 246.53 46.813 247.762 47.3217C248.921 47.8303 250.18 48.0835 251.45 48.0635C253.952 48.0618 256.351 47.0887 258.121 45.3578C259.89 43.6269 260.885 41.2797 260.887 38.8319C260.916 37.6211 260.695 36.417 260.239 35.2913C259.782 34.1657 259.098 33.1415 258.228 32.28C257.358 31.4184 256.319 30.7372 255.174 30.2768C254.029 29.8164 252.801 29.5863 251.563 29.6002ZM251.563 45.5178C250.211 45.5184 248.889 45.1269 247.765 44.3926C246.641 43.6583 245.764 42.6143 245.246 41.3927C244.728 40.171 244.593 38.8266 244.856 37.5294C245.119 36.2323 245.77 35.0407 246.726 34.1053C247.681 33.1699 248.899 32.5328 250.225 32.2746C251.551 32.0164 252.925 32.1486 254.175 32.6545C255.424 33.1605 256.491 34.0174 257.242 35.117C257.994 36.2166 258.394 37.5094 258.394 38.8319C258.505 42.4395 255.358 45.5178 251.563 45.5178Z" fill="white"/>
<path d="M299.934 31.1916C298.762 30.7227 297.51 30.4712 296.243 30.4498C293.74 30.4498 291.34 31.4224 289.57 33.1536C287.8 34.8849 286.806 37.233 286.806 39.6814C286.806 42.1298 287.8 44.4779 289.57 46.2091C291.34 47.9404 293.74 48.913 296.243 48.913C297.515 48.9445 298.776 48.6896 299.931 48.168C301.174 47.6784 302.26 46.8729 303.078 45.8347V48.8211H305.57V39.6814C305.615 37.8754 305.101 36.0983 304.095 34.5833C303.09 33.0682 301.639 31.8859 299.934 31.1916ZM296.139 46.3642C294.787 46.3648 293.465 45.9731 292.341 45.2387C291.217 44.5043 290.34 43.4601 289.822 42.2383C289.305 41.0165 289.169 39.6719 289.433 38.3746C289.696 37.0774 290.347 35.8858 291.303 34.9505C292.259 34.0153 293.477 33.3785 294.804 33.1206C296.13 32.8627 297.504 32.9954 298.753 33.5018C300.002 34.0083 301.07 34.8657 301.82 35.9657C302.571 37.0657 302.972 38.3588 302.971 39.6814C303.081 43.3937 299.934 46.3642 296.139 46.3642Z" fill="white"/>
</g>
<defs>
<clipPath id="clip0_105_1097">
<rect width="350" height="80" fill="white"/>
</clipPath>
</defs>
</svg>
