<svg width="320" height="160" viewBox="0 0 320 160" fill="none" xmlns="http://www.w3.org/2000/svg">
<rect width="320" height="160" rx="12" fill="white"/>
<path d="M21.168 34H19.728V23.84H16.16V22.576H24.72V23.84H21.168V34ZM28.4376 25.264C29.1736 25.264 29.803 25.424 30.3256 25.744C30.859 26.064 31.2643 26.5173 31.5416 27.104C31.8296 27.68 31.9736 28.3573 31.9736 29.136V29.984H26.1016C26.123 30.9547 26.3683 31.696 26.8376 32.208C27.3176 32.7093 27.9843 32.96 28.8376 32.96C29.3816 32.96 29.8616 32.912 30.2776 32.816C30.7043 32.7093 31.1416 32.56 31.5896 32.368V33.6C31.1523 33.792 30.7203 33.9307 30.2936 34.016C29.867 34.112 29.3603 34.16 28.7736 34.16C27.963 34.16 27.243 33.9947 26.6136 33.664C25.995 33.3333 25.5096 32.8427 25.1576 32.192C24.8163 31.5307 24.6456 30.7253 24.6456 29.776C24.6456 28.8373 24.8003 28.032 25.1096 27.36C25.4296 26.688 25.8723 26.1707 26.4376 25.808C27.0136 25.4453 27.6803 25.264 28.4376 25.264ZM28.4216 26.416C27.7496 26.416 27.2163 26.6347 26.8216 27.072C26.4376 27.4987 26.2083 28.096 26.1336 28.864H30.5016C30.5016 28.3733 30.427 27.9467 30.2776 27.584C30.1283 27.2213 29.899 26.9387 29.5896 26.736C29.291 26.5227 28.9016 26.416 28.4216 26.416ZM35.5489 28.192C35.5489 28.3627 35.5382 28.5867 35.5169 28.864C35.5062 29.1413 35.4955 29.3813 35.4849 29.584H35.5489C35.6129 29.4987 35.7089 29.376 35.8369 29.216C35.9649 29.056 36.0929 28.896 36.2209 28.736C36.3595 28.5653 36.4769 28.4267 36.5729 28.32L39.3089 25.424H40.9569L37.4849 29.088L41.1969 34H39.5009L36.5249 30L35.5489 30.848V34H34.1569V21.84H35.5489V28.192ZM46.8318 25.264C47.8558 25.264 48.6291 25.5147 49.1518 26.016C49.6744 26.5067 49.9358 27.3067 49.9358 28.416V34H48.5438V28.512C48.5438 27.8187 48.3891 27.3013 48.0798 26.96C47.7704 26.6187 47.2851 26.448 46.6238 26.448C45.6744 26.448 45.0184 26.7147 44.6558 27.248C44.2931 27.7813 44.1118 28.5493 44.1118 29.552V34H42.7038V25.424H43.8398L44.0478 26.592H44.1278C44.3198 26.2933 44.5544 26.048 44.8318 25.856C45.1198 25.6533 45.4344 25.504 45.7758 25.408C46.1171 25.312 46.4691 25.264 46.8318 25.264ZM60.0504 29.696C60.0504 30.4107 59.9544 31.0453 59.7624 31.6C59.581 32.144 59.3144 32.608 58.9624 32.992C58.621 33.376 58.1997 33.6693 57.6984 33.872C57.2077 34.064 56.6584 34.16 56.0504 34.16C55.485 34.16 54.9624 34.064 54.4824 33.872C54.0024 33.6693 53.5864 33.376 53.2344 32.992C52.8824 32.608 52.605 32.144 52.4024 31.6C52.2104 31.0453 52.1144 30.4107 52.1144 29.696C52.1144 28.7467 52.2744 27.9467 52.5944 27.296C52.9144 26.6347 53.373 26.1333 53.9704 25.792C54.5677 25.44 55.277 25.264 56.0984 25.264C56.877 25.264 57.5597 25.44 58.1464 25.792C58.7437 26.1333 59.2077 26.6347 59.5384 27.296C59.8797 27.9467 60.0504 28.7467 60.0504 29.696ZM53.5704 29.696C53.5704 30.368 53.6557 30.9547 53.8264 31.456C54.0077 31.9467 54.285 32.3253 54.6584 32.592C55.0317 32.8587 55.5064 32.992 56.0824 32.992C56.6584 32.992 57.133 32.8587 57.5064 32.592C57.8797 32.3253 58.1517 31.9467 58.3224 31.456C58.5037 30.9547 58.5944 30.368 58.5944 29.696C58.5944 29.0133 58.5037 28.432 58.3224 27.952C58.141 27.472 57.8637 27.104 57.4904 26.848C57.1277 26.5813 56.653 26.448 56.0664 26.448C55.1917 26.448 54.557 26.736 54.1624 27.312C53.7677 27.888 53.5704 28.6827 53.5704 29.696ZM63.6899 34H62.2819V21.84H63.6899V34ZM73.8629 29.696C73.8629 30.4107 73.7669 31.0453 73.5749 31.6C73.3935 32.144 73.1269 32.608 72.7749 32.992C72.4335 33.376 72.0122 33.6693 71.5109 33.872C71.0202 34.064 70.4709 34.16 69.8629 34.16C69.2975 34.16 68.7749 34.064 68.2949 33.872C67.8149 33.6693 67.3989 33.376 67.0469 32.992C66.6949 32.608 66.4175 32.144 66.2149 31.6C66.0229 31.0453 65.9269 30.4107 65.9269 29.696C65.9269 28.7467 66.0869 27.9467 66.4069 27.296C66.7269 26.6347 67.1855 26.1333 67.7829 25.792C68.3802 25.44 69.0895 25.264 69.9109 25.264C70.6895 25.264 71.3722 25.44 71.9589 25.792C72.5562 26.1333 73.0202 26.6347 73.3509 27.296C73.6922 27.9467 73.8629 28.7467 73.8629 29.696ZM67.3829 29.696C67.3829 30.368 67.4682 30.9547 67.6389 31.456C67.8202 31.9467 68.0975 32.3253 68.4709 32.592C68.8442 32.8587 69.3189 32.992 69.8949 32.992C70.4709 32.992 70.9455 32.8587 71.3189 32.592C71.6922 32.3253 71.9642 31.9467 72.1349 31.456C72.3162 30.9547 72.4069 30.368 72.4069 29.696C72.4069 29.0133 72.3162 28.432 72.1349 27.952C71.9535 27.472 71.6762 27.104 71.3029 26.848C70.9402 26.5813 70.4655 26.448 69.8789 26.448C69.0042 26.448 68.3695 26.736 67.9749 27.312C67.5802 27.888 67.3829 28.6827 67.3829 29.696ZM79.1344 25.264C79.6997 25.264 80.2064 25.3707 80.6544 25.584C81.113 25.7973 81.5024 26.1227 81.8224 26.56H81.9024L82.0944 25.424H83.2144V34.144C83.2144 34.9547 83.0757 35.632 82.7984 36.176C82.521 36.7307 82.0997 37.1467 81.5344 37.424C80.969 37.7013 80.249 37.84 79.3744 37.84C78.7557 37.84 78.185 37.792 77.6624 37.696C77.1504 37.6107 76.6917 37.4773 76.2864 37.296V36C76.5637 36.1387 76.8677 36.256 77.1984 36.352C77.529 36.4587 77.8864 36.5387 78.2704 36.592C78.6544 36.6453 79.049 36.672 79.4544 36.672C80.1904 36.672 80.7664 36.4533 81.1824 36.016C81.609 35.5893 81.8224 35.0027 81.8224 34.256V33.92C81.8224 33.792 81.8277 33.6107 81.8384 33.376C81.849 33.1307 81.8597 32.96 81.8704 32.864H81.8064C81.5077 33.3013 81.1344 33.6267 80.6864 33.84C80.249 34.0533 79.737 34.16 79.1504 34.16C78.041 34.16 77.1717 33.7707 76.5424 32.992C75.9237 32.2133 75.6144 31.1253 75.6144 29.728C75.6144 28.8107 75.753 28.0213 76.0304 27.36C76.3184 26.688 76.7237 26.1707 77.2464 25.808C77.769 25.4453 78.3984 25.264 79.1344 25.264ZM79.3264 26.448C78.8464 26.448 78.4357 26.576 78.0944 26.832C77.7637 27.088 77.5077 27.4613 77.3264 27.952C77.1557 28.4427 77.0704 29.04 77.0704 29.744C77.0704 30.8 77.2624 31.6107 77.6464 32.176C78.041 32.7307 78.6117 33.008 79.3584 33.008C79.7957 33.008 80.169 32.9547 80.4784 32.848C80.7877 32.7307 81.0437 32.5547 81.2464 32.32C81.449 32.0747 81.5984 31.7653 81.6944 31.392C81.7904 31.0187 81.8384 30.576 81.8384 30.064V29.728C81.8384 28.9493 81.7477 28.32 81.5664 27.84C81.3957 27.36 81.1237 27.008 80.7504 26.784C80.377 26.56 79.9024 26.448 79.3264 26.448ZM87.3461 25.424V34H85.9381V25.424H87.3461ZM86.6581 22.208C86.8715 22.208 87.0581 22.2827 87.2181 22.432C87.3888 22.5707 87.4741 22.7947 87.4741 23.104C87.4741 23.4027 87.3888 23.6267 87.2181 23.776C87.0581 23.9253 86.8715 24 86.6581 24C86.4235 24 86.2261 23.9253 86.0661 23.776C85.9061 23.6267 85.8261 23.4027 85.8261 23.104C85.8261 22.7947 85.9061 22.5707 86.0661 22.432C86.2261 22.2827 86.4235 22.208 86.6581 22.208ZM92.8754 25.424H94.3794L96.2354 30.304C96.342 30.592 96.438 30.8693 96.5234 31.136C96.6194 31.4027 96.7047 31.664 96.7794 31.92C96.854 32.1653 96.9127 32.4053 96.9554 32.64H97.0194C97.0834 32.3733 97.1847 32.0267 97.3234 31.6C97.462 31.1627 97.606 30.7253 97.7554 30.288L99.4994 25.424H101.019L97.3234 35.184C97.1207 35.7173 96.8807 36.1813 96.6034 36.576C96.3367 36.9813 96.006 37.2907 95.6114 37.504C95.2274 37.728 94.758 37.84 94.2034 37.84C93.9474 37.84 93.7234 37.824 93.5314 37.792C93.3394 37.7707 93.174 37.744 93.0354 37.712V36.592C93.1527 36.6133 93.2914 36.6347 93.4514 36.656C93.622 36.6773 93.798 36.688 93.9794 36.688C94.31 36.688 94.5927 36.624 94.8274 36.496C95.0727 36.3787 95.2807 36.2027 95.4514 35.968C95.622 35.744 95.766 35.4773 95.8834 35.168L96.3314 34.032L92.8754 25.424ZM105.624 25.28C106.669 25.28 107.442 25.5093 107.944 25.968C108.445 26.4267 108.696 27.1573 108.696 28.16V34H107.672L107.4 32.784H107.336C107.09 33.0933 106.834 33.3547 106.568 33.568C106.312 33.7707 106.013 33.92 105.672 34.016C105.341 34.112 104.936 34.16 104.456 34.16C103.944 34.16 103.48 34.0693 103.064 33.888C102.658 33.7067 102.338 33.4293 102.104 33.056C101.869 32.672 101.752 32.192 101.752 31.616C101.752 30.7627 102.088 30.1067 102.76 29.648C103.432 29.1787 104.466 28.9227 105.864 28.88L107.32 28.832V28.32C107.32 27.6053 107.165 27.1093 106.856 26.832C106.546 26.5547 106.109 26.416 105.544 26.416C105.096 26.416 104.669 26.4853 104.264 26.624C103.858 26.752 103.48 26.9013 103.128 27.072L102.696 26.016C103.069 25.8133 103.512 25.6427 104.024 25.504C104.536 25.3547 105.069 25.28 105.624 25.28ZM106.04 29.856C104.973 29.8987 104.232 30.0693 103.816 30.368C103.41 30.6667 103.208 31.088 103.208 31.632C103.208 32.112 103.352 32.464 103.64 32.688C103.938 32.912 104.317 33.024 104.776 33.024C105.501 33.024 106.104 32.8267 106.584 32.432C107.064 32.0267 107.304 31.408 107.304 30.576V29.808L106.04 29.856ZM115.472 25.264C116.496 25.264 117.27 25.5147 117.792 26.016C118.315 26.5067 118.576 27.3067 118.576 28.416V34H117.184V28.512C117.184 27.8187 117.03 27.3013 116.72 26.96C116.411 26.6187 115.926 26.448 115.264 26.448C114.315 26.448 113.659 26.7147 113.296 27.248C112.934 27.7813 112.752 28.5493 112.752 29.552V34H111.344V25.424H112.48L112.688 26.592H112.768C112.96 26.2933 113.195 26.048 113.472 25.856C113.76 25.6533 114.075 25.504 114.416 25.408C114.758 25.312 115.11 25.264 115.472 25.264ZM124.275 25.264C124.84 25.264 125.347 25.3707 125.795 25.584C126.254 25.7973 126.643 26.1227 126.963 26.56H127.043L127.235 25.424H128.355V34.144C128.355 34.9547 128.216 35.632 127.939 36.176C127.662 36.7307 127.24 37.1467 126.675 37.424C126.11 37.7013 125.39 37.84 124.515 37.84C123.896 37.84 123.326 37.792 122.803 37.696C122.291 37.6107 121.832 37.4773 121.427 37.296V36C121.704 36.1387 122.008 36.256 122.339 36.352C122.67 36.4587 123.027 36.5387 123.411 36.592C123.795 36.6453 124.19 36.672 124.595 36.672C125.331 36.672 125.907 36.4533 126.323 36.016C126.75 35.5893 126.963 35.0027 126.963 34.256V33.92C126.963 33.792 126.968 33.6107 126.979 33.376C126.99 33.1307 127 32.96 127.011 32.864H126.947C126.648 33.3013 126.275 33.6267 125.827 33.84C125.39 34.0533 124.878 34.16 124.291 34.16C123.182 34.16 122.312 33.7707 121.683 32.992C121.064 32.2133 120.755 31.1253 120.755 29.728C120.755 28.8107 120.894 28.0213 121.171 27.36C121.459 26.688 121.864 26.1707 122.387 25.808C122.91 25.4453 123.539 25.264 124.275 25.264ZM124.467 26.448C123.987 26.448 123.576 26.576 123.235 26.832C122.904 27.088 122.648 27.4613 122.467 27.952C122.296 28.4427 122.211 29.04 122.211 29.744C122.211 30.8 122.403 31.6107 122.787 32.176C123.182 32.7307 123.752 33.008 124.499 33.008C124.936 33.008 125.31 32.9547 125.619 32.848C125.928 32.7307 126.184 32.5547 126.387 32.32C126.59 32.0747 126.739 31.7653 126.835 31.392C126.931 31.0187 126.979 30.576 126.979 30.064V29.728C126.979 28.9493 126.888 28.32 126.707 27.84C126.536 27.36 126.264 27.008 125.891 26.784C125.518 26.56 125.043 26.448 124.467 26.448ZM143.779 34H142.083L138.035 28.544L136.867 29.568V34H135.427V22.576H136.867V28.208C137.187 27.8453 137.512 27.4827 137.843 27.12C138.174 26.7573 138.504 26.3947 138.835 26.032L141.923 22.576H143.603L139.075 27.552L143.779 34ZM148.389 25.28C149.435 25.28 150.208 25.5093 150.709 25.968C151.211 26.4267 151.461 27.1573 151.461 28.16V34H150.437L150.165 32.784H150.101C149.856 33.0933 149.6 33.3547 149.333 33.568C149.077 33.7707 148.779 33.92 148.437 34.016C148.107 34.112 147.701 34.16 147.221 34.16C146.709 34.16 146.245 34.0693 145.829 33.888C145.424 33.7067 145.104 33.4293 144.869 33.056C144.635 32.672 144.517 32.192 144.517 31.616C144.517 30.7627 144.853 30.1067 145.525 29.648C146.197 29.1787 147.232 28.9227 148.629 28.88L150.085 28.832V28.32C150.085 27.6053 149.931 27.1093 149.621 26.832C149.312 26.5547 148.875 26.416 148.309 26.416C147.861 26.416 147.435 26.4853 147.029 26.624C146.624 26.752 146.245 26.9013 145.893 27.072L145.461 26.016C145.835 25.8133 146.277 25.6427 146.789 25.504C147.301 25.3547 147.835 25.28 148.389 25.28ZM148.805 29.856C147.739 29.8987 146.997 30.0693 146.581 30.368C146.176 30.6667 145.973 31.088 145.973 31.632C145.973 32.112 146.117 32.464 146.405 32.688C146.704 32.912 147.083 33.024 147.541 33.024C148.267 33.024 148.869 32.8267 149.349 32.432C149.829 32.0267 150.069 31.408 150.069 30.576V29.808L148.805 29.856ZM163.518 25.264C164.489 25.264 165.214 25.5147 165.694 26.016C166.174 26.5067 166.414 27.3067 166.414 28.416V34H165.022V28.48C165.022 27.808 164.878 27.3013 164.59 26.96C164.313 26.6187 163.875 26.448 163.278 26.448C162.446 26.448 161.849 26.688 161.486 27.168C161.134 27.648 160.958 28.3467 160.958 29.264V34H159.566V28.48C159.566 28.032 159.502 27.6587 159.374 27.36C159.246 27.0507 159.054 26.8213 158.798 26.672C158.542 26.5227 158.211 26.448 157.806 26.448C157.23 26.448 156.777 26.5707 156.446 26.816C156.115 27.0507 155.875 27.3973 155.726 27.856C155.587 28.3147 155.518 28.88 155.518 29.552V34H154.11V25.424H155.246L155.454 26.592H155.534C155.715 26.2933 155.934 26.048 156.19 25.856C156.457 25.6533 156.75 25.504 157.07 25.408C157.39 25.312 157.721 25.264 158.062 25.264C158.723 25.264 159.273 25.3813 159.71 25.616C160.158 25.8507 160.483 26.2133 160.686 26.704H160.766C161.054 26.2133 161.443 25.8507 161.934 25.616C162.435 25.3813 162.963 25.264 163.518 25.264ZM170.471 25.424V34H169.063V25.424H170.471ZM169.783 22.208C169.996 22.208 170.183 22.2827 170.343 22.432C170.514 22.5707 170.599 22.7947 170.599 23.104C170.599 23.4027 170.514 23.6267 170.343 23.776C170.183 23.9253 169.996 24 169.783 24C169.548 24 169.351 23.9253 169.191 23.776C169.031 23.6267 168.951 23.4027 168.951 23.104C168.951 22.7947 169.031 22.5707 169.191 22.432C169.351 22.2827 169.548 22.208 169.783 22.208ZM182.496 27.968H186.448V33.568C185.83 33.7707 185.206 33.92 184.576 34.016C183.947 34.112 183.232 34.16 182.432 34.16C181.248 34.16 180.251 33.9253 179.44 33.456C178.63 32.976 178.011 32.2987 177.584 31.424C177.168 30.5387 176.96 29.4933 176.96 28.288C176.96 27.0933 177.195 26.0587 177.664 25.184C178.134 24.3093 178.806 23.632 179.68 23.152C180.566 22.6613 181.632 22.416 182.88 22.416C183.52 22.416 184.123 22.4747 184.688 22.592C185.264 22.7093 185.798 22.8747 186.288 23.088L185.744 24.336C185.339 24.1547 184.88 24 184.368 23.872C183.867 23.744 183.344 23.68 182.8 23.68C181.894 23.68 181.115 23.8667 180.464 24.24C179.814 24.6133 179.318 25.1467 178.976 25.84C178.635 26.5227 178.464 27.3387 178.464 28.288C178.464 29.1947 178.608 30 178.896 30.704C179.195 31.3973 179.659 31.9413 180.288 32.336C180.918 32.72 181.744 32.912 182.768 32.912C183.11 32.912 183.408 32.9013 183.664 32.88C183.931 32.848 184.171 32.8107 184.384 32.768C184.608 32.7253 184.816 32.6827 185.008 32.64V29.248H182.496V27.968ZM196.153 25.424V34H195.001L194.793 32.864H194.729C194.548 33.1627 194.313 33.408 194.025 33.6C193.737 33.792 193.422 33.9307 193.081 34.016C192.74 34.112 192.382 34.16 192.009 34.16C191.326 34.16 190.75 34.0533 190.281 33.84C189.822 33.616 189.476 33.2747 189.241 32.816C189.006 32.3573 188.889 31.7653 188.889 31.04V25.424H190.313V30.944C190.313 31.6267 190.468 32.1387 190.777 32.48C191.086 32.8213 191.566 32.992 192.217 32.992C192.857 32.992 193.358 32.8747 193.721 32.64C194.094 32.3947 194.356 32.0427 194.505 31.584C194.665 31.1147 194.745 30.5493 194.745 29.888V25.424H196.153ZM203.004 25.264C204.028 25.264 204.801 25.5147 205.324 26.016C205.846 26.5067 206.108 27.3067 206.108 28.416V34H204.716V28.512C204.716 27.8187 204.561 27.3013 204.252 26.96C203.942 26.6187 203.457 26.448 202.796 26.448C201.846 26.448 201.19 26.7147 200.828 27.248C200.465 27.7813 200.284 28.5493 200.284 29.552V34H198.876V25.424H200.012L200.22 26.592H200.3C200.492 26.2933 200.726 26.048 201.004 25.856C201.292 25.6533 201.606 25.504 201.948 25.408C202.289 25.312 202.641 25.264 203.004 25.264ZM212.014 25.28C213.06 25.28 213.833 25.5093 214.334 25.968C214.836 26.4267 215.086 27.1573 215.086 28.16V34H214.062L213.79 32.784H213.726C213.481 33.0933 213.225 33.3547 212.958 33.568C212.702 33.7707 212.404 33.92 212.062 34.016C211.732 34.112 211.326 34.16 210.846 34.16C210.334 34.16 209.87 34.0693 209.454 33.888C209.049 33.7067 208.729 33.4293 208.494 33.056C208.26 32.672 208.142 32.192 208.142 31.616C208.142 30.7627 208.478 30.1067 209.15 29.648C209.822 29.1787 210.857 28.9227 212.254 28.88L213.71 28.832V28.32C213.71 27.6053 213.556 27.1093 213.246 26.832C212.937 26.5547 212.5 26.416 211.934 26.416C211.486 26.416 211.06 26.4853 210.654 26.624C210.249 26.752 209.87 26.9013 209.518 27.072L209.086 26.016C209.46 25.8133 209.902 25.6427 210.414 25.504C210.926 25.3547 211.46 25.28 212.014 25.28ZM212.43 29.856C211.364 29.8987 210.622 30.0693 210.206 30.368C209.801 30.6667 209.598 31.088 209.598 31.632C209.598 32.112 209.742 32.464 210.03 32.688C210.329 32.912 210.708 33.024 211.166 33.024C211.892 33.024 212.494 32.8267 212.974 32.432C213.454 32.0267 213.694 31.408 213.694 30.576V29.808L212.43 29.856ZM219.127 28.192C219.127 28.3627 219.116 28.5867 219.095 28.864C219.084 29.1413 219.074 29.3813 219.063 29.584H219.127C219.191 29.4987 219.287 29.376 219.415 29.216C219.543 29.056 219.671 28.896 219.799 28.736C219.938 28.5653 220.055 28.4267 220.151 28.32L222.887 25.424H224.535L221.063 29.088L224.775 34H223.079L220.103 30L219.127 30.848V34H217.735V21.84H219.127V28.192ZM229.53 25.28C230.575 25.28 231.349 25.5093 231.85 25.968C232.351 26.4267 232.602 27.1573 232.602 28.16V34H231.578L231.306 32.784H231.242C230.997 33.0933 230.741 33.3547 230.474 33.568C230.218 33.7707 229.919 33.92 229.578 34.016C229.247 34.112 228.842 34.16 228.362 34.16C227.85 34.16 227.386 34.0693 226.97 33.888C226.565 33.7067 226.245 33.4293 226.01 33.056C225.775 32.672 225.658 32.192 225.658 31.616C225.658 30.7627 225.994 30.1067 226.666 29.648C227.338 29.1787 228.373 28.9227 229.77 28.88L231.226 28.832V28.32C231.226 27.6053 231.071 27.1093 230.762 26.832C230.453 26.5547 230.015 26.416 229.45 26.416C229.002 26.416 228.575 26.4853 228.17 26.624C227.765 26.752 227.386 26.9013 227.034 27.072L226.602 26.016C226.975 25.8133 227.418 25.6427 227.93 25.504C228.442 25.3547 228.975 25.28 229.53 25.28ZM229.946 29.856C228.879 29.8987 228.138 30.0693 227.722 30.368C227.317 30.6667 227.114 31.088 227.114 31.632C227.114 32.112 227.258 32.464 227.546 32.688C227.845 32.912 228.223 33.024 228.682 33.024C229.407 33.024 230.01 32.8267 230.49 32.432C230.97 32.0267 231.21 31.408 231.21 30.576V29.808L229.946 29.856ZM239.379 25.264C240.403 25.264 241.176 25.5147 241.699 26.016C242.221 26.5067 242.483 27.3067 242.483 28.416V34H241.091V28.512C241.091 27.8187 240.936 27.3013 240.627 26.96C240.317 26.6187 239.832 26.448 239.171 26.448C238.221 26.448 237.565 26.7147 237.203 27.248C236.84 27.7813 236.659 28.5493 236.659 29.552V34H235.251V25.424H236.387L236.595 26.592H236.675C236.867 26.2933 237.101 26.048 237.379 25.856C237.667 25.6533 237.981 25.504 238.323 25.408C238.664 25.312 239.016 25.264 239.379 25.264Z" fill="#111111"/>
<rect x="16.25" y="48.25" width="50.7" height="43.5" rx="5.75" fill="white"/>
<rect x="16.25" y="48.25" width="50.7" height="43.5" rx="5.75" stroke="#E1E1E1" stroke-width="0.5"/>
<path d="M45.2787 68.8896H43.468V69.0817C44.0344 69.0817 44.1254 69.2031 44.1254 69.9214V71.2163C44.1254 71.9345 44.0344 72.066 43.468 72.066C43.0331 72.0053 42.7396 71.7726 42.335 71.3275L41.8697 70.8218C42.4968 70.7103 42.8306 70.3159 42.8306 69.8708C42.8306 69.3145 42.3553 68.8896 41.465 68.8896H39.6846V69.0817C40.251 69.0817 40.3421 69.2031 40.3421 69.9214V71.2163C40.3421 71.9345 40.251 72.066 39.6846 72.066V72.2582H41.6976V72.066C41.1312 72.066 41.0402 71.9345 41.0402 71.2163V70.8522H41.2121L42.335 72.2582H45.2787C46.7253 72.2582 47.3525 71.4894 47.3525 70.5688C47.3525 69.6483 46.7254 68.8896 45.2787 68.8896ZM41.0403 70.5384V69.1931H41.4549C41.9101 69.1931 42.1125 69.5067 42.1125 69.8708C42.1125 70.225 41.9101 70.5384 41.4549 70.5384L41.0403 70.5384ZM45.3091 71.9446H45.2383C44.8742 71.9446 44.8236 71.8536 44.8236 71.3882V69.1931H45.3091C46.3612 69.1931 46.5533 69.9618 46.5533 70.5587C46.5533 71.1757 46.3611 71.9446 45.3091 71.9446ZM34.0503 70.9128L34.7483 68.849C34.9507 68.2522 34.8597 68.0803 34.2122 68.0803V67.8779H36.114V68.0803C35.4767 68.0803 35.325 68.2321 35.0721 68.9705L33.9188 72.4301H33.7873L32.7554 69.2638L31.7035 72.4301H31.5719L30.4491 68.9705C30.2063 68.2321 30.0445 68.0803 29.4577 68.0803V67.8779H31.7035V68.0803C31.1066 68.0803 30.9446 68.2219 31.1572 68.849L31.8349 70.9128L32.8566 67.8779H33.0489L34.0503 70.9128ZM37.4896 72.3896C36.3769 72.3896 35.4664 71.5703 35.4664 70.5687C35.4664 69.5774 36.377 68.7579 37.4896 68.7579C38.6024 68.7579 39.5127 69.5774 39.5127 70.5687C39.5127 71.5703 38.6024 72.3896 37.4896 72.3896ZM37.4896 69.0717C36.559 69.0717 36.2352 69.9112 36.2352 70.5688C36.2352 71.2365 36.559 72.066 37.4896 72.066C38.4304 72.066 38.7542 71.2365 38.7542 70.5688C38.7542 69.9112 38.4304 69.0717 37.4896 69.0717Z" fill="#00749A"/>
<path d="M49.851 72.0558V72.2582H47.5345V72.0558C48.2123 72.0558 48.3337 71.8839 48.3337 70.8722V69.2538C48.3337 68.242 48.2123 68.0803 47.5345 68.0803V67.8779H49.6284C50.6703 67.8779 51.2471 68.414 51.2471 69.1324C51.2471 69.8304 50.6703 70.3766 49.6284 70.3766H49.0518V70.8721C49.0518 71.8839 49.1732 72.0558 49.851 72.0558ZM49.6284 68.242H49.0518V70.0023H49.6284C50.195 70.0023 50.4579 69.6078 50.4579 69.1324C50.4579 68.6468 50.195 68.242 49.6284 68.242ZM58.1965 71.3073L58.1459 71.4894C58.0549 71.8232 57.9435 71.9446 57.2253 71.9446H57.0836C56.5577 71.9446 56.4666 71.8232 56.4666 71.105V70.6397C57.2557 70.6397 57.3164 70.7104 57.3164 71.2365H57.5086V69.7292H57.3164C57.3164 70.2552 57.2557 70.326 56.4666 70.326V69.1931H57.0229C57.7413 69.1931 57.8524 69.3145 57.9435 69.6483L57.9942 69.8404H58.1559L58.0852 68.8896H55.1111V69.0817C55.6775 69.0817 55.7686 69.2031 55.7686 69.9214V71.2163C55.7686 71.8733 55.6913 72.0388 55.2447 72.0624C54.8202 71.9976 54.5288 71.766 54.13 71.3275L53.6646 70.8218C54.2919 70.7103 54.6257 70.3159 54.6257 69.8708C54.6257 69.3145 54.1503 68.8896 53.2601 68.8896H51.4797V69.0817C52.0461 69.0817 52.1372 69.2031 52.1372 69.9214V71.2163C52.1372 71.9345 52.0462 72.066 51.4797 72.066V72.2582H53.4928V72.066C52.9264 72.066 52.8353 71.9345 52.8353 71.2163V70.8522H53.0073L54.1301 72.2582H58.2876L58.3484 71.3074L58.1965 71.3073ZM52.8352 70.5384V69.1931H53.2499C53.7051 69.1931 53.9075 69.5067 53.9075 69.8708C53.9075 70.225 53.7051 70.5384 53.2499 70.5384L52.8352 70.5384ZM60.25 72.3896C59.8453 72.3896 59.4912 72.1772 59.3395 72.0456C59.2889 72.0963 59.1979 72.248 59.1777 72.3896H58.9855V70.9938H59.1878C59.2688 71.6614 59.734 72.0558 60.3309 72.0558C60.6546 72.0558 60.9177 71.8738 60.9177 71.5704C60.9177 71.3074 60.685 71.105 60.2702 70.9128L59.6936 70.6397C59.2889 70.4474 58.9855 70.1135 58.9855 69.6685C58.9855 69.183 59.4407 68.7683 60.0679 68.7683C60.4018 68.7683 60.6849 68.8897 60.857 69.0313C60.9075 68.9908 60.9581 68.8795 60.9885 68.758H61.1807V69.9518H60.9683C60.8974 69.4763 60.6344 69.0818 60.0983 69.0818C59.8151 69.0818 59.552 69.2436 59.552 69.4966C59.552 69.7596 59.7644 69.9012 60.2501 70.1238L60.8063 70.3969C61.292 70.6295 61.484 71.004 61.484 71.3074C61.484 71.9446 60.9277 72.3896 60.25 72.3896ZM63.3656 72.3896C62.9609 72.3896 62.6068 72.1772 62.4552 72.0456C62.4046 72.0963 62.3136 72.248 62.2934 72.3896H62.1011V70.9938H62.3034C62.3844 71.6614 62.8497 72.0558 63.4465 72.0558C63.7702 72.0558 64.0333 71.8738 64.0333 71.5704C64.0333 71.3074 63.8007 71.105 63.3858 70.9128L62.8092 70.6397C62.4046 70.4474 62.101 70.1135 62.101 69.6685C62.101 69.183 62.5563 68.7683 63.1835 68.7683C63.5173 68.7683 63.8005 68.8897 63.9726 69.0313C64.0231 68.9908 64.0737 68.8795 64.1039 68.758H64.2962V69.9518H64.0838C64.0129 69.4763 63.75 69.0818 63.2139 69.0818C62.9307 69.0818 62.6675 69.2436 62.6675 69.4966C62.6675 69.7596 62.88 69.9012 63.3656 70.1238L63.9219 70.3969C64.4075 70.6295 64.5996 71.004 64.5996 71.3074C64.5996 71.9446 64.0433 72.3896 63.3656 72.3896Z" fill="#464342"/>
<path d="M19.3414 69.9998C19.3414 71.7718 20.3712 73.3032 21.8645 74.0289L19.729 68.1779C19.473 68.7511 19.3409 69.372 19.3414 69.9998ZM26.8404 69.7739C26.8404 69.2206 26.6417 68.8375 26.4712 68.5392C26.2443 68.1705 26.0316 67.8582 26.0316 67.4894C26.0316 67.0779 26.3437 66.6948 26.7833 66.6948C26.8032 66.6948 26.822 66.6973 26.8413 66.6984C26.0448 65.9687 24.9837 65.5232 23.8182 65.5232C22.2542 65.5232 20.8782 66.3256 20.0777 67.541C20.1827 67.5442 20.2817 67.5464 20.3658 67.5464C20.8341 67.5464 21.5589 67.4896 21.5589 67.4896C21.8002 67.4754 21.8287 67.8298 21.5876 67.8583C21.5876 67.8583 21.3451 67.8869 21.0752 67.901L22.7055 72.7502L23.6852 69.8119L22.9877 67.9009C22.7466 67.8867 22.5183 67.8582 22.5183 67.8582C22.277 67.844 22.3053 67.4752 22.5465 67.4894C22.5465 67.4894 23.2859 67.5462 23.7258 67.5462C24.1939 67.5462 24.9189 67.4894 24.9189 67.4894C25.1604 67.4752 25.1887 67.8296 24.9476 67.8582C24.9476 67.8582 24.7045 67.8867 24.4352 67.9009L26.053 72.7133L26.4996 71.2211C26.6931 70.6019 26.8404 70.1572 26.8404 69.7739Z" fill="#464342"/>
<path d="M23.8968 70.3914L22.5536 74.2945C22.9642 74.4155 23.3901 74.4769 23.8182 74.4769C24.3396 74.4769 24.8395 74.3868 25.3049 74.2231C25.2925 74.2035 25.2818 74.1829 25.273 74.1614L23.8968 70.3914ZM27.7465 67.852C27.7657 67.9946 27.7766 68.1476 27.7766 68.3123C27.7766 68.7666 27.6918 69.2773 27.4362 69.9158L26.0687 73.8695C27.3997 73.0934 28.2949 71.6515 28.2949 69.9999C28.295 69.2216 28.0961 68.4897 27.7465 67.852Z" fill="#464342"/>
<path d="M23.8182 64.7814C20.9408 64.7814 18.5996 67.1223 18.5996 69.9998C18.5996 72.8776 20.9408 75.2185 23.8182 75.2185C26.6956 75.2185 29.0371 72.8776 29.0371 69.9998C29.037 67.1223 26.6956 64.7814 23.8182 64.7814ZM23.8182 74.9793C21.0727 74.9793 18.8389 72.7455 18.8389 69.9998C18.8389 67.2543 21.0726 65.0207 23.8182 65.0207C26.5637 65.0207 28.7973 67.2543 28.7973 69.9998C28.7973 72.7455 26.5637 74.9793 23.8182 74.9793Z" fill="#464342"/>
<rect x="75.4502" y="48.25" width="50.7" height="43.5" rx="5.75" fill="white"/>
<rect x="75.4502" y="48.25" width="50.7" height="43.5" rx="5.75" stroke="#E1E1E1" stroke-width="0.5"/>
<path d="M106.762 69.6509C106.762 69.6509 106.367 69.7454 106.033 69.8251L105.524 69.941C105.523 69.941 105.521 69.941 105.52 69.941C105.52 69.8036 105.53 69.6589 105.562 69.5256C105.605 69.3548 105.697 69.1551 105.857 69.0674C106.032 68.9723 106.245 68.9609 106.429 69.0346C106.62 69.1103 106.708 69.2952 106.745 69.4868C106.756 69.5404 106.763 69.594 106.768 69.6482L106.762 69.6509ZM108.087 69.941C108.087 68.6125 107.252 68.0417 106.185 68.0417C104.979 68.0417 104.223 68.8785 104.223 69.9477C104.223 71.11 104.866 71.8671 106.251 71.8671C107 71.8671 107.424 71.7344 107.928 71.4819L107.736 70.6116C107.352 70.7844 106.994 70.8903 106.517 70.8903C105.993 70.8903 105.695 70.6913 105.582 70.3195H108.054C108.074 70.2197 108.087 70.1065 108.087 69.941Z" fill="#92003B"/>
<path d="M95.6674 69.6509C95.6674 69.6509 95.2721 69.7454 94.9378 69.8251L94.4296 69.941C94.4282 69.941 94.4262 69.941 94.4249 69.941C94.4249 69.8036 94.4349 69.6589 94.4677 69.5256C94.5098 69.3548 94.6021 69.1551 94.7626 69.0674C94.9371 68.9723 95.1498 68.9609 95.3343 69.0346C95.5256 69.1103 95.6132 69.2952 95.6507 69.4868C95.6614 69.5404 95.668 69.594 95.6734 69.6482L95.6674 69.6509ZM96.9928 69.941C96.9928 68.6125 96.1575 68.0417 95.0903 68.0417C93.8839 68.0417 93.1283 68.8785 93.1283 69.9477C93.1283 71.11 93.7716 71.8671 95.1564 71.8671C95.9054 71.8671 96.3294 71.7344 96.8336 71.4819L96.6417 70.6116C96.2572 70.7844 95.8994 70.8903 95.4219 70.8903C94.8983 70.8903 94.6001 70.6913 94.4871 70.3195H96.9594C96.9794 70.2197 96.9928 70.1065 96.9928 69.941Z" fill="#92003B"/>
<path d="M92.6093 67.0656H91.3848V71.7338H92.6093V67.0656Z" fill="#92003B"/>
<path d="M108.346 68.161H109.632L109.902 68.9863C110.072 68.579 110.453 68.0551 111.129 68.0551C112.057 68.0551 112.561 68.5267 112.561 69.742V71.7344H111.275C111.275 71.3191 111.275 70.9044 111.276 70.489C111.276 70.2987 111.273 70.1085 111.275 69.9182C111.277 69.7427 111.29 69.5611 111.196 69.4037C111.133 69.2972 111.029 69.2188 110.918 69.1652C110.691 69.0567 110.445 69.0593 110.222 69.1759C110.167 69.2047 109.902 69.3481 109.902 69.4144V71.7344H108.616V69.125L108.346 68.161Z" fill="#92003B"/>
<path d="M113.533 69.0975H112.943V68.161H113.533V67.5754L114.819 67.2719V68.161H116.111V69.0975H114.819V70.1467C114.819 70.5587 115.017 70.7509 115.316 70.7509C115.621 70.7509 115.793 70.7108 116.051 70.625L116.204 71.5944C115.853 71.7472 115.415 71.8202 114.971 71.8202C114.036 71.8202 113.532 71.3753 113.532 70.5118V69.0975H113.533Z" fill="#92003B"/>
<path d="M118.518 70.8039C118.988 70.8039 119.267 70.4649 119.267 69.9209C119.267 69.3769 119.002 69.064 118.538 69.064C118.067 69.064 117.795 69.3762 117.795 69.9403C117.795 70.4723 118.06 70.8039 118.518 70.8039ZM118.531 68.0216C119.737 68.0216 120.619 68.7786 120.619 69.9537C120.619 71.1355 119.737 71.8463 118.518 71.8463C117.305 71.8463 116.443 71.1161 116.443 69.9537C116.443 68.7786 117.298 68.0216 118.531 68.0216Z" fill="#92003B"/>
<path d="M103.071 68.1502C102.843 68.0564 102.586 68.0216 102.34 68.0571C102.215 68.0752 102.092 68.1114 101.979 68.1677C101.667 68.3217 101.424 68.6735 101.294 68.987C101.208 68.6259 100.959 68.3016 100.595 68.1509C100.367 68.0571 100.11 68.0223 99.8636 68.0578C99.7386 68.0759 99.6161 68.112 99.5025 68.1683C99.1915 68.3217 98.9494 68.6721 98.8184 68.985V68.9622L98.5563 68.1623H97.2703L97.5411 69.1263V71.7351H98.8184V69.403C98.8231 69.3856 98.8799 69.3535 98.8899 69.3461C99.0397 69.2396 99.2156 69.1297 99.4028 69.1163C99.5941 69.1022 99.7827 69.1994 99.8963 69.3514C99.9084 69.3682 99.9197 69.3849 99.9304 69.4024C100.024 69.5598 100.011 69.7414 100.009 69.9169C100.007 70.1071 100.01 70.2974 100.01 70.4877C100.009 70.903 100.009 71.3178 100.009 71.7331H101.295V69.7414C101.295 69.7313 101.295 69.7213 101.295 69.7119V69.4044C101.297 69.3876 101.356 69.3541 101.367 69.3468C101.517 69.2402 101.693 69.1304 101.88 69.117C102.071 69.1029 102.26 69.2 102.373 69.3521C102.385 69.3689 102.397 69.3856 102.407 69.403C102.501 69.5605 102.488 69.742 102.486 69.9175C102.484 70.1078 102.487 70.2981 102.487 70.4883C102.486 70.9037 102.486 71.3184 102.486 71.7338H103.772V69.7414C103.772 69.1572 103.688 68.4048 103.071 68.1502Z" fill="#92003B"/>
<path d="M123.66 68.0551C122.984 68.0551 122.603 68.5797 122.434 68.9863L122.163 68.161H120.877L121.148 69.125V71.7338H122.434V69.3233C122.617 69.2911 123.611 69.4747 123.8 69.5437V68.0598C123.754 68.0571 123.708 68.0551 123.66 68.0551Z" fill="#92003B"/>
<path d="M89.5405 69.6509C89.5405 69.6509 89.1453 69.7454 88.8109 69.8251L88.3027 69.941C88.3014 69.941 88.2994 69.941 88.298 69.941C88.298 69.8036 88.308 69.6589 88.3408 69.5256C88.383 69.3548 88.4753 69.1551 88.6357 69.0674C88.8103 68.9723 89.0229 68.9609 89.2075 69.0346C89.3988 69.1103 89.4863 69.2952 89.5238 69.4868C89.5345 69.5404 89.5412 69.594 89.5465 69.6482L89.5405 69.6509ZM90.8659 69.941C90.8659 68.6125 90.0307 68.0417 88.9634 68.0417C87.757 68.0417 87.0014 68.8785 87.0014 69.9477C87.0014 71.11 87.6447 71.8671 89.0296 71.8671C89.7786 71.8671 90.2026 71.7344 90.7068 71.4819L90.5148 70.6116C90.1303 70.7844 89.7726 70.8903 89.2951 70.8903C88.7715 70.8903 88.4732 70.6913 88.3602 70.3195H90.8325C90.8525 70.2197 90.8659 70.1065 90.8659 69.941Z" fill="#92003B"/>
<path d="M81.4731 66.3199C79.4442 66.3199 77.7998 67.9673 77.7998 69.9999C77.7998 72.0319 79.4442 73.68 81.4731 73.68C83.502 73.68 85.1464 72.0325 85.1464 69.9999C85.1457 67.9673 83.5013 66.3199 81.4731 66.3199ZM80.5549 71.5327H79.9431V68.4664H80.5549V71.5327ZM83.0031 71.5327H81.1668V70.9198H83.0031V71.5327ZM83.0031 70.3061H81.1668V69.6931H83.0031V70.3061ZM83.0031 69.0794H81.1668V68.4664H83.0031V69.0794Z" fill="#92003B"/>
<rect x="134.65" y="48.25" width="50.7" height="43.5" rx="5.75" fill="white"/>
<rect x="134.65" y="48.25" width="50.7" height="43.5" rx="5.75" stroke="#E1E1E1" stroke-width="0.5"/>
<path d="M144 69.9999C144 74.6482 151.164 78.4165 160 78.4165C168.836 78.4165 176 74.6482 176 69.9999C176 65.3517 168.836 61.5833 160 61.5833C151.164 61.5833 144 65.3517 144 69.9999Z" fill="url(#paint0_radial_287_7914)"/>
<path d="M160 77.7916C168.491 77.7916 175.375 74.3032 175.375 70C175.375 65.6967 168.491 62.2083 160 62.2083C151.509 62.2083 144.625 65.6967 144.625 69.9999C144.625 74.3032 151.509 77.7917 160 77.7917" fill="#777BB3"/>
<path d="M152.693 70.966C153.391 70.966 153.913 70.8372 154.242 70.5835C154.569 70.3322 154.794 69.897 154.912 69.2899C155.022 68.7224 154.98 68.3261 154.787 68.1123C154.59 67.8939 154.164 67.7831 153.521 67.7831H152.405L151.786 70.966H152.693ZM149.044 74.8867C149.018 74.8867 148.993 74.8811 148.97 74.8702C148.946 74.8592 148.926 74.8433 148.91 74.8236C148.893 74.8038 148.882 74.7807 148.875 74.7559C148.869 74.731 148.868 74.7051 148.873 74.68L150.513 66.2454C150.52 66.2059 150.542 66.1702 150.573 66.1446C150.604 66.1189 150.643 66.1049 150.683 66.1049H154.216C155.327 66.1049 156.153 66.4064 156.673 67.0011C157.195 67.599 157.356 68.4347 157.152 69.485C157.069 69.9129 156.926 70.3103 156.727 70.6661C156.528 71.0223 156.265 71.3519 155.945 71.6459C155.562 72.0041 155.129 72.264 154.659 72.4169C154.195 72.5677 153.601 72.6443 152.891 72.6443H151.46L151.052 74.7462C151.044 74.7858 151.023 74.8214 150.992 74.847C150.96 74.8727 150.921 74.8867 150.881 74.8867H149.044Z" fill="#111111"/>
<path d="M152.548 67.9568H153.52C154.297 67.9568 154.567 68.1272 154.658 68.2288C154.81 68.3974 154.839 68.753 154.741 69.257C154.632 69.8212 154.428 70.2212 154.136 70.4459C153.837 70.6759 153.352 70.7924 152.693 70.7924H151.996L152.548 67.9568ZM154.216 65.9313H150.683C150.602 65.9313 150.524 65.9594 150.462 66.0106C150.4 66.0619 150.357 66.1332 150.342 66.2123L148.703 74.6469C148.693 74.6971 148.694 74.7489 148.707 74.7986C148.72 74.8482 148.743 74.8944 148.776 74.9339C148.808 74.9735 148.849 75.0053 148.895 75.0271C148.942 75.049 148.992 75.0603 149.043 75.0603H150.881C150.961 75.0603 151.04 75.0323 151.102 74.981C151.164 74.9298 151.206 74.8585 151.222 74.7794L151.603 72.8179H152.89C153.619 72.8179 154.232 72.7385 154.712 72.582C155.206 72.4214 155.661 72.1491 156.064 71.7727C156.397 71.4664 156.671 71.1227 156.879 70.7509C157.086 70.3789 157.236 69.9642 157.322 69.5181C157.537 68.4126 157.363 67.5273 156.803 66.887C156.249 66.2529 155.379 65.9313 154.216 65.9313M151.575 71.1396H152.693C153.434 71.1396 153.986 71.0001 154.348 70.721C154.711 70.4419 154.955 69.9759 155.082 69.323C155.204 68.6962 155.149 68.2538 154.916 67.9961C154.684 67.7384 154.218 67.6095 153.52 67.6095H152.261L151.575 71.1396ZM154.216 66.2785C155.279 66.2785 156.054 66.5574 156.542 67.1154C157.029 67.6733 157.176 68.4521 156.981 69.4519C156.901 69.8638 156.766 70.2403 156.575 70.5815C156.385 70.9229 156.136 71.235 155.828 71.5181C155.461 71.8614 155.053 72.106 154.605 72.2518C154.156 72.3979 153.585 72.4707 152.89 72.4707H151.317L150.881 74.7131H149.043L150.683 66.2785H154.216" fill="white"/>
<path d="M161.364 72.6443C161.313 72.6443 161.263 72.6211 161.231 72.5811C161.214 72.5614 161.202 72.5382 161.196 72.5134C161.19 72.4886 161.189 72.4627 161.194 72.4376L161.919 68.7056C161.988 68.3507 161.971 68.0959 161.871 67.9883C161.81 67.9225 161.627 67.8121 161.084 67.8121H159.77L158.858 72.5038C158.851 72.5433 158.829 72.579 158.798 72.6046C158.767 72.6303 158.728 72.6443 158.688 72.6443H156.865C156.839 72.6443 156.814 72.6387 156.791 72.6277C156.768 72.6168 156.747 72.6009 156.731 72.5812C156.715 72.5614 156.703 72.5383 156.697 72.5134C156.69 72.4886 156.69 72.4627 156.695 72.4376L158.334 64.003C158.342 63.9634 158.363 63.9278 158.394 63.9021C158.425 63.8765 158.464 63.8625 158.504 63.8625H160.327C160.353 63.8625 160.378 63.8681 160.401 63.8791C160.425 63.89 160.445 63.9059 160.461 63.9256C160.478 63.9454 160.489 63.9685 160.496 63.9933C160.502 64.0181 160.503 64.0441 160.498 64.0692L160.102 66.1049H161.515C162.592 66.1049 163.322 66.2948 163.747 66.6853C164.181 67.0836 164.316 67.7206 164.149 68.5788L163.387 72.5038C163.379 72.5433 163.358 72.579 163.327 72.6046C163.296 72.6303 163.257 72.6443 163.216 72.6443H161.364Z" fill="#111111"/>
<path d="M160.327 63.6888H158.504C158.424 63.6888 158.346 63.7169 158.283 63.7681C158.221 63.8194 158.179 63.8907 158.163 63.9698L156.524 72.4044C156.514 72.4547 156.516 72.5065 156.528 72.5561C156.541 72.6058 156.564 72.652 156.597 72.6916C156.629 72.7311 156.67 72.7629 156.717 72.7847C156.763 72.8066 156.814 72.8179 156.865 72.8179H158.688C158.768 72.8179 158.846 72.7898 158.909 72.7386C158.971 72.6873 159.013 72.616 159.029 72.5369L159.913 67.9857H161.084C161.626 67.9857 161.739 68.1014 161.744 68.1064C161.777 68.1417 161.82 68.3055 161.749 68.6724L161.023 72.4044C161.014 72.4547 161.015 72.5065 161.028 72.5562C161.04 72.6058 161.064 72.6521 161.096 72.6916C161.129 72.7311 161.17 72.7629 161.216 72.7847C161.263 72.8066 161.313 72.8179 161.364 72.8179H163.216C163.297 72.8179 163.375 72.7898 163.437 72.7386C163.499 72.6873 163.542 72.616 163.557 72.5369L164.32 68.6119C164.499 67.6905 164.345 66.9994 163.865 66.5575C163.406 66.1361 162.637 65.9313 161.515 65.9313H160.312L160.668 64.1023C160.678 64.052 160.676 64.0002 160.664 63.9506C160.651 63.901 160.628 63.8547 160.595 63.8152C160.562 63.7757 160.522 63.7439 160.475 63.722C160.429 63.7002 160.378 63.6888 160.327 63.6888ZM160.327 64.0361L159.891 66.2785H161.515C162.537 66.2785 163.242 66.4569 163.63 66.8131C164.018 67.1696 164.134 67.7472 163.979 68.5457L163.216 72.4706H161.364L162.089 68.7387C162.172 68.3142 162.142 68.0246 161.998 67.8702C161.855 67.7158 161.55 67.6385 161.084 67.6385H159.627L158.688 72.4706H156.865L158.504 64.0361H160.327Z" fill="white"/>
<path d="M167.034 70.966C167.732 70.966 168.253 70.8372 168.583 70.5835C168.909 70.3323 169.135 69.897 169.253 69.2899C169.363 68.7224 169.321 68.3261 169.128 68.1123C168.931 67.8939 168.505 67.7831 167.861 67.7831H166.746L166.127 70.966H167.034ZM163.385 74.8867C163.359 74.8867 163.334 74.8811 163.31 74.8702C163.287 74.8592 163.267 74.8433 163.251 74.8236C163.234 74.8038 163.223 74.7807 163.216 74.7559C163.21 74.7311 163.209 74.7051 163.214 74.68L164.853 66.2454C164.861 66.2059 164.882 66.1702 164.914 66.1446C164.945 66.1189 164.984 66.1049 165.024 66.1049H168.557C169.668 66.1049 170.494 66.4064 171.014 67.0011C171.536 67.5989 171.697 68.4346 171.493 69.485C171.41 69.9129 171.267 70.3103 171.068 70.6661C170.869 71.0223 170.606 71.3519 170.286 71.6459C169.903 72.0041 169.47 72.264 168.999 72.4169C168.536 72.5677 167.941 72.6443 167.232 72.6443H165.801L165.392 74.7462C165.385 74.7858 165.363 74.8214 165.332 74.8471C165.301 74.8727 165.262 74.8867 165.222 74.8867H163.385Z" fill="#111111"/>
<path d="M166.888 67.9568H167.861C168.638 67.9568 168.907 68.1272 168.999 68.2288C169.151 68.3974 169.18 68.753 169.082 69.2569C168.972 69.8211 168.769 70.2212 168.477 70.4459C168.178 70.6759 167.693 70.7924 167.034 70.7924H166.337L166.888 67.9568ZM168.557 65.9313H165.024C164.943 65.9313 164.865 65.9594 164.803 66.0106C164.741 66.0619 164.698 66.1332 164.683 66.2123L163.043 74.6469C163.034 74.6971 163.035 74.7489 163.048 74.7986C163.06 74.8482 163.084 74.8944 163.116 74.9339C163.149 74.9735 163.19 75.0053 163.236 75.0271C163.283 75.049 163.333 75.0603 163.384 75.0603H165.222C165.302 75.0603 165.38 75.0323 165.443 74.981C165.505 74.9298 165.547 74.8585 165.563 74.7794L165.944 72.8179H167.231C167.959 72.8179 168.572 72.7385 169.053 72.582C169.547 72.4214 170.002 72.149 170.405 71.7726C170.737 71.4664 171.012 71.1227 171.219 70.7509C171.427 70.3789 171.576 69.9642 171.663 69.5181C171.878 68.4125 171.703 67.5272 171.144 66.8869C170.59 66.2529 169.72 65.9313 168.557 65.9313M165.916 71.1396H167.034C167.774 71.1396 168.326 71.0001 168.689 70.721C169.052 70.4419 169.296 69.9759 169.423 69.323C169.545 68.6962 169.489 68.2538 169.257 67.9961C169.024 67.7384 168.559 67.6095 167.861 67.6095H166.602L165.916 71.1396ZM168.557 66.2785C169.62 66.2785 170.395 66.5574 170.883 67.1154C171.37 67.6733 171.517 68.4521 171.322 69.4519C171.242 69.8638 171.107 70.2403 170.916 70.5815C170.725 70.9229 170.476 71.235 170.168 71.5181C169.802 71.8614 169.394 72.106 168.945 72.2518C168.497 72.3979 167.926 72.4707 167.231 72.4707H165.657L165.222 74.7131H163.384L165.024 66.2785L168.557 66.2785Z" fill="white"/>
<rect x="193.85" y="48.25" width="50.7" height="43.5" rx="5.75" fill="white"/>
<rect x="193.85" y="48.25" width="50.7" height="43.5" rx="5.75" stroke="#E1E1E1" stroke-width="0.5"/>
<path d="M230.199 70.0022C230.199 68.5448 228.374 67.1636 225.576 66.3071C226.222 63.4551 225.935 61.186 224.67 60.4596C224.379 60.2892 224.038 60.2085 223.666 60.2085V61.2085C223.872 61.2085 224.038 61.2488 224.177 61.3251C224.787 61.6748 225.051 63.0067 224.845 64.7197C224.796 65.1412 224.715 65.5851 224.616 66.0381C223.737 65.8228 222.778 65.6569 221.769 65.5493C221.163 64.7197 220.536 63.9663 219.903 63.3071C221.365 61.9484 222.737 61.204 223.67 61.204V60.204C222.437 60.204 220.823 61.0829 219.19 62.6076C217.558 61.0919 215.944 60.2219 214.71 60.2219V61.2219C215.639 61.2219 217.015 61.9618 218.477 63.3116C217.849 63.9708 217.222 64.7197 216.625 65.5493C215.612 65.6569 214.652 65.8228 213.773 66.0425C213.67 65.5941 213.594 65.1591 213.54 64.7421C213.329 63.0291 213.589 61.6973 214.195 61.343C214.329 61.2623 214.504 61.2264 214.71 61.2264V60.2264C214.334 60.2264 213.993 60.3071 213.697 60.4775C212.437 61.204 212.154 63.4686 212.805 66.3116C210.015 67.1726 208.199 68.5493 208.199 70.0022C208.199 71.4596 210.024 72.8408 212.823 73.6973C212.177 76.5493 212.464 78.8183 213.728 79.5448C214.02 79.7152 214.361 79.7959 214.737 79.7959C215.971 79.7959 217.585 78.917 219.217 77.3923C220.849 78.908 222.464 79.778 223.697 79.778C224.074 79.778 224.414 79.6973 224.71 79.5268C225.971 78.8004 226.253 76.5358 225.603 73.6928C228.383 72.8363 230.199 71.4551 230.199 70.0022ZM224.361 67.0112C224.195 67.5896 223.988 68.186 223.755 68.7825C223.571 68.4237 223.379 68.065 223.168 67.7062C222.962 67.3475 222.742 66.9977 222.522 66.6569C223.159 66.7511 223.773 66.8677 224.361 67.0112ZM222.307 71.7869C221.957 72.3923 221.598 72.9663 221.226 73.4999C220.558 73.5582 219.881 73.5896 219.199 73.5896C218.522 73.5896 217.845 73.5582 217.181 73.5044C216.809 72.9708 216.446 72.4013 216.096 71.8004C215.755 71.2129 215.446 70.6165 215.163 70.0156C215.441 69.4147 215.755 68.8138 216.092 68.2264C216.441 67.621 216.8 67.047 217.172 66.5134C217.84 66.4551 218.518 66.4237 219.199 66.4237C219.876 66.4237 220.553 66.4551 221.217 66.5089C221.589 67.0425 221.953 67.6121 222.302 68.2129C222.643 68.8004 222.953 69.3968 223.235 69.9977C222.953 70.5986 222.643 71.1995 222.307 71.7869ZM223.755 71.204C223.997 71.8049 224.204 72.4058 224.374 72.9887C223.787 73.1322 223.168 73.2533 222.527 73.3475C222.746 73.0022 222.966 72.6479 223.172 72.2847C223.379 71.926 223.571 71.5627 223.755 71.204ZM219.208 75.9887C218.791 75.5582 218.374 75.0784 217.962 74.5538C218.365 74.5717 218.778 74.5851 219.195 74.5851C219.616 74.5851 220.033 74.5762 220.441 74.5538C220.038 75.0784 219.621 75.5582 219.208 75.9887ZM215.872 73.3475C215.235 73.2533 214.621 73.1367 214.033 72.9932C214.199 72.4147 214.405 71.8183 214.639 71.2219C214.823 71.5807 215.015 71.9394 215.226 72.2982C215.437 72.6569 215.652 73.0067 215.872 73.3475ZM219.186 64.0156C219.603 64.4461 220.02 64.926 220.432 65.4506C220.029 65.4327 219.616 65.4192 219.199 65.4192C218.778 65.4192 218.361 65.4282 217.953 65.4506C218.356 64.926 218.773 64.4461 219.186 64.0156ZM215.867 66.6569C215.648 67.0022 215.428 67.3564 215.222 67.7197C215.015 68.0784 214.823 68.4372 214.639 68.7959C214.397 68.195 214.19 67.5941 214.02 67.0112C214.607 66.8721 215.226 66.7511 215.867 66.6569ZM211.809 72.2712C210.222 71.5941 209.195 70.7062 209.195 70.0022C209.195 69.2982 210.222 68.4058 211.809 67.7331C212.195 67.5672 212.616 67.4192 213.051 67.2802C213.307 68.1591 213.643 69.0739 214.06 70.0112C213.648 70.9439 213.316 71.8542 213.065 72.7286C212.621 72.5896 212.199 72.4372 211.809 72.2712ZM214.222 78.6793C213.612 78.3295 213.347 76.9977 213.553 75.2847C213.603 74.8632 213.684 74.4192 213.782 73.9663C214.661 74.1816 215.621 74.3475 216.63 74.4551C217.235 75.2847 217.863 76.0381 218.495 76.6973C217.033 78.056 215.661 78.8004 214.728 78.8004C214.527 78.7959 214.356 78.7556 214.222 78.6793ZM224.858 75.2623C225.069 76.9753 224.809 78.3071 224.204 78.6614C224.069 78.7421 223.894 78.778 223.688 78.778C222.76 78.778 221.383 78.0381 219.921 76.6883C220.549 76.0291 221.177 75.2802 221.773 74.4506C222.787 74.343 223.746 74.1771 224.625 73.9573C224.728 74.4103 224.809 74.8452 224.858 75.2623ZM226.585 72.2712C226.199 72.4372 225.778 72.5851 225.343 72.7242C225.087 71.8452 224.751 70.9304 224.334 69.9932C224.746 69.0605 225.078 68.1502 225.329 67.2757C225.773 67.4147 226.195 67.5672 226.589 67.7331C228.177 68.4103 229.204 69.2982 229.204 70.0022C229.199 70.7062 228.172 71.5986 226.585 72.2712Z" fill="#61DAFB"/>
<path d="M219.195 72.0515C220.327 72.0515 221.244 71.134 221.244 70.0022C221.244 68.8704 220.327 67.9529 219.195 67.9529C218.063 67.9529 217.145 68.8704 217.145 70.0022C217.145 71.134 218.063 72.0515 219.195 72.0515Z" fill="#61DAFB"/>
<rect x="253.05" y="48.25" width="50.7" height="43.5" rx="5.75" fill="white"/>
<rect x="253.05" y="48.25" width="50.7" height="43.5" rx="5.75" stroke="#E1E1E1" stroke-width="0.5"/>
<path d="M269.95 65.3825H275.986V65.8622H270.503V69.4726H275.659V69.9524H270.503V73.9163H276.048V74.396H269.95V65.3825ZM276.526 65.3825H277.168L280.009 69.3464L282.914 65.3825L286.865 60.3474L280.374 69.763L283.719 74.396H283.052L280.009 70.1796L276.954 74.396H276.3L279.67 69.763L276.526 65.3825ZM283.957 65.8622V65.3825H290.835V65.8622H287.667V74.396H287.114V65.8622H283.957ZM262.399 65.3825H263.091L272.627 79.6527L268.686 74.396L262.978 66.0642L262.953 74.396H262.399V65.3825ZM290.78 73.7715C290.667 73.7715 290.582 73.6839 290.582 73.5707C290.582 73.4576 290.667 73.37 290.78 73.37C290.894 73.37 290.977 73.4576 290.977 73.5707C290.977 73.6839 290.894 73.7715 290.78 73.7715ZM291.323 73.2433H291.619C291.623 73.4037 291.74 73.5115 291.913 73.5115C292.105 73.5115 292.214 73.3956 292.214 73.1787V71.8043H292.516V73.18C292.516 73.5707 292.289 73.7958 291.915 73.7958C291.564 73.7958 291.323 73.5775 291.323 73.2433ZM292.91 73.2258H293.209C293.234 73.4104 293.414 73.5276 293.674 73.5276C293.916 73.5276 294.094 73.4023 294.094 73.2299C294.094 73.0816 293.981 72.9927 293.724 72.9321L293.474 72.8714C293.122 72.7893 292.962 72.6195 292.962 72.3338C292.962 71.9876 293.245 71.7572 293.669 71.7572C294.063 71.7572 294.351 71.9876 294.368 72.315H294.075C294.047 72.1358 293.891 72.0239 293.665 72.0239C293.427 72.0239 293.268 72.1385 293.268 72.3136C293.268 72.4524 293.37 72.5319 293.623 72.5912L293.837 72.6437C294.235 72.7367 294.399 72.8984 294.399 73.1908C294.399 73.5627 294.111 73.7958 293.651 73.7958C293.221 73.7958 292.931 73.5734 292.91 73.2258Z" fill="#111111"/>
<rect x="16.25" y="100.25" width="50.7" height="43.5" rx="5.75" fill="white"/>
<rect x="16.25" y="100.25" width="50.7" height="43.5" rx="5.75" stroke="#E1E1E1" stroke-width="0.5"/>
<path d="M41.4163 131.799C41.3106 131.799 41.2058 131.772 41.1132 131.718L40.1484 131.147C40.0043 131.066 40.0746 131.038 40.1221 131.022C40.3143 130.954 40.3533 130.939 40.5583 130.823C40.5799 130.81 40.6081 130.815 40.6302 130.828L41.3713 131.267C41.3981 131.282 41.4361 131.282 41.4609 131.267L44.3508 129.599C44.3775 129.584 44.3949 129.553 44.3949 129.521V126.186C44.3949 126.153 44.3775 126.124 44.3502 126.107L41.4615 124.44C41.4347 124.424 41.3993 124.424 41.3725 124.44L38.4843 126.107C38.4563 126.123 38.4385 126.154 38.4385 126.186V129.521C38.4385 129.552 38.4559 129.583 38.4834 129.598L39.2748 130.055C39.7045 130.27 39.967 130.017 39.967 129.762V126.471C39.967 126.424 40.0039 126.388 40.051 126.388H40.417C40.4626 126.388 40.5002 126.424 40.5002 126.471V129.764C40.5002 130.336 40.1877 130.666 39.6444 130.666C39.4773 130.666 39.3457 130.666 38.9782 130.485L38.2201 130.048C38.1279 129.994 38.0514 129.917 37.9983 129.825C37.9451 129.732 37.9171 129.627 37.917 129.521V126.186C37.917 125.969 38.0327 125.766 38.2201 125.659L41.1129 123.99C41.2959 123.887 41.5389 123.887 41.7205 123.99L44.6097 125.66C44.7018 125.713 44.7783 125.79 44.8315 125.883C44.8847 125.975 44.9127 126.08 44.9128 126.186V129.521C44.9128 129.738 44.7963 129.939 44.6097 130.048L41.7205 131.717C41.6279 131.77 41.5228 131.798 41.416 131.798" fill="#689F63"/>
<path d="M42.3089 129.501C41.0444 129.501 40.7793 128.921 40.7793 128.434C40.7793 128.388 40.8166 128.351 40.863 128.351H41.2363C41.2775 128.351 41.3122 128.381 41.3187 128.422C41.3751 128.802 41.543 128.994 42.3076 128.994C42.9167 128.994 43.1756 128.856 43.1756 128.533C43.1756 128.347 43.1018 128.209 42.1557 128.117C41.3643 128.038 40.8753 127.864 40.8753 127.231C40.8753 126.648 41.3672 126.301 42.1911 126.301C43.1163 126.301 43.5749 126.622 43.6328 127.312C43.6338 127.324 43.6323 127.335 43.6285 127.346C43.6247 127.357 43.6187 127.368 43.6108 127.376C43.6029 127.385 43.5934 127.392 43.5827 127.396C43.572 127.401 43.5605 127.403 43.5489 127.403H43.1735C43.1344 127.403 43.1004 127.376 43.0924 127.338C43.002 126.938 42.7836 126.81 42.1897 126.81C41.5249 126.81 41.4475 127.042 41.4475 127.215C41.4475 127.426 41.5386 127.487 42.4356 127.606C43.3239 127.724 43.7456 127.89 43.7456 128.514C43.7456 129.144 43.2205 129.505 42.3047 129.505M45.8246 125.968H45.9216C46.0011 125.968 46.0163 125.912 46.0163 125.88C46.0163 125.795 45.9577 125.795 45.9252 125.795H45.8254L45.8246 125.968ZM45.7067 125.695H45.9216C45.9953 125.695 46.14 125.695 46.14 125.86C46.14 125.975 46.0662 125.999 46.0221 126.013C46.1082 126.019 46.114 126.075 46.1256 126.155C46.1313 126.205 46.1407 126.291 46.1581 126.32H46.0257C46.0221 126.291 46.0019 126.132 46.0019 126.123C45.9932 126.087 45.9809 126.07 45.9368 126.07H45.8275V126.32H45.7067V125.695ZM45.4485 126.006C45.4485 126.265 45.6575 126.474 45.9143 126.474C46.1733 126.474 46.3824 126.26 46.3824 126.006C46.3824 125.746 46.1704 125.54 45.9136 125.54C45.6604 125.54 45.4478 125.743 45.4478 126.005M46.4721 126.007C46.4721 126.314 46.221 126.564 45.9151 126.564C45.6112 126.564 45.3581 126.317 45.3581 126.007C45.3581 125.692 45.617 125.45 45.9151 125.45C46.2153 125.45 46.4713 125.693 46.4713 126.007" fill="#689F63"/>
<path fill-rule="evenodd" clip-rule="evenodd" d="M32.4671 118.751C32.4671 118.618 32.3969 118.496 32.282 118.429L29.2181 116.667C29.1668 116.637 29.109 116.62 29.0497 116.618H29.018C28.9593 116.62 28.9013 116.636 28.8487 116.667L25.7849 118.429C25.7286 118.462 25.6819 118.509 25.6493 118.566C25.6168 118.622 25.5997 118.686 25.5996 118.751L25.6063 123.5C25.6063 123.565 25.6403 123.627 25.6982 123.659C25.7546 123.694 25.8255 123.694 25.8819 123.659L27.7034 122.616C27.8184 122.548 27.8886 122.427 27.8886 122.295V120.077C27.8885 120.012 27.9055 119.948 27.9379 119.892C27.9704 119.836 28.0171 119.789 28.0734 119.756L28.8489 119.31C28.9051 119.277 28.969 119.26 29.0341 119.26C29.0974 119.26 29.1621 119.276 29.2181 119.31L29.9932 119.756C30.1079 119.822 30.1784 119.944 30.1784 120.077V122.295C30.1784 122.426 30.2495 122.548 30.3639 122.616L32.1842 123.658C32.2122 123.675 32.2442 123.684 32.2768 123.684C32.3094 123.684 32.3414 123.675 32.3694 123.658C32.3973 123.642 32.4204 123.619 32.4365 123.591C32.4526 123.563 32.4611 123.531 32.4611 123.498L32.4671 118.751ZM46.925 121.223C46.925 121.256 46.9075 121.287 46.8787 121.303L45.8264 121.91C45.8123 121.918 45.7964 121.922 45.7802 121.922C45.764 121.922 45.748 121.918 45.734 121.91L44.6815 121.303C44.6525 121.287 44.6352 121.256 44.6352 121.223V120.008C44.6352 119.975 44.6525 119.945 44.6808 119.928L45.7325 119.32C45.7615 119.304 45.7969 119.304 45.8259 119.32L46.8784 119.928C46.9073 119.945 46.9247 119.975 46.9247 120.008L46.925 121.223ZM47.2093 112.224C47.1811 112.209 47.1493 112.2 47.117 112.201C47.0848 112.201 47.0532 112.21 47.0253 112.226C46.9689 112.259 46.934 112.32 46.934 112.386V117.088C46.934 117.111 46.9281 117.133 46.9167 117.153C46.9054 117.172 46.889 117.189 46.8693 117.2C46.8497 117.212 46.8273 117.218 46.8046 117.218C46.7819 117.218 46.7595 117.212 46.7398 117.2L45.9723 116.758C45.9161 116.726 45.8524 116.708 45.7875 116.708C45.7225 116.708 45.6588 116.726 45.6026 116.758L42.5376 118.527C42.4814 118.559 42.4347 118.606 42.4022 118.662C42.3696 118.718 42.3525 118.782 42.3524 118.847V122.385C42.3524 122.518 42.4231 122.639 42.5376 122.706L45.6026 124.476C45.717 124.542 45.8579 124.542 45.9727 124.476L49.0377 122.705C49.1519 122.639 49.2228 122.517 49.2228 122.385V113.565C49.2227 113.499 49.205 113.435 49.1716 113.378C49.1382 113.321 49.0902 113.274 49.0326 113.242L47.2093 112.224ZM57.4157 119.976C57.4716 119.944 57.5181 119.897 57.5503 119.841C57.5826 119.785 57.5996 119.721 57.5996 119.656V118.799C57.5996 118.667 57.5294 118.545 57.4154 118.479L54.3699 116.711C54.3136 116.678 54.2496 116.661 54.1844 116.661C54.1192 116.661 54.0552 116.678 53.9989 116.711L50.9346 118.479C50.8196 118.546 50.7495 118.667 50.7495 118.8V122.337C50.7495 122.47 50.8211 122.593 50.9361 122.659L53.9808 124.394C54.0929 124.459 54.2303 124.459 54.3439 124.397L56.1856 123.373C56.2435 123.34 56.2804 123.279 56.2804 123.212C56.2804 123.146 56.2449 123.084 56.1871 123.051L53.104 121.282C53.0462 121.249 53.0107 121.188 53.0107 121.122V120.012C53.0107 119.946 53.0455 119.885 53.1033 119.852L54.0625 119.298C54.1197 119.265 54.1898 119.265 54.247 119.298L55.2069 119.852C55.264 119.884 55.2995 119.946 55.2995 120.012V120.884C55.2995 120.95 55.3349 121.011 55.3921 121.045C55.4492 121.077 55.5201 121.077 55.5773 121.044L57.4157 119.976Z" fill="#333333"/>
<path fill-rule="evenodd" clip-rule="evenodd" d="M54.1395 119.811C54.1503 119.804 54.1625 119.801 54.175 119.801C54.1874 119.801 54.1997 119.804 54.2104 119.811L54.7985 120.15C54.8205 120.163 54.834 120.186 54.834 120.212V120.891C54.834 120.916 54.8205 120.94 54.7985 120.952L54.2104 121.292C54.1997 121.298 54.1874 121.301 54.175 121.301C54.1625 121.301 54.1503 121.298 54.1395 121.292L53.5518 120.952C53.5409 120.946 53.5318 120.937 53.5254 120.926C53.519 120.916 53.5157 120.903 53.5156 120.891V120.212C53.5156 120.186 53.5286 120.163 53.5511 120.15L54.1395 119.811Z" fill="#689F63"/>
<mask id="mask0_287_7914" style="mask-type:luminance" maskUnits="userSpaceOnUse" x="33" y="116" width="8" height="9">
<path d="M37.2259 116.728L34.1783 118.487C34.1223 118.52 34.0758 118.566 34.0435 118.622C34.0112 118.678 33.9941 118.742 33.9941 118.806V122.327C33.9941 122.458 34.0642 122.58 34.1783 122.645L37.2261 124.406C37.2821 124.438 37.3456 124.455 37.4102 124.455C37.4748 124.455 37.5383 124.438 37.5943 124.406L40.6416 122.645C40.6975 122.613 40.7438 122.567 40.7761 122.511C40.8083 122.455 40.8253 122.391 40.8253 122.327V118.806C40.8253 118.675 40.7552 118.553 40.6409 118.487L37.594 116.728C37.5379 116.696 37.4743 116.679 37.4096 116.679C37.3448 116.679 37.2812 116.696 37.2251 116.728" fill="white"/>
</mask>
<g mask="url(#mask0_287_7914)">
<path d="M43.9058 118.189L35.3182 113.979L30.915 122.962L39.5024 127.171L43.9058 118.189Z" fill="url(#paint1_linear_287_7914)"/>
</g>
<mask id="mask1_287_7914" style="mask-type:luminance" maskUnits="userSpaceOnUse" x="34" y="116" width="7" height="9">
<path d="M34.0693 122.55C34.0985 122.588 34.1349 122.621 34.1778 122.645L36.7921 124.155L37.2276 124.406C37.2927 124.443 37.3669 124.459 37.4398 124.454C37.4641 124.452 37.4884 124.447 37.5122 124.441L40.7264 118.555C40.7018 118.528 40.673 118.506 40.6408 118.487L38.6453 117.335L37.5904 116.728C37.5605 116.711 37.5284 116.698 37.495 116.69L34.0693 122.55Z" fill="white"/>
</mask>
<g mask="url(#mask1_287_7914)">
<path d="M30.3564 119.434L36.4201 127.641L44.4395 121.716L38.3754 113.509L30.3564 119.434Z" fill="url(#paint2_linear_287_7914)"/>
</g>
<mask id="mask2_287_7914" style="mask-type:luminance" maskUnits="userSpaceOnUse" x="34" y="116" width="7" height="9">
<path d="M37.3726 116.681C37.3208 116.686 37.2707 116.702 37.2254 116.728L34.1865 118.482L37.4634 124.451C37.509 124.444 37.5538 124.429 37.5943 124.406L40.6419 122.645C40.6879 122.619 40.7277 122.582 40.7584 122.539C40.7891 122.496 40.8101 122.446 40.8199 122.394L37.4793 116.687C37.4548 116.682 37.4298 116.68 37.4048 116.68C37.3947 116.68 37.3846 116.68 37.3744 116.681" fill="white"/>
</mask>
<g mask="url(#mask2_287_7914)">
<path d="M34.1865 116.68V124.451H40.8187V116.68H34.1865Z" fill="url(#paint3_linear_287_7914)"/>
</g>
<rect x="75.4502" y="100.25" width="50.7" height="43.5" rx="5.75" fill="white"/>
<rect x="75.4502" y="100.25" width="50.7" height="43.5" rx="5.75" stroke="#E1E1E1" stroke-width="0.5"/>
<path d="M103.109 113.34L100.8 117.34L98.4904 113.34H90.7998L100.8 130.66L110.8 113.34H103.109Z" fill="#41B883"/>
<path d="M103.109 113.34L100.8 117.34L98.4904 113.34H94.7999L100.8 123.732L106.8 113.34H103.109Z" fill="#34495E"/>
<rect x="134.65" y="100.25" width="50.7" height="43.5" rx="5.75" fill="white"/>
<rect x="134.65" y="100.25" width="50.7" height="43.5" rx="5.75" stroke="#E1E1E1" stroke-width="0.5"/>
<path d="M155.72 120.54C155.776 120.603 155.811 120.68 155.804 120.764V125.049C155.804 125.141 155.769 125.232 155.706 125.295C155.643 125.365 155.552 125.4 155.461 125.393C155.412 125.393 155.356 125.386 155.307 125.372C155.265 125.358 155.223 125.33 155.188 125.295L152.422 121.681V125.091C152.422 125.176 152.394 125.253 152.331 125.316C152.275 125.372 152.191 125.407 152.106 125.407C152.022 125.407 151.945 125.379 151.889 125.316C151.833 125.253 151.805 125.176 151.805 125.091V120.792C151.805 120.701 151.84 120.61 151.903 120.547C151.966 120.484 152.05 120.449 152.142 120.449C152.198 120.449 152.254 120.456 152.303 120.477C152.352 120.498 152.394 120.526 152.422 120.568L155.188 124.195V120.764C155.188 120.68 155.216 120.603 155.279 120.54C155.335 120.484 155.419 120.449 155.503 120.449C155.58 120.449 155.664 120.484 155.72 120.54ZM161.427 120.54C161.49 120.61 161.518 120.694 161.518 120.785V123.495C161.525 123.845 161.441 124.195 161.273 124.496C161.112 124.783 160.88 125.028 160.593 125.19C160.292 125.358 159.956 125.449 159.613 125.442C159.27 125.449 158.927 125.358 158.626 125.19C158.339 125.028 158.101 124.783 157.939 124.496C157.771 124.188 157.687 123.845 157.694 123.495V120.785C157.694 120.694 157.729 120.603 157.792 120.54C157.862 120.477 157.953 120.435 158.044 120.442C158.136 120.442 158.22 120.477 158.283 120.54C158.346 120.603 158.388 120.687 158.381 120.778V123.488C158.374 123.719 158.437 123.95 158.549 124.146C158.766 124.531 159.172 124.762 159.606 124.762C159.823 124.762 160.04 124.706 160.236 124.601C160.432 124.496 160.593 124.335 160.705 124.146C160.824 123.943 160.88 123.719 160.88 123.488V120.778C160.88 120.687 160.908 120.603 160.964 120.533C161.02 120.47 161.112 120.428 161.196 120.435C161.28 120.435 161.371 120.477 161.427 120.54ZM166.867 124.888C166.909 124.944 166.93 125.014 166.93 125.091C166.937 125.183 166.895 125.274 166.832 125.33C166.769 125.386 166.685 125.421 166.601 125.421C166.489 125.428 166.384 125.372 166.328 125.281L164.956 123.446L163.611 125.274C163.548 125.365 163.45 125.421 163.338 125.421C163.254 125.421 163.177 125.393 163.121 125.33C163.065 125.281 163.03 125.204 163.03 125.127C163.03 125.042 163.065 124.958 163.114 124.895L164.564 122.921L163.107 120.96C163.065 120.904 163.037 120.834 163.037 120.757C163.037 120.666 163.072 120.582 163.135 120.519C163.198 120.456 163.282 120.421 163.373 120.421C163.429 120.421 163.478 120.435 163.527 120.456C163.576 120.477 163.618 120.519 163.653 120.561L165.012 122.382L166.356 120.575C166.412 120.484 166.517 120.428 166.622 120.421C166.706 120.421 166.79 120.456 166.846 120.519C166.909 120.575 166.944 120.652 166.944 120.736C166.944 120.806 166.916 120.876 166.874 120.939L165.397 122.9C165.397 122.921 166.867 124.888 166.867 124.888ZM171.965 120.54C172.028 120.603 172.07 120.687 172.063 120.778C172.063 120.869 172.028 120.953 171.965 121.009C171.895 121.065 171.811 121.1 171.72 121.093H170.46V125.056C170.46 125.148 170.425 125.232 170.362 125.295C170.215 125.428 169.99 125.428 169.843 125.295C169.78 125.232 169.738 125.148 169.745 125.056V121.093H168.492C168.401 121.093 168.317 121.065 168.247 121.009C168.184 120.946 168.149 120.862 168.149 120.771C168.149 120.687 168.184 120.603 168.247 120.54C168.317 120.484 168.401 120.449 168.492 120.456H171.72C171.811 120.449 171.895 120.477 171.965 120.54Z" fill="#2F495E"/>
<path d="M173.513 125.274C173.282 125.141 173.093 124.958 172.96 124.727C172.918 124.671 172.897 124.608 172.897 124.538C172.897 124.447 172.939 124.363 173.002 124.307C173.058 124.244 173.135 124.209 173.219 124.209C173.345 124.223 173.464 124.286 173.534 124.384C173.688 124.643 173.975 124.797 174.276 124.797C174.521 124.804 174.759 124.706 174.934 124.538C175.109 124.37 175.207 124.139 175.2 123.894V120.799C175.2 120.708 175.235 120.617 175.305 120.561C175.368 120.498 175.459 120.463 175.55 120.463C175.641 120.456 175.732 120.491 175.803 120.561C175.866 120.624 175.901 120.715 175.901 120.806V123.908C175.901 124.188 175.831 124.461 175.69 124.699C175.55 124.937 175.347 125.134 175.109 125.274C174.857 125.414 174.57 125.491 174.276 125.484C174.01 125.47 173.751 125.407 173.513 125.274ZM178.372 125.323C178.092 125.218 177.833 125.056 177.616 124.853C177.525 124.783 177.469 124.678 177.469 124.566C177.469 124.482 177.504 124.398 177.567 124.335C177.63 124.272 177.714 124.237 177.798 124.237C177.875 124.237 177.945 124.265 178.001 124.314C178.169 124.475 178.365 124.608 178.582 124.699C178.8 124.783 179.031 124.825 179.262 124.825C179.528 124.832 179.787 124.762 180.011 124.622C180.2 124.517 180.312 124.321 180.319 124.104C180.326 123.873 180.207 123.656 180.011 123.537C179.731 123.369 179.416 123.257 179.094 123.201C178.61 123.103 178.232 122.942 177.973 122.711C177.714 122.487 177.581 122.172 177.581 121.772C177.574 121.506 177.651 121.254 177.805 121.037C177.959 120.82 178.169 120.652 178.407 120.554C178.687 120.435 178.982 120.379 179.283 120.386C179.563 120.386 179.843 120.435 180.109 120.526C180.34 120.603 180.557 120.736 180.739 120.904C180.837 120.974 180.893 121.086 180.9 121.205C180.9 121.289 180.865 121.373 180.802 121.429C180.746 121.492 180.662 121.534 180.571 121.527C180.515 121.527 180.452 121.506 180.41 121.471C180.263 121.331 180.088 121.226 179.899 121.163C179.703 121.086 179.493 121.044 179.283 121.037C179.017 121.023 178.757 121.093 178.533 121.233C178.358 121.352 178.253 121.541 178.253 121.751C178.253 121.961 178.358 122.158 178.533 122.27C178.793 122.417 179.073 122.522 179.367 122.578C179.675 122.641 179.983 122.732 180.27 122.858C180.487 122.956 180.676 123.11 180.809 123.313C180.942 123.544 181.012 123.803 180.998 124.069C181.005 124.328 180.921 124.587 180.767 124.797C180.606 125.014 180.389 125.19 180.144 125.295C179.871 125.414 179.577 125.477 179.276 125.47C178.975 125.477 178.666 125.428 178.372 125.323Z" fill="#00C58E"/>
<path d="M141.932 125.344C141.925 125.33 141.918 125.316 141.911 125.302C141.869 125.211 141.862 125.112 141.876 125.021H139.6L142.99 119.055L144.103 121.009L144.425 120.435L143.459 118.726C143.431 118.677 143.27 118.411 142.983 118.411C142.857 118.411 142.674 118.467 142.52 118.726L139.089 124.762C139.061 124.811 138.921 125.091 139.061 125.33C139.124 125.442 139.264 125.575 139.565 125.575H142.443C142.135 125.582 141.995 125.456 141.932 125.344Z" fill="#00C58E"/>
<path d="M148.542 124.769L145.72 119.798C145.692 119.749 145.531 119.483 145.244 119.483C145.118 119.483 144.936 119.539 144.782 119.798L144.418 120.435L144.74 121.009L145.244 120.12L148.031 125.014H146.967C146.981 125.098 146.974 125.176 146.946 125.253C146.939 125.267 146.932 125.288 146.925 125.302L146.918 125.323C146.778 125.568 146.47 125.582 146.407 125.582H148.066C148.129 125.582 148.437 125.568 148.577 125.323C148.647 125.218 148.696 125.028 148.542 124.769Z" fill="#108775"/>
<path d="M146.925 125.33L146.932 125.309C146.939 125.295 146.946 125.274 146.953 125.26C146.981 125.183 146.988 125.098 146.974 125.021C146.96 124.937 146.925 124.853 146.883 124.776L144.747 121.016L144.418 120.442L144.096 121.016L141.96 124.776C141.918 124.853 141.89 124.937 141.876 125.021C141.862 125.119 141.869 125.218 141.904 125.302C141.911 125.316 141.918 125.33 141.925 125.344C141.988 125.456 142.128 125.589 142.429 125.589H146.407C146.477 125.582 146.785 125.568 146.925 125.33ZM144.425 121.583L146.379 125.021H142.471L144.425 121.583Z" fill="#2F495E"/>
<rect x="193.85" y="100.25" width="50.7" height="43.5" rx="5.75" fill="white"/>
<rect x="193.85" y="100.25" width="50.7" height="43.5" rx="5.75" stroke="#E1E1E1" stroke-width="0.5"/>
<path d="M223.827 118.55H222.654C222.589 118.55 222.524 118.603 222.511 118.666L221.678 122.52C221.664 122.584 221.599 122.636 221.534 122.636H220.704C219.882 122.636 219.977 122.067 220.146 121.289L220.151 121.265L220.169 121.167C220.17 121.161 220.172 121.155 220.173 121.149L220.25 120.735C220.263 120.671 220.281 120.576 220.293 120.517L220.672 118.667C220.685 118.603 220.642 118.551 220.577 118.551H219.373C219.308 118.551 219.244 118.603 219.23 118.667L218.712 121.123C218.712 121.124 218.712 121.124 218.712 121.125L218.688 121.239C218.39 122.601 218.469 123.899 220.09 123.94C220.116 123.94 220.137 123.94 220.137 123.94H222.681C222.746 123.94 222.81 123.888 222.824 123.824L223.921 118.667C223.935 118.603 223.892 118.55 223.827 118.55ZM228.374 123.879L228.488 123.322L228.374 123.879V123.879H228.374ZM228.231 123.996L228.232 123.996C227.887 123.999 226.849 124.007 226.07 124.007C227.019 124.007 228.231 123.996 228.231 123.996H228.231ZM225.37 121.932C225.369 121.871 225.438 121.766 225.503 121.766L225.357 121.763C225.291 122.428 225.37 121.932 225.37 121.932Z" fill="#131B28"/>
<path d="M228.507 122.649C228.572 122.649 228.615 122.701 228.602 122.765L228.469 123.413M226.727 124.005C226.632 124.005 226.538 124.006 226.444 124.006C226.538 124.006 226.632 124.005 226.727 124.005ZM228.232 123.996C228.232 123.996 228.232 123.996 228.232 123.996V123.996ZM228.374 123.879L228.47 123.413L228.374 123.879L228.374 123.879ZM209.082 121.946L209.264 121.138L209.056 122.061L208.856 123.002L209.031 122.178C209.044 122.114 209.067 122.009 209.082 121.946ZM211.263 118.537H209.974C209.909 118.537 209.844 118.589 209.83 118.652L209.585 119.731C209.571 119.794 209.612 119.846 209.678 119.846H210.976C211.041 119.846 211.106 119.794 211.12 119.731L211.356 118.653V118.653C211.37 118.589 211.328 118.537 211.263 118.537ZM210.982 120.331V120.33L210.604 122.079L210.982 120.331ZM207.24 126.123C207.24 126.123 207.889 126.131 208.302 126.131C207.988 126.131 207.47 126.125 207.239 126.122L207.24 126.123Z" fill="#131B28"/>
<path d="M210.889 120.215H209.591C209.526 120.215 209.46 120.267 209.446 120.33L209.081 121.946C209.067 122.01 209.044 122.114 209.031 122.178L208.68 123.827C208.663 123.904 208.642 123.98 208.618 124.055C208.618 124.055 208.375 124.777 207.967 124.768C207.95 124.768 207.933 124.768 207.917 124.767L207.564 124.761H207.563C207.498 124.76 207.433 124.811 207.418 124.874L207.149 126.006C207.134 126.069 207.174 126.121 207.239 126.122C207.47 126.125 207.988 126.131 208.302 126.131C209.321 126.131 209.857 125.567 210.202 123.942L210.982 120.33C210.996 120.267 210.954 120.215 210.889 120.215H210.889ZM229.335 123.94C229.269 123.94 229.227 123.888 229.241 123.824L230.218 119.249" fill="#131B28"/>
<path d="M234.798 119.778L234.744 119.556L234.664 119.213C234.558 118.803 234.248 118.566 233.576 118.566L231.566 118.564H230.481C230.416 118.564 230.352 118.616 230.338 118.68H230.338L230.218 119.249L229.266 123.709C229.252 123.772 229.247 123.851 229.255 123.882C229.263 123.914 229.388 123.94 229.453 123.94H230.432C230.497 123.94 230.579 123.929 230.615 123.914C230.65 123.9 230.703 123.772 230.716 123.708L231.064 121.988L231.064 121.986L231.088 121.871L231.485 120.01C231.499 119.947 231.563 119.895 231.628 119.895L234.706 119.893C234.771 119.893 234.813 119.841 234.798 119.778Z" fill="#131B28"/>
<path d="M238.761 117.768C238.696 117.768 238.589 117.769 238.524 117.769H237.539C237.473 117.769 237.39 117.813 237.353 117.866L235.174 121.059C235.137 121.113 235.095 121.105 235.081 121.041L234.921 120.338C234.906 120.274 234.841 120.222 234.776 120.222H233.375C233.31 120.222 233.271 120.273 233.289 120.336L233.917 122.535C233.935 122.598 233.936 122.701 233.92 122.764L233.646 123.828C233.63 123.891 233.67 123.943 233.735 123.943H235.12C235.185 123.943 235.251 123.891 235.268 123.828L235.541 122.764C235.557 122.701 235.603 122.606 235.642 122.554L239.179 117.859C239.219 117.807 239.198 117.765 239.132 117.765L238.761 117.768H238.761ZM227.632 120.522L227.632 120.52C227.624 120.591 227.558 120.643 227.493 120.643H225.717C225.656 120.643 225.625 120.601 225.634 120.55C225.634 120.548 225.634 120.547 225.635 120.546C225.635 120.546 225.635 120.546 225.634 120.546C225.635 120.544 225.635 120.542 225.635 120.54L225.643 120.51C225.813 120.059 226.158 119.763 226.808 119.763C227.539 119.763 227.682 120.12 227.632 120.522H227.632ZM227.111 118.472C224.831 118.472 224.291 119.855 223.988 121.252C223.685 122.675 223.711 124.006 226.07 124.006H226.154C226.161 124.006 226.169 124.006 226.176 124.006L226.328 124.006C226.337 124.006 226.347 124.006 226.356 124.006L226.427 124.006H226.444C226.537 124.006 226.632 124.005 226.727 124.005H226.731C227.354 124.003 227.979 123.998 228.232 123.996C228.297 123.995 228.36 123.943 228.374 123.879L228.602 122.765C228.615 122.701 228.572 122.649 228.507 122.649H226.386C225.543 122.649 225.292 122.425 225.385 121.766H228.775L228.774 121.766C228.775 121.766 228.776 121.766 228.777 121.766C228.831 121.765 228.88 121.728 228.9 121.678C228.904 121.669 228.907 121.659 228.908 121.649L228.908 121.649C229.411 119.75 229.267 118.472 227.111 118.472L227.111 118.472ZM216.336 120.514L216.304 120.628V120.628L215.792 122.443C215.774 122.505 215.707 122.557 215.641 122.557H214.286C213.259 122.557 213.008 121.753 213.259 120.567C213.509 119.354 213.999 118.601 215.011 118.524C216.393 118.42 216.67 119.392 216.336 120.514ZM217.265 122.487C217.265 122.487 217.904 120.936 218.049 120.04C218.247 118.84 217.647 117.101 215.327 117.101C213.021 117.101 212.02 118.762 211.638 120.567C211.256 122.385 211.756 123.98 214.049 123.967L217.549 123.954C217.614 123.953 217.68 123.902 217.697 123.839L217.992 122.716C218.008 122.652 217.968 122.601 217.903 122.6L217.339 122.597C217.283 122.596 217.252 122.561 217.258 122.513C217.259 122.505 217.261 122.496 217.265 122.487L217.265 122.487Z" fill="#131B28"/>
<path d="M199.656 119.432C199.019 120.347 199.098 121.538 199.585 122.51C199.596 122.534 199.609 122.556 199.621 122.579C199.628 122.594 199.635 122.609 199.643 122.623C199.648 122.632 199.653 122.64 199.657 122.648C199.666 122.664 199.674 122.679 199.683 122.694C199.698 122.72 199.713 122.747 199.729 122.773C199.738 122.788 199.747 122.802 199.756 122.817C199.773 122.845 199.791 122.873 199.81 122.901C199.817 122.913 199.825 122.925 199.833 122.937C199.858 122.975 199.884 123.012 199.911 123.049C199.911 123.05 199.912 123.051 199.913 123.052C199.917 123.058 199.922 123.064 199.926 123.07C199.958 123.114 199.99 123.157 200.024 123.199C200.054 123.236 200.084 123.273 200.115 123.31C200.145 123.345 200.175 123.38 200.206 123.414L200.208 123.416C200.209 123.418 200.211 123.418 200.212 123.42C200.252 123.463 200.293 123.506 200.335 123.548C200.359 123.573 200.384 123.597 200.409 123.621C200.419 123.631 200.429 123.641 200.439 123.65C200.473 123.682 200.507 123.712 200.541 123.743L200.543 123.744C200.549 123.749 200.555 123.754 200.561 123.759C200.591 123.785 200.622 123.812 200.653 123.837C200.666 123.848 200.679 123.858 200.691 123.868C200.717 123.888 200.743 123.908 200.769 123.928L200.81 123.959C200.838 123.98 200.867 124.001 200.896 124.022C200.907 124.029 200.917 124.037 200.928 124.044C200.931 124.046 200.933 124.048 200.936 124.05C200.964 124.069 200.992 124.087 201.02 124.106C201.033 124.114 201.045 124.122 201.057 124.13C201.1 124.157 201.144 124.184 201.188 124.21L201.225 124.231C201.257 124.25 201.29 124.268 201.324 124.286C201.341 124.296 201.36 124.305 201.378 124.315C201.402 124.327 201.425 124.339 201.449 124.351C201.454 124.354 201.46 124.356 201.465 124.359C201.475 124.364 201.485 124.368 201.494 124.373C201.531 124.391 201.568 124.408 201.606 124.425L201.63 124.436C201.683 124.459 201.738 124.481 201.792 124.502C201.833 124.518 201.874 124.533 201.916 124.548L201.931 124.553C201.976 124.569 202.022 124.584 202.068 124.598C202.079 124.602 202.091 124.605 202.102 124.608C202.149 124.622 202.195 124.639 202.244 124.648C205.323 125.21 206.218 122.798 206.218 122.798C205.466 123.777 204.133 124.035 202.869 123.747C202.821 123.736 202.775 123.722 202.728 123.708C202.671 123.691 202.614 123.672 202.557 123.653L202.539 123.646C202.499 123.632 202.459 123.617 202.419 123.602L202.385 123.589C202.342 123.571 202.299 123.554 202.256 123.535C202.247 123.531 202.239 123.527 202.23 123.523C202.194 123.507 202.157 123.49 202.121 123.473L202.09 123.458C202.061 123.444 202.033 123.429 202.005 123.415C201.987 123.405 201.968 123.396 201.949 123.385C201.915 123.367 201.881 123.348 201.848 123.329C201.837 123.322 201.825 123.316 201.814 123.309C201.77 123.283 201.726 123.256 201.682 123.229C201.67 123.221 201.659 123.213 201.647 123.205C201.615 123.185 201.584 123.164 201.553 123.143C201.543 123.136 201.533 123.129 201.523 123.122C201.48 123.092 201.437 123.06 201.395 123.028C201.356 122.998 201.318 122.968 201.28 122.937C201.246 122.909 201.213 122.882 201.18 122.853L201.169 122.844C201.134 122.813 201.099 122.781 201.064 122.749C201.055 122.739 201.045 122.73 201.035 122.721C201.01 122.696 200.985 122.672 200.96 122.647C200.95 122.637 200.94 122.627 200.93 122.617C200.899 122.585 200.868 122.553 200.838 122.52L200.834 122.515C200.793 122.471 200.754 122.426 200.716 122.379C200.693 122.352 200.67 122.324 200.648 122.296C200.64 122.286 200.632 122.276 200.624 122.265C200.597 122.231 200.571 122.197 200.546 122.162C199.844 121.205 199.592 119.885 200.153 118.802" fill="#0868AC"/>
<path d="M201.633 118.661C201.172 119.324 201.197 120.211 201.556 120.911C201.616 121.029 201.684 121.143 201.76 121.251C201.829 121.35 201.905 121.468 201.997 121.547C202.03 121.584 202.065 121.62 202.1 121.655C202.109 121.664 202.118 121.673 202.128 121.682C202.162 121.715 202.197 121.748 202.233 121.78C202.235 121.781 202.236 121.782 202.237 121.783C202.238 121.784 202.238 121.784 202.238 121.784C202.278 121.819 202.32 121.853 202.362 121.886C202.371 121.893 202.38 121.901 202.39 121.908C202.432 121.94 202.475 121.972 202.519 122.002L202.522 122.005C202.542 122.019 202.562 122.031 202.581 122.044C202.591 122.05 202.6 122.057 202.609 122.062C202.641 122.083 202.672 122.102 202.705 122.121C202.709 122.124 202.714 122.126 202.718 122.129C202.746 122.145 202.774 122.161 202.803 122.176C202.813 122.182 202.823 122.186 202.833 122.192C202.852 122.202 202.872 122.212 202.892 122.222C202.895 122.224 202.898 122.225 202.901 122.226C202.941 122.246 202.982 122.266 203.024 122.284C203.033 122.288 203.042 122.291 203.051 122.295C203.085 122.309 203.119 122.323 203.152 122.336C203.198 122.353 203.243 122.369 203.288 122.384C203.303 122.389 203.316 122.393 203.331 122.398C203.375 122.411 203.418 122.429 203.465 122.436C205.842 122.83 206.391 121 206.391 121C205.896 121.712 204.938 122.052 203.916 121.787C203.87 121.775 203.826 121.762 203.781 121.748C203.767 121.744 203.754 121.739 203.74 121.735C203.709 121.725 203.677 121.714 203.646 121.702C203.632 121.697 203.618 121.692 203.604 121.687C203.57 121.674 203.536 121.66 203.502 121.646C203.493 121.642 203.484 121.638 203.475 121.634C203.433 121.616 203.392 121.597 203.351 121.577C203.33 121.566 203.309 121.556 203.289 121.545L203.253 121.526C203.226 121.512 203.2 121.497 203.174 121.482C203.168 121.478 203.162 121.475 203.155 121.471C203.123 121.453 203.092 121.433 203.06 121.413C203.05 121.407 203.041 121.4 203.031 121.394C203.011 121.381 202.99 121.367 202.97 121.353C202.926 121.323 202.883 121.292 202.841 121.259C202.831 121.251 202.822 121.244 202.812 121.236C202.365 120.883 202.01 120.4 201.841 119.852C201.664 119.285 201.702 118.647 202.009 118.13" fill="#0868AC"/>
<path d="M203.295 118.085C203.023 118.484 202.997 118.98 203.185 119.422C203.384 119.89 203.791 120.257 204.266 120.432C204.286 120.439 204.305 120.445 204.325 120.452C204.334 120.455 204.342 120.458 204.351 120.46C204.379 120.469 204.407 120.479 204.436 120.485C205.749 120.738 206.105 119.811 206.199 119.675C205.888 120.124 205.363 120.232 204.72 120.075C204.668 120.062 204.616 120.046 204.565 120.027C204.502 120.005 204.44 119.979 204.38 119.951C204.265 119.896 204.157 119.829 204.056 119.753C203.48 119.316 203.123 118.483 203.498 117.805M218.081 125.866L217.702 126.728H217.285L217.319 125.945L217.011 126.728H216.607L216.596 125.866L216.641 125.653H216.927L216.872 126.504L217.19 125.653H217.59L217.561 126.515L217.876 125.653H218.126L218.081 125.866ZM218.74 126.121C218.777 125.953 218.766 125.921 218.68 125.921H218.548L218.464 126.316L218.335 126.728H218.091L218.291 125.793L218.32 125.656H218.543L218.572 125.719C218.572 125.719 218.701 125.643 218.827 125.643C219.095 125.643 219.074 125.845 219.016 126.121H218.74ZM219.534 125.519C219.426 125.519 219.358 125.488 219.384 125.356C219.413 125.225 219.497 125.193 219.602 125.193C219.708 125.193 219.778 125.225 219.749 125.356C219.723 125.485 219.639 125.519 219.534 125.519H219.534ZM219.418 126.728H219.176L219.224 126.308L219.308 125.919L219.14 125.882L219.187 125.653H219.647L219.418 126.728H219.418ZM220.467 125.881L220.165 125.918L220.078 126.328C220.054 126.441 220.054 126.473 220.154 126.473H220.356L220.314 126.688C220.314 126.688 220.13 126.743 220.052 126.743C219.741 126.743 219.744 126.572 219.799 126.317L219.883 125.916L219.715 125.879L219.765 125.65H219.941L220.041 125.379H220.28L220.222 125.65H220.517L220.467 125.881ZM221.095 125.895C220.953 125.895 220.879 125.969 220.85 126.1L221.255 126.066C221.273 125.976 221.255 125.895 221.095 125.895ZM220.811 126.294C220.792 126.426 220.842 126.47 221.011 126.47H221.434L221.392 126.67C221.392 126.67 221.137 126.741 220.948 126.741C220.477 126.741 220.472 126.476 220.532 126.192C220.593 125.913 220.7 125.638 221.155 125.638C221.594 125.638 221.615 125.903 221.507 126.294H220.811H220.811ZM222.471 126.728H222.23L222.277 126.307L222.448 125.508L222.279 125.469L222.329 125.24H222.789L222.471 126.728ZM223.345 125.895C223.202 125.895 223.129 125.969 223.1 126.1L223.505 126.066C223.523 125.976 223.505 125.895 223.345 125.895ZM223.061 126.294C223.042 126.426 223.092 126.47 223.26 126.47H223.683L223.641 126.67C223.641 126.67 223.386 126.741 223.197 126.741C222.727 126.741 222.722 126.476 222.782 126.192C222.843 125.913 222.95 125.638 223.405 125.638C223.844 125.638 223.865 125.903 223.757 126.294H223.061ZM224.866 125.908C224.866 125.908 224.558 125.911 224.474 125.911C224.295 125.911 224.277 125.966 224.264 126.023L224.253 126.076L224.821 126.118C224.821 126.118 224.823 126.299 224.8 126.402C224.766 126.573 224.59 126.746 224.272 126.746C224.114 126.746 223.859 126.686 223.859 126.686L223.904 126.478H224.295C224.469 126.478 224.492 126.431 224.503 126.384L224.516 126.315L223.959 126.273C223.959 126.273 223.938 126.134 223.967 125.995C224.009 125.805 224.182 125.643 224.5 125.643C224.658 125.643 224.913 125.7 224.913 125.7L224.866 125.908ZM225.922 125.908C225.922 125.908 225.615 125.911 225.531 125.911C225.352 125.911 225.334 125.966 225.32 126.023L225.31 126.076L225.877 126.118C225.877 126.118 225.88 126.299 225.856 126.402C225.822 126.573 225.646 126.746 225.328 126.746C225.171 126.746 224.916 126.686 224.916 126.686L224.96 126.478H225.352C225.525 126.478 225.549 126.431 225.56 126.384L225.573 126.315L225.015 126.273C225.015 126.273 224.995 126.134 225.023 125.995C225.066 125.805 225.239 125.643 225.557 125.643C225.714 125.643 225.969 125.7 225.969 125.7L225.922 125.908ZM226.253 126.899H226.043L226.051 126.741C225.974 126.736 225.935 126.681 225.953 126.589C225.982 126.457 226.064 126.426 226.171 126.426C226.277 126.426 226.347 126.457 226.319 126.589L226.253 126.899ZM227.659 125.919C227.501 125.919 227.446 126.013 227.409 126.187C227.372 126.36 227.383 126.463 227.54 126.463H227.758L227.879 125.919H227.659ZM228.019 126.589L227.99 126.728L227.769 126.725L227.737 126.657C227.737 126.657 227.543 126.741 227.412 126.741C227.075 126.741 227.059 126.465 227.12 126.187C227.18 125.903 227.312 125.635 227.645 125.635C227.766 125.635 227.929 125.695 227.929 125.695L228.063 125.241H228.305L228.019 126.589ZM228.888 125.908C228.684 125.908 228.618 126.023 228.581 126.192C228.547 126.363 228.563 126.478 228.765 126.478C228.975 126.478 229.038 126.365 229.075 126.192C229.112 126.029 229.101 125.908 228.888 125.908ZM228.71 126.744C228.276 126.744 228.242 126.473 228.3 126.192C228.36 125.911 228.513 125.643 228.946 125.643C229.377 125.643 229.417 125.911 229.356 126.192C229.296 126.478 229.143 126.744 228.71 126.744ZM231.17 126.728L231.217 126.312L231.241 126.194C231.275 126.037 231.296 125.921 231.13 125.921H231.001C231.007 126.003 230.991 126.094 230.97 126.192L230.857 126.728H230.613L230.66 126.312L230.683 126.194C230.718 126.037 230.739 125.921 230.573 125.921H230.468L230.295 126.728H230.013L230.242 125.653H230.463L230.497 125.719C230.497 125.719 230.647 125.64 230.768 125.64C230.86 125.64 230.928 125.682 230.952 125.734C231.004 125.705 231.154 125.64 231.262 125.64C231.598 125.64 231.587 125.913 231.527 126.192L231.414 126.728H231.17ZM232.286 125.908C232.081 125.908 232.016 126.023 231.979 126.192C231.945 126.363 231.961 126.478 232.163 126.478C232.373 126.478 232.436 126.365 232.473 126.192C232.51 126.029 232.499 125.908 232.286 125.908ZM232.108 126.744C231.674 126.744 231.64 126.473 231.698 126.192C231.758 125.911 231.911 125.643 232.344 125.643C232.775 125.643 232.815 125.911 232.754 126.192C232.694 126.478 232.541 126.744 232.108 126.744H232.108ZM233.484 126.121C233.521 125.953 233.511 125.921 233.424 125.921H233.293L233.208 126.316L233.08 126.728H232.835L233.035 125.793L233.064 125.656H233.287L233.316 125.719C233.316 125.719 233.445 125.643 233.571 125.643C233.839 125.643 233.818 125.845 233.76 126.121H233.484ZM234.426 125.895C234.284 125.895 234.21 125.969 234.181 126.1L234.586 126.066C234.604 125.976 234.586 125.895 234.426 125.895ZM234.142 126.294C234.123 126.426 234.173 126.47 234.341 126.47H234.764L234.722 126.67C234.722 126.67 234.468 126.741 234.278 126.741C233.808 126.741 233.803 126.476 233.863 126.192C233.924 125.913 234.031 125.638 234.486 125.638C234.925 125.638 234.946 125.903 234.838 126.294H234.142ZM235.074 126.744C234.964 126.744 234.896 126.712 234.924 126.584C234.951 126.452 235.032 126.42 235.143 126.42C235.245 126.42 235.316 126.452 235.29 126.584C235.261 126.71 235.177 126.744 235.074 126.744Z" fill="#0868AC"/>
<rect x="253.05" y="100.25" width="50.7" height="43.5" rx="5.75" fill="white"/>
<rect x="253.05" y="100.25" width="50.7" height="43.5" rx="5.75" stroke="#E1E1E1" stroke-width="0.5"/>
<path fill-rule="evenodd" clip-rule="evenodd" d="M269.659 121.552H268.831V123.154C268.831 123.583 269.115 123.576 269.659 123.553V124.204C268.548 124.335 268.111 124.028 268.111 123.162V121.559H267.497V120.862H268.111V119.965L268.831 119.75V120.862H269.659V121.552ZM272.818 120.854H273.539V124.197H272.818V123.714C272.565 124.066 272.166 124.281 271.645 124.281C270.733 124.281 269.981 123.514 269.981 122.525C269.981 121.529 270.74 120.77 271.645 120.77C272.166 120.77 272.565 120.984 272.818 121.329V120.854ZM271.76 123.599C272.366 123.599 272.818 123.154 272.818 122.525C272.818 121.904 272.366 121.452 271.76 121.452C271.162 121.452 270.702 121.897 270.702 122.525C270.702 123.154 271.162 123.599 271.76 123.599ZM274.742 120.356C274.489 120.356 274.282 120.141 274.282 119.896C274.282 119.643 274.489 119.436 274.742 119.436C274.995 119.436 275.202 119.643 275.202 119.896C275.21 120.141 274.995 120.356 274.742 120.356ZM274.382 124.197V120.854H275.103V124.197H274.382ZM275.938 124.197V119.313H276.659V124.197H275.938ZM281.351 120.854H282.11L281.06 124.197H280.354L279.657 121.943L278.951 124.197H278.246L277.196 120.854H277.955L278.606 123.162L279.312 120.854H280.002L280.699 123.162L281.351 120.854ZM283.015 120.356C282.762 120.356 282.555 120.141 282.555 119.896C282.555 119.643 282.762 119.436 283.015 119.436C283.268 119.436 283.475 119.643 283.475 119.896C283.475 120.141 283.268 120.356 283.015 120.356ZM282.647 124.197V120.854H283.367V124.197H282.647ZM285.966 120.77C286.718 120.77 287.254 121.276 287.254 122.15V124.204H286.534V122.219C286.534 121.713 286.242 121.444 285.782 121.444C285.307 121.444 284.931 121.728 284.931 122.41V124.204H284.211V120.862H284.931V121.291C285.154 120.938 285.514 120.77 285.966 120.77ZM290.674 119.52H291.394V124.204H290.674V123.721C290.421 124.074 290.022 124.289 289.501 124.289C288.588 124.289 287.837 123.522 287.837 122.533C287.837 121.536 288.596 120.777 289.501 120.777C290.022 120.777 290.421 120.992 290.674 121.337V119.52ZM289.623 123.599C290.229 123.599 290.681 123.154 290.681 122.525C290.681 121.904 290.229 121.452 289.623 121.452C289.025 121.452 288.565 121.897 288.565 122.525C288.565 123.154 289.018 123.599 289.623 123.599ZM293.817 124.289C292.805 124.289 292.054 123.522 292.054 122.533C292.054 121.536 292.813 120.777 293.817 120.777C294.476 120.777 295.044 121.115 295.312 121.644L294.691 122.004C294.545 121.69 294.216 121.49 293.817 121.49C293.227 121.49 292.782 121.935 292.782 122.541C292.782 123.146 293.227 123.591 293.817 123.591C294.216 123.591 294.545 123.384 294.706 123.077L295.327 123.43C295.044 123.944 294.476 124.289 293.817 124.289ZM296.516 121.782C296.516 122.387 298.317 122.019 298.317 123.261C298.317 123.928 297.735 124.289 297.014 124.289C296.347 124.289 295.864 123.99 295.649 123.507L296.27 123.146C296.378 123.445 296.646 123.629 297.014 123.629C297.336 123.629 297.581 123.522 297.581 123.254C297.581 122.656 295.78 122.993 295.78 121.797C295.78 121.168 296.324 120.777 297.006 120.777C297.558 120.777 298.011 121.03 298.241 121.475L297.635 121.812C297.512 121.552 297.282 121.429 297.006 121.429C296.746 121.421 296.516 121.536 296.516 121.782ZM299.598 121.782C299.598 122.387 301.399 122.019 301.399 123.261C301.399 123.928 300.817 124.289 300.096 124.289C299.429 124.289 298.946 123.99 298.731 123.507L299.352 123.146C299.46 123.445 299.728 123.629 300.096 123.629C300.418 123.629 300.663 123.522 300.663 123.254C300.663 122.656 298.862 122.993 298.862 121.797C298.862 121.168 299.406 120.777 300.088 120.777C300.64 120.777 301.093 121.03 301.323 121.475L300.717 121.812C300.594 121.552 300.364 121.429 300.088 121.429C299.828 121.421 299.598 121.536 299.598 121.782Z" fill="#111111"/>
<path fill-rule="evenodd" clip-rule="evenodd" d="M260.153 119.152C258.888 119.152 258.09 119.788 257.776 121.053C258.251 120.417 258.803 120.179 259.44 120.34C259.8 120.432 260.061 120.693 260.344 120.984C260.812 121.46 261.349 122.004 262.529 122.004C263.794 122.004 264.592 121.368 264.906 120.103C264.431 120.739 263.879 120.977 263.242 120.816C262.882 120.724 262.621 120.463 262.338 120.172C261.87 119.696 261.333 119.152 260.153 119.152ZM257.776 121.996C256.511 121.996 255.714 122.633 255.399 123.898C255.875 123.261 256.427 123.024 257.063 123.185C257.423 123.277 257.684 123.537 257.968 123.829C258.435 124.304 258.972 124.848 260.153 124.848C261.418 124.848 262.215 124.212 262.529 122.947C262.054 123.583 261.502 123.821 260.866 123.66C260.505 123.568 260.245 123.307 259.961 123.016C259.493 122.548 258.957 121.996 257.776 121.996Z" fill="#06B6D4"/>
<defs>
<radialGradient id="paint0_radial_287_7914" cx="0" cy="0" r="1" gradientUnits="userSpaceOnUse" gradientTransform="translate(153.606 64.5423) scale(21.0103 21.0103)">
<stop stop-color="#AEB2D5"/>
<stop offset="0.3" stop-color="#AEB2D5"/>
<stop offset="0.75" stop-color="#484C89"/>
<stop offset="1" stop-color="#484C89"/>
</radialGradient>
<linearGradient id="paint1_linear_287_7914" x1="39.6094" y1="116.077" x2="35.2065" y2="125.059" gradientUnits="userSpaceOnUse">
<stop offset="0.3" stop-color="#3E863D"/>
<stop offset="0.5" stop-color="#55934F"/>
<stop offset="0.8" stop-color="#5AAD45"/>
</linearGradient>
<linearGradient id="paint2_linear_287_7914" x1="33.4246" y1="123.584" x2="41.4443" y2="117.659" gradientUnits="userSpaceOnUse">
<stop offset="0.57" stop-color="#3E863D"/>
<stop offset="0.72" stop-color="#619857"/>
<stop offset="1" stop-color="#76AC64"/>
</linearGradient>
<linearGradient id="paint3_linear_287_7914" x1="34.1888" y1="120.566" x2="40.8199" y2="120.566" gradientUnits="userSpaceOnUse">
<stop offset="0.16" stop-color="#6BBF47"/>
<stop offset="0.38" stop-color="#79B461"/>
<stop offset="0.47" stop-color="#75AC64"/>
<stop offset="0.7" stop-color="#659E5A"/>
<stop offset="0.9" stop-color="#3E863D"/>
</linearGradient>
</defs>
</svg>
