<svg width="408" height="120" viewBox="0 0 408 120" fill="none" xmlns="http://www.w3.org/2000/svg">
<rect width="408" height="120" rx="12" fill="#F1F5FF"/>
<path d="M21.168 34H19.728V23.84H16.16V22.576H24.72V23.84H21.168V34ZM32.5816 29.696C32.5816 30.4107 32.4856 31.0453 32.2936 31.6C32.1123 32.144 31.8456 32.608 31.4936 32.992C31.1523 33.376 30.731 33.6693 30.2296 33.872C29.739 34.064 29.1896 34.16 28.5816 34.16C28.0163 34.16 27.4936 34.064 27.0136 33.872C26.5336 33.6693 26.1176 33.376 25.7656 32.992C25.4136 32.608 25.1363 32.144 24.9336 31.6C24.7416 31.0453 24.6456 30.4107 24.6456 29.696C24.6456 28.7467 24.8056 27.9467 25.1256 27.296C25.4456 26.6347 25.9043 26.1333 26.5016 25.792C27.099 25.44 27.8083 25.264 28.6296 25.264C29.4083 25.264 30.091 25.44 30.6776 25.792C31.275 26.1333 31.739 26.6347 32.0696 27.296C32.411 27.9467 32.5816 28.7467 32.5816 29.696ZM26.1016 29.696C26.1016 30.368 26.187 30.9547 26.3576 31.456C26.539 31.9467 26.8163 32.3253 27.1896 32.592C27.563 32.8587 28.0376 32.992 28.6136 32.992C29.1896 32.992 29.6643 32.8587 30.0376 32.592C30.411 32.3253 30.683 31.9467 30.8536 31.456C31.035 30.9547 31.1256 30.368 31.1256 29.696C31.1256 29.0133 31.035 28.432 30.8536 27.952C30.6723 27.472 30.395 27.104 30.0216 26.848C29.659 26.5813 29.1843 26.448 28.5976 26.448C27.723 26.448 27.0883 26.736 26.6936 27.312C26.299 27.888 26.1016 28.6827 26.1016 29.696ZM42.2691 29.696C42.2691 30.4107 42.1731 31.0453 41.9811 31.6C41.7998 32.144 41.5331 32.608 41.1811 32.992C40.8398 33.376 40.4185 33.6693 39.9171 33.872C39.4265 34.064 38.8771 34.16 38.2691 34.16C37.7038 34.16 37.1811 34.064 36.7011 33.872C36.2211 33.6693 35.8051 33.376 35.4531 32.992C35.1011 32.608 34.8238 32.144 34.6211 31.6C34.4291 31.0453 34.3331 30.4107 34.3331 29.696C34.3331 28.7467 34.4931 27.9467 34.8131 27.296C35.1331 26.6347 35.5918 26.1333 36.1891 25.792C36.7865 25.44 37.4958 25.264 38.3171 25.264C39.0958 25.264 39.7785 25.44 40.3651 25.792C40.9625 26.1333 41.4265 26.6347 41.7571 27.296C42.0985 27.9467 42.2691 28.7467 42.2691 29.696ZM35.7891 29.696C35.7891 30.368 35.8745 30.9547 36.0451 31.456C36.2265 31.9467 36.5038 32.3253 36.8771 32.592C37.2505 32.8587 37.7251 32.992 38.3011 32.992C38.8771 32.992 39.3518 32.8587 39.7251 32.592C40.0985 32.3253 40.3705 31.9467 40.5411 31.456C40.7225 30.9547 40.8131 30.368 40.8131 29.696C40.8131 29.0133 40.7225 28.432 40.5411 27.952C40.3598 27.472 40.0825 27.104 39.7091 26.848C39.3465 26.5813 38.8718 26.448 38.2851 26.448C37.4105 26.448 36.7758 26.736 36.3811 27.312C35.9865 27.888 35.7891 28.6827 35.7891 29.696ZM45.9086 34H44.5006V21.84H45.9086V34ZM54.2096 31.632C54.2096 32.1867 54.071 32.6507 53.7936 33.024C53.5163 33.3973 53.1216 33.68 52.6096 33.872C52.0976 34.064 51.4896 34.16 50.7856 34.16C50.1883 34.16 49.671 34.112 49.2336 34.016C48.807 33.92 48.4283 33.7867 48.0976 33.616V32.336C48.439 32.5067 48.8496 32.6667 49.3296 32.816C49.8203 32.9547 50.3163 33.024 50.8176 33.024C51.5323 33.024 52.0496 32.912 52.3696 32.688C52.6896 32.4533 52.8496 32.144 52.8496 31.76C52.8496 31.5467 52.791 31.3547 52.6736 31.184C52.5563 31.0133 52.343 30.8427 52.0336 30.672C51.735 30.5013 51.303 30.3093 50.7376 30.096C50.183 29.8827 49.7083 29.6693 49.3136 29.456C48.919 29.2427 48.615 28.9867 48.4016 28.688C48.1883 28.3893 48.0816 28.0053 48.0816 27.536C48.0816 26.8107 48.375 26.2507 48.9616 25.856C49.559 25.4613 50.3376 25.264 51.2976 25.264C51.8203 25.264 52.3056 25.3173 52.7536 25.424C53.2123 25.52 53.639 25.6587 54.0336 25.84L53.5536 26.96C53.319 26.8533 53.0683 26.7627 52.8016 26.688C52.5456 26.6027 52.2843 26.5387 52.0176 26.496C51.751 26.4427 51.479 26.416 51.2016 26.416C50.6256 26.416 50.183 26.512 49.8736 26.704C49.575 26.8853 49.4256 27.136 49.4256 27.456C49.4256 27.6907 49.495 27.8933 49.6336 28.064C49.7723 28.224 50.0016 28.384 50.3216 28.544C50.6523 28.6933 51.0896 28.8747 51.6336 29.088C52.1776 29.2907 52.6416 29.4987 53.0256 29.712C53.4096 29.9253 53.703 30.1867 53.9056 30.496C54.1083 30.7947 54.2096 31.1733 54.2096 31.632ZM59.0941 25.424H60.5981L62.4541 30.304C62.5608 30.592 62.6568 30.8693 62.7421 31.136C62.8381 31.4027 62.9235 31.664 62.9981 31.92C63.0728 32.1653 63.1315 32.4053 63.1741 32.64H63.2381C63.3021 32.3733 63.4035 32.0267 63.5421 31.6C63.6808 31.1627 63.8248 30.7253 63.9741 30.288L65.7181 25.424H67.2381L63.5421 35.184C63.3395 35.7173 63.0995 36.1813 62.8221 36.576C62.5555 36.9813 62.2248 37.2907 61.8301 37.504C61.4461 37.728 60.9768 37.84 60.4221 37.84C60.1661 37.84 59.9421 37.824 59.7501 37.792C59.5581 37.7707 59.3928 37.744 59.2541 37.712V36.592C59.3715 36.6133 59.5101 36.6347 59.6701 36.656C59.8408 36.6773 60.0168 36.688 60.1981 36.688C60.5288 36.688 60.8115 36.624 61.0461 36.496C61.2915 36.3787 61.4995 36.2027 61.6701 35.968C61.8408 35.744 61.9848 35.4773 62.1021 35.168L62.5501 34.032L59.0941 25.424ZM71.8424 25.28C72.8877 25.28 73.661 25.5093 74.1624 25.968C74.6637 26.4267 74.9144 27.1573 74.9144 28.16V34H73.8904L73.6184 32.784H73.5544C73.309 33.0933 73.053 33.3547 72.7864 33.568C72.5304 33.7707 72.2317 33.92 71.8904 34.016C71.5597 34.112 71.1544 34.16 70.6744 34.16C70.1624 34.16 69.6984 34.0693 69.2824 33.888C68.877 33.7067 68.557 33.4293 68.3224 33.056C68.0877 32.672 67.9704 32.192 67.9704 31.616C67.9704 30.7627 68.3064 30.1067 68.9784 29.648C69.6504 29.1787 70.685 28.9227 72.0824 28.88L73.5384 28.832V28.32C73.5384 27.6053 73.3837 27.1093 73.0744 26.832C72.765 26.5547 72.3277 26.416 71.7624 26.416C71.3144 26.416 70.8877 26.4853 70.4824 26.624C70.077 26.752 69.6984 26.9013 69.3464 27.072L68.9144 26.016C69.2877 25.8133 69.7304 25.6427 70.2424 25.504C70.7544 25.3547 71.2877 25.28 71.8424 25.28ZM72.2584 29.856C71.1917 29.8987 70.4504 30.0693 70.0344 30.368C69.629 30.6667 69.4264 31.088 69.4264 31.632C69.4264 32.112 69.5704 32.464 69.8584 32.688C70.157 32.912 70.5357 33.024 70.9944 33.024C71.7197 33.024 72.3224 32.8267 72.8024 32.432C73.2824 32.0267 73.5224 31.408 73.5224 30.576V29.808L72.2584 29.856ZM81.6911 25.264C82.7151 25.264 83.4885 25.5147 84.0111 26.016C84.5338 26.5067 84.7951 27.3067 84.7951 28.416V34H83.4031V28.512C83.4031 27.8187 83.2485 27.3013 82.9391 26.96C82.6298 26.6187 82.1445 26.448 81.4831 26.448C80.5338 26.448 79.8778 26.7147 79.5151 27.248C79.1525 27.7813 78.9711 28.5493 78.9711 29.552V34H77.5631V25.424H78.6991L78.9071 26.592H78.9871C79.1791 26.2933 79.4138 26.048 79.6911 25.856C79.9791 25.6533 80.2938 25.504 80.6351 25.408C80.9765 25.312 81.3285 25.264 81.6911 25.264ZM90.4938 25.264C91.0591 25.264 91.5658 25.3707 92.0138 25.584C92.4724 25.7973 92.8618 26.1227 93.1818 26.56H93.2618L93.4538 25.424H94.5738V34.144C94.5738 34.9547 94.4351 35.632 94.1578 36.176C93.8804 36.7307 93.4591 37.1467 92.8938 37.424C92.3284 37.7013 91.6084 37.84 90.7338 37.84C90.1151 37.84 89.5444 37.792 89.0218 37.696C88.5098 37.6107 88.0511 37.4773 87.6458 37.296V36C87.9231 36.1387 88.2271 36.256 88.5578 36.352C88.8884 36.4587 89.2458 36.5387 89.6298 36.592C90.0138 36.6453 90.4084 36.672 90.8138 36.672C91.5498 36.672 92.1258 36.4533 92.5418 36.016C92.9684 35.5893 93.1818 35.0027 93.1818 34.256V33.92C93.1818 33.792 93.1871 33.6107 93.1978 33.376C93.2084 33.1307 93.2191 32.96 93.2298 32.864H93.1658C92.8671 33.3013 92.4938 33.6267 92.0458 33.84C91.6084 34.0533 91.0964 34.16 90.5098 34.16C89.4004 34.16 88.5311 33.7707 87.9018 32.992C87.2831 32.2133 86.9738 31.1253 86.9738 29.728C86.9738 28.8107 87.1124 28.0213 87.3898 27.36C87.6778 26.688 88.0831 26.1707 88.6058 25.808C89.1284 25.4453 89.7578 25.264 90.4938 25.264ZM90.6858 26.448C90.2058 26.448 89.7951 26.576 89.4538 26.832C89.1231 27.088 88.8671 27.4613 88.6858 27.952C88.5151 28.4427 88.4298 29.04 88.4298 29.744C88.4298 30.8 88.6218 31.6107 89.0058 32.176C89.4004 32.7307 89.9711 33.008 90.7178 33.008C91.1551 33.008 91.5284 32.9547 91.8378 32.848C92.1471 32.7307 92.4031 32.5547 92.6058 32.32C92.8084 32.0747 92.9578 31.7653 93.0538 31.392C93.1498 31.0187 93.1978 30.576 93.1978 30.064V29.728C93.1978 28.9493 93.1071 28.32 92.9258 27.84C92.7551 27.36 92.4831 27.008 92.1098 26.784C91.7364 26.56 91.2618 26.448 90.6858 26.448ZM109.998 34H108.302L104.254 28.544L103.086 29.568V34H101.646V22.576H103.086V28.208C103.406 27.8453 103.731 27.4827 104.062 27.12C104.392 26.7573 104.723 26.3947 105.054 26.032L108.142 22.576H109.822L105.294 27.552L109.998 34ZM114.608 25.28C115.653 25.28 116.427 25.5093 116.928 25.968C117.429 26.4267 117.68 27.1573 117.68 28.16V34H116.656L116.384 32.784H116.32C116.075 33.0933 115.819 33.3547 115.552 33.568C115.296 33.7707 114.997 33.92 114.656 34.016C114.325 34.112 113.92 34.16 113.44 34.16C112.928 34.16 112.464 34.0693 112.048 33.888C111.643 33.7067 111.323 33.4293 111.088 33.056C110.853 32.672 110.736 32.192 110.736 31.616C110.736 30.7627 111.072 30.1067 111.744 29.648C112.416 29.1787 113.451 28.9227 114.848 28.88L116.304 28.832V28.32C116.304 27.6053 116.149 27.1093 115.84 26.832C115.531 26.5547 115.093 26.416 114.528 26.416C114.08 26.416 113.653 26.4853 113.248 26.624C112.843 26.752 112.464 26.9013 112.112 27.072L111.68 26.016C112.053 25.8133 112.496 25.6427 113.008 25.504C113.52 25.3547 114.053 25.28 114.608 25.28ZM115.024 29.856C113.957 29.8987 113.216 30.0693 112.8 30.368C112.395 30.6667 112.192 31.088 112.192 31.632C112.192 32.112 112.336 32.464 112.624 32.688C112.923 32.912 113.301 33.024 113.76 33.024C114.485 33.024 115.088 32.8267 115.568 32.432C116.048 32.0267 116.288 31.408 116.288 30.576V29.808L115.024 29.856ZM129.737 25.264C130.707 25.264 131.433 25.5147 131.913 26.016C132.393 26.5067 132.633 27.3067 132.633 28.416V34H131.241V28.48C131.241 27.808 131.097 27.3013 130.809 26.96C130.531 26.6187 130.094 26.448 129.497 26.448C128.665 26.448 128.067 26.688 127.705 27.168C127.353 27.648 127.177 28.3467 127.177 29.264V34H125.785V28.48C125.785 28.032 125.721 27.6587 125.593 27.36C125.465 27.0507 125.273 26.8213 125.017 26.672C124.761 26.5227 124.43 26.448 124.025 26.448C123.449 26.448 122.995 26.5707 122.665 26.816C122.334 27.0507 122.094 27.3973 121.945 27.856C121.806 28.3147 121.737 28.88 121.737 29.552V34H120.329V25.424H121.465L121.673 26.592H121.753C121.934 26.2933 122.153 26.048 122.409 25.856C122.675 25.6533 122.969 25.504 123.289 25.408C123.609 25.312 123.939 25.264 124.281 25.264C124.942 25.264 125.491 25.3813 125.929 25.616C126.377 25.8507 126.702 26.2133 126.905 26.704H126.985C127.273 26.2133 127.662 25.8507 128.153 25.616C128.654 25.3813 129.182 25.264 129.737 25.264ZM136.69 25.424V34H135.282V25.424H136.69ZM136.002 22.208C136.215 22.208 136.402 22.2827 136.562 22.432C136.733 22.5707 136.818 22.7947 136.818 23.104C136.818 23.4027 136.733 23.6267 136.562 23.776C136.402 23.9253 136.215 24 136.002 24C135.767 24 135.57 23.9253 135.41 23.776C135.25 23.6267 135.17 23.4027 135.17 23.104C135.17 22.7947 135.25 22.5707 135.41 22.432C135.57 22.2827 135.767 22.208 136.002 22.208ZM148.715 27.968H152.667V33.568C152.048 33.7707 151.424 33.92 150.795 34.016C150.166 34.112 149.451 34.16 148.651 34.16C147.467 34.16 146.47 33.9253 145.659 33.456C144.848 32.976 144.23 32.2987 143.803 31.424C143.387 30.5387 143.179 29.4933 143.179 28.288C143.179 27.0933 143.414 26.0587 143.883 25.184C144.352 24.3093 145.024 23.632 145.899 23.152C146.784 22.6613 147.851 22.416 149.099 22.416C149.739 22.416 150.342 22.4747 150.907 22.592C151.483 22.7093 152.016 22.8747 152.507 23.088L151.963 24.336C151.558 24.1547 151.099 24 150.587 23.872C150.086 23.744 149.563 23.68 149.019 23.68C148.112 23.68 147.334 23.8667 146.683 24.24C146.032 24.6133 145.536 25.1467 145.195 25.84C144.854 26.5227 144.683 27.3387 144.683 28.288C144.683 29.1947 144.827 30 145.115 30.704C145.414 31.3973 145.878 31.9413 146.507 32.336C147.136 32.72 147.963 32.912 148.987 32.912C149.328 32.912 149.627 32.9013 149.883 32.88C150.15 32.848 150.39 32.8107 150.603 32.768C150.827 32.7253 151.035 32.6827 151.227 32.64V29.248H148.715V27.968ZM162.372 25.424V34H161.22L161.012 32.864H160.948C160.766 33.1627 160.532 33.408 160.244 33.6C159.956 33.792 159.641 33.9307 159.3 34.016C158.958 34.112 158.601 34.16 158.228 34.16C157.545 34.16 156.969 34.0533 156.5 33.84C156.041 33.616 155.694 33.2747 155.46 32.816C155.225 32.3573 155.108 31.7653 155.108 31.04V25.424H156.532V30.944C156.532 31.6267 156.686 32.1387 156.996 32.48C157.305 32.8213 157.785 32.992 158.436 32.992C159.076 32.992 159.577 32.8747 159.94 32.64C160.313 32.3947 160.574 32.0427 160.724 31.584C160.884 31.1147 160.964 30.5493 160.964 29.888V25.424H162.372ZM169.222 25.264C170.246 25.264 171.02 25.5147 171.542 26.016C172.065 26.5067 172.326 27.3067 172.326 28.416V34H170.934V28.512C170.934 27.8187 170.78 27.3013 170.47 26.96C170.161 26.6187 169.676 26.448 169.014 26.448C168.065 26.448 167.409 26.7147 167.046 27.248C166.684 27.7813 166.502 28.5493 166.502 29.552V34H165.094V25.424H166.23L166.438 26.592H166.518C166.71 26.2933 166.945 26.048 167.222 25.856C167.51 25.6533 167.825 25.504 168.166 25.408C168.508 25.312 168.86 25.264 169.222 25.264ZM178.233 25.28C179.278 25.28 180.052 25.5093 180.553 25.968C181.054 26.4267 181.305 27.1573 181.305 28.16V34H180.281L180.009 32.784H179.945C179.7 33.0933 179.444 33.3547 179.177 33.568C178.921 33.7707 178.622 33.92 178.281 34.016C177.95 34.112 177.545 34.16 177.065 34.16C176.553 34.16 176.089 34.0693 175.673 33.888C175.268 33.7067 174.948 33.4293 174.713 33.056C174.478 32.672 174.361 32.192 174.361 31.616C174.361 30.7627 174.697 30.1067 175.369 29.648C176.041 29.1787 177.076 28.9227 178.473 28.88L179.929 28.832V28.32C179.929 27.6053 179.774 27.1093 179.465 26.832C179.156 26.5547 178.718 26.416 178.153 26.416C177.705 26.416 177.278 26.4853 176.873 26.624C176.468 26.752 176.089 26.9013 175.737 27.072L175.305 26.016C175.678 25.8133 176.121 25.6427 176.633 25.504C177.145 25.3547 177.678 25.28 178.233 25.28ZM178.649 29.856C177.582 29.8987 176.841 30.0693 176.425 30.368C176.02 30.6667 175.817 31.088 175.817 31.632C175.817 32.112 175.961 32.464 176.249 32.688C176.548 32.912 176.926 33.024 177.385 33.024C178.11 33.024 178.713 32.8267 179.193 32.432C179.673 32.0267 179.913 31.408 179.913 30.576V29.808L178.649 29.856ZM185.346 28.192C185.346 28.3627 185.335 28.5867 185.314 28.864C185.303 29.1413 185.292 29.3813 185.282 29.584H185.346C185.41 29.4987 185.506 29.376 185.634 29.216C185.762 29.056 185.89 28.896 186.018 28.736C186.156 28.5653 186.274 28.4267 186.37 28.32L189.106 25.424H190.754L187.282 29.088L190.994 34H189.298L186.322 30L185.346 30.848V34H183.954V21.84H185.346V28.192ZM195.749 25.28C196.794 25.28 197.567 25.5093 198.069 25.968C198.57 26.4267 198.821 27.1573 198.821 28.16V34H197.797L197.525 32.784H197.461C197.215 33.0933 196.959 33.3547 196.693 33.568C196.437 33.7707 196.138 33.92 195.797 34.016C195.466 34.112 195.061 34.16 194.581 34.16C194.069 34.16 193.605 34.0693 193.189 33.888C192.783 33.7067 192.463 33.4293 192.229 33.056C191.994 32.672 191.877 32.192 191.877 31.616C191.877 30.7627 192.213 30.1067 192.885 29.648C193.557 29.1787 194.591 28.9227 195.989 28.88L197.445 28.832V28.32C197.445 27.6053 197.29 27.1093 196.981 26.832C196.671 26.5547 196.234 26.416 195.669 26.416C195.221 26.416 194.794 26.4853 194.389 26.624C193.983 26.752 193.605 26.9013 193.253 27.072L192.821 26.016C193.194 25.8133 193.637 25.6427 194.149 25.504C194.661 25.3547 195.194 25.28 195.749 25.28ZM196.165 29.856C195.098 29.8987 194.357 30.0693 193.941 30.368C193.535 30.6667 193.333 31.088 193.333 31.632C193.333 32.112 193.477 32.464 193.765 32.688C194.063 32.912 194.442 33.024 194.901 33.024C195.626 33.024 196.229 32.8267 196.709 32.432C197.189 32.0267 197.429 31.408 197.429 30.576V29.808L196.165 29.856ZM205.597 25.264C206.621 25.264 207.395 25.5147 207.917 26.016C208.44 26.5067 208.701 27.3067 208.701 28.416V34H207.309V28.512C207.309 27.8187 207.155 27.3013 206.845 26.96C206.536 26.6187 206.051 26.448 205.389 26.448C204.44 26.448 203.784 26.7147 203.421 27.248C203.059 27.7813 202.877 28.5493 202.877 29.552V34H201.469V25.424H202.605L202.813 26.592H202.893C203.085 26.2933 203.32 26.048 203.597 25.856C203.885 25.6533 204.2 25.504 204.541 25.408C204.883 25.312 205.235 25.264 205.597 25.264Z" fill="#111111"/>
<rect x="16.25" y="48.25" width="55.5" height="55.5" rx="5.75" fill="#F1F5FF"/>
<rect x="16.25" y="48.25" width="55.5" height="55.5" rx="5.75" stroke="#E1E1E1" stroke-width="0.5"/>
<path d="M33.4018 60H54.5984C57.812 60 60.4103 62.5983 60.4103 65.812V86.188C60.4103 89.4017 57.812 92 54.5983 92H33.4018C30.1881 91.9999 27.5898 89.4017 27.5898 86.188V65.812C27.5898 62.5983 30.1881 60 33.4018 60Z" fill="#390000"/>
<path d="M43.4941 79.2H38.4069L37.3676 82.4136C37.3403 82.5367 37.2309 82.6187 37.1078 82.6051H34.5369C34.3864 82.6051 34.3454 82.523 34.3864 82.3589L38.7898 69.682C38.8308 69.5453 38.8719 69.3949 38.9265 69.2308C38.9812 68.9436 39.0086 68.6427 39.0086 68.3418C38.9949 68.2734 39.0496 68.2051 39.118 68.1914H42.6599C42.7693 68.1914 42.824 68.2324 42.8376 68.3008L47.8291 82.3862C47.8701 82.5367 47.8291 82.605 47.6923 82.605H44.8342C44.7385 82.6187 44.6427 82.5503 44.6154 82.4546L43.4941 79.2ZM39.2001 76.4239H42.6736L40.9231 70.7213L39.2001 76.4239Z" fill="#FF9A00"/>
<path d="M50.8102 70.5299C50.3589 70.5436 49.9213 70.3658 49.5931 70.0513C49.2786 69.7094 49.1145 69.2581 49.1282 68.7931C49.1145 68.3282 49.2923 67.8906 49.6205 67.576C49.9487 67.2615 50.3863 67.0974 50.8376 67.0974C51.3709 67.0974 51.7812 67.2615 52.082 67.576C52.3829 67.9042 52.547 68.3418 52.5333 68.7931C52.547 69.2581 52.3829 69.7093 52.0546 70.0513C51.7402 70.3795 51.2752 70.5572 50.8102 70.5299Z" fill="#FF9A00"/>
<path d="M49.2786 82.4V71.8701C49.2786 71.7333 49.3333 71.6786 49.4564 71.6786H52.1641C52.2871 71.6786 52.3418 71.747 52.3418 71.8701V82.4C52.3418 82.5504 52.2871 82.6187 52.1641 82.6187H49.4838C49.347 82.6187 49.2786 82.5367 49.2786 82.4Z" fill="#FF9A00"/>
<rect x="80.25" y="48.25" width="55.5" height="55.5" rx="5.75" fill="#F1F5FF"/>
<rect x="80.25" y="48.25" width="55.5" height="55.5" rx="5.75" stroke="#E1E1E1" stroke-width="0.5"/>
<path d="M97.4018 60H118.598C121.812 60 124.41 62.5983 124.41 65.812V86.188C124.41 89.4017 121.812 92 118.598 92H97.4018C94.1881 91.9999 91.5898 89.4017 91.5898 86.188V65.812C91.5898 62.5983 94.1881 60 97.4018 60Z" fill="#001834"/>
<path d="M98.9744 82.441V68.3692C98.9744 68.2735 99.0154 68.2188 99.1111 68.2188C99.3436 68.2188 99.5624 68.2188 99.877 68.2051C100.205 68.1915 100.547 68.1915 100.916 68.1777C101.285 68.164 101.682 68.1641 102.106 68.1504C102.53 68.1367 102.94 68.1367 103.35 68.1367C104.472 68.1367 105.402 68.2734 106.168 68.5606C106.851 68.7931 107.48 69.176 108 69.682C108.438 70.1196 108.78 70.6529 108.998 71.2409C109.203 71.8153 109.313 72.4033 109.313 73.0187C109.313 74.1948 109.039 75.1657 108.492 75.9315C107.945 76.6973 107.18 77.2717 106.291 77.5999C105.361 77.9418 104.335 78.0648 103.214 78.0648C102.885 78.0648 102.667 78.0648 102.53 78.0512C102.393 78.0375 102.202 78.0375 101.942 78.0375V82.4273C101.956 82.523 101.887 82.605 101.791 82.6187C101.778 82.6187 101.764 82.6187 101.737 82.6187H99.1385C99.0291 82.6187 98.9744 82.5641 98.9744 82.441ZM101.956 70.8581V75.453C102.147 75.4666 102.325 75.4804 102.489 75.4804H103.214C104.158 75.4804 105.249 75.2584 105.908 74.5095C106.475 73.8648 106.477 72.5865 106.017 71.8838C105.472 71.0497 104.381 70.808 103.446 70.8308C103.091 70.8308 102.776 70.8308 102.516 70.8445C102.243 70.8307 102.051 70.8444 101.956 70.8581Z" fill="#00A9FF"/>
<path d="M117.846 74.6187C117.436 74.4 116.998 74.2495 116.533 74.1538C116.027 74.0444 115.521 73.9761 115.002 73.9761C114.728 73.9624 114.441 74.0034 114.181 74.0718C114.003 74.1128 113.853 74.2085 113.757 74.3453C113.689 74.4547 113.648 74.5914 113.648 74.7145C113.648 74.8376 113.703 74.9607 113.785 75.0701C113.908 75.2205 114.072 75.3436 114.25 75.4393C114.564 75.6034 114.892 75.7539 115.221 75.8906C115.959 76.1368 116.67 76.4786 117.326 76.8889C117.778 77.1761 118.147 77.5589 118.407 78.0239C118.626 78.4616 118.735 78.9402 118.721 79.4325C118.735 80.0752 118.544 80.7179 118.188 81.2512C117.805 81.7982 117.272 82.2222 116.656 82.4683C115.986 82.7555 115.166 82.906 114.181 82.906C113.552 82.906 112.937 82.8513 112.321 82.7282C111.843 82.6462 111.364 82.4957 110.927 82.2906C110.831 82.2359 110.762 82.1401 110.776 82.0308V79.6513C110.776 79.6103 110.79 79.5556 110.831 79.5282C110.872 79.5009 110.913 79.5146 110.954 79.5419C111.487 79.8564 112.048 80.0752 112.65 80.2119C113.169 80.3487 113.716 80.4171 114.263 80.4171C114.783 80.4171 115.152 80.3487 115.398 80.2256C115.617 80.1299 115.768 79.8974 115.768 79.6512C115.768 79.4598 115.658 79.282 115.439 79.1043C115.221 78.9265 114.769 78.7214 114.099 78.4615C113.402 78.2153 112.759 77.8871 112.157 77.4769C111.733 77.1761 111.378 76.7795 111.118 76.3145C110.899 75.8769 110.79 75.3983 110.803 74.9196C110.803 74.3316 110.968 73.7709 111.268 73.265C111.61 72.718 112.116 72.2804 112.704 72.0068C113.347 71.6786 114.154 71.5282 115.125 71.5282C115.685 71.5282 116.26 71.5692 116.82 71.6513C117.231 71.7059 117.627 71.8154 117.997 71.9658C118.051 71.9795 118.106 72.0342 118.133 72.0889C118.147 72.1436 118.161 72.1983 118.161 72.253V74.482C118.161 74.5367 118.133 74.5914 118.092 74.6187C117.969 74.6461 117.901 74.6461 117.846 74.6187Z" fill="#00A9FF"/>
<rect x="144.25" y="48.25" width="55.5" height="55.5" rx="5.75" fill="#F1F5FF"/>
<rect x="144.25" y="48.25" width="55.5" height="55.5" rx="5.75" stroke="#E1E1E1" stroke-width="0.5"/>
<path d="M172 76C172 74.5855 172.562 73.229 173.562 72.2288C174.562 71.2286 175.919 70.6667 177.333 70.6667C178.747 70.6667 180.104 71.2286 181.104 72.2288C182.104 73.229 182.666 74.5855 182.666 76C182.666 77.4145 182.104 78.771 181.104 79.7712C180.104 80.7714 178.747 81.3333 177.333 81.3333C175.919 81.3333 174.562 80.7714 173.562 79.7712C172.562 78.771 172 77.4145 172 76Z" fill="#1ABCFE"/>
<path d="M161.333 86.6667C161.333 85.2522 161.895 83.8956 162.895 82.8954C163.895 81.8952 165.252 81.3333 166.666 81.3333H172V86.6667C172 88.0812 171.438 89.4377 170.438 90.4379C169.437 91.4381 168.081 92 166.666 92C165.252 92 163.895 91.4381 162.895 90.4379C161.895 89.4377 161.333 88.0812 161.333 86.6667Z" fill="#0ACF83"/>
<path d="M172 60V70.6667H177.333C178.747 70.6667 180.104 70.1048 181.104 69.1046C182.104 68.1044 182.666 66.7478 182.666 65.3333C182.666 63.9188 182.104 62.5623 181.104 61.5621C180.104 60.5619 178.747 60 177.333 60H172Z" fill="#FF7262"/>
<path d="M161.333 65.3333C161.333 66.7478 161.895 68.1044 162.895 69.1046C163.895 70.1048 165.252 70.6667 166.666 70.6667H172V60H166.666C165.252 60 163.895 60.5619 162.895 61.5621C161.895 62.5623 161.333 63.9188 161.333 65.3333Z" fill="#F24E1E"/>
<path d="M161.333 76C161.333 77.4145 161.895 78.771 162.895 79.7712C163.895 80.7714 165.252 81.3333 166.666 81.3333H172V70.6667H166.666C165.252 70.6667 163.895 71.2286 162.895 72.2288C161.895 73.229 161.333 74.5855 161.333 76Z" fill="#A259FF"/>
<rect x="208.25" y="48.25" width="55.5" height="55.5" rx="5.75" fill="#F1F5FF"/>
<rect x="208.25" y="48.25" width="55.5" height="55.5" rx="5.75" stroke="#E1E1E1" stroke-width="0.5"/>
<path d="M238.909 60.0002H226.545C225.345 60.0002 224.363 60.9821 224.363 62.1822V89.8184C224.363 91.0181 225.345 92 226.545 92H245.454C246.654 92 247.636 91.0181 247.636 89.8184V68.7274L242.545 65.091L238.909 60.0002Z" fill="#F4B400"/>
<path d="M240.727 74.5455H231.272C230.672 74.5455 230.181 75.0366 230.181 75.6365V85.091C230.181 85.6913 230.672 86.182 231.272 86.182H240.727C241.327 86.182 241.818 85.6913 241.818 85.091V75.6365C241.818 75.0366 241.327 74.5455 240.727 74.5455ZM240.363 82.9094H231.636V77.8186H240.363V82.9094Z" fill="#F1F1F1"/>
<path d="M239.547 68.0892L247.636 76.1763L247.636 68.7274L239.547 68.0892Z" fill="url(#paint0_linear_287_7735)"/>
<path d="M238.909 60V66.5457C238.909 67.7513 239.885 68.7273 241.091 68.7273H247.636L238.909 60Z" fill="#FADA80"/>
<path d="M238.909 60.0002L238.909 60.1821L247.454 68.7274H247.636L238.909 60.0002Z" fill="white" fill-opacity="0.1"/>
<path d="M226.545 60.0002C225.345 60.0002 224.363 60.9821 224.363 62.1822V62.3637C224.363 61.164 225.345 60.1821 226.545 60.1821H238.909L238.909 60.0002H226.545Z" fill="white" fill-opacity="0.2"/>
<path d="M245.454 91.8185H226.545C225.345 91.8185 224.363 90.8367 224.363 89.6365V89.8184C224.363 91.0181 225.345 92 226.545 92H245.454C246.654 92 247.636 91.0181 247.636 89.8184V89.6365C247.636 90.8367 246.654 91.8185 245.454 91.8185Z" fill="#BF360C" fill-opacity="0.2"/>
<path d="M241.091 68.7274C239.885 68.7274 238.909 67.751 238.909 66.5459V66.7273C238.909 67.9329 239.885 68.9093 241.091 68.9093H247.636L247.636 68.7274L241.091 68.7274Z" fill="#BF360C" fill-opacity="0.1"/>
<path d="M238.909 60.0002H226.545C225.345 60.0002 224.363 60.9821 224.363 62.1822V89.8184C224.363 91.0181 225.345 92 226.545 92H245.454C246.654 92 247.636 91.0181 247.636 89.8184V68.7274L238.909 60.0002Z" fill="url(#paint1_radial_287_7735)"/>
<rect x="272.25" y="48.25" width="55.5" height="55.5" rx="5.75" fill="#F1F5FF"/>
<rect x="272.25" y="48.25" width="55.5" height="55.5" rx="5.75" stroke="#E1E1E1" stroke-width="0.5"/>
<path d="M303.349 77.4884L301.116 61.1163H300.949C292.831 61.14 286.256 67.7152 286.232 75.8333V76.0001L303.349 77.4884Z" fill="#ED6C47"/>
<path d="M301.283 61.1163H301.116V76.0001L308.558 78.9768L316 76.0001V75.8334C315.976 67.7152 309.401 61.14 301.283 61.1163Z" fill="#FF8F6B"/>
<path d="M316 76V76.1637C315.977 84.2837 309.4 90.8604 301.28 90.8837H300.952C292.832 90.8604 286.256 84.2837 286.232 76.1637V76H316Z" fill="#D35230"/>
<path opacity="0.1" d="M301.86 68.4317V84.3126C301.857 84.8645 301.522 85.3602 301.012 85.5703C300.849 85.639 300.675 85.6744 300.498 85.6745H289.745C289.537 85.4363 289.336 85.1833 289.15 84.9303C287.254 82.4011 286.23 79.3247 286.232 76.1638V75.8363C286.228 72.9852 287.061 70.1956 288.629 67.814C288.792 67.561 288.964 67.308 289.15 67.0698H300.498C301.248 67.0755 301.855 67.6819 301.86 68.4317Z" fill="black"/>
<path opacity="0.2" d="M301.116 69.1758V85.0568C301.116 85.2332 301.081 85.4078 301.012 85.5702C300.802 86.0805 300.306 86.4149 299.754 86.4186H290.422C290.187 86.1796 289.961 85.9313 289.745 85.6744C289.537 85.4363 289.336 85.1833 289.15 84.9302C287.254 82.401 286.23 79.3247 286.232 76.1637V75.8363C286.228 72.9852 287.061 70.1956 288.629 67.814H299.754C300.504 67.8196 301.111 68.426 301.116 69.1758Z" fill="black"/>
<path opacity="0.2" d="M301.116 69.1759V83.5685C301.11 84.3183 300.504 84.9247 299.754 84.9304H289.15C287.254 82.4011 286.23 79.3248 286.232 76.1639V75.8364C286.228 72.9853 287.061 70.1957 288.629 67.8141H299.754C300.504 67.8197 301.11 68.4262 301.116 69.1759Z" fill="black"/>
<path opacity="0.2" d="M300.372 69.1759V83.5685C300.366 84.3183 299.76 84.9247 299.01 84.9304H289.15C287.254 82.4011 286.23 79.3248 286.232 76.1639V75.8364C286.228 72.9853 287.061 70.1957 288.629 67.8141H299.01C299.76 67.8197 300.366 68.4262 300.372 69.1759Z" fill="black"/>
<path d="M285.364 67.814H299.008C299.761 67.814 300.372 68.4247 300.372 69.1781V82.822C300.372 83.5753 299.761 84.1861 299.008 84.1861H285.364C284.611 84.1861 284 83.5753 284 82.822V69.1781C284 68.4247 284.611 67.814 285.364 67.814Z" fill="url(#paint2_linear_287_7735)"/>
<path d="M292.335 71.4524C293.223 71.3924 294.104 71.6504 294.819 72.1802C295.114 72.4431 295.344 72.7695 295.494 73.1347C295.644 73.5 295.709 73.8945 295.684 74.2885C295.694 74.8434 295.546 75.3897 295.257 75.8639C294.966 76.33 294.545 76.7016 294.047 76.934C293.477 77.199 292.854 77.3299 292.226 77.3165H290.5V80.524H288.732V71.4524H292.335ZM290.498 75.9309H292.02C292.502 75.9663 292.98 75.8236 293.364 75.5298C293.521 75.3792 293.643 75.1962 293.722 74.9934C293.8 74.7906 293.833 74.5731 293.819 74.3562C293.819 73.3565 293.238 72.8566 292.076 72.8566H290.498V75.9309H290.498Z" fill="white"/>
<rect x="336.25" y="48.25" width="55.5" height="55.5" rx="5.75" fill="#F1F5FF"/>
<rect x="336.25" y="48.25" width="55.5" height="55.5" rx="5.75" stroke="#E1E1E1" stroke-width="0.5"/>
<mask id="mask0_287_7735" style="mask-type:luminance" maskUnits="userSpaceOnUse" x="348" y="70" width="32" height="12">
<path d="M379.72 77.8768C379.68 77.8768 379.6 77.9168 379.6 77.9968C379.281 78.9155 378.841 79.4749 378.481 79.4749C378.281 79.4749 378.202 79.2349 378.202 78.8755C378.202 77.9568 378.761 75.9993 379.041 75.1206C379.081 75.0006 379.081 74.9206 379.081 74.8412C379.081 74.6013 378.921 74.4419 378.601 74.4419C378.242 74.4419 377.803 74.6019 377.443 75.2806C377.323 74.6812 376.883 74.4019 376.324 74.4019C375.644 74.4019 375.006 74.8412 374.486 75.5206C373.967 76.2 373.328 76.4393 372.888 76.3193C373.208 75.4806 373.368 74.8812 373.368 74.4419C373.368 73.7225 373.008 73.2832 372.449 73.2832C371.57 73.2832 371.091 74.1219 371.091 75.0012C371.091 75.6806 371.41 76.3593 372.05 76.7193C371.49 77.9974 370.651 79.1562 370.371 79.1562C369.972 79.1562 369.852 77.1987 369.892 75.7606C369.892 74.9619 369.972 74.9219 369.972 74.6819C369.972 74.5219 369.892 74.4419 369.533 74.4419C368.694 74.4419 368.414 75.1612 368.374 76C368.374 76.3193 368.294 76.6393 368.214 76.9187C367.855 78.1968 367.135 79.1562 366.656 79.1562C366.416 79.1562 366.377 78.9162 366.377 78.6368C366.377 77.7181 366.896 76.5593 366.896 75.6006C366.896 74.8812 366.577 74.4419 365.977 74.4419C365.298 74.4419 364.339 75.2806 363.5 76.8387C363.78 75.64 363.9 74.4819 363.061 74.4819C362.861 74.4819 362.702 74.5219 362.542 74.6019C362.422 74.6419 362.342 74.7619 362.382 74.8812C362.462 76.1593 361.343 79.3955 360.304 79.3955C360.104 79.3955 360.025 79.1955 360.025 78.8762C360.025 77.9574 360.584 76.04 360.863 75.1212C360.903 75.0012 360.903 74.9212 360.903 74.8019C360.903 74.5619 360.744 74.4425 360.424 74.4425C360.065 74.4425 359.625 74.6025 359.265 75.2812C359.145 74.6819 358.706 74.4025 358.147 74.4025C357.188 74.4025 356.149 75.4012 355.71 76.6793C355.11 78.3974 353.832 80.0749 352.154 80.0749C350.636 80.0749 349.837 78.7968 349.837 76.7993C349.637 73.9631 351.755 71.6057 353.313 71.6057C354.072 71.6057 354.432 72.0851 354.432 72.8044C354.432 73.6831 353.952 74.1225 353.952 74.4425C353.952 74.5625 354.032 74.6425 354.192 74.6425C354.872 74.6425 355.67 73.8438 355.67 72.725C355.67 71.6063 354.792 70.8876 353.234 70.8876C350.637 70.8857 348 73.4825 348 76.8381C348 79.5149 349.318 81.1124 351.596 81.1124C353.154 81.1124 354.512 79.9136 355.231 78.4755C355.311 79.6343 355.83 80.273 356.669 80.273C357.389 80.273 357.987 79.8336 358.427 79.0743C358.587 79.873 359.066 80.233 359.625 80.233C360.305 80.233 360.864 79.7936 361.423 78.9943C361.423 79.6337 361.543 80.193 362.102 80.193C362.342 80.193 362.662 80.153 362.702 79.9136C363.261 77.5568 364.699 75.6394 365.098 75.6394C365.218 75.6394 365.258 75.7594 365.258 75.9187C365.258 76.5581 364.819 77.8762 364.819 78.7149C364.819 79.6337 365.218 80.233 366.018 80.233C366.897 80.233 367.815 79.1543 368.375 77.5562C368.575 79.0343 368.974 80.233 369.613 80.233C370.372 80.233 371.771 78.5949 372.61 76.8775C372.929 76.9175 373.448 76.9175 373.888 76.5581C373.688 77.0775 373.568 77.6368 373.568 78.1962C373.568 79.7943 374.327 80.2336 375.006 80.2336C375.726 80.2336 376.324 79.7943 376.764 79.0349C376.924 79.7143 377.283 80.1936 377.963 80.1936C379.041 80.1936 380 79.0749 380 78.1962C379.959 78.0368 379.839 77.8768 379.72 77.8768ZM357.308 79.3949C356.869 79.3949 356.709 78.9555 356.709 78.3162C356.709 77.1975 357.467 75.28 358.307 75.28C358.666 75.28 358.786 75.7194 358.786 76.2387C358.786 77.3574 358.067 79.3949 357.308 79.3949ZM372.249 75.9993C371.97 75.68 371.89 75.28 371.89 74.8806C371.89 74.4013 372.05 74.0419 372.249 74.0419C372.449 74.0419 372.528 74.2419 372.528 74.5213C372.529 74.9606 372.369 75.64 372.249 75.9993ZM375.645 79.3949C375.206 79.3949 375.046 78.8755 375.046 78.3162C375.046 77.2374 375.804 75.28 376.644 75.28C377.003 75.28 377.123 75.7194 377.123 76.2387C377.123 77.3574 376.404 79.3949 375.645 79.3949Z" fill="white"/>
</mask>
<g mask="url(#mask0_287_7735)">
<path d="M380.079 70.3263H347.88V81.6317H380.079V70.3263Z" fill="url(#paint3_linear_287_7735)"/>
</g>
<defs>
<linearGradient id="paint0_linear_287_7735" x1="236.001" y1="62.7477" x2="236.001" y2="92.0053" gradientUnits="userSpaceOnUse">
<stop stop-color="#BF360C" stop-opacity="0.2"/>
<stop offset="1" stop-color="#BF360C" stop-opacity="0.02"/>
</linearGradient>
<radialGradient id="paint1_radial_287_7735" cx="0" cy="0" r="1" gradientUnits="userSpaceOnUse" gradientTransform="translate(225.116 60.8831) scale(51.5996)">
<stop stop-color="white" stop-opacity="0.1"/>
<stop offset="1" stop-color="white" stop-opacity="0"/>
</radialGradient>
<linearGradient id="paint2_linear_287_7735" x1="286.844" y1="66.7481" x2="297.528" y2="85.2519" gradientUnits="userSpaceOnUse">
<stop stop-color="#CA4C28"/>
<stop offset="0.5" stop-color="#C5401E"/>
<stop offset="1" stop-color="#B62F14"/>
</linearGradient>
<linearGradient id="paint3_linear_287_7735" x1="354.776" y1="66.1741" x2="371.01" y2="83.4695" gradientUnits="userSpaceOnUse">
<stop stop-color="#00C4CC"/>
<stop offset="0.9122" stop-color="#7A28EB"/>
<stop offset="1" stop-color="#7A28EB"/>
</linearGradient>
</defs>
</svg>
