<svg width="160" height="148" viewBox="0 0 160 148" fill="none" xmlns="http://www.w3.org/2000/svg">
<rect width="160" height="148" rx="12" fill="#F1F5FF"/>
<path d="M21.168 34H19.728V23.84H16.16V22.576H24.72V23.84H21.168V34ZM32.5816 29.696C32.5816 30.4107 32.4856 31.0453 32.2936 31.6C32.1123 32.144 31.8456 32.608 31.4936 32.992C31.1523 33.376 30.731 33.6693 30.2296 33.872C29.739 34.064 29.1896 34.16 28.5816 34.16C28.0163 34.16 27.4936 34.064 27.0136 33.872C26.5336 33.6693 26.1176 33.376 25.7656 32.992C25.4136 32.608 25.1363 32.144 24.9336 31.6C24.7416 31.0453 24.6456 30.4107 24.6456 29.696C24.6456 28.7467 24.8056 27.9467 25.1256 27.296C25.4456 26.6347 25.9043 26.1333 26.5016 25.792C27.099 25.44 27.8083 25.264 28.6296 25.264C29.4083 25.264 30.091 25.44 30.6776 25.792C31.275 26.1333 31.739 26.6347 32.0696 27.296C32.411 27.9467 32.5816 28.7467 32.5816 29.696ZM26.1016 29.696C26.1016 30.368 26.187 30.9547 26.3576 31.456C26.539 31.9467 26.8163 32.3253 27.1896 32.592C27.563 32.8587 28.0376 32.992 28.6136 32.992C29.1896 32.992 29.6643 32.8587 30.0376 32.592C30.411 32.3253 30.683 31.9467 30.8536 31.456C31.035 30.9547 31.1256 30.368 31.1256 29.696C31.1256 29.0133 31.035 28.432 30.8536 27.952C30.6723 27.472 30.395 27.104 30.0216 26.848C29.659 26.5813 29.1843 26.448 28.5976 26.448C27.723 26.448 27.0883 26.736 26.6936 27.312C26.299 27.888 26.1016 28.6827 26.1016 29.696ZM42.2691 29.696C42.2691 30.4107 42.1731 31.0453 41.9811 31.6C41.7998 32.144 41.5331 32.608 41.1811 32.992C40.8398 33.376 40.4185 33.6693 39.9171 33.872C39.4265 34.064 38.8771 34.16 38.2691 34.16C37.7038 34.16 37.1811 34.064 36.7011 33.872C36.2211 33.6693 35.8051 33.376 35.4531 32.992C35.1011 32.608 34.8238 32.144 34.6211 31.6C34.4291 31.0453 34.3331 30.4107 34.3331 29.696C34.3331 28.7467 34.4931 27.9467 34.8131 27.296C35.1331 26.6347 35.5918 26.1333 36.1891 25.792C36.7865 25.44 37.4958 25.264 38.3171 25.264C39.0958 25.264 39.7785 25.44 40.3651 25.792C40.9625 26.1333 41.4265 26.6347 41.7571 27.296C42.0985 27.9467 42.2691 28.7467 42.2691 29.696ZM35.7891 29.696C35.7891 30.368 35.8745 30.9547 36.0451 31.456C36.2265 31.9467 36.5038 32.3253 36.8771 32.592C37.2505 32.8587 37.7251 32.992 38.3011 32.992C38.8771 32.992 39.3518 32.8587 39.7251 32.592C40.0985 32.3253 40.3705 31.9467 40.5411 31.456C40.7225 30.9547 40.8131 30.368 40.8131 29.696C40.8131 29.0133 40.7225 28.432 40.5411 27.952C40.3598 27.472 40.0825 27.104 39.7091 26.848C39.3465 26.5813 38.8718 26.448 38.2851 26.448C37.4105 26.448 36.7758 26.736 36.3811 27.312C35.9865 27.888 35.7891 28.6827 35.7891 29.696ZM45.9086 34H44.5006V21.84H45.9086V34ZM54.2096 31.632C54.2096 32.1867 54.071 32.6507 53.7936 33.024C53.5163 33.3973 53.1216 33.68 52.6096 33.872C52.0976 34.064 51.4896 34.16 50.7856 34.16C50.1883 34.16 49.671 34.112 49.2336 34.016C48.807 33.92 48.4283 33.7867 48.0976 33.616V32.336C48.439 32.5067 48.8496 32.6667 49.3296 32.816C49.8203 32.9547 50.3163 33.024 50.8176 33.024C51.5323 33.024 52.0496 32.912 52.3696 32.688C52.6896 32.4533 52.8496 32.144 52.8496 31.76C52.8496 31.5467 52.791 31.3547 52.6736 31.184C52.5563 31.0133 52.343 30.8427 52.0336 30.672C51.735 30.5013 51.303 30.3093 50.7376 30.096C50.183 29.8827 49.7083 29.6693 49.3136 29.456C48.919 29.2427 48.615 28.9867 48.4016 28.688C48.1883 28.3893 48.0816 28.0053 48.0816 27.536C48.0816 26.8107 48.375 26.2507 48.9616 25.856C49.559 25.4613 50.3376 25.264 51.2976 25.264C51.8203 25.264 52.3056 25.3173 52.7536 25.424C53.2123 25.52 53.639 25.6587 54.0336 25.84L53.5536 26.96C53.319 26.8533 53.0683 26.7627 52.8016 26.688C52.5456 26.6027 52.2843 26.5387 52.0176 26.496C51.751 26.4427 51.479 26.416 51.2016 26.416C50.6256 26.416 50.183 26.512 49.8736 26.704C49.575 26.8853 49.4256 27.136 49.4256 27.456C49.4256 27.6907 49.495 27.8933 49.6336 28.064C49.7723 28.224 50.0016 28.384 50.3216 28.544C50.6523 28.6933 51.0896 28.8747 51.6336 29.088C52.1776 29.2907 52.6416 29.4987 53.0256 29.712C53.4096 29.9253 53.703 30.1867 53.9056 30.496C54.1083 30.7947 54.2096 31.1733 54.2096 31.632ZM59.0941 25.424H60.5981L62.4541 30.304C62.5608 30.592 62.6568 30.8693 62.7421 31.136C62.8381 31.4027 62.9235 31.664 62.9981 31.92C63.0728 32.1653 63.1315 32.4053 63.1741 32.64H63.2381C63.3021 32.3733 63.4035 32.0267 63.5421 31.6C63.6808 31.1627 63.8248 30.7253 63.9741 30.288L65.7181 25.424H67.2381L63.5421 35.184C63.3395 35.7173 63.0995 36.1813 62.8221 36.576C62.5555 36.9813 62.2248 37.2907 61.8301 37.504C61.4461 37.728 60.9768 37.84 60.4221 37.84C60.1661 37.84 59.9421 37.824 59.7501 37.792C59.5581 37.7707 59.3928 37.744 59.2541 37.712V36.592C59.3715 36.6133 59.5101 36.6347 59.6701 36.656C59.8408 36.6773 60.0168 36.688 60.1981 36.688C60.5288 36.688 60.8115 36.624 61.0461 36.496C61.2915 36.3787 61.4995 36.2027 61.6701 35.968C61.8408 35.744 61.9848 35.4773 62.1021 35.168L62.5501 34.032L59.0941 25.424ZM71.8424 25.28C72.8877 25.28 73.661 25.5093 74.1624 25.968C74.6637 26.4267 74.9144 27.1573 74.9144 28.16V34H73.8904L73.6184 32.784H73.5544C73.309 33.0933 73.053 33.3547 72.7864 33.568C72.5304 33.7707 72.2317 33.92 71.8904 34.016C71.5597 34.112 71.1544 34.16 70.6744 34.16C70.1624 34.16 69.6984 34.0693 69.2824 33.888C68.877 33.7067 68.557 33.4293 68.3224 33.056C68.0877 32.672 67.9704 32.192 67.9704 31.616C67.9704 30.7627 68.3064 30.1067 68.9784 29.648C69.6504 29.1787 70.685 28.9227 72.0824 28.88L73.5384 28.832V28.32C73.5384 27.6053 73.3837 27.1093 73.0744 26.832C72.765 26.5547 72.3277 26.416 71.7624 26.416C71.3144 26.416 70.8877 26.4853 70.4824 26.624C70.077 26.752 69.6984 26.9013 69.3464 27.072L68.9144 26.016C69.2877 25.8133 69.7304 25.6427 70.2424 25.504C70.7544 25.3547 71.2877 25.28 71.8424 25.28ZM72.2584 29.856C71.1917 29.8987 70.4504 30.0693 70.0344 30.368C69.629 30.6667 69.4264 31.088 69.4264 31.632C69.4264 32.112 69.5704 32.464 69.8584 32.688C70.157 32.912 70.5357 33.024 70.9944 33.024C71.7197 33.024 72.3224 32.8267 72.8024 32.432C73.2824 32.0267 73.5224 31.408 73.5224 30.576V29.808L72.2584 29.856ZM81.6911 25.264C82.7151 25.264 83.4885 25.5147 84.0111 26.016C84.5338 26.5067 84.7951 27.3067 84.7951 28.416V34H83.4031V28.512C83.4031 27.8187 83.2485 27.3013 82.9391 26.96C82.6298 26.6187 82.1445 26.448 81.4831 26.448C80.5338 26.448 79.8778 26.7147 79.5151 27.248C79.1525 27.7813 78.9711 28.5493 78.9711 29.552V34H77.5631V25.424H78.6991L78.9071 26.592H78.9871C79.1791 26.2933 79.4138 26.048 79.6911 25.856C79.9791 25.6533 80.2938 25.504 80.6351 25.408C80.9765 25.312 81.3285 25.264 81.6911 25.264ZM90.4938 25.264C91.0591 25.264 91.5658 25.3707 92.0138 25.584C92.4724 25.7973 92.8618 26.1227 93.1818 26.56H93.2618L93.4538 25.424H94.5738V34.144C94.5738 34.9547 94.4351 35.632 94.1578 36.176C93.8804 36.7307 93.4591 37.1467 92.8938 37.424C92.3284 37.7013 91.6084 37.84 90.7338 37.84C90.1151 37.84 89.5444 37.792 89.0218 37.696C88.5098 37.6107 88.0511 37.4773 87.6458 37.296V36C87.9231 36.1387 88.2271 36.256 88.5578 36.352C88.8884 36.4587 89.2458 36.5387 89.6298 36.592C90.0138 36.6453 90.4084 36.672 90.8138 36.672C91.5498 36.672 92.1258 36.4533 92.5418 36.016C92.9684 35.5893 93.1818 35.0027 93.1818 34.256V33.92C93.1818 33.792 93.1871 33.6107 93.1978 33.376C93.2084 33.1307 93.2191 32.96 93.2298 32.864H93.1658C92.8671 33.3013 92.4938 33.6267 92.0458 33.84C91.6084 34.0533 91.0964 34.16 90.5098 34.16C89.4004 34.16 88.5311 33.7707 87.9018 32.992C87.2831 32.2133 86.9738 31.1253 86.9738 29.728C86.9738 28.8107 87.1124 28.0213 87.3898 27.36C87.6778 26.688 88.0831 26.1707 88.6058 25.808C89.1284 25.4453 89.7578 25.264 90.4938 25.264ZM90.6858 26.448C90.2058 26.448 89.7951 26.576 89.4538 26.832C89.1231 27.088 88.8671 27.4613 88.6858 27.952C88.5151 28.4427 88.4298 29.04 88.4298 29.744C88.4298 30.8 88.6218 31.6107 89.0058 32.176C89.4004 32.7307 89.9711 33.008 90.7178 33.008C91.1551 33.008 91.5284 32.9547 91.8378 32.848C92.1471 32.7307 92.4031 32.5547 92.6058 32.32C92.8084 32.0747 92.9578 31.7653 93.0538 31.392C93.1498 31.0187 93.1978 30.576 93.1978 30.064V29.728C93.1978 28.9493 93.1071 28.32 92.9258 27.84C92.7551 27.36 92.4831 27.008 92.1098 26.784C91.7364 26.56 91.2618 26.448 90.6858 26.448ZM109.998 34H108.302L104.254 28.544L103.086 29.568V34H101.646V22.576H103.086V28.208C103.406 27.8453 103.731 27.4827 104.062 27.12C104.392 26.7573 104.723 26.3947 105.054 26.032L108.142 22.576H109.822L105.294 27.552L109.998 34ZM114.608 25.28C115.653 25.28 116.427 25.5093 116.928 25.968C117.429 26.4267 117.68 27.1573 117.68 28.16V34H116.656L116.384 32.784H116.32C116.075 33.0933 115.819 33.3547 115.552 33.568C115.296 33.7707 114.997 33.92 114.656 34.016C114.325 34.112 113.92 34.16 113.44 34.16C112.928 34.16 112.464 34.0693 112.048 33.888C111.643 33.7067 111.323 33.4293 111.088 33.056C110.853 32.672 110.736 32.192 110.736 31.616C110.736 30.7627 111.072 30.1067 111.744 29.648C112.416 29.1787 113.451 28.9227 114.848 28.88L116.304 28.832V28.32C116.304 27.6053 116.149 27.1093 115.84 26.832C115.531 26.5547 115.093 26.416 114.528 26.416C114.08 26.416 113.653 26.4853 113.248 26.624C112.843 26.752 112.464 26.9013 112.112 27.072L111.68 26.016C112.053 25.8133 112.496 25.6427 113.008 25.504C113.52 25.3547 114.053 25.28 114.608 25.28ZM115.024 29.856C113.957 29.8987 113.216 30.0693 112.8 30.368C112.395 30.6667 112.192 31.088 112.192 31.632C112.192 32.112 112.336 32.464 112.624 32.688C112.923 32.912 113.301 33.024 113.76 33.024C114.485 33.024 115.088 32.8267 115.568 32.432C116.048 32.0267 116.288 31.408 116.288 30.576V29.808L115.024 29.856ZM129.737 25.264C130.707 25.264 131.433 25.5147 131.913 26.016C132.393 26.5067 132.633 27.3067 132.633 28.416V34H131.241V28.48C131.241 27.808 131.097 27.3013 130.809 26.96C130.531 26.6187 130.094 26.448 129.497 26.448C128.665 26.448 128.067 26.688 127.705 27.168C127.353 27.648 127.177 28.3467 127.177 29.264V34H125.785V28.48C125.785 28.032 125.721 27.6587 125.593 27.36C125.465 27.0507 125.273 26.8213 125.017 26.672C124.761 26.5227 124.43 26.448 124.025 26.448C123.449 26.448 122.995 26.5707 122.665 26.816C122.334 27.0507 122.094 27.3973 121.945 27.856C121.806 28.3147 121.737 28.88 121.737 29.552V34H120.329V25.424H121.465L121.673 26.592H121.753C121.934 26.2933 122.153 26.048 122.409 25.856C122.675 25.6533 122.969 25.504 123.289 25.408C123.609 25.312 123.939 25.264 124.281 25.264C124.942 25.264 125.491 25.3813 125.929 25.616C126.377 25.8507 126.702 26.2133 126.905 26.704H126.985C127.273 26.2133 127.662 25.8507 128.153 25.616C128.654 25.3813 129.182 25.264 129.737 25.264ZM136.69 25.424V34H135.282V25.424H136.69ZM136.002 22.208C136.215 22.208 136.402 22.2827 136.562 22.432C136.733 22.5707 136.818 22.7947 136.818 23.104C136.818 23.4027 136.733 23.6267 136.562 23.776C136.402 23.9253 136.215 24 136.002 24C135.767 24 135.57 23.9253 135.41 23.776C135.25 23.6267 135.17 23.4027 135.17 23.104C135.17 22.7947 135.25 22.5707 135.41 22.432C135.57 22.2827 135.767 22.208 136.002 22.208ZM22.512 51.968H26.464V57.568C25.8453 57.7707 25.2213 57.92 24.592 58.016C23.9627 58.112 23.248 58.16 22.448 58.16C21.264 58.16 20.2667 57.9253 19.456 57.456C18.6453 56.976 18.0267 56.2987 17.6 55.424C17.184 54.5387 16.976 53.4933 16.976 52.288C16.976 51.0933 17.2107 50.0587 17.68 49.184C18.1493 48.3093 18.8213 47.632 19.696 47.152C20.5813 46.6613 21.648 46.416 22.896 46.416C23.536 46.416 24.1387 46.4747 24.704 46.592C25.28 46.7093 25.8133 46.8747 26.304 47.088L25.76 48.336C25.3547 48.1547 24.896 48 24.384 47.872C23.8827 47.744 23.36 47.68 22.816 47.68C21.9093 47.68 21.1307 47.8667 20.48 48.24C19.8293 48.6133 19.3333 49.1467 18.992 49.84C18.6507 50.5227 18.48 51.3387 18.48 52.288C18.48 53.1947 18.624 54 18.912 54.704C19.2107 55.3973 19.6747 55.9413 20.304 56.336C20.9333 56.72 21.76 56.912 22.784 56.912C23.1253 56.912 23.424 56.9013 23.68 56.88C23.9467 56.848 24.1867 56.8107 24.4 56.768C24.624 56.7253 24.832 56.6827 25.024 56.64V53.248H22.512V51.968ZM36.1686 49.424V58H35.0166L34.8086 56.864H34.7446C34.5633 57.1627 34.3286 57.408 34.0406 57.6C33.7526 57.792 33.438 57.9307 33.0966 58.016C32.7553 58.112 32.398 58.16 32.0246 58.16C31.342 58.16 30.766 58.0533 30.2966 57.84C29.838 57.616 29.4913 57.2747 29.2566 56.816C29.022 56.3573 28.9046 55.7653 28.9046 55.04V49.424H30.3286V54.944C30.3286 55.6267 30.4833 56.1387 30.7926 56.48C31.102 56.8213 31.582 56.992 32.2326 56.992C32.8726 56.992 33.374 56.8747 33.7366 56.64C34.11 56.3947 34.3713 56.0427 34.5206 55.584C34.6806 55.1147 34.7606 54.5493 34.7606 53.888V49.424H36.1686ZM43.0193 49.264C44.0433 49.264 44.8166 49.5147 45.3393 50.016C45.8619 50.5067 46.1233 51.3067 46.1233 52.416V58H44.7313V52.512C44.7313 51.8187 44.5766 51.3013 44.2673 50.96C43.9579 50.6187 43.4726 50.448 42.8113 50.448C41.8619 50.448 41.2059 50.7147 40.8433 51.248C40.4806 51.7813 40.2993 52.5493 40.2993 53.552V58H38.8913V49.424H40.0273L40.2353 50.592H40.3153C40.5073 50.2933 40.7419 50.048 41.0193 49.856C41.3073 49.6533 41.6219 49.504 41.9633 49.408C42.3046 49.312 42.6566 49.264 43.0193 49.264ZM52.0299 49.28C53.0752 49.28 53.8485 49.5093 54.3499 49.968C54.8512 50.4267 55.1019 51.1573 55.1019 52.16V58H54.0779L53.8059 56.784H53.7419C53.4965 57.0933 53.2405 57.3547 52.9739 57.568C52.7179 57.7707 52.4192 57.92 52.0779 58.016C51.7472 58.112 51.3419 58.16 50.8619 58.16C50.3499 58.16 49.8859 58.0693 49.4699 57.888C49.0645 57.7067 48.7445 57.4293 48.5099 57.056C48.2752 56.672 48.1579 56.192 48.1579 55.616C48.1579 54.7627 48.4939 54.1067 49.1659 53.648C49.8379 53.1787 50.8725 52.9227 52.2699 52.88L53.7259 52.832V52.32C53.7259 51.6053 53.5712 51.1093 53.2619 50.832C52.9525 50.5547 52.5152 50.416 51.9499 50.416C51.5019 50.416 51.0752 50.4853 50.6699 50.624C50.2645 50.752 49.8859 50.9013 49.5339 51.072L49.1019 50.016C49.4752 49.8133 49.9179 49.6427 50.4299 49.504C50.9419 49.3547 51.4752 49.28 52.0299 49.28ZM52.4459 53.856C51.3792 53.8987 50.6379 54.0693 50.2219 54.368C49.8165 54.6667 49.6139 55.088 49.6139 55.632C49.6139 56.112 49.7579 56.464 50.0459 56.688C50.3445 56.912 50.7232 57.024 51.1819 57.024C51.9072 57.024 52.5099 56.8267 52.9899 56.432C53.4699 56.0267 53.7099 55.408 53.7099 54.576V53.808L52.4459 53.856ZM59.1426 52.192C59.1426 52.3627 59.132 52.5867 59.1106 52.864C59.1 53.1413 59.0893 53.3813 59.0786 53.584H59.1426C59.2066 53.4987 59.3026 53.376 59.4306 53.216C59.5586 53.056 59.6866 52.896 59.8146 52.736C59.9533 52.5653 60.0706 52.4267 60.1666 52.32L62.9026 49.424H64.5506L61.0786 53.088L64.7906 58H63.0946L60.1186 54L59.1426 54.848V58H57.7506V45.84H59.1426V52.192ZM69.5455 49.28C70.5908 49.28 71.3642 49.5093 71.8655 49.968C72.3668 50.4267 72.6175 51.1573 72.6175 52.16V58H71.5935L71.3215 56.784H71.2575C71.0122 57.0933 70.7562 57.3547 70.4895 57.568C70.2335 57.7707 69.9348 57.92 69.5935 58.016C69.2628 58.112 68.8575 58.16 68.3775 58.16C67.8655 58.16 67.4015 58.0693 66.9855 57.888C66.5802 57.7067 66.2602 57.4293 66.0255 57.056C65.7908 56.672 65.6735 56.192 65.6735 55.616C65.6735 54.7627 66.0095 54.1067 66.6815 53.648C67.3535 53.1787 68.3882 52.9227 69.7855 52.88L71.2415 52.832V52.32C71.2415 51.6053 71.0868 51.1093 70.7775 50.832C70.4682 50.5547 70.0308 50.416 69.4655 50.416C69.0175 50.416 68.5908 50.4853 68.1855 50.624C67.7802 50.752 67.4015 50.9013 67.0495 51.072L66.6175 50.016C66.9908 49.8133 67.4335 49.6427 67.9455 49.504C68.4575 49.3547 68.9908 49.28 69.5455 49.28ZM69.9615 53.856C68.8948 53.8987 68.1535 54.0693 67.7375 54.368C67.3322 54.6667 67.1295 55.088 67.1295 55.632C67.1295 56.112 67.2735 56.464 67.5615 56.688C67.8602 56.912 68.2388 57.024 68.6975 57.024C69.4228 57.024 70.0255 56.8267 70.5055 56.432C70.9855 56.0267 71.2255 55.408 71.2255 54.576V53.808L69.9615 53.856ZM79.3943 49.264C80.4183 49.264 81.1916 49.5147 81.7143 50.016C82.2369 50.5067 82.4983 51.3067 82.4983 52.416V58H81.1063V52.512C81.1063 51.8187 80.9516 51.3013 80.6423 50.96C80.3329 50.6187 79.8476 50.448 79.1863 50.448C78.2369 50.448 77.5809 50.7147 77.2183 51.248C76.8556 51.7813 76.6743 52.5493 76.6743 53.552V58H75.2663V49.424H76.4023L76.6103 50.592H76.6903C76.8823 50.2933 77.1169 50.048 77.3943 49.856C77.6823 49.6533 77.9969 49.504 78.3383 49.408C78.6796 49.312 79.0316 49.264 79.3943 49.264Z" fill="#111111"/>
<rect x="16.25" y="72.25" width="59.5" height="59.5" rx="5.75" fill="#F1F5FF"/>
<rect x="16.25" y="72.25" width="59.5" height="59.5" rx="5.75" stroke="#E1E1E1" stroke-width="0.5"/>
<path d="M45.9997 102C45.9997 100.586 46.5616 99.229 47.5618 98.2288C48.562 97.2286 49.9185 96.6667 51.333 96.6667C52.7475 96.6667 54.104 97.2286 55.1042 98.2288C56.1044 99.229 56.6663 100.586 56.6663 102C56.6663 103.414 56.1044 104.771 55.1042 105.771C54.104 106.771 52.7475 107.333 51.333 107.333C49.9185 107.333 48.562 106.771 47.5618 105.771C46.5616 104.771 45.9997 103.414 45.9997 102Z" fill="#1ABCFE"/>
<path d="M35.333 112.667C35.333 111.252 35.8949 109.896 36.8951 108.895C37.8953 107.895 39.2519 107.333 40.6663 107.333H45.9997V112.667C45.9997 114.081 45.4378 115.438 44.4376 116.438C43.4374 117.438 42.0808 118 40.6663 118C39.2519 118 37.8953 117.438 36.8951 116.438C35.8949 115.438 35.333 114.081 35.333 112.667Z" fill="#0ACF83"/>
<path d="M45.9997 86V96.6667H51.333C52.7475 96.6667 54.104 96.1048 55.1042 95.1046C56.1044 94.1044 56.6663 92.7478 56.6663 91.3333C56.6663 89.9188 56.1044 88.5623 55.1042 87.5621C54.104 86.5619 52.7475 86 51.333 86H45.9997Z" fill="#FF7262"/>
<path d="M35.333 91.3333C35.333 92.7478 35.8949 94.1044 36.8951 95.1046C37.8953 96.1048 39.2519 96.6667 40.6663 96.6667H45.9997V86H40.6663C39.2519 86 37.8953 86.5619 36.8951 87.5621C35.8949 88.5623 35.333 89.9188 35.333 91.3333Z" fill="#F24E1E"/>
<path d="M35.333 102C35.333 103.414 35.8949 104.771 36.8951 105.771C37.8953 106.771 39.2519 107.333 40.6663 107.333H45.9997V96.6667H40.6663C39.2519 96.6667 37.8953 97.2286 36.8951 98.2288C35.8949 99.229 35.333 100.586 35.333 102Z" fill="#A259FF"/>
<rect x="84.25" y="72.25" width="59.5" height="59.5" rx="5.75" fill="#F1F5FF"/>
<rect x="84.25" y="72.25" width="59.5" height="59.5" rx="5.75" stroke="#E1E1E1" stroke-width="0.5"/>
<path fill-rule="evenodd" clip-rule="evenodd" d="M113.477 119.368L111.261 118.839V109.902L113.477 109.479V119.368ZM128.976 117.261C127.369 117.266 126.066 115.967 126.056 114.357V114.341C126.056 112.758 127.353 111.458 128.971 111.458C130.588 111.458 131.886 112.758 131.886 114.341C131.891 115.951 130.588 117.256 128.987 117.261H128.976ZM134 114.341C134 117.122 131.752 119.374 128.976 119.374C126.2 119.374 123.952 117.122 123.952 114.341C123.952 111.597 126.205 109.346 128.981 109.346C131.758 109.346 134 111.597 134 114.341ZM105.495 118.844L107.673 119.299V113.282C107.673 110.394 105.426 109.378 103.877 109.378C102.857 109.378 102.014 109.624 101.277 110.362C100.503 109.624 99.59 109.34 98.8532 109.34C97.764 109.34 96.851 109.795 96.2157 110.571V109.549L94 109.972V118.839L96.2157 119.293V113.213C96.2157 112.228 96.9204 111.56 98.0043 111.56C99.024 111.56 99.7608 112.228 99.7608 113.213V118.844L101.939 119.299V113.213C101.939 112.228 102.676 111.56 103.733 111.56C104.753 111.56 105.49 112.228 105.49 113.213L105.495 118.844ZM122.297 109.346L120.994 109.522C118.57 110.084 116.99 110.859 116.99 113.533V118.844L119.206 119.267V113.849C119.206 112.619 119.91 112.052 120.999 111.843L122.302 111.635L122.297 109.346ZM111.368 105.682C110.839 106.222 110.839 107.078 111.368 107.618C111.907 108.174 112.799 108.18 113.349 107.64L113.37 107.618C113.899 107.083 113.899 106.217 113.37 105.682C112.804 105.153 111.928 105.153 111.368 105.682Z" fill="#050038"/>
<path d="M106.99 84.6262H117.214C119.371 84.6262 121.122 86.3804 121.122 88.5411V98.783C121.122 100.944 119.371 102.698 117.214 102.698H106.99C104.833 102.698 103.082 100.944 103.082 98.783V88.5411C103.082 86.3804 104.833 84.6262 106.99 84.6262Z" fill="#FFD02F"/>
<path d="M115.618 86.8832H113.637L115.287 89.7873L111.656 86.8832H109.675L111.491 90.4344L107.695 86.8832H105.714L107.695 91.4024L105.714 100.441H107.695L111.491 90.7553L109.675 100.441H111.656L115.287 90.1135L113.637 100.441H115.618L119.248 89.1401L115.618 86.8832Z" fill="#050038"/>
</svg>
