<svg width="444" height="148" viewBox="0 0 444 148" fill="none" xmlns="http://www.w3.org/2000/svg">
<rect width="444" height="148" rx="12" fill="white"/>
<path d="M26.7156 22.4362C26.5403 22.4362 26.3982 22.5783 26.3982 22.7536C26.3982 22.9289 26.5403 23.071 26.7156 23.071C26.8909 23.071 27.033 22.9289 27.033 22.7536C27.033 22.5783 26.8909 22.4362 26.7156 22.4362ZM38.2467 22.988H35.411V21.9919C35.411 21.5369 35.0408 21.1667 34.5858 21.1667H23.4148C22.9598 21.1667 22.5896 21.5369 22.5896 21.9919V22.988H19.7539C18.8789 22.988 18.167 23.6999 18.167 24.575V36.5263C18.167 37.1924 18.5689 37.7618 19.1546 37.9974L18.4009 39.3029C17.9218 40.1199 18.2113 41.2075 19.0393 41.6856C19.8618 42.1605 20.9361 41.8888 21.422 41.0472L23.1159 38.1133H27.1758L26.934 39.9099H26.5804C26.2867 39.9099 26.0267 40.1075 25.9483 40.3905L25.5013 42.0021C25.446 42.2013 25.4861 42.41 25.6112 42.5745C25.7363 42.739 25.9267 42.8334 26.1334 42.8334H31.8673C32.074 42.8334 32.2643 42.739 32.3894 42.5745C32.5145 42.4099 32.5546 42.2013 32.4994 42.0021L32.0524 40.3905C31.9739 40.1075 31.714 39.9098 31.4203 39.9098H31.0666L30.8249 38.1132H38.2467C39.1218 38.1132 39.8337 37.4014 39.8337 36.5263V24.575C39.8337 23.6999 39.1218 22.988 38.2467 22.988ZM35.411 24.8923H37.9294V35.5742H35.411V24.8923ZM23.2244 21.9919C23.2244 21.8869 23.3098 21.8015 23.4148 21.8015H34.5858C34.6908 21.8015 34.7763 21.8869 34.7763 21.9919V23.7057H23.2244V21.9919ZM25.7979 25.7622C28.1233 25.7622 30.0151 27.654 30.0151 29.9794C30.0151 32.3048 28.1233 34.1966 25.7979 34.1966C23.0996 34.1966 21.0754 31.6713 21.6894 29.0256C21.7291 28.8548 21.6228 28.6843 21.452 28.6446C21.2813 28.605 21.1108 28.7113 21.0711 28.8821C20.6824 30.557 21.2425 32.3472 22.4537 33.4916L21.8826 34.4806C21.507 34.4144 21.1174 34.5949 20.9271 34.9273L20.5537 35.5742H20.0713V24.8923H22.5896V26.339C22.2427 26.6462 21.9361 27.0062 21.6816 27.413C21.5887 27.5615 21.6337 27.7574 21.7824 27.8503C21.9309 27.9433 22.1268 27.8982 22.2198 27.7496C22.9929 26.5131 24.321 25.7622 25.7979 25.7622ZM23.8228 34.4108L23.336 35.2539L22.4609 34.7486L22.9486 33.9041C23.2202 34.1017 23.5129 34.2721 23.8228 34.4108ZM18.8018 36.5263V24.575C18.8018 24.0499 19.2289 23.6228 19.7539 23.6228H22.5896V24.2576H19.9232C19.6548 24.2576 19.4365 24.4759 19.4365 24.7442V35.7223C19.4365 35.9906 19.6548 36.2089 19.9232 36.2089H20.1872L19.4782 37.437C19.0868 37.3175 18.8018 36.9492 18.8018 36.5263ZM23.3986 36.3542C23.3986 36.3542 20.8783 40.7194 20.8723 40.7298C20.5664 41.2596 19.8866 41.4417 19.3568 41.1359C18.8324 40.8332 18.6464 40.1414 18.9507 39.6203L21.4769 35.2447C21.5538 35.1098 21.7329 35.0602 21.8667 35.1387C21.8673 35.139 21.8679 35.1394 21.8685 35.1398C21.8694 35.1404 21.8704 35.1407 21.8714 35.1413L23.2898 35.9602C23.2911 35.961 23.2921 35.9618 23.2934 35.9625C23.2939 35.9628 23.2945 35.963 23.295 35.9633C23.4309 36.0428 23.4773 36.2177 23.3986 36.3542ZM31.4203 40.5446C31.4298 40.5446 31.4382 40.5509 31.4407 40.56L31.8877 42.1718C31.8917 42.182 31.8783 42.1998 31.8673 42.1986H26.1334C26.1223 42.1997 26.1088 42.1822 26.113 42.1718L26.56 40.56C26.5626 40.5509 26.571 40.5446 26.5804 40.5446L31.4203 40.5446ZM27.5745 39.9098L27.8162 38.1132H30.1844L30.4261 39.9098H27.5745ZM39.1989 36.5263C39.1989 37.0514 38.7717 37.4785 38.2467 37.4785H23.4824L23.9483 36.6716C24.0325 36.5257 24.0716 36.3662 24.0708 36.2089H31.7406C31.9159 36.2089 32.058 36.0668 32.058 35.8916C32.058 35.7163 31.9159 35.5742 31.7406 35.5742H23.884L24.427 34.6338C24.862 34.7622 25.322 34.8314 25.7979 34.8314C28.4733 34.8314 30.6499 32.6548 30.6499 29.9794C30.6499 27.304 28.4733 25.1275 25.7979 25.1275C24.868 25.1275 23.9822 25.389 23.2244 25.8643V24.3405H34.7763V35.5742H33.2217C33.0464 35.5742 32.9043 35.7163 32.9043 35.8916C32.9043 36.0668 33.0464 36.2089 33.2217 36.2089H38.0775C38.3458 36.2089 38.5641 35.9906 38.5641 35.7223V24.7442C38.5641 24.4759 38.3458 24.2576 38.0775 24.2576H35.411V23.6228H38.2467C38.7717 23.6228 39.1989 24.0499 39.1989 24.575V36.5263ZM24.1765 22.4362C24.0013 22.4362 23.8591 22.5783 23.8591 22.7536C23.8591 22.9289 24.0013 23.071 24.1765 23.071C24.3518 23.071 24.4939 22.9289 24.4939 22.7536C24.4939 22.5783 24.3518 22.4362 24.1765 22.4362ZM25.4461 22.4362C25.2708 22.4362 25.1287 22.5783 25.1287 22.7536C25.1287 22.9289 25.2708 23.071 25.4461 23.071C25.6213 23.071 25.7634 22.9289 25.7634 22.7536C25.7634 22.5783 25.6213 22.4362 25.4461 22.4362ZM33.8241 27.7357H31.3701C31.1948 27.7357 31.0527 27.8778 31.0527 28.0531C31.0527 28.2284 31.1948 28.3705 31.3701 28.3705H33.8241C33.9994 28.3705 34.1415 28.2284 34.1415 28.0531C34.1415 27.8778 33.9994 27.7357 33.8241 27.7357ZM33.8241 29.64H31.6663C31.491 29.64 31.349 29.7821 31.349 29.9574C31.349 30.1327 31.491 30.2748 31.6663 30.2748H33.8241C33.9994 30.2748 34.1415 30.1327 34.1415 29.9574C34.1415 29.7821 33.9994 29.64 33.8241 29.64ZM25.7979 33.1004C27.5189 33.1004 28.9189 31.7003 28.9189 29.9794C28.9189 28.2585 27.5189 26.8584 25.7979 26.8584C24.077 26.8584 22.6769 28.2585 22.6769 29.9794C22.6769 31.7003 24.077 33.1004 25.7979 33.1004ZM25.7979 27.4931C27.1689 27.4931 28.2842 28.6085 28.2842 29.9794C28.2842 31.3503 27.1689 32.4656 25.7979 32.4656C24.427 32.4656 23.3116 31.3503 23.3116 29.9794C23.3116 28.6085 24.427 27.4931 25.7979 27.4931ZM33.8241 31.5443H31.3278C31.1525 31.5443 31.0104 31.6864 31.0104 31.8617C31.0104 32.037 31.1525 32.1791 31.3278 32.1791H33.8241C33.9994 32.1791 34.1415 32.037 34.1415 31.8617C34.1415 31.6864 33.9994 31.5443 33.8241 31.5443ZM34.1415 26.1488C34.1415 25.9735 33.9994 25.8314 33.8241 25.8314H30.2068C30.0315 25.8314 29.8894 25.9735 29.8894 26.1488C29.8894 26.3241 30.0315 26.4662 30.2068 26.4662H33.8241C33.9994 26.4662 34.1415 26.3241 34.1415 26.1488ZM34.1415 33.766C34.1415 33.5907 33.9994 33.4486 33.8241 33.4486H30.2068C30.0315 33.4486 29.8894 33.5907 29.8894 33.766C29.8894 33.9413 30.0315 34.0834 30.2068 34.0834H33.8241C33.9994 34.0834 34.1415 33.9413 34.1415 33.766Z" fill="url(#paint0_linear_287_7978)"/>
<path d="M54.448 26.576C55.3653 26.576 56.128 26.6827 56.736 26.896C57.344 27.0987 57.7973 27.4293 58.096 27.888C58.4053 28.3467 58.56 28.9547 58.56 29.712C58.56 30.2987 58.4533 30.8 58.24 31.216C58.0267 31.6213 57.7333 31.9573 57.36 32.224C56.9973 32.48 56.5867 32.6773 56.128 32.816L59.264 38H58.16L55.248 33.072H52.528V38H51.6V26.576H54.448ZM54.368 27.392H52.528V32.272H54.688C55.3067 32.272 55.8347 32.176 56.272 31.984C56.7093 31.792 57.04 31.5093 57.264 31.136C57.488 30.752 57.6 30.288 57.6 29.744C57.6 29.1573 57.4827 28.6933 57.248 28.352C57.0133 28.0107 56.656 27.7653 56.176 27.616C55.696 27.4667 55.0933 27.392 54.368 27.392ZM64.2021 29.328C64.9381 29.328 65.5461 29.4987 66.0261 29.84C66.5168 30.1707 66.8848 30.6293 67.1301 31.216C67.3861 31.8027 67.5141 32.48 67.5141 33.248V33.856H61.4341C61.4341 34.9973 61.6955 35.8667 62.2181 36.464C62.7515 37.0613 63.5035 37.36 64.4741 37.36C65.0075 37.36 65.4715 37.3173 65.8661 37.232C66.2608 37.1467 66.6928 36.9973 67.1621 36.784V37.616C66.7355 37.808 66.3141 37.9467 65.8981 38.032C65.4821 38.1173 64.9968 38.16 64.4421 38.16C63.5995 38.16 62.8795 37.984 62.2821 37.632C61.6955 37.28 61.2475 36.7787 60.9381 36.128C60.6395 35.4667 60.4901 34.6987 60.4901 33.824C60.4901 32.9493 60.6341 32.176 60.9221 31.504C61.2101 30.832 61.6315 30.304 62.1861 29.92C62.7408 29.5253 63.4128 29.328 64.2021 29.328ZM64.2021 30.096C63.4128 30.096 62.7781 30.3573 62.2981 30.88C61.8181 31.392 61.5355 32.1333 61.4501 33.104H66.5701C66.5701 32.5067 66.4848 31.984 66.3141 31.536C66.1435 31.088 65.8821 30.736 65.5301 30.48C65.1888 30.224 64.7461 30.096 64.2021 30.096ZM75.1583 35.744C75.1583 36.256 75.0303 36.6933 74.7743 37.056C74.5183 37.4187 74.1449 37.696 73.6543 37.888C73.1636 38.0693 72.5663 38.16 71.8623 38.16C71.2756 38.16 70.7529 38.1067 70.2943 38C69.8356 37.8933 69.4463 37.7653 69.1263 37.616V36.736C69.5103 36.928 69.9423 37.088 70.4223 37.216C70.9023 37.3333 71.3876 37.392 71.8783 37.392C72.7316 37.392 73.3449 37.2533 73.7183 36.976C74.0916 36.688 74.2783 36.2987 74.2783 35.808C74.2783 35.488 74.1876 35.2267 74.0063 35.024C73.8356 34.8107 73.5743 34.624 73.2223 34.464C72.8809 34.2933 72.4543 34.1227 71.9423 33.952C71.4196 33.7707 70.9556 33.5893 70.5503 33.408C70.1449 33.216 69.8303 32.976 69.6063 32.688C69.3823 32.4 69.2703 32.0053 69.2703 31.504C69.2703 30.8213 69.5476 30.288 70.1023 29.904C70.6569 29.52 71.3983 29.328 72.3263 29.328C72.8383 29.328 73.3129 29.376 73.7503 29.472C74.1983 29.568 74.6036 29.696 74.9663 29.856L74.6463 30.608C74.4329 30.512 74.1929 30.4267 73.9263 30.352C73.6596 30.2667 73.3876 30.2027 73.1102 30.16C72.8329 30.1173 72.5556 30.096 72.2783 30.096C71.6063 30.096 71.0836 30.2133 70.7103 30.448C70.3369 30.6827 70.1503 31.024 70.1503 31.472C70.1503 31.8133 70.2356 32.0853 70.4062 32.288C70.5876 32.48 70.8489 32.6453 71.1903 32.784C71.5423 32.9227 71.9636 33.0827 72.4543 33.264C72.9556 33.4347 73.4089 33.616 73.8143 33.808C74.2303 34 74.5556 34.2453 74.7903 34.544C75.0356 34.8427 75.1583 35.2427 75.1583 35.744ZM80.5146 29.328C81.2506 29.328 81.8586 29.4987 82.3386 29.84C82.8293 30.1707 83.1973 30.6293 83.4426 31.216C83.6986 31.8027 83.8266 32.48 83.8266 33.248V33.856H77.7466C77.7466 34.9973 78.008 35.8667 78.5306 36.464C79.064 37.0613 79.816 37.36 80.7866 37.36C81.32 37.36 81.784 37.3173 82.1786 37.232C82.5733 37.1467 83.0053 36.9973 83.4746 36.784V37.616C83.048 37.808 82.6266 37.9467 82.2106 38.032C81.7946 38.1173 81.3093 38.16 80.7546 38.16C79.912 38.16 79.192 37.984 78.5946 37.632C78.008 37.28 77.56 36.7787 77.2506 36.128C76.952 35.4667 76.8026 34.6987 76.8026 33.824C76.8026 32.9493 76.9466 32.176 77.2346 31.504C77.5226 30.832 77.944 30.304 78.4986 29.92C79.0533 29.5253 79.7253 29.328 80.5146 29.328ZM80.5146 30.096C79.7253 30.096 79.0906 30.3573 78.6106 30.88C78.1306 31.392 77.848 32.1333 77.7626 33.104H82.8826C82.8826 32.5067 82.7973 31.984 82.6266 31.536C82.456 31.088 82.1946 30.736 81.8426 30.48C81.5013 30.224 81.0586 30.096 80.5146 30.096ZM89.1348 29.344C90.0948 29.344 90.8094 29.5787 91.2788 30.048C91.7481 30.5173 91.9828 31.264 91.9828 32.288V38H91.2948L91.1348 36.56H91.0868C90.8841 36.88 90.6494 37.1627 90.3828 37.408C90.1268 37.6427 89.8121 37.8293 89.4388 37.968C89.0761 38.096 88.6281 38.16 88.0948 38.16C87.5614 38.16 87.0974 38.0693 86.7028 37.888C86.3081 37.696 86.0041 37.424 85.7908 37.072C85.5774 36.72 85.4708 36.288 85.4708 35.776C85.4708 34.9333 85.8174 34.2933 86.5108 33.856C87.2041 33.408 88.2121 33.152 89.5348 33.088L91.0868 33.024V32.416C91.0868 31.5733 90.9161 30.9813 90.5748 30.64C90.2441 30.288 89.7481 30.112 89.0868 30.112C88.6494 30.112 88.2281 30.1707 87.8228 30.288C87.4281 30.3947 87.0281 30.5493 86.6228 30.752L86.3348 30.032C86.7294 29.8293 87.1668 29.664 87.6468 29.536C88.1268 29.408 88.6228 29.344 89.1348 29.344ZM89.6308 33.76C88.5534 33.8133 87.7481 34.0053 87.2148 34.336C86.6814 34.656 86.4148 35.1413 86.4148 35.792C86.4148 36.3147 86.5801 36.7147 86.9108 36.992C87.2414 37.2587 87.6894 37.392 88.2548 37.392C89.1614 37.392 89.8548 37.1413 90.3348 36.64C90.8254 36.1387 91.0761 35.4347 91.0868 34.528V33.696L89.6308 33.76ZM98.1929 29.344C98.4062 29.344 98.6089 29.36 98.8009 29.392C99.0035 29.4133 99.1849 29.4453 99.3449 29.488L99.2169 30.32C99.0462 30.2773 98.8755 30.2453 98.7049 30.224C98.5342 30.192 98.3475 30.176 98.1449 30.176C97.7609 30.176 97.4142 30.2507 97.1049 30.4C96.7955 30.5493 96.5289 30.7627 96.3049 31.04C96.0809 31.3173 95.9102 31.648 95.7929 32.032C95.6755 32.416 95.6169 32.848 95.6169 33.328V38H94.7049V29.488H95.4729L95.5689 31.088H95.6169C95.7555 30.7573 95.9422 30.464 96.1769 30.208C96.4222 29.9413 96.7155 29.7333 97.0569 29.584C97.3982 29.424 97.7769 29.344 98.1929 29.344ZM104.097 38.16C103.265 38.16 102.556 37.9893 101.969 37.648C101.393 37.296 100.951 36.7947 100.641 36.144C100.343 35.4933 100.193 34.7093 100.193 33.792C100.193 32.832 100.364 32.0213 100.705 31.36C101.057 30.6987 101.537 30.1973 102.145 29.856C102.753 29.504 103.468 29.328 104.289 29.328C104.695 29.328 105.073 29.3707 105.425 29.456C105.788 29.5307 106.108 29.632 106.385 29.76L106.145 30.528C105.857 30.4107 105.548 30.32 105.217 30.256C104.887 30.1813 104.572 30.144 104.273 30.144C103.591 30.144 103.015 30.2933 102.545 30.592C102.087 30.88 101.735 31.296 101.489 31.84C101.255 32.384 101.137 33.0347 101.137 33.792C101.137 34.496 101.239 35.12 101.441 35.664C101.655 36.1973 101.98 36.6133 102.417 36.912C102.855 37.2107 103.415 37.36 104.097 37.36C104.513 37.36 104.903 37.3173 105.265 37.232C105.639 37.1467 105.98 37.0347 106.289 36.896V37.728C106.012 37.8453 105.692 37.9467 105.329 38.032C104.967 38.1173 104.556 38.16 104.097 38.16ZM109.195 29.744C109.195 29.9573 109.189 30.1653 109.179 30.368C109.168 30.5707 109.157 30.7733 109.147 30.976H109.211C109.36 30.656 109.568 30.3733 109.835 30.128C110.101 29.8827 110.421 29.6907 110.795 29.552C111.179 29.4133 111.611 29.344 112.091 29.344C112.741 29.344 113.291 29.456 113.739 29.68C114.187 29.8933 114.523 30.2293 114.747 30.688C114.981 31.136 115.099 31.7227 115.099 32.448V38H114.203V32.496C114.203 31.6747 114.016 31.072 113.643 30.688C113.269 30.304 112.72 30.112 111.995 30.112C111.376 30.112 110.859 30.2347 110.443 30.48C110.027 30.7147 109.712 31.0773 109.499 31.568C109.296 32.048 109.195 32.6453 109.195 33.36V38H108.299V25.84H109.195V29.744Z" fill="#595959"/>
<path d="M256 29.0209H255.543V23.4349C255.543 22.1843 254.525 21.1667 253.275 21.1667H238.435C237.184 21.1667 236.167 22.1843 236.167 23.4349V38.2743C236.167 39.525 237.184 40.5426 238.435 40.5426H244.041C244.141 41.46 244.912 42.1788 245.855 42.1788H256C257.011 42.1788 257.834 41.3563 257.834 40.3451V30.8546C257.834 29.8434 257.011 29.0209 256 29.0209ZM257.111 30.8546V31.6953H244.743V30.8546C244.743 30.2417 245.242 29.7431 245.855 29.7431H256C256.613 29.7431 257.111 30.2417 257.111 30.8546ZM236.889 38.2743V23.4349C236.889 22.5824 237.583 21.8889 238.435 21.8889H253.275C254.127 21.8889 254.821 22.5824 254.821 23.4349V29.0209H245.855C244.844 29.0209 244.021 29.8434 244.021 30.8546V39.8203H238.435C237.583 39.8203 236.889 39.1269 236.889 38.2743ZM256 41.4566H245.855C245.242 41.4566 244.743 40.958 244.743 40.3451V32.4176H257.111V40.3451C257.111 40.958 256.613 41.4566 256 41.4566Z" fill="url(#paint1_linear_287_7978)"/>
<path d="M242.288 26.2674C242.088 26.2674 241.926 26.4291 241.926 26.6285V27.0883L240.805 25.9669C240.664 25.8259 240.435 25.8259 240.294 25.9669C240.153 26.108 240.153 26.3365 240.294 26.4776L241.416 27.599H241.159C240.959 27.599 240.798 27.7607 240.798 27.9601C240.798 28.1595 240.959 28.3212 241.159 28.3212H242.288C242.296 28.3212 242.304 28.3208 242.313 28.3203C242.386 28.3152 242.453 28.2886 242.508 28.2464C242.527 28.2316 242.545 28.2147 242.56 28.1964C242.615 28.1332 242.648 28.0511 242.649 27.961V26.6285C242.649 26.4291 242.487 26.2674 242.288 26.2674Z" fill="url(#paint2_linear_287_7978)"/>
<path d="M250.417 23.3667H252.838C253.171 23.3667 253.442 23.6375 253.442 23.9704V26.391C253.442 26.5904 253.603 26.7521 253.803 26.7521C254.002 26.7521 254.164 26.5904 254.164 26.391V23.9704C254.164 23.2392 253.569 22.6445 252.838 22.6445H250.417C250.218 22.6445 250.056 22.8061 250.056 23.0056C250.056 23.205 250.218 23.3667 250.417 23.3667Z" fill="url(#paint3_linear_287_7978)"/>
<path d="M253.952 30.3412H248.332C248.132 30.3412 247.971 30.5029 247.971 30.7023C247.971 30.9017 248.132 31.0634 248.332 31.0634H253.952C254.151 31.0634 254.313 30.9017 254.313 30.7023C254.313 30.5029 254.151 30.3412 253.952 30.3412Z" fill="url(#paint4_linear_287_7978)"/>
<path d="M255.089 30.481C255.071 30.5244 255.064 30.5713 255.064 30.6182C255.064 30.6652 255.071 30.7122 255.089 30.7555C255.111 30.7987 255.136 30.8386 255.169 30.8747C255.237 30.9396 255.327 30.9793 255.425 30.9793C255.447 30.9793 255.472 30.9758 255.493 30.9722C255.519 30.9685 255.54 30.9613 255.562 30.9505C255.584 30.9433 255.606 30.9324 255.624 30.9179C255.645 30.9035 255.663 30.889 255.678 30.8747C255.714 30.8386 255.739 30.7987 255.757 30.7555C255.775 30.7122 255.786 30.6652 255.786 30.6182C255.786 30.5713 255.775 30.5244 255.757 30.481C255.739 30.4341 255.714 30.3944 255.678 30.3618C255.548 30.2283 255.302 30.2283 255.169 30.3618C255.136 30.3944 255.107 30.4341 255.089 30.481Z" fill="url(#paint5_linear_287_7978)"/>
<path d="M246.707 30.2824C246.642 30.2571 246.57 30.25 246.502 30.2643C246.476 30.268 246.455 30.2752 246.433 30.2824C246.411 30.2932 246.39 30.3041 246.372 30.3186C246.35 30.3293 246.332 30.3438 246.314 30.3618C246.249 30.4306 246.209 30.5208 246.209 30.6182C246.209 30.6652 246.22 30.7121 246.238 30.7555C246.256 30.7987 246.281 30.8386 246.314 30.8747C246.332 30.889 246.35 30.9035 246.372 30.9179C246.39 30.9324 246.411 30.9433 246.433 30.9505C246.455 30.9613 246.476 30.9685 246.502 30.9722C246.523 30.9757 246.549 30.9793 246.57 30.9793C246.617 30.9793 246.664 30.9685 246.707 30.9505C246.754 30.9324 246.794 30.9072 246.826 30.8747C246.859 30.8386 246.888 30.7987 246.906 30.7555C246.924 30.7121 246.931 30.6652 246.931 30.6182C246.931 30.5208 246.895 30.4306 246.826 30.3618C246.794 30.3293 246.754 30.3041 246.707 30.2824Z" fill="url(#paint6_linear_287_7978)"/>
<path d="M246.368 34.02H253.094C253.294 34.02 253.455 33.8583 253.455 33.6589C253.455 33.4595 253.294 33.2978 253.094 33.2978H246.368C246.169 33.2978 246.007 33.4595 246.007 33.6589C246.007 33.8583 246.169 34.02 246.368 34.02Z" fill="url(#paint7_linear_287_7978)"/>
<path d="M254.764 34.02H255.182C255.381 34.02 255.543 33.8583 255.543 33.6589C255.543 33.4595 255.381 33.2978 255.182 33.2978H254.764C254.565 33.2978 254.403 33.4595 254.403 33.6589C254.403 33.8583 254.565 34.02 254.764 34.02Z" fill="url(#paint8_linear_287_7978)"/>
<path d="M248.332 36.1415C248.532 36.1415 248.693 35.9798 248.693 35.7804C248.693 35.581 248.532 35.4193 248.332 35.4193H246.368C246.169 35.4193 246.007 35.581 246.007 35.7804C246.007 35.9798 246.169 36.1415 246.368 36.1415H248.332Z" fill="url(#paint9_linear_287_7978)"/>
<path d="M255.424 35.4193H250.205C250.006 35.4193 249.844 35.581 249.844 35.7804C249.844 35.9798 250.006 36.1415 250.205 36.1415H255.424C255.624 36.1415 255.785 35.9798 255.785 35.7804C255.785 35.581 255.624 35.4193 255.424 35.4193Z" fill="url(#paint10_linear_287_7978)"/>
<path d="M250.417 37.9922H246.572C246.372 37.9922 246.21 38.1539 246.21 38.3533C246.21 38.5527 246.372 38.7144 246.572 38.7144H250.417C250.617 38.7144 250.779 38.5527 250.779 38.3533C250.779 38.1539 250.617 37.9922 250.417 37.9922Z" fill="url(#paint11_linear_287_7978)"/>
<path d="M253.455 37.9922H252.11C251.911 37.9922 251.749 38.1539 251.749 38.3533C251.749 38.5527 251.911 38.7144 252.11 38.7144H253.455C253.655 38.7144 253.816 38.5527 253.816 38.3533C253.816 38.1539 253.655 37.9922 253.455 37.9922Z" fill="url(#paint12_linear_287_7978)"/>
<path d="M272.448 26.576C273.824 26.576 274.853 26.8427 275.536 27.376C276.219 27.9093 276.56 28.72 276.56 29.808C276.56 30.352 276.469 30.8427 276.288 31.28C276.117 31.7173 275.851 32.0907 275.488 32.4C275.136 32.6987 274.683 32.928 274.128 33.088C273.584 33.248 272.939 33.328 272.192 33.328H270.528V38H269.6V26.576H272.448ZM272.352 27.392H270.528V32.528H272.096C272.832 32.528 273.461 32.448 273.984 32.288C274.517 32.1173 274.917 31.84 275.184 31.456C275.461 31.0613 275.6 30.528 275.6 29.856C275.6 29.0027 275.339 28.3787 274.816 27.984C274.293 27.5893 273.472 27.392 272.352 27.392ZM279.742 38H278.83V25.84H279.742V38ZM285.557 29.344C286.517 29.344 287.231 29.5787 287.701 30.048C288.17 30.5173 288.405 31.264 288.405 32.288V38H287.717L287.557 36.56H287.509C287.306 36.88 287.071 37.1627 286.805 37.408C286.549 37.6427 286.234 37.8293 285.861 37.968C285.498 38.096 285.05 38.16 284.517 38.16C283.983 38.16 283.519 38.0693 283.125 37.888C282.73 37.696 282.426 37.424 282.213 37.072C281.999 36.72 281.893 36.288 281.893 35.776C281.893 34.9333 282.239 34.2933 282.933 33.856C283.626 33.408 284.634 33.152 285.957 33.088L287.509 33.024V32.416C287.509 31.5733 287.338 30.9813 286.997 30.64C286.666 30.288 286.17 30.112 285.509 30.112C285.071 30.112 284.65 30.1707 284.245 30.288C283.85 30.3947 283.45 30.5493 283.045 30.752L282.757 30.032C283.151 29.8293 283.589 29.664 284.069 29.536C284.549 29.408 285.045 29.344 285.557 29.344ZM286.053 33.76C284.975 33.8133 284.17 34.0053 283.637 34.336C283.103 34.656 282.837 35.1413 282.837 35.792C282.837 36.3147 283.002 36.7147 283.333 36.992C283.663 37.2587 284.111 37.392 284.677 37.392C285.583 37.392 286.277 37.1413 286.757 36.64C287.247 36.1387 287.498 35.4347 287.509 34.528V33.696L286.053 33.76ZM294.935 29.328C295.905 29.328 296.647 29.5787 297.159 30.08C297.671 30.5813 297.927 31.3707 297.927 32.448V38H297.031V32.496C297.031 31.6747 296.844 31.072 296.471 30.688C296.097 30.304 295.548 30.112 294.823 30.112C293.895 30.112 293.196 30.384 292.727 30.928C292.257 31.472 292.023 32.2827 292.023 33.36V38H291.127V29.488H291.847L291.991 30.96H292.039C292.199 30.6507 292.412 30.3733 292.679 30.128C292.945 29.8827 293.265 29.6907 293.639 29.552C294.023 29.4027 294.455 29.328 294.935 29.328ZM304.45 29.328C305.421 29.328 306.162 29.5787 306.674 30.08C307.186 30.5813 307.442 31.3707 307.442 32.448V38H306.546V32.496C306.546 31.6747 306.36 31.072 305.986 30.688C305.613 30.304 305.064 30.112 304.338 30.112C303.41 30.112 302.712 30.384 302.242 30.928C301.773 31.472 301.538 32.2827 301.538 33.36V38H300.642V29.488H301.362L301.506 30.96H301.554C301.714 30.6507 301.928 30.3733 302.194 30.128C302.461 29.8827 302.781 29.6907 303.154 29.552C303.538 29.4027 303.97 29.328 304.45 29.328ZM311.054 29.488V38H310.158V29.488H311.054ZM310.606 26.336C310.809 26.336 310.963 26.4 311.07 26.528C311.177 26.6453 311.23 26.8107 311.23 27.024C311.23 27.248 311.177 27.424 311.07 27.552C310.963 27.6693 310.809 27.728 310.606 27.728C310.414 27.728 310.265 27.6693 310.158 27.552C310.051 27.424 309.998 27.248 309.998 27.024C309.998 26.8107 310.051 26.6453 310.158 26.528C310.265 26.4 310.414 26.336 310.606 26.336ZM317.685 29.328C318.655 29.328 319.397 29.5787 319.909 30.08C320.421 30.5813 320.677 31.3707 320.677 32.448V38H319.781V32.496C319.781 31.6747 319.594 31.072 319.221 30.688C318.847 30.304 318.298 30.112 317.573 30.112C316.645 30.112 315.946 30.384 315.477 30.928C315.007 31.472 314.773 32.2827 314.773 33.36V38H313.877V29.488H314.597L314.741 30.96H314.789C314.949 30.6507 315.162 30.3733 315.429 30.128C315.695 29.8827 316.015 29.6907 316.389 29.552C316.773 29.4027 317.205 29.328 317.685 29.328ZM326.512 29.328C327.184 29.328 327.739 29.4613 328.176 29.728C328.614 29.984 328.966 30.336 329.232 30.784H329.296L329.424 29.488H330.16V38.272C330.16 39.0187 330.032 39.6533 329.776 40.176C329.52 40.7093 329.12 41.12 328.576 41.408C328.043 41.696 327.344 41.84 326.48 41.84C325.851 41.84 325.286 41.7867 324.784 41.68C324.294 41.5733 323.851 41.4347 323.456 41.264V40.384C323.723 40.512 324.016 40.6293 324.336 40.736C324.656 40.8427 324.998 40.9227 325.36 40.976C325.734 41.0293 326.123 41.056 326.528 41.056C327.467 41.056 328.155 40.8107 328.592 40.32C329.04 39.8293 329.264 39.168 329.264 38.336V37.824C329.264 37.6 329.264 37.376 329.264 37.152C329.275 36.9173 329.286 36.6987 329.296 36.496H329.248C329.003 37.04 328.64 37.456 328.16 37.744C327.68 38.0213 327.094 38.16 326.4 38.16C325.302 38.16 324.443 37.7867 323.824 37.04C323.206 36.2933 322.896 35.2213 322.896 33.824C322.896 32.896 323.035 32.096 323.312 31.424C323.59 30.752 323.995 30.2347 324.528 29.872C325.072 29.5093 325.734 29.328 326.512 29.328ZM326.608 30.112C325.99 30.112 325.472 30.2613 325.056 30.56C324.651 30.848 324.347 31.2693 324.144 31.824C323.942 32.368 323.84 33.0347 323.84 33.824C323.84 34.9867 324.07 35.872 324.528 36.48C324.987 37.088 325.643 37.392 326.496 37.392C327.04 37.392 327.488 37.312 327.84 37.152C328.192 36.9813 328.47 36.7467 328.672 36.448C328.886 36.1493 329.035 35.7973 329.12 35.392C329.216 34.976 329.264 34.5333 329.264 34.064V33.504C329.264 32.7787 329.179 32.1653 329.008 31.664C328.838 31.1627 328.555 30.7787 328.16 30.512C327.776 30.2453 327.259 30.112 326.608 30.112Z" fill="#595959"/>
<path d="M39.8318 63.5418C39.8318 63.3347 39.6641 63.1667 39.4567 63.1667H18.544C18.3365 63.1667 18.1689 63.3347 18.1689 63.5418L18.167 84.3337C18.167 84.5408 18.3347 84.7088 18.5421 84.7088H39.4585C39.666 84.7088 39.8337 84.5408 39.8337 84.3337L39.8318 63.5418ZM18.9191 63.9169H39.0816V67.5004H18.9191V63.9169ZM39.0834 83.9586H18.9172V68.2506H39.0834V83.9586Z" fill="url(#paint13_linear_287_7978)"/>
<path d="M20.7166 65.1462H20.0286C19.8212 65.1462 19.6535 65.3142 19.6535 65.5213C19.6535 65.7284 19.8212 65.8964 20.0286 65.8964H20.7166C20.924 65.8964 21.0917 65.7284 21.0917 65.5213C21.0917 65.3142 20.924 65.1462 20.7166 65.1462Z" fill="url(#paint14_linear_287_7978)"/>
<path d="M22.9673 65.1462H22.2793C22.0719 65.1462 21.9042 65.3142 21.9042 65.5213C21.9042 65.7284 22.0719 65.8964 22.2793 65.8964H22.9673C23.1747 65.8964 23.3424 65.7284 23.3424 65.5213C23.3424 65.3142 23.1747 65.1462 22.9673 65.1462Z" fill="url(#paint15_linear_287_7978)"/>
<path d="M25.218 65.1462H24.53C24.3226 65.1462 24.1549 65.3142 24.1549 65.5213C24.1549 65.7284 24.3226 65.8964 24.53 65.8964H25.218C25.4254 65.8964 25.5931 65.7284 25.5931 65.5213C25.5931 65.3142 25.4254 65.1462 25.218 65.1462Z" fill="url(#paint16_linear_287_7978)"/>
<path d="M37.9719 65.1462H34.283C34.0756 65.1462 33.9079 65.3142 33.9079 65.5213C33.9079 65.7284 34.0756 65.8964 34.283 65.8964H37.9719C38.1794 65.8964 38.347 65.7284 38.347 65.5213C38.347 65.3142 38.1794 65.1462 37.9719 65.1462Z" fill="url(#paint17_linear_287_7978)"/>
<path d="M20.0286 82.9717H25.9994C26.2068 82.9717 26.3745 82.8036 26.3745 82.5965V69.7177C26.3745 69.5106 26.2068 69.3426 25.9994 69.3426H20.0286C19.8212 69.3426 19.6535 69.5106 19.6535 69.7177V82.5965C19.6535 82.804 19.8212 82.9717 20.0286 82.9717ZM20.4038 70.0928H25.6242V82.2214H20.4038V70.0928Z" fill="url(#paint18_linear_287_7978)"/>
<path d="M27.531 75.4382H37.9719C38.1794 75.4382 38.347 75.2702 38.347 75.0631V69.7177C38.347 69.5106 38.1794 69.3426 37.9719 69.3426H27.531C27.3235 69.3426 27.1558 69.5106 27.1558 69.7177V75.0631C27.1558 75.2702 27.3235 75.4382 27.531 75.4382ZM27.9061 70.0928H37.5968V74.688H27.9061V70.0928Z" fill="url(#paint19_linear_287_7978)"/>
<path d="M27.531 82.9405H37.9719C38.1794 82.9405 38.347 82.7725 38.347 82.5654V77.22C38.347 77.0129 38.1794 76.8449 37.9719 76.8449H27.531C27.3235 76.8449 27.1558 77.0129 27.1558 77.22V82.5654C27.1558 82.7725 27.3235 82.9405 27.531 82.9405ZM27.9061 77.5951H37.5968V82.1903H27.9061V77.5951Z" fill="url(#paint20_linear_287_7978)"/>
<path d="M64.048 68.576L60.944 80H60.016L57.616 71.6C57.5627 71.408 57.5093 71.2267 57.456 71.056C57.4133 70.8747 57.3707 70.704 57.328 70.544C57.2853 70.3733 57.248 70.224 57.216 70.096C57.184 69.9573 57.1573 69.8347 57.136 69.728C57.1147 69.8347 57.0933 69.952 57.072 70.08C57.0507 70.208 57.0187 70.3467 56.976 70.496C56.944 70.6347 56.9067 70.784 56.864 70.944C56.8213 71.104 56.7787 71.2693 56.736 71.44L54.352 80H53.44L50.368 68.576H51.328L53.392 76.416C53.456 76.64 53.5093 76.8533 53.552 77.056C53.6053 77.2587 53.6533 77.456 53.696 77.648C53.7387 77.8293 53.776 78.0107 53.808 78.192C53.8507 78.3733 53.888 78.5493 53.92 78.72C53.952 78.5387 53.984 78.3573 54.016 78.176C54.0587 77.9947 54.1013 77.808 54.144 77.616C54.1973 77.4133 54.2507 77.2107 54.304 77.008C54.3573 76.8053 54.416 76.592 54.48 76.368L56.688 68.576H57.616L59.888 76.416C59.9627 76.64 60.0267 76.8587 60.08 77.072C60.1333 77.2853 60.1813 77.488 60.224 77.68C60.2667 77.8613 60.304 78.0427 60.336 78.224C60.3787 78.4053 60.416 78.5813 60.448 78.752C60.4907 78.5173 60.5333 78.2827 60.576 78.048C60.6293 77.8027 60.688 77.5467 60.752 77.28C60.816 77.0133 60.8853 76.7307 60.96 76.432L63.072 68.576H64.048ZM66.6946 71.488V80H65.7986V71.488H66.6946ZM66.2466 68.336C66.4493 68.336 66.604 68.4 66.7106 68.528C66.8173 68.6453 66.8706 68.8107 66.8706 69.024C66.8706 69.248 66.8173 69.424 66.7106 69.552C66.604 69.6693 66.4493 69.728 66.2466 69.728C66.0546 69.728 65.9053 69.6693 65.7986 69.552C65.692 69.424 65.6386 69.248 65.6386 69.024C65.6386 68.8107 65.692 68.6453 65.7986 68.528C65.9053 68.4 66.0546 68.336 66.2466 68.336ZM73.0054 71.344C73.2187 71.344 73.4214 71.36 73.6134 71.392C73.816 71.4133 73.9974 71.4453 74.1574 71.488L74.0294 72.32C73.8587 72.2773 73.688 72.2453 73.5174 72.224C73.3467 72.192 73.16 72.176 72.9574 72.176C72.5734 72.176 72.2267 72.2507 71.9174 72.4C71.608 72.5493 71.3414 72.7627 71.1174 73.04C70.8934 73.3173 70.7227 73.648 70.6054 74.032C70.488 74.416 70.4294 74.848 70.4294 75.328V80H69.5174V71.488H70.2854L70.3814 73.088H70.4294C70.568 72.7573 70.7547 72.464 70.9894 72.208C71.2347 71.9413 71.528 71.7333 71.8694 71.584C72.2107 71.424 72.5894 71.344 73.0054 71.344ZM78.7178 71.328C79.4538 71.328 80.0618 71.4987 80.5418 71.84C81.0324 72.1707 81.4004 72.6293 81.6458 73.216C81.9018 73.8027 82.0298 74.48 82.0298 75.248V75.856H75.9498C75.9498 76.9973 76.2111 77.8667 76.7338 78.464C77.2671 79.0613 78.0191 79.36 78.9898 79.36C79.5231 79.36 79.9871 79.3173 80.3818 79.232C80.7764 79.1467 81.2084 78.9973 81.6778 78.784V79.616C81.2511 79.808 80.8298 79.9467 80.4138 80.032C79.9978 80.1173 79.5124 80.16 78.9578 80.16C78.1151 80.16 77.3951 79.984 76.7978 79.632C76.2111 79.28 75.7631 78.7787 75.4538 78.128C75.1551 77.4667 75.0058 76.6987 75.0058 75.824C75.0058 74.9493 75.1498 74.176 75.4378 73.504C75.7258 72.832 76.1471 72.304 76.7018 71.92C77.2564 71.5253 77.9284 71.328 78.7178 71.328ZM78.7178 72.096C77.9284 72.096 77.2938 72.3573 76.8138 72.88C76.3338 73.392 76.0511 74.1333 75.9658 75.104H81.0858C81.0858 74.5067 81.0004 73.984 80.8298 73.536C80.6591 73.088 80.3978 72.736 80.0458 72.48C79.7044 72.224 79.2618 72.096 78.7178 72.096ZM87.6419 72.224H85.6099V80H84.6979V72.224H83.1299V71.728L84.6979 71.472V70.608C84.6979 69.968 84.7885 69.44 84.9699 69.024C85.1619 68.5973 85.4445 68.2827 85.8179 68.08C86.2019 67.8667 86.6765 67.76 87.2419 67.76C87.5405 67.76 87.8125 67.7867 88.0579 67.84C88.3032 67.8827 88.5272 67.936 88.7299 68L88.5059 68.752C88.3245 68.688 88.1219 68.6347 87.8979 68.592C87.6845 68.5493 87.4659 68.528 87.2419 68.528C86.6659 68.528 86.2499 68.6933 85.9939 69.024C85.7379 69.344 85.6099 69.872 85.6099 70.608V71.488H87.6419V72.224ZM92.7554 71.344C92.9687 71.344 93.1714 71.36 93.3634 71.392C93.566 71.4133 93.7474 71.4453 93.9074 71.488L93.7794 72.32C93.6087 72.2773 93.438 72.2453 93.2674 72.224C93.0967 72.192 92.91 72.176 92.7074 72.176C92.3234 72.176 91.9767 72.2507 91.6674 72.4C91.358 72.5493 91.0914 72.7627 90.8674 73.04C90.6434 73.3173 90.4727 73.648 90.3554 74.032C90.238 74.416 90.1794 74.848 90.1794 75.328V80H89.2674V71.488H90.0354L90.1314 73.088H90.1794C90.318 72.7573 90.5047 72.464 90.7394 72.208C90.9847 71.9413 91.278 71.7333 91.6194 71.584C91.9607 71.424 92.3394 71.344 92.7554 71.344ZM98.2598 71.344C99.2198 71.344 99.9344 71.5787 100.404 72.048C100.873 72.5173 101.108 73.264 101.108 74.288V80H100.42L100.26 78.56H100.212C100.009 78.88 99.7744 79.1627 99.5078 79.408C99.2518 79.6427 98.9371 79.8293 98.5638 79.968C98.2011 80.096 97.7531 80.16 97.2198 80.16C96.6864 80.16 96.2224 80.0693 95.8278 79.888C95.4331 79.696 95.1291 79.424 94.9158 79.072C94.7024 78.72 94.5958 78.288 94.5958 77.776C94.5958 76.9333 94.9424 76.2933 95.6358 75.856C96.3291 75.408 97.3371 75.152 98.6598 75.088L100.212 75.024V74.416C100.212 73.5733 100.041 72.9813 99.6998 72.64C99.3691 72.288 98.8731 72.112 98.2118 72.112C97.7744 72.112 97.3531 72.1707 96.9478 72.288C96.5531 72.3947 96.1531 72.5493 95.7478 72.752L95.4598 72.032C95.8544 71.8293 96.2918 71.664 96.7718 71.536C97.2518 71.408 97.7478 71.344 98.2598 71.344ZM98.7558 75.76C97.6784 75.8133 96.8731 76.0053 96.3398 76.336C95.8064 76.656 95.5398 77.1413 95.5398 77.792C95.5398 78.3147 95.7051 78.7147 96.0358 78.992C96.3664 79.2587 96.8144 79.392 97.3798 79.392C98.2864 79.392 98.9798 79.1413 99.4598 78.64C99.9504 78.1387 100.201 77.4347 100.212 76.528V75.696L98.7558 75.76ZM112.71 71.328C113.563 71.328 114.225 71.568 114.694 72.048C115.174 72.528 115.414 73.2853 115.414 74.32V80H114.502V74.352C114.502 73.5947 114.331 73.0347 113.99 72.672C113.649 72.2987 113.185 72.112 112.598 72.112C111.777 72.112 111.147 72.352 110.71 72.832C110.283 73.3013 110.07 74.032 110.07 75.024V80H109.158V74.352C109.158 73.84 109.078 73.4187 108.918 73.088C108.769 72.7573 108.55 72.512 108.262 72.352C107.985 72.192 107.643 72.112 107.238 72.112C106.705 72.112 106.251 72.224 105.878 72.448C105.505 72.672 105.217 73.008 105.014 73.456C104.822 73.904 104.726 74.4747 104.726 75.168V80H103.83V71.488H104.55L104.694 72.848H104.742C104.891 72.56 105.083 72.304 105.318 72.08C105.563 71.856 105.857 71.6747 106.198 71.536C106.539 71.3973 106.929 71.328 107.366 71.328C107.995 71.328 108.523 71.4613 108.95 71.728C109.377 71.9947 109.675 72.3947 109.846 72.928H109.91C110.155 72.416 110.518 72.0213 110.998 71.744C111.489 71.4667 112.059 71.328 112.71 71.328ZM119.007 71.488V80H118.111V71.488H119.007ZM118.559 68.336C118.762 68.336 118.916 68.4 119.023 68.528C119.13 68.6453 119.183 68.8107 119.183 69.024C119.183 69.248 119.13 69.424 119.023 69.552C118.916 69.6693 118.762 69.728 118.559 69.728C118.367 69.728 118.218 69.6693 118.111 69.552C118.004 69.424 117.951 69.248 117.951 69.024C117.951 68.8107 118.004 68.6453 118.111 68.528C118.218 68.4 118.367 68.336 118.559 68.336ZM125.638 71.328C126.609 71.328 127.35 71.5787 127.862 72.08C128.374 72.5813 128.63 73.3707 128.63 74.448V80H127.734V74.496C127.734 73.6747 127.547 73.072 127.174 72.688C126.801 72.304 126.251 72.112 125.526 72.112C124.598 72.112 123.899 72.384 123.43 72.928C122.961 73.472 122.726 74.2827 122.726 75.36V80H121.83V71.488H122.55L122.694 72.96H122.742C122.902 72.6507 123.115 72.3733 123.382 72.128C123.649 71.8827 123.969 71.6907 124.342 71.552C124.726 71.4027 125.158 71.328 125.638 71.328ZM134.466 71.328C135.138 71.328 135.692 71.4613 136.13 71.728C136.567 71.984 136.919 72.336 137.186 72.784H137.25L137.378 71.488H138.114V80.272C138.114 81.0187 137.986 81.6533 137.73 82.176C137.474 82.7093 137.074 83.12 136.53 83.408C135.996 83.696 135.298 83.84 134.434 83.84C133.804 83.84 133.239 83.7867 132.738 83.68C132.247 83.5733 131.804 83.4347 131.41 83.264V82.384C131.676 82.512 131.97 82.6293 132.289 82.736C132.61 82.8427 132.951 82.9227 133.314 82.976C133.687 83.0293 134.076 83.056 134.482 83.056C135.42 83.056 136.108 82.8107 136.546 82.32C136.994 81.8293 137.218 81.168 137.218 80.336V79.824C137.218 79.6 137.218 79.376 137.218 79.152C137.228 78.9173 137.239 78.6987 137.25 78.496H137.202C136.956 79.04 136.594 79.456 136.114 79.744C135.634 80.0213 135.047 80.16 134.354 80.16C133.255 80.16 132.396 79.7867 131.778 79.04C131.159 78.2933 130.85 77.2213 130.85 75.824C130.85 74.896 130.988 74.096 131.266 73.424C131.543 72.752 131.948 72.2347 132.482 71.872C133.026 71.5093 133.687 71.328 134.466 71.328ZM134.562 72.112C133.943 72.112 133.426 72.2613 133.01 72.56C132.604 72.848 132.3 73.2693 132.098 73.824C131.895 74.368 131.794 75.0347 131.794 75.824C131.794 76.9867 132.023 77.872 132.482 78.48C132.94 79.088 133.596 79.392 134.45 79.392C134.994 79.392 135.442 79.312 135.794 79.152C136.146 78.9813 136.423 78.7467 136.626 78.448C136.839 78.1493 136.988 77.7973 137.074 77.392C137.17 76.976 137.218 76.5333 137.218 76.064V75.504C137.218 74.7787 137.132 74.1653 136.962 73.664C136.791 73.1627 136.508 72.7787 136.114 72.512C135.73 72.2453 135.212 72.112 134.562 72.112Z" fill="#595959"/>
<path d="M244.599 83.6214H237.277C236.665 83.6214 236.167 83.1231 236.167 82.511V69.7065C236.167 69.0944 236.665 68.5961 237.277 68.5961H244.599C245.211 68.5961 245.709 69.0944 245.709 69.7065V82.511C245.71 83.1231 245.211 83.6214 244.599 83.6214ZM237.277 69.1589C236.975 69.1589 236.73 69.4046 236.73 69.7065V82.511C236.73 82.8129 236.975 83.0586 237.277 83.0586H244.599C244.901 83.0586 245.146 82.8129 245.146 82.511V69.7065C245.146 69.4046 244.901 69.1589 244.599 69.1589H237.277Z" fill="url(#paint21_linear_287_7978)"/>
<path d="M245.428 81.2751H236.448C236.293 81.2751 236.167 81.149 236.167 80.9937V71.2238C236.167 71.0685 236.293 70.9425 236.448 70.9425H245.428C245.584 70.9425 245.71 71.0685 245.71 71.2238V80.9937C245.71 81.149 245.584 81.2751 245.428 81.2751ZM236.73 80.7123H245.147V71.5052H236.73V80.7123Z" fill="url(#paint22_linear_287_7978)"/>
<path d="M241.917 70.3318H239.959C239.803 70.3318 239.677 70.2058 239.677 70.0504C239.677 69.8951 239.803 69.769 239.959 69.769H241.917C242.073 69.769 242.199 69.8951 242.199 70.0504C242.199 70.2058 242.073 70.3318 241.917 70.3318Z" fill="url(#paint23_linear_287_7978)"/>
<path d="M238.081 70.3318H237.422C237.267 70.3318 237.141 70.2058 237.141 70.0504C237.141 69.8951 237.267 69.769 237.422 69.769H238.081C238.236 69.769 238.362 69.8951 238.362 70.0504C238.362 70.2058 238.236 70.3318 238.081 70.3318Z" fill="url(#paint24_linear_287_7978)"/>
<path d="M241.917 82.448H239.959C239.803 82.448 239.677 82.3219 239.677 82.1666C239.677 82.0113 239.803 81.8852 239.959 81.8852H241.917C242.073 81.8852 242.199 82.0113 242.199 82.1666C242.199 82.3219 242.073 82.448 241.917 82.448Z" fill="url(#paint25_linear_287_7978)"/>
<path d="M238.478 82.448H237.737C237.582 82.448 237.456 82.3219 237.456 82.1666C237.456 82.0113 237.582 81.8852 237.737 81.8852H238.478C238.633 81.8852 238.759 82.0113 238.759 82.1666C238.759 82.3219 238.633 82.448 238.478 82.448Z" fill="url(#paint26_linear_287_7978)"/>
<path d="M244.14 82.448H243.399C243.244 82.448 243.118 82.3219 243.118 82.1666C243.118 82.0113 243.244 81.8852 243.399 81.8852H244.14C244.295 81.8852 244.421 82.0113 244.421 82.1666C244.421 82.3219 244.295 82.448 244.14 82.448Z" fill="url(#paint27_linear_287_7978)"/>
<path d="M256.723 80.3586H249.401C248.789 80.3586 248.291 79.8603 248.291 79.2482V66.4437C248.291 65.8316 248.789 65.3333 249.401 65.3333H256.723C257.335 65.3333 257.833 65.8316 257.833 66.4437V79.2482C257.834 79.8608 257.335 80.3586 256.723 80.3586ZM249.401 65.8961C249.099 65.8961 248.854 66.1418 248.854 66.4437V79.2482C248.854 79.5501 249.099 79.7958 249.401 79.7958H256.723C257.025 79.7958 257.27 79.5501 257.27 79.2482V66.4437C257.27 66.1418 257.025 65.8961 256.723 65.8961H249.401Z" fill="url(#paint28_linear_287_7978)"/>
<path d="M257.552 78.0123H248.572C248.417 78.0123 248.291 77.8862 248.291 77.7309V67.961C248.291 67.8057 248.417 67.6797 248.572 67.6797H257.552C257.708 67.6797 257.834 67.8057 257.834 67.961V77.7309C257.834 77.8862 257.708 78.0123 257.552 78.0123ZM248.854 77.4495H257.271V68.2424H248.854V77.4495Z" fill="url(#paint29_linear_287_7978)"/>
<path d="M254.043 67.0695H252.084C251.929 67.0695 251.803 66.9435 251.803 66.7881C251.803 66.6328 251.929 66.5067 252.084 66.5067H254.043C254.198 66.5067 254.324 66.6328 254.324 66.7881C254.324 66.9435 254.198 67.0695 254.043 67.0695Z" fill="url(#paint30_linear_287_7978)"/>
<path d="M250.205 67.0695H249.546C249.391 67.0695 249.265 66.9435 249.265 66.7881C249.265 66.6328 249.391 66.5067 249.546 66.5067H250.205C250.361 66.5067 250.487 66.6328 250.487 66.7881C250.487 66.9435 250.361 67.0695 250.205 67.0695Z" fill="url(#paint31_linear_287_7978)"/>
<path d="M254.043 79.1857H252.084C251.929 79.1857 251.803 79.0596 251.803 78.9043C251.803 78.749 251.929 78.6229 252.084 78.6229H254.043C254.198 78.6229 254.324 78.749 254.324 78.9043C254.324 79.0596 254.198 79.1857 254.043 79.1857Z" fill="url(#paint32_linear_287_7978)"/>
<path d="M250.602 79.1857H249.862C249.707 79.1857 249.581 79.0596 249.581 78.9043C249.581 78.749 249.707 78.6229 249.862 78.6229H250.602C250.758 78.6229 250.884 78.749 250.884 78.9043C250.884 79.0596 250.758 79.1857 250.602 79.1857Z" fill="url(#paint33_linear_287_7978)"/>
<path d="M256.264 79.1857H255.524C255.369 79.1857 255.243 79.0596 255.243 78.9043C255.243 78.749 255.369 78.6229 255.524 78.6229H256.264C256.419 78.6229 256.545 78.749 256.545 78.9043C256.545 79.0596 256.419 79.1857 256.264 79.1857Z" fill="url(#paint34_linear_287_7978)"/>
<path d="M244.942 77.4177H241.481C241.326 77.4177 241.2 77.2917 241.2 77.1363C241.2 76.981 241.326 76.855 241.481 76.855H244.942C245.982 76.855 246.829 76.1505 246.829 75.2844V72.5951C246.829 71.4188 247.928 70.4618 249.279 70.4618H254.046C254.201 70.4618 254.327 70.5878 254.327 70.7431C254.327 70.8985 254.201 71.0245 254.046 71.0245H249.279C248.238 71.0245 247.392 71.729 247.392 72.5951V75.2844C247.392 76.4607 246.292 77.4177 244.942 77.4177Z" fill="url(#paint35_linear_287_7978)"/>
<path d="M252.218 72.3069C252.13 72.3069 252.042 72.2654 251.988 72.1872C251.898 72.0602 251.929 71.8843 252.056 71.7954L253.557 70.7436L252.056 69.6919C251.929 69.6025 251.898 69.4271 251.988 69.3001C252.077 69.173 252.252 69.1418 252.379 69.2312L254.208 70.5135C254.284 70.5663 254.328 70.6523 254.328 70.7441C254.328 70.836 254.283 70.9219 254.208 70.9747L252.379 72.2571C252.33 72.2903 252.274 72.3069 252.218 72.3069Z" fill="url(#paint36_linear_287_7978)"/>
<path d="M241.04 78.2116H239.307C238.909 78.2116 238.586 77.8882 238.586 77.49V76.7822C238.586 76.3845 238.909 76.0611 239.307 76.0611H241.041C241.439 76.0611 241.762 76.3845 241.762 76.7822V77.49C241.762 77.8877 241.439 78.2116 241.04 78.2116ZM239.307 76.6239C239.221 76.6239 239.148 76.6967 239.148 76.7827V77.4905C239.148 77.5765 239.221 77.6493 239.307 77.6493H241.041C241.127 77.6493 241.2 77.5765 241.2 77.4905V76.7827C241.2 76.6967 241.127 76.6239 241.041 76.6239H239.307Z" fill="url(#paint37_linear_287_7978)"/>
<path d="M272.448 68.576C273.824 68.576 274.853 68.8427 275.536 69.376C276.219 69.9093 276.56 70.72 276.56 71.808C276.56 72.352 276.469 72.8427 276.288 73.28C276.117 73.7173 275.851 74.0907 275.488 74.4C275.136 74.6987 274.683 74.928 274.128 75.088C273.584 75.248 272.939 75.328 272.192 75.328H270.528V80H269.6V68.576H272.448ZM272.352 69.392H270.528V74.528H272.096C272.832 74.528 273.461 74.448 273.984 74.288C274.517 74.1173 274.917 73.84 275.184 73.456C275.461 73.0613 275.6 72.528 275.6 71.856C275.6 71.0027 275.339 70.3787 274.816 69.984C274.293 69.5893 273.472 69.392 272.352 69.392ZM282.318 71.344C282.531 71.344 282.734 71.36 282.926 71.392C283.129 71.4133 283.31 71.4453 283.47 71.488L283.342 72.32C283.171 72.2773 283.001 72.2453 282.83 72.224C282.659 72.192 282.473 72.176 282.27 72.176C281.886 72.176 281.539 72.2507 281.23 72.4C280.921 72.5493 280.654 72.7627 280.43 73.04C280.206 73.3173 280.035 73.648 279.918 74.032C279.801 74.416 279.742 74.848 279.742 75.328V80H278.83V71.488H279.598L279.694 73.088H279.742C279.881 72.7573 280.067 72.464 280.302 72.208C280.547 71.9413 280.841 71.7333 281.182 71.584C281.523 71.424 281.902 71.344 282.318 71.344ZM291.934 75.744C291.934 76.4053 291.849 77.008 291.678 77.552C291.518 78.0853 291.273 78.5493 290.942 78.944C290.622 79.328 290.222 79.6267 289.742 79.84C289.262 80.0533 288.713 80.16 288.094 80.16C287.508 80.16 286.98 80.0587 286.51 79.856C286.052 79.6427 285.657 79.344 285.326 78.96C284.996 78.5653 284.745 78.096 284.574 77.552C284.404 77.008 284.318 76.4053 284.318 75.744C284.318 74.816 284.468 74.0267 284.766 73.376C285.076 72.7147 285.518 72.208 286.094 71.856C286.681 71.504 287.374 71.328 288.174 71.328C288.985 71.328 289.668 71.5147 290.222 71.888C290.788 72.2507 291.214 72.7627 291.502 73.424C291.79 74.0853 291.934 74.8587 291.934 75.744ZM285.262 75.744C285.262 76.4693 285.364 77.1093 285.566 77.664C285.769 78.208 286.084 78.6293 286.51 78.928C286.937 79.2267 287.47 79.376 288.11 79.376C288.772 79.376 289.316 79.2267 289.742 78.928C290.169 78.6187 290.484 78.192 290.686 77.648C290.889 77.0933 290.99 76.4587 290.99 75.744C290.99 75.0293 290.894 74.4 290.702 73.856C290.51 73.312 290.206 72.8853 289.79 72.576C289.374 72.2667 288.83 72.112 288.158 72.112C287.188 72.112 286.462 72.432 285.982 73.072C285.502 73.712 285.262 74.6027 285.262 75.744ZM296.652 79.392C296.886 79.392 297.11 79.376 297.324 79.344C297.537 79.3013 297.724 79.2533 297.884 79.2V79.936C297.724 80 297.521 80.0533 297.276 80.096C297.041 80.1387 296.79 80.16 296.524 80.16C296.054 80.16 295.654 80.0747 295.324 79.904C294.993 79.7227 294.737 79.4453 294.556 79.072C294.385 78.6987 294.3 78.2187 294.3 77.632V72.224H293.052V71.712L294.3 71.424L294.636 69.456H295.212V71.488H297.836V72.224H295.212V77.6C295.212 78.1867 295.329 78.6347 295.564 78.944C295.798 79.2427 296.161 79.392 296.652 79.392ZM306.809 75.744C306.809 76.4053 306.724 77.008 306.553 77.552C306.393 78.0853 306.148 78.5493 305.817 78.944C305.497 79.328 305.097 79.6267 304.617 79.84C304.137 80.0533 303.588 80.16 302.969 80.16C302.383 80.16 301.855 80.0587 301.385 79.856C300.927 79.6427 300.532 79.344 300.201 78.96C299.871 78.5653 299.62 78.096 299.449 77.552C299.279 77.008 299.193 76.4053 299.193 75.744C299.193 74.816 299.343 74.0267 299.641 73.376C299.951 72.7147 300.393 72.208 300.969 71.856C301.556 71.504 302.249 71.328 303.049 71.328C303.86 71.328 304.543 71.5147 305.097 71.888C305.663 72.2507 306.089 72.7627 306.377 73.424C306.665 74.0853 306.809 74.8587 306.809 75.744ZM300.137 75.744C300.137 76.4693 300.239 77.1093 300.441 77.664C300.644 78.208 300.959 78.6293 301.385 78.928C301.812 79.2267 302.345 79.376 302.985 79.376C303.647 79.376 304.191 79.2267 304.617 78.928C305.044 78.6187 305.359 78.192 305.561 77.648C305.764 77.0933 305.865 76.4587 305.865 75.744C305.865 75.0293 305.769 74.4 305.577 73.856C305.385 73.312 305.081 72.8853 304.665 72.576C304.249 72.2667 303.705 72.112 303.033 72.112C302.063 72.112 301.337 72.432 300.857 73.072C300.377 73.712 300.137 74.6027 300.137 75.744ZM311.527 79.392C311.761 79.392 311.985 79.376 312.199 79.344C312.412 79.3013 312.599 79.2533 312.759 79.2V79.936C312.599 80 312.396 80.0533 312.151 80.096C311.916 80.1387 311.665 80.16 311.399 80.16C310.929 80.16 310.529 80.0747 310.199 79.904C309.868 79.7227 309.612 79.4453 309.431 79.072C309.26 78.6987 309.175 78.2187 309.175 77.632V72.224H307.927V71.712L309.175 71.424L309.511 69.456H310.087V71.488H312.711V72.224H310.087V77.6C310.087 78.1867 310.204 78.6347 310.439 78.944C310.673 79.2427 311.036 79.392 311.527 79.392ZM313.156 71.488H314.132L316.148 76.784C316.266 77.0933 316.372 77.3813 316.468 77.648C316.564 77.9147 316.65 78.1653 316.724 78.4C316.799 78.624 316.863 78.832 316.916 79.024H316.964C317.039 78.7787 317.14 78.464 317.268 78.08C317.396 77.6853 317.546 77.2587 317.716 76.8L319.7 71.488H320.676L316.836 81.52C316.644 82.0107 316.431 82.432 316.196 82.784C315.962 83.136 315.684 83.4027 315.364 83.584C315.044 83.776 314.66 83.872 314.212 83.872C314.01 83.872 313.823 83.856 313.652 83.824C313.492 83.8027 313.338 83.7707 313.188 83.728V82.96C313.327 82.992 313.466 83.0187 313.604 83.04C313.754 83.072 313.919 83.088 314.1 83.088C314.399 83.088 314.66 83.024 314.884 82.896C315.108 82.7787 315.306 82.592 315.476 82.336C315.647 82.0907 315.802 81.7813 315.94 81.408L316.5 79.968L313.156 71.488ZM325.872 71.328C326.96 71.328 327.808 71.696 328.416 72.432C329.035 73.168 329.344 74.256 329.344 75.696C329.344 76.656 329.2 77.472 328.912 78.144C328.624 78.8053 328.214 79.3067 327.68 79.648C327.158 79.9893 326.528 80.16 325.792 80.16C325.291 80.16 324.854 80.0853 324.48 79.936C324.107 79.7867 323.798 79.5893 323.552 79.344C323.307 79.0987 323.115 78.8267 322.976 78.528H322.912C322.934 78.7947 322.95 79.088 322.96 79.408C322.971 79.7173 322.976 80.0053 322.976 80.272V83.776H322.064V71.488H322.816L322.928 73.088H322.976C323.115 72.7787 323.312 72.4907 323.568 72.224C323.824 71.9573 324.139 71.744 324.512 71.584C324.896 71.4133 325.35 71.328 325.872 71.328ZM325.744 72.112C325.115 72.112 324.598 72.2453 324.192 72.512C323.787 72.7787 323.483 73.1733 323.28 73.696C323.078 74.208 322.976 74.8427 322.976 75.6V75.76C322.976 76.56 323.072 77.232 323.264 77.776C323.467 78.3093 323.766 78.7093 324.16 78.976C324.566 79.2427 325.072 79.376 325.68 79.376C326.278 79.376 326.774 79.232 327.168 78.944C327.574 78.6453 327.878 78.224 328.08 77.68C328.294 77.1253 328.4 76.464 328.4 75.696C328.4 74.5333 328.182 73.648 327.744 73.04C327.307 72.4213 326.64 72.112 325.744 72.112ZM332.538 71.488V80H331.642V71.488H332.538ZM332.09 68.336C332.293 68.336 332.448 68.4 332.554 68.528C332.661 68.6453 332.714 68.8107 332.714 69.024C332.714 69.248 332.661 69.424 332.554 69.552C332.448 69.6693 332.293 69.728 332.09 69.728C331.898 69.728 331.749 69.6693 331.642 69.552C331.536 69.424 331.482 69.248 331.482 69.024C331.482 68.8107 331.536 68.6453 331.642 68.528C331.749 68.4 331.898 68.336 332.09 68.336ZM339.169 71.328C340.14 71.328 340.881 71.5787 341.393 72.08C341.905 72.5813 342.161 73.3707 342.161 74.448V80H341.265V74.496C341.265 73.6747 341.078 73.072 340.705 72.688C340.332 72.304 339.782 72.112 339.057 72.112C338.129 72.112 337.43 72.384 336.961 72.928C336.492 73.472 336.257 74.2827 336.257 75.36V80H335.361V71.488H336.081L336.225 72.96H336.273C336.433 72.6507 336.646 72.3733 336.913 72.128C337.18 71.8827 337.5 71.6907 337.873 71.552C338.257 71.4027 338.689 71.328 339.169 71.328ZM347.997 71.328C348.669 71.328 349.223 71.4613 349.661 71.728C350.098 71.984 350.45 72.336 350.717 72.784H350.781L350.909 71.488H351.645V80.272C351.645 81.0187 351.517 81.6533 351.261 82.176C351.005 82.7093 350.605 83.12 350.061 83.408C349.527 83.696 348.829 83.84 347.965 83.84C347.335 83.84 346.77 83.7867 346.269 83.68C345.778 83.5733 345.335 83.4347 344.941 83.264V82.384C345.207 82.512 345.501 82.6293 345.821 82.736C346.141 82.8427 346.482 82.9227 346.845 82.976C347.218 83.0293 347.607 83.056 348.013 83.056C348.951 83.056 349.639 82.8107 350.077 82.32C350.525 81.8293 350.749 81.168 350.749 80.336V79.824C350.749 79.6 350.749 79.376 350.749 79.152C350.759 78.9173 350.77 78.6987 350.781 78.496H350.733C350.487 79.04 350.125 79.456 349.645 79.744C349.165 80.0213 348.578 80.16 347.885 80.16C346.786 80.16 345.927 79.7867 345.309 79.04C344.69 78.2933 344.381 77.2213 344.381 75.824C344.381 74.896 344.519 74.096 344.797 73.424C345.074 72.752 345.479 72.2347 346.013 71.872C346.557 71.5093 347.218 71.328 347.997 71.328ZM348.093 72.112C347.474 72.112 346.957 72.2613 346.541 72.56C346.135 72.848 345.831 73.2693 345.629 73.824C345.426 74.368 345.325 75.0347 345.325 75.824C345.325 76.9867 345.554 77.872 346.013 78.48C346.471 79.088 347.127 79.392 347.981 79.392C348.525 79.392 348.973 79.312 349.325 79.152C349.677 78.9813 349.954 78.7467 350.157 78.448C350.37 78.1493 350.519 77.7973 350.605 77.392C350.701 76.976 350.749 76.5333 350.749 76.064V75.504C350.749 74.7787 350.663 74.1653 350.493 73.664C350.322 73.1627 350.039 72.7787 349.645 72.512C349.261 72.2453 348.743 72.112 348.093 72.112Z" fill="#595959"/>
<path d="M37.282 105.167H20.6916C19.2851 105.167 18.167 106.285 18.167 107.691V119.954C18.167 121.36 19.2851 122.478 20.6916 122.478V121.757C19.6817 121.757 18.8883 120.964 18.8883 119.954V108.773H38.364V108.052H18.8883V107.691C18.8883 106.681 19.6817 105.888 20.6916 105.888H37.282C38.2919 105.888 39.0853 106.681 39.0853 107.691V119.954C39.0853 120.964 38.2919 121.757 37.282 121.757V122.478C38.6885 122.478 39.8066 121.36 39.8066 119.954V107.691C39.8066 106.285 38.6885 105.167 37.282 105.167Z" fill="url(#paint38_linear_287_7978)"/>
<path d="M20.331 106.609V107.331H21.0523V106.609H20.331Z" fill="url(#paint39_linear_287_7978)"/>
<path d="M21.7736 106.609H22.4949V107.331H21.7736V106.609Z" fill="url(#paint40_linear_287_7978)"/>
<path d="M23.2162 106.609H23.9376V107.331H23.2162V106.609Z" fill="url(#paint41_linear_287_7978)"/>
<path d="M29.7081 106.609H24.6589V107.331H29.7081V106.609Z" fill="url(#paint42_linear_287_7978)"/>
<path fill-rule="evenodd" clip-rule="evenodd" d="M36.9176 115.021L36.5607 126.301L36.3082 126.482C35.5869 126.951 34.6491 126.951 33.9278 126.482L33.6754 126.301L33.3184 115.021C33.0885 114.677 32.9541 114.265 32.9541 113.823C32.9541 111.839 34.1803 109.855 36.5607 109.855C36.7049 109.855 36.8492 109.927 36.8852 110.072C36.9574 110.216 36.9213 110.36 36.8131 110.468C36.5246 110.757 36.5607 110.937 36.8131 111.55L36.8447 111.639C37.0216 112.131 37.248 112.76 37.282 113.678V113.823C37.282 114.265 37.1475 114.677 36.9176 115.021ZM36.1521 115.722L35.8393 125.905C35.4066 126.157 34.8295 126.157 34.3967 125.905L34.0829 115.721C34.3908 115.89 34.7437 115.986 35.118 115.986C35.4919 115.986 35.8445 115.89 36.1521 115.722ZM33.6754 113.823C33.6754 114.616 34.3246 115.265 35.118 115.265C35.9115 115.265 36.5607 114.616 36.5246 113.823C36.5246 112.993 36.3442 112.416 36.1639 111.947C36.1639 111.947 35.8393 111.045 35.9115 110.649C35.118 110.793 34.577 111.262 34.2164 111.839C33.8557 112.452 33.6754 113.209 33.6754 113.823Z" fill="url(#paint43_linear_287_7978)"/>
<path fill-rule="evenodd" clip-rule="evenodd" d="M27.9048 109.495H30.0688C30.8622 109.495 31.5114 110.144 31.5114 110.937V125.364C31.5114 126.157 30.8622 126.806 30.0688 126.806H27.9048C27.1114 126.806 26.4622 126.157 26.4622 125.364V110.937C26.4622 110.144 27.1114 109.495 27.9048 109.495ZM27.9048 126.085H30.0688C30.4655 126.085 30.7901 125.76 30.7901 125.364V125.003H29.3475V124.282H30.7901V123.56H30.0688V122.839H30.7901V122.118H30.0688V121.396H30.7901V120.675H29.3475V119.954H30.7901V119.232H30.0688V118.511H30.7901V117.79H30.0688V117.068H30.7901V116.347H29.3475V115.626H30.7901V114.905H30.0688V114.183H30.7901V113.462H30.0688V112.741H30.7901V112.019H29.3475V111.298H30.7901V110.937C30.7901 110.541 30.4655 110.216 30.0688 110.216H27.9048C27.5081 110.216 27.1835 110.541 27.1835 110.937V125.364C27.1835 125.76 27.5081 126.085 27.9048 126.085Z" fill="url(#paint44_linear_287_7978)"/>
<path fill-rule="evenodd" clip-rule="evenodd" d="M24.9834 113.678L23.5408 110.432C23.4687 110.252 23.2523 110.18 23.072 110.252C22.9998 110.288 22.9277 110.36 22.8917 110.432L21.449 113.678C21.422 113.729 21.4129 113.786 21.4129 113.823V125.724C21.4129 126.337 21.8818 126.806 22.4949 126.806H23.9376C24.5507 126.806 25.0195 126.337 25.0195 125.724V113.823C25.0195 113.786 25.0036 113.727 24.9834 113.678ZM22.8556 114.905V123.921H22.1343V114.183H24.2982V123.921H23.5769V114.905H22.8556ZM23.2162 111.478L24.1179 113.462H22.3507L23.2162 111.478ZM22.4949 126.085C22.2785 126.085 22.1343 125.941 22.1343 125.724V124.642H24.2982V125.724C24.2982 125.941 24.154 126.085 23.9376 126.085H22.4949Z" fill="url(#paint45_linear_287_7978)"/>
<path d="M59.296 110.576L55.104 122H54.192L50 110.576H50.976L53.984 118.816C54.08 119.072 54.1653 119.323 54.24 119.568C54.3253 119.803 54.4 120.032 54.464 120.256C54.5387 120.48 54.6027 120.699 54.656 120.912C54.7093 120.699 54.768 120.485 54.832 120.272C54.896 120.048 54.9653 119.819 55.04 119.584C55.1253 119.339 55.216 119.077 55.312 118.8L58.32 110.576H59.296ZM61.6009 113.488V122H60.7049V113.488H61.6009ZM61.1529 110.336C61.3555 110.336 61.5102 110.4 61.6169 110.528C61.7235 110.645 61.7769 110.811 61.7769 111.024C61.7769 111.248 61.7235 111.424 61.6169 111.552C61.5102 111.669 61.3555 111.728 61.1529 111.728C60.9609 111.728 60.8115 111.669 60.7049 111.552C60.5982 111.424 60.5449 111.248 60.5449 111.024C60.5449 110.811 60.5982 110.645 60.7049 110.528C60.8115 110.4 60.9609 110.336 61.1529 110.336ZM69.7676 119.744C69.7676 120.256 69.6396 120.693 69.3836 121.056C69.1276 121.419 68.7543 121.696 68.2636 121.888C67.773 122.069 67.1756 122.16 66.4716 122.16C65.885 122.16 65.3623 122.107 64.9036 122C64.445 121.893 64.0556 121.765 63.7356 121.616V120.736C64.1196 120.928 64.5516 121.088 65.0316 121.216C65.5116 121.333 65.997 121.392 66.4876 121.392C67.341 121.392 67.9543 121.253 68.3276 120.976C68.701 120.688 68.8876 120.299 68.8876 119.808C68.8876 119.488 68.797 119.227 68.6156 119.024C68.445 118.811 68.1836 118.624 67.8316 118.464C67.4903 118.293 67.0636 118.123 66.5516 117.952C66.029 117.771 65.565 117.589 65.1596 117.408C64.7543 117.216 64.4396 116.976 64.2156 116.688C63.9916 116.4 63.8796 116.005 63.8796 115.504C63.8796 114.821 64.157 114.288 64.7116 113.904C65.2663 113.52 66.0076 113.328 66.9356 113.328C67.4476 113.328 67.9223 113.376 68.3596 113.472C68.8076 113.568 69.213 113.696 69.5756 113.856L69.2556 114.608C69.0423 114.512 68.8023 114.427 68.5356 114.352C68.269 114.267 67.997 114.203 67.7196 114.16C67.4423 114.117 67.165 114.096 66.8876 114.096C66.2156 114.096 65.693 114.213 65.3196 114.448C64.9463 114.683 64.7596 115.024 64.7596 115.472C64.7596 115.813 64.845 116.085 65.0156 116.288C65.197 116.48 65.4583 116.645 65.7996 116.784C66.1516 116.923 66.573 117.083 67.0636 117.264C67.565 117.435 68.0183 117.616 68.4236 117.808C68.8396 118 69.165 118.245 69.3996 118.544C69.645 118.843 69.7676 119.243 69.7676 119.744ZM78.612 113.488V122H77.86L77.732 120.544H77.684C77.5347 120.853 77.3213 121.131 77.044 121.376C76.7773 121.621 76.4573 121.813 76.084 121.952C75.7107 122.091 75.2787 122.16 74.788 122.16C74.1267 122.16 73.572 122.048 73.124 121.824C72.6867 121.589 72.356 121.243 72.132 120.784C71.908 120.325 71.796 119.755 71.796 119.072V113.488H72.708V118.992C72.708 119.803 72.8893 120.405 73.252 120.8C73.6253 121.184 74.1693 121.376 74.884 121.376C75.5133 121.376 76.036 121.259 76.452 121.024C76.868 120.779 77.1773 120.416 77.38 119.936C77.5933 119.456 77.7 118.859 77.7 118.144V113.488H78.612ZM84.4316 113.344C85.3916 113.344 86.1063 113.579 86.5756 114.048C87.045 114.517 87.2796 115.264 87.2796 116.288V122H86.5916L86.4316 120.56H86.3836C86.181 120.88 85.9463 121.163 85.6796 121.408C85.4236 121.643 85.109 121.829 84.7356 121.968C84.373 122.096 83.925 122.16 83.3916 122.16C82.8583 122.16 82.3943 122.069 81.9996 121.888C81.605 121.696 81.301 121.424 81.0876 121.072C80.8743 120.72 80.7676 120.288 80.7676 119.776C80.7676 118.933 81.1143 118.293 81.8076 117.856C82.501 117.408 83.509 117.152 84.8316 117.088L86.3836 117.024V116.416C86.3836 115.573 86.213 114.981 85.8716 114.64C85.541 114.288 85.045 114.112 84.3836 114.112C83.9463 114.112 83.525 114.171 83.1196 114.288C82.725 114.395 82.325 114.549 81.9196 114.752L81.6316 114.032C82.0263 113.829 82.4636 113.664 82.9436 113.536C83.4236 113.408 83.9196 113.344 84.4316 113.344ZM84.9276 117.76C83.8503 117.813 83.045 118.005 82.5116 118.336C81.9783 118.656 81.7116 119.141 81.7116 119.792C81.7116 120.315 81.877 120.715 82.2076 120.992C82.5383 121.259 82.9863 121.392 83.5516 121.392C84.4583 121.392 85.1516 121.141 85.6316 120.64C86.1223 120.139 86.373 119.435 86.3836 118.528V117.696L84.9276 117.76ZM90.9138 122H90.0018V109.84H90.9138V122ZM106.837 116.176C106.837 117.456 106.607 118.528 106.149 119.392C105.701 120.256 105.034 120.907 104.149 121.344C103.274 121.781 102.186 122 100.885 122H98.0688V110.576H101.237C102.442 110.576 103.461 110.789 104.293 111.216C105.125 111.643 105.754 112.272 106.181 113.104C106.618 113.936 106.837 114.96 106.837 116.176ZM105.877 116.208C105.877 115.131 105.701 114.24 105.349 113.536C104.997 112.821 104.463 112.288 103.749 111.936C103.034 111.573 102.138 111.392 101.061 111.392H98.9968V121.184H100.821C102.517 121.184 103.781 120.773 104.613 119.952C105.455 119.12 105.877 117.872 105.877 116.208ZM112.468 113.328C113.204 113.328 113.812 113.499 114.292 113.84C114.782 114.171 115.15 114.629 115.396 115.216C115.652 115.803 115.78 116.48 115.78 117.248V117.856H109.7C109.7 118.997 109.961 119.867 110.484 120.464C111.017 121.061 111.769 121.36 112.74 121.36C113.273 121.36 113.737 121.317 114.132 121.232C114.526 121.147 114.958 120.997 115.428 120.784V121.616C115.001 121.808 114.58 121.947 114.164 122.032C113.748 122.117 113.262 122.16 112.708 122.16C111.865 122.16 111.145 121.984 110.548 121.632C109.961 121.28 109.513 120.779 109.204 120.128C108.905 119.467 108.756 118.699 108.756 117.824C108.756 116.949 108.9 116.176 109.188 115.504C109.476 114.832 109.897 114.304 110.452 113.92C111.006 113.525 111.678 113.328 112.468 113.328ZM112.468 114.096C111.678 114.096 111.044 114.357 110.564 114.88C110.084 115.392 109.801 116.133 109.716 117.104H114.836C114.836 116.507 114.75 115.984 114.58 115.536C114.409 115.088 114.148 114.736 113.796 114.48C113.454 114.224 113.012 114.096 112.468 114.096ZM123.424 119.744C123.424 120.256 123.296 120.693 123.04 121.056C122.784 121.419 122.411 121.696 121.92 121.888C121.429 122.069 120.832 122.16 120.128 122.16C119.541 122.16 119.019 122.107 118.56 122C118.101 121.893 117.712 121.765 117.392 121.616V120.736C117.776 120.928 118.208 121.088 118.688 121.216C119.168 121.333 119.653 121.392 120.144 121.392C120.997 121.392 121.611 121.253 121.984 120.976C122.357 120.688 122.544 120.299 122.544 119.808C122.544 119.488 122.453 119.227 122.272 119.024C122.101 118.811 121.84 118.624 121.488 118.464C121.147 118.293 120.72 118.123 120.208 117.952C119.685 117.771 119.221 117.589 118.816 117.408C118.411 117.216 118.096 116.976 117.872 116.688C117.648 116.4 117.536 116.005 117.536 115.504C117.536 114.821 117.813 114.288 118.368 113.904C118.923 113.52 119.664 113.328 120.592 113.328C121.104 113.328 121.579 113.376 122.016 113.472C122.464 113.568 122.869 113.696 123.232 113.856L122.912 114.608C122.699 114.512 122.459 114.427 122.192 114.352C121.925 114.267 121.653 114.203 121.376 114.16C121.099 114.117 120.821 114.096 120.544 114.096C119.872 114.096 119.349 114.213 118.976 114.448C118.603 114.683 118.416 115.024 118.416 115.472C118.416 115.813 118.501 116.085 118.672 116.288C118.853 116.48 119.115 116.645 119.456 116.784C119.808 116.923 120.229 117.083 120.72 117.264C121.221 117.435 121.675 117.616 122.08 117.808C122.496 118 122.821 118.245 123.056 118.544C123.301 118.843 123.424 119.243 123.424 119.744ZM126.46 113.488V122H125.564V113.488H126.46ZM126.012 110.336C126.215 110.336 126.37 110.4 126.476 110.528C126.583 110.645 126.636 110.811 126.636 111.024C126.636 111.248 126.583 111.424 126.476 111.552C126.37 111.669 126.215 111.728 126.012 111.728C125.82 111.728 125.671 111.669 125.564 111.552C125.458 111.424 125.404 111.248 125.404 111.024C125.404 110.811 125.458 110.645 125.564 110.528C125.671 110.4 125.82 110.336 126.012 110.336ZM132.403 113.328C133.075 113.328 133.63 113.461 134.067 113.728C134.504 113.984 134.856 114.336 135.123 114.784H135.187L135.315 113.488H136.051V122.272C136.051 123.019 135.923 123.653 135.667 124.176C135.411 124.709 135.011 125.12 134.467 125.408C133.934 125.696 133.235 125.84 132.371 125.84C131.742 125.84 131.176 125.787 130.675 125.68C130.184 125.573 129.742 125.435 129.347 125.264V124.384C129.614 124.512 129.907 124.629 130.227 124.736C130.547 124.843 130.888 124.923 131.251 124.976C131.624 125.029 132.014 125.056 132.419 125.056C133.358 125.056 134.046 124.811 134.483 124.32C134.931 123.829 135.155 123.168 135.155 122.336V121.824C135.155 121.6 135.155 121.376 135.155 121.152C135.166 120.917 135.176 120.699 135.187 120.496H135.139C134.894 121.04 134.531 121.456 134.051 121.744C133.571 122.021 132.984 122.16 132.291 122.16C131.192 122.16 130.334 121.787 129.715 121.04C129.096 120.293 128.787 119.221 128.787 117.824C128.787 116.896 128.926 116.096 129.203 115.424C129.48 114.752 129.886 114.235 130.419 113.872C130.963 113.509 131.624 113.328 132.403 113.328ZM132.499 114.112C131.88 114.112 131.363 114.261 130.947 114.56C130.542 114.848 130.238 115.269 130.035 115.824C129.832 116.368 129.731 117.035 129.731 117.824C129.731 118.987 129.96 119.872 130.419 120.48C130.878 121.088 131.534 121.392 132.387 121.392C132.931 121.392 133.379 121.312 133.731 121.152C134.083 120.981 134.36 120.747 134.563 120.448C134.776 120.149 134.926 119.797 135.011 119.392C135.107 118.976 135.155 118.533 135.155 118.064V117.504C135.155 116.779 135.07 116.165 134.899 115.664C134.728 115.163 134.446 114.779 134.051 114.512C133.667 114.245 133.15 114.112 132.499 114.112ZM142.669 113.328C143.64 113.328 144.381 113.579 144.893 114.08C145.405 114.581 145.661 115.371 145.661 116.448V122H144.765V116.496C144.765 115.675 144.578 115.072 144.205 114.688C143.832 114.304 143.282 114.112 142.557 114.112C141.629 114.112 140.93 114.384 140.461 114.928C139.992 115.472 139.757 116.283 139.757 117.36V122H138.861V113.488H139.581L139.725 114.96H139.773C139.933 114.651 140.146 114.373 140.413 114.128C140.68 113.883 141 113.691 141.373 113.552C141.757 113.403 142.189 113.328 142.669 113.328Z" fill="#595959"/>
<path d="M245.194 126.1H245.917C248.416 126.1 254.223 125.009 254.223 114.905V109.849C254.223 109.65 254.061 109.488 253.862 109.488H253.047L254.945 106.232L256.844 109.488H256.029C255.83 109.488 255.668 109.65 255.668 109.849V114.905C255.668 115.104 255.83 115.266 256.029 115.266C256.075 115.266 256.119 115.257 256.16 115.241C256.209 115.222 256.253 115.192 256.29 115.154C256.352 115.09 256.39 115.002 256.39 114.905V110.21H257.473C257.603 110.21 257.72 110.141 257.785 110.029C257.85 109.917 257.85 109.779 257.785 109.667L255.257 105.334C255.127 105.111 254.762 105.111 254.632 105.334L252.104 109.667C252.041 109.779 252.039 109.917 252.104 110.029C252.169 110.141 252.288 110.21 252.418 110.21H253.501V114.905C253.501 124.357 248.197 125.377 245.917 125.377H245.194C244.995 125.377 244.833 125.539 244.833 125.738C244.833 125.938 244.995 126.1 245.194 126.1Z" fill="url(#paint46_linear_287_7978)"/>
<path d="M237.824 108.734C237.87 108.754 237.92 108.766 237.973 108.766C238.172 108.766 238.334 108.604 238.334 108.405V107.682C238.334 107.588 238.37 107.502 238.43 107.438C238.469 107.395 238.519 107.361 238.575 107.341C238.613 107.328 238.654 107.321 238.695 107.321H252.418C252.519 107.321 252.612 107.279 252.678 107.21C252.741 107.145 252.779 107.057 252.779 106.96C252.779 106.888 252.757 106.822 252.722 106.766L252.686 106.719L252.639 106.675L252.605 106.651L252.561 106.629C252.518 106.61 252.468 106.599 252.418 106.599H238.695C238.098 106.599 237.611 107.085 237.611 107.682V108.405C237.611 108.496 237.645 108.579 237.702 108.643C237.736 108.682 237.778 108.713 237.824 108.734Z" fill="url(#paint47_linear_287_7978)"/>
<path d="M242.574 108.647C242.508 108.72 242.412 108.766 242.306 108.766C242.214 108.766 242.131 108.731 242.066 108.675C241.992 108.609 241.945 108.512 241.945 108.405C241.945 108.205 242.107 108.043 242.306 108.043C242.505 108.043 242.667 108.205 242.667 108.405C242.667 108.449 242.659 108.491 242.645 108.53C242.628 108.574 242.604 108.613 242.574 108.647Z" fill="url(#paint48_linear_287_7978)"/>
<path d="M240.862 108.766C241.06 108.766 241.223 108.604 241.223 108.405L241.22 108.357C241.216 108.327 241.207 108.298 241.196 108.27C241.175 108.217 241.141 108.17 241.099 108.132C241.035 108.077 240.952 108.043 240.862 108.043C240.663 108.043 240.5 108.205 240.5 108.405C240.5 108.493 240.533 108.574 240.585 108.637C240.651 108.716 240.752 108.766 240.862 108.766Z" fill="url(#paint49_linear_287_7978)"/>
<path d="M239.667 108.666C239.602 108.728 239.513 108.766 239.417 108.766C239.371 108.766 239.327 108.757 239.286 108.741C239.249 108.727 239.215 108.706 239.186 108.681C239.107 108.615 239.056 108.516 239.056 108.405C239.056 108.205 239.218 108.043 239.417 108.043C239.616 108.043 239.778 108.205 239.778 108.405C239.778 108.507 239.736 108.6 239.667 108.666Z" fill="url(#paint50_linear_287_7978)"/>
<path d="M240.862 111.655C241.06 111.655 241.223 111.493 241.223 111.293C241.223 111.094 241.06 110.932 240.862 110.932C240.774 110.932 240.694 110.963 240.632 111.015C240.553 111.081 240.5 111.181 240.5 111.293C240.5 111.383 240.533 111.466 240.588 111.529C240.654 111.606 240.753 111.655 240.862 111.655Z" fill="url(#paint51_linear_287_7978)"/>
<path d="M239.664 111.557C239.599 111.617 239.513 111.655 239.417 111.655C239.352 111.655 239.29 111.637 239.237 111.606L239.183 111.568C239.105 111.502 239.056 111.404 239.056 111.293C239.056 111.094 239.218 110.932 239.417 110.932C239.616 110.932 239.778 111.094 239.778 111.293C239.778 111.397 239.734 111.491 239.664 111.557Z" fill="url(#paint52_linear_287_7978)"/>
<path d="M237.973 111.655C238.172 111.655 238.334 111.493 238.334 111.293C238.334 111.094 238.172 110.932 237.973 110.932C237.888 110.932 237.81 110.961 237.748 111.01C237.665 111.076 237.611 111.178 237.611 111.293C237.611 111.388 237.648 111.474 237.707 111.538C237.774 111.61 237.868 111.655 237.973 111.655Z" fill="url(#paint53_linear_287_7978)"/>
<path d="M252.779 125.738C252.779 125.938 252.941 126.1 253.14 126.1H255.307C255.903 126.1 256.39 125.613 256.39 125.016V119.238C256.39 119.039 256.228 118.877 256.029 118.877C255.903 118.877 255.793 118.941 255.728 119.038C255.69 119.095 255.668 119.164 255.668 119.238V125.016C255.668 125.054 255.662 125.09 255.651 125.123C255.639 125.161 255.621 125.196 255.599 125.228C255.559 125.282 255.505 125.325 255.442 125.351C255.4 125.368 255.354 125.377 255.307 125.377H253.14C252.941 125.377 252.779 125.539 252.779 125.738Z" fill="url(#paint54_linear_287_7978)"/>
<path d="M244.112 125.738C244.112 125.938 243.949 126.1 243.751 126.1H237.25C236.654 126.1 236.167 125.613 236.167 125.016V110.571C236.167 109.974 236.654 109.488 237.25 109.488H250.973C251.172 109.488 251.334 109.65 251.334 109.849C251.334 110.048 251.172 110.21 250.973 110.21H237.25C237.051 110.21 236.889 110.372 236.889 110.571V112.377H251.695C251.894 112.377 252.056 112.539 252.056 112.738C252.056 112.937 251.894 113.099 251.695 113.099H236.889V125.016C236.889 125.062 236.898 125.106 236.913 125.147L236.943 125.203L236.977 125.251C237.043 125.328 237.14 125.377 237.25 125.377H243.751C243.78 125.377 243.81 125.381 243.838 125.388C243.862 125.394 243.886 125.402 243.909 125.413L243.925 125.422L243.968 125.45L244.017 125.495C244.054 125.534 244.081 125.581 244.096 125.633C244.106 125.667 244.112 125.702 244.112 125.738Z" fill="url(#paint55_linear_287_7978)"/>
<path d="M256.027 116.71C256.226 116.71 256.388 116.549 256.388 116.349C256.388 116.15 256.226 115.988 256.027 115.988C255.828 115.988 255.666 116.15 255.666 116.349C255.666 116.549 255.828 116.71 256.027 116.71Z" fill="url(#paint56_linear_287_7978)"/>
<path d="M244.471 121.766C243.078 121.766 241.944 120.632 241.944 119.238C241.944 117.844 243.078 116.71 244.471 116.71C245.867 116.71 246.999 117.844 246.999 119.238C246.999 119.438 246.838 119.599 246.638 119.599C246.439 119.599 246.277 119.438 246.277 119.238C246.277 118.243 245.467 117.433 244.471 117.433C243.477 117.433 242.666 118.243 242.666 119.238C242.666 120.233 243.477 121.044 244.471 121.044C244.593 121.044 244.71 121.032 244.824 121.01C245.023 120.972 245.211 121.099 245.247 121.294C245.287 121.49 245.158 121.68 244.964 121.718C244.806 121.749 244.641 121.766 244.471 121.766Z" fill="url(#paint57_linear_287_7978)"/>
<path d="M246.555 120.968C246.489 121.046 246.39 121.096 246.28 121.096C246.08 121.096 245.919 120.934 245.919 120.735C245.919 120.618 245.974 120.514 246.06 120.448C246.12 120.401 246.197 120.374 246.28 120.374C246.479 120.374 246.641 120.535 246.641 120.735C246.641 120.824 246.609 120.905 246.555 120.968Z" fill="url(#paint58_linear_287_7978)"/>
<path fill-rule="evenodd" clip-rule="evenodd" d="M245.122 124.655H243.823C243.653 124.655 243.507 124.537 243.47 124.371L243.257 123.393C242.956 123.306 242.669 123.186 242.394 123.035L241.551 123.575C241.41 123.667 241.223 123.647 241.101 123.527L240.184 122.609C240.065 122.488 240.043 122.301 240.135 122.158L240.674 121.316C240.523 121.042 240.403 120.753 240.316 120.454L239.34 120.24C239.174 120.204 239.056 120.057 239.056 119.887V118.588C239.056 118.504 239.084 118.426 239.134 118.364C239.184 118.301 239.256 118.254 239.34 118.236L240.316 118.022C240.405 117.721 240.524 117.433 240.674 117.159L240.135 116.317C240.114 116.283 240.098 116.246 240.089 116.209C240.082 116.178 240.079 116.146 240.079 116.114C240.08 116.051 240.098 115.988 240.132 115.933C240.146 115.909 240.163 115.887 240.183 115.867L241.101 114.949C241.223 114.828 241.409 114.807 241.551 114.9L242.395 115.439C242.559 115.349 242.728 115.27 242.901 115.202C243.018 115.157 243.137 115.116 243.257 115.081L243.47 114.104C243.507 113.94 243.653 113.821 243.824 113.821H245.123C245.292 113.821 245.439 113.94 245.476 114.105L245.689 115.082C245.871 115.135 246.048 115.2 246.222 115.277C246.333 115.327 246.443 115.381 246.551 115.44L247.394 114.9C247.537 114.809 247.724 114.829 247.844 114.949L248.761 115.867C248.881 115.987 248.902 116.174 248.811 116.317L248.27 117.16C248.328 117.265 248.382 117.373 248.431 117.483C248.509 117.658 248.575 117.838 248.629 118.021L249.605 118.235C249.771 118.271 249.888 118.418 249.888 118.587V119.887C249.888 120.056 249.771 120.203 249.605 120.239L248.629 120.453C248.541 120.751 248.423 121.039 248.27 121.315L248.811 122.158C248.902 122.301 248.881 122.488 248.761 122.607L247.844 123.527C247.723 123.647 247.535 123.667 247.393 123.575L246.551 123.034C246.451 123.09 246.348 123.141 246.243 123.188C246.064 123.268 245.879 123.337 245.689 123.392L245.476 124.37C245.439 124.537 245.292 124.655 245.122 124.655ZM244.115 123.933H244.831L245.03 123.024C245.06 122.888 245.165 122.781 245.301 122.749C245.68 122.66 246.039 122.511 246.37 122.306C246.435 122.265 246.51 122.247 246.585 122.252C246.644 122.256 246.703 122.275 246.755 122.308L247.538 122.811L248.046 122.303L247.545 121.519C247.469 121.402 247.469 121.253 247.541 121.135C247.748 120.8 247.898 120.44 247.985 120.066C248.016 119.93 248.124 119.825 248.259 119.795L249.167 119.596V118.879L248.259 118.68C248.124 118.65 248.016 118.545 247.985 118.409C247.896 118.034 247.748 117.675 247.541 117.34C247.469 117.222 247.469 117.072 247.545 116.956L248.046 116.172L247.54 115.665L246.755 116.167C246.638 116.242 246.489 116.243 246.372 116.17C246.17 116.045 245.958 115.942 245.741 115.86C245.599 115.806 245.452 115.761 245.302 115.727C245.167 115.695 245.062 115.588 245.031 115.452L244.831 114.544H244.115L243.916 115.451C243.909 115.481 243.899 115.51 243.885 115.537C243.838 115.631 243.751 115.701 243.645 115.726C243.271 115.813 242.911 115.963 242.576 116.169C242.457 116.242 242.307 116.241 242.192 116.166L241.408 115.665L240.901 116.172L241.402 116.955C241.478 117.072 241.478 117.222 241.406 117.341C241.31 117.493 241.227 117.653 241.156 117.817C241.121 117.9 241.089 117.983 241.059 118.068C241.021 118.18 240.987 118.294 240.96 118.41C240.929 118.545 240.822 118.65 240.687 118.679L239.781 118.878V119.596L240.688 119.794C240.824 119.824 240.931 119.929 240.963 120.065C241.051 120.443 241.2 120.803 241.406 121.133C241.479 121.252 241.478 121.402 241.403 121.519L240.901 122.303L241.409 122.81L242.192 122.308C242.31 122.233 242.46 122.232 242.578 122.305C242.645 122.346 242.714 122.386 242.783 122.423L242.883 122.474C243.126 122.595 243.381 122.687 243.646 122.748C243.782 122.78 243.886 122.886 243.917 123.023L244.115 123.933Z" fill="url(#paint59_linear_287_7978)"/>
<path d="M278.368 116.176C278.368 117.456 278.139 118.528 277.68 119.392C277.232 120.256 276.565 120.907 275.68 121.344C274.805 121.781 273.717 122 272.416 122H269.6V110.576H272.768C273.973 110.576 274.992 110.789 275.824 111.216C276.656 111.643 277.285 112.272 277.712 113.104C278.149 113.936 278.368 114.96 278.368 116.176ZM277.408 116.208C277.408 115.131 277.232 114.24 276.88 113.536C276.528 112.821 275.995 112.288 275.28 111.936C274.565 111.573 273.669 111.392 272.592 111.392H270.528V121.184H272.352C274.048 121.184 275.312 120.773 276.144 119.952C276.987 119.12 277.408 117.872 277.408 116.208ZM283.999 113.328C284.735 113.328 285.343 113.499 285.823 113.84C286.314 114.171 286.682 114.629 286.927 115.216C287.183 115.803 287.311 116.48 287.311 117.248V117.856H281.231C281.231 118.997 281.492 119.867 282.015 120.464C282.548 121.061 283.3 121.36 284.271 121.36C284.804 121.36 285.268 121.317 285.663 121.232C286.058 121.147 286.49 120.997 286.959 120.784V121.616C286.532 121.808 286.111 121.947 285.695 122.032C285.279 122.117 284.794 122.16 284.239 122.16C283.396 122.16 282.676 121.984 282.079 121.632C281.492 121.28 281.044 120.779 280.735 120.128C280.436 119.467 280.287 118.699 280.287 117.824C280.287 116.949 280.431 116.176 280.719 115.504C281.007 114.832 281.428 114.304 281.983 113.92C282.538 113.525 283.21 113.328 283.999 113.328ZM283.999 114.096C283.21 114.096 282.575 114.357 282.095 114.88C281.615 115.392 281.332 116.133 281.247 117.104H286.367C286.367 116.507 286.282 115.984 286.111 115.536C285.94 115.088 285.679 114.736 285.327 114.48C284.986 114.224 284.543 114.096 283.999 114.096ZM291.155 122L287.891 113.488H288.851L290.963 119.136C291.059 119.371 291.144 119.605 291.219 119.84C291.304 120.075 291.379 120.299 291.443 120.512C291.507 120.715 291.56 120.907 291.603 121.088H291.651C291.704 120.907 291.763 120.709 291.827 120.496C291.901 120.283 291.981 120.059 292.067 119.824C292.152 119.589 292.232 119.36 292.307 119.136L294.419 113.488H295.395L292.131 122H291.155ZM300.015 113.328C300.751 113.328 301.359 113.499 301.839 113.84C302.329 114.171 302.697 114.629 302.943 115.216C303.199 115.803 303.327 116.48 303.327 117.248V117.856H297.247C297.247 118.997 297.508 119.867 298.031 120.464C298.564 121.061 299.316 121.36 300.287 121.36C300.82 121.36 301.284 121.317 301.679 121.232C302.073 121.147 302.505 120.997 302.975 120.784V121.616C302.548 121.808 302.127 121.947 301.711 122.032C301.295 122.117 300.809 122.16 300.255 122.16C299.412 122.16 298.692 121.984 298.095 121.632C297.508 121.28 297.06 120.779 296.751 120.128C296.452 119.467 296.303 118.699 296.303 117.824C296.303 116.949 296.447 116.176 296.735 115.504C297.023 114.832 297.444 114.304 297.999 113.92C298.553 113.525 299.225 113.328 300.015 113.328ZM300.015 114.096C299.225 114.096 298.591 114.357 298.111 114.88C297.631 115.392 297.348 116.133 297.263 117.104H302.383C302.383 116.507 302.297 115.984 302.127 115.536C301.956 115.088 301.695 114.736 301.343 114.48C301.001 114.224 300.559 114.096 300.015 114.096ZM306.539 122H305.627V109.84H306.539V122ZM316.466 117.744C316.466 118.405 316.38 119.008 316.21 119.552C316.05 120.085 315.804 120.549 315.474 120.944C315.154 121.328 314.754 121.627 314.274 121.84C313.794 122.053 313.244 122.16 312.626 122.16C312.039 122.16 311.511 122.059 311.042 121.856C310.583 121.643 310.188 121.344 309.858 120.96C309.527 120.565 309.276 120.096 309.106 119.552C308.935 119.008 308.85 118.405 308.85 117.744C308.85 116.816 308.999 116.027 309.298 115.376C309.607 114.715 310.05 114.208 310.626 113.856C311.212 113.504 311.906 113.328 312.706 113.328C313.516 113.328 314.199 113.515 314.754 113.888C315.319 114.251 315.746 114.763 316.034 115.424C316.322 116.085 316.466 116.859 316.466 117.744ZM309.794 117.744C309.794 118.469 309.895 119.109 310.098 119.664C310.3 120.208 310.615 120.629 311.042 120.928C311.468 121.227 312.002 121.376 312.641 121.376C313.303 121.376 313.847 121.227 314.274 120.928C314.7 120.619 315.015 120.192 315.218 119.648C315.42 119.093 315.522 118.459 315.522 117.744C315.522 117.029 315.426 116.4 315.234 115.856C315.042 115.312 314.738 114.885 314.322 114.576C313.906 114.267 313.362 114.112 312.69 114.112C311.719 114.112 310.994 114.432 310.514 115.072C310.034 115.712 309.794 116.603 309.794 117.744ZM322.591 113.328C323.679 113.328 324.527 113.696 325.135 114.432C325.754 115.168 326.063 116.256 326.063 117.696C326.063 118.656 325.919 119.472 325.631 120.144C325.343 120.805 324.932 121.307 324.399 121.648C323.876 121.989 323.247 122.16 322.511 122.16C322.01 122.16 321.572 122.085 321.199 121.936C320.826 121.787 320.516 121.589 320.271 121.344C320.026 121.099 319.834 120.827 319.695 120.528H319.631C319.652 120.795 319.668 121.088 319.679 121.408C319.69 121.717 319.695 122.005 319.695 122.272V125.776H318.783V113.488H319.535L319.647 115.088H319.695C319.834 114.779 320.031 114.491 320.287 114.224C320.543 113.957 320.858 113.744 321.231 113.584C321.615 113.413 322.068 113.328 322.591 113.328ZM322.463 114.112C321.834 114.112 321.316 114.245 320.911 114.512C320.506 114.779 320.202 115.173 319.999 115.696C319.796 116.208 319.695 116.843 319.695 117.6V117.76C319.695 118.56 319.791 119.232 319.983 119.776C320.186 120.309 320.484 120.709 320.879 120.976C321.284 121.243 321.791 121.376 322.399 121.376C322.996 121.376 323.492 121.232 323.887 120.944C324.292 120.645 324.596 120.224 324.799 119.68C325.012 119.125 325.119 118.464 325.119 117.696C325.119 116.533 324.9 115.648 324.463 115.04C324.026 114.421 323.359 114.112 322.463 114.112ZM337.241 113.328C338.094 113.328 338.756 113.568 339.225 114.048C339.705 114.528 339.945 115.285 339.945 116.32V122H339.033V116.352C339.033 115.595 338.862 115.035 338.521 114.672C338.18 114.299 337.716 114.112 337.129 114.112C336.308 114.112 335.678 114.352 335.241 114.832C334.814 115.301 334.601 116.032 334.601 117.024V122H333.689V116.352C333.689 115.84 333.609 115.419 333.449 115.088C333.3 114.757 333.081 114.512 332.793 114.352C332.516 114.192 332.174 114.112 331.769 114.112C331.236 114.112 330.782 114.224 330.409 114.448C330.036 114.672 329.748 115.008 329.545 115.456C329.353 115.904 329.257 116.475 329.257 117.168V122H328.361V113.488H329.081L329.225 114.848H329.273C329.422 114.56 329.614 114.304 329.849 114.08C330.094 113.856 330.388 113.675 330.729 113.536C331.07 113.397 331.46 113.328 331.897 113.328C332.526 113.328 333.054 113.461 333.481 113.728C333.908 113.995 334.206 114.395 334.377 114.928H334.441C334.686 114.416 335.049 114.021 335.529 113.744C336.02 113.467 336.59 113.328 337.241 113.328ZM345.858 113.328C346.594 113.328 347.202 113.499 347.682 113.84C348.173 114.171 348.541 114.629 348.786 115.216C349.042 115.803 349.17 116.48 349.17 117.248V117.856H343.09C343.09 118.997 343.352 119.867 343.874 120.464C344.408 121.061 345.16 121.36 346.13 121.36C346.664 121.36 347.128 121.317 347.522 121.232C347.917 121.147 348.349 120.997 348.818 120.784V121.616C348.392 121.808 347.97 121.947 347.554 122.032C347.138 122.117 346.653 122.16 346.098 122.16C345.256 122.16 344.536 121.984 343.938 121.632C343.352 121.28 342.904 120.779 342.594 120.128C342.296 119.467 342.146 118.699 342.146 117.824C342.146 116.949 342.29 116.176 342.578 115.504C342.866 114.832 343.288 114.304 343.842 113.92C344.397 113.525 345.069 113.328 345.858 113.328ZM345.858 114.096C345.069 114.096 344.434 114.357 343.954 114.88C343.474 115.392 343.192 116.133 343.106 117.104H348.226C348.226 116.507 348.141 115.984 347.97 115.536C347.8 115.088 347.538 114.736 347.186 114.48C346.845 114.224 346.402 114.096 345.858 114.096ZM355.279 113.328C356.249 113.328 356.991 113.579 357.503 114.08C358.015 114.581 358.271 115.371 358.271 116.448V122H357.375V116.496C357.375 115.675 357.188 115.072 356.815 114.688C356.441 114.304 355.892 114.112 355.167 114.112C354.239 114.112 353.54 114.384 353.071 114.928C352.601 115.472 352.367 116.283 352.367 117.36V122H351.471V113.488H352.191L352.335 114.96H352.383C352.543 114.651 352.756 114.373 353.023 114.128C353.289 113.883 353.609 113.691 353.983 113.552C354.367 113.403 354.799 113.328 355.279 113.328ZM363.386 121.392C363.621 121.392 363.845 121.376 364.058 121.344C364.271 121.301 364.458 121.253 364.618 121.2V121.936C364.458 122 364.255 122.053 364.01 122.096C363.775 122.139 363.525 122.16 363.258 122.16C362.789 122.16 362.389 122.075 362.058 121.904C361.727 121.723 361.471 121.445 361.29 121.072C361.119 120.699 361.034 120.219 361.034 119.632V114.224H359.786V113.712L361.034 113.424L361.37 111.456H361.946V113.488H364.57V114.224H361.946V119.6C361.946 120.187 362.063 120.635 362.298 120.944C362.533 121.243 362.895 121.392 363.386 121.392Z" fill="#595959"/>
<defs>
<linearGradient id="paint0_linear_287_7978" x1="18.167" y1="42.8334" x2="39.8337" y2="21.1667" gradientUnits="userSpaceOnUse">
<stop stop-color="#733480"/>
<stop offset="1" stop-color="#FD6748"/>
</linearGradient>
<linearGradient id="paint1_linear_287_7978" x1="236.167" y1="42.1788" x2="257.169" y2="20.5224" gradientUnits="userSpaceOnUse">
<stop stop-color="#733480"/>
<stop offset="1" stop-color="#FD6748"/>
</linearGradient>
<linearGradient id="paint2_linear_287_7978" x1="236.167" y1="42.1788" x2="257.169" y2="20.5224" gradientUnits="userSpaceOnUse">
<stop stop-color="#733480"/>
<stop offset="1" stop-color="#FD6748"/>
</linearGradient>
<linearGradient id="paint3_linear_287_7978" x1="236.167" y1="42.1788" x2="257.169" y2="20.5224" gradientUnits="userSpaceOnUse">
<stop stop-color="#733480"/>
<stop offset="1" stop-color="#FD6748"/>
</linearGradient>
<linearGradient id="paint4_linear_287_7978" x1="236.167" y1="42.1788" x2="257.169" y2="20.5224" gradientUnits="userSpaceOnUse">
<stop stop-color="#733480"/>
<stop offset="1" stop-color="#FD6748"/>
</linearGradient>
<linearGradient id="paint5_linear_287_7978" x1="236.167" y1="42.1788" x2="257.169" y2="20.5224" gradientUnits="userSpaceOnUse">
<stop stop-color="#733480"/>
<stop offset="1" stop-color="#FD6748"/>
</linearGradient>
<linearGradient id="paint6_linear_287_7978" x1="236.167" y1="42.1788" x2="257.169" y2="20.5224" gradientUnits="userSpaceOnUse">
<stop stop-color="#733480"/>
<stop offset="1" stop-color="#FD6748"/>
</linearGradient>
<linearGradient id="paint7_linear_287_7978" x1="236.167" y1="42.1788" x2="257.169" y2="20.5224" gradientUnits="userSpaceOnUse">
<stop stop-color="#733480"/>
<stop offset="1" stop-color="#FD6748"/>
</linearGradient>
<linearGradient id="paint8_linear_287_7978" x1="236.167" y1="42.1788" x2="257.169" y2="20.5224" gradientUnits="userSpaceOnUse">
<stop stop-color="#733480"/>
<stop offset="1" stop-color="#FD6748"/>
</linearGradient>
<linearGradient id="paint9_linear_287_7978" x1="236.167" y1="42.1788" x2="257.169" y2="20.5224" gradientUnits="userSpaceOnUse">
<stop stop-color="#733480"/>
<stop offset="1" stop-color="#FD6748"/>
</linearGradient>
<linearGradient id="paint10_linear_287_7978" x1="236.167" y1="42.1788" x2="257.169" y2="20.5224" gradientUnits="userSpaceOnUse">
<stop stop-color="#733480"/>
<stop offset="1" stop-color="#FD6748"/>
</linearGradient>
<linearGradient id="paint11_linear_287_7978" x1="236.167" y1="42.1788" x2="257.169" y2="20.5224" gradientUnits="userSpaceOnUse">
<stop stop-color="#733480"/>
<stop offset="1" stop-color="#FD6748"/>
</linearGradient>
<linearGradient id="paint12_linear_287_7978" x1="236.167" y1="42.1788" x2="257.169" y2="20.5224" gradientUnits="userSpaceOnUse">
<stop stop-color="#733480"/>
<stop offset="1" stop-color="#FD6748"/>
</linearGradient>
<linearGradient id="paint13_linear_287_7978" x1="18.167" y1="84.7088" x2="39.7088" y2="63.0425" gradientUnits="userSpaceOnUse">
<stop stop-color="#733480"/>
<stop offset="1" stop-color="#FD6748"/>
</linearGradient>
<linearGradient id="paint14_linear_287_7978" x1="18.167" y1="84.7088" x2="39.7088" y2="63.0425" gradientUnits="userSpaceOnUse">
<stop stop-color="#733480"/>
<stop offset="1" stop-color="#FD6748"/>
</linearGradient>
<linearGradient id="paint15_linear_287_7978" x1="18.167" y1="84.7088" x2="39.7088" y2="63.0425" gradientUnits="userSpaceOnUse">
<stop stop-color="#733480"/>
<stop offset="1" stop-color="#FD6748"/>
</linearGradient>
<linearGradient id="paint16_linear_287_7978" x1="18.167" y1="84.7088" x2="39.7088" y2="63.0425" gradientUnits="userSpaceOnUse">
<stop stop-color="#733480"/>
<stop offset="1" stop-color="#FD6748"/>
</linearGradient>
<linearGradient id="paint17_linear_287_7978" x1="18.167" y1="84.7088" x2="39.7088" y2="63.0425" gradientUnits="userSpaceOnUse">
<stop stop-color="#733480"/>
<stop offset="1" stop-color="#FD6748"/>
</linearGradient>
<linearGradient id="paint18_linear_287_7978" x1="18.167" y1="84.7088" x2="39.7088" y2="63.0425" gradientUnits="userSpaceOnUse">
<stop stop-color="#733480"/>
<stop offset="1" stop-color="#FD6748"/>
</linearGradient>
<linearGradient id="paint19_linear_287_7978" x1="18.167" y1="84.7088" x2="39.7088" y2="63.0425" gradientUnits="userSpaceOnUse">
<stop stop-color="#733480"/>
<stop offset="1" stop-color="#FD6748"/>
</linearGradient>
<linearGradient id="paint20_linear_287_7978" x1="18.167" y1="84.7088" x2="39.7088" y2="63.0425" gradientUnits="userSpaceOnUse">
<stop stop-color="#733480"/>
<stop offset="1" stop-color="#FD6748"/>
</linearGradient>
<linearGradient id="paint21_linear_287_7978" x1="236.167" y1="83.6214" x2="254.195" y2="62.2624" gradientUnits="userSpaceOnUse">
<stop stop-color="#733480"/>
<stop offset="1" stop-color="#FD6748"/>
</linearGradient>
<linearGradient id="paint22_linear_287_7978" x1="236.167" y1="83.6214" x2="254.195" y2="62.2624" gradientUnits="userSpaceOnUse">
<stop stop-color="#733480"/>
<stop offset="1" stop-color="#FD6748"/>
</linearGradient>
<linearGradient id="paint23_linear_287_7978" x1="236.167" y1="83.6214" x2="254.195" y2="62.2624" gradientUnits="userSpaceOnUse">
<stop stop-color="#733480"/>
<stop offset="1" stop-color="#FD6748"/>
</linearGradient>
<linearGradient id="paint24_linear_287_7978" x1="236.167" y1="83.6214" x2="254.195" y2="62.2624" gradientUnits="userSpaceOnUse">
<stop stop-color="#733480"/>
<stop offset="1" stop-color="#FD6748"/>
</linearGradient>
<linearGradient id="paint25_linear_287_7978" x1="236.167" y1="83.6214" x2="254.195" y2="62.2624" gradientUnits="userSpaceOnUse">
<stop stop-color="#733480"/>
<stop offset="1" stop-color="#FD6748"/>
</linearGradient>
<linearGradient id="paint26_linear_287_7978" x1="236.167" y1="83.6214" x2="254.195" y2="62.2624" gradientUnits="userSpaceOnUse">
<stop stop-color="#733480"/>
<stop offset="1" stop-color="#FD6748"/>
</linearGradient>
<linearGradient id="paint27_linear_287_7978" x1="236.167" y1="83.6214" x2="254.195" y2="62.2624" gradientUnits="userSpaceOnUse">
<stop stop-color="#733480"/>
<stop offset="1" stop-color="#FD6748"/>
</linearGradient>
<linearGradient id="paint28_linear_287_7978" x1="236.167" y1="83.6214" x2="254.195" y2="62.2624" gradientUnits="userSpaceOnUse">
<stop stop-color="#733480"/>
<stop offset="1" stop-color="#FD6748"/>
</linearGradient>
<linearGradient id="paint29_linear_287_7978" x1="236.167" y1="83.6214" x2="254.195" y2="62.2624" gradientUnits="userSpaceOnUse">
<stop stop-color="#733480"/>
<stop offset="1" stop-color="#FD6748"/>
</linearGradient>
<linearGradient id="paint30_linear_287_7978" x1="236.167" y1="83.6214" x2="254.195" y2="62.2624" gradientUnits="userSpaceOnUse">
<stop stop-color="#733480"/>
<stop offset="1" stop-color="#FD6748"/>
</linearGradient>
<linearGradient id="paint31_linear_287_7978" x1="236.167" y1="83.6214" x2="254.195" y2="62.2624" gradientUnits="userSpaceOnUse">
<stop stop-color="#733480"/>
<stop offset="1" stop-color="#FD6748"/>
</linearGradient>
<linearGradient id="paint32_linear_287_7978" x1="236.167" y1="83.6214" x2="254.195" y2="62.2624" gradientUnits="userSpaceOnUse">
<stop stop-color="#733480"/>
<stop offset="1" stop-color="#FD6748"/>
</linearGradient>
<linearGradient id="paint33_linear_287_7978" x1="236.167" y1="83.6214" x2="254.195" y2="62.2624" gradientUnits="userSpaceOnUse">
<stop stop-color="#733480"/>
<stop offset="1" stop-color="#FD6748"/>
</linearGradient>
<linearGradient id="paint34_linear_287_7978" x1="236.167" y1="83.6214" x2="254.195" y2="62.2624" gradientUnits="userSpaceOnUse">
<stop stop-color="#733480"/>
<stop offset="1" stop-color="#FD6748"/>
</linearGradient>
<linearGradient id="paint35_linear_287_7978" x1="236.167" y1="83.6214" x2="254.195" y2="62.2624" gradientUnits="userSpaceOnUse">
<stop stop-color="#733480"/>
<stop offset="1" stop-color="#FD6748"/>
</linearGradient>
<linearGradient id="paint36_linear_287_7978" x1="236.167" y1="83.6214" x2="254.195" y2="62.2624" gradientUnits="userSpaceOnUse">
<stop stop-color="#733480"/>
<stop offset="1" stop-color="#FD6748"/>
</linearGradient>
<linearGradient id="paint37_linear_287_7978" x1="236.167" y1="83.6214" x2="254.195" y2="62.2624" gradientUnits="userSpaceOnUse">
<stop stop-color="#733480"/>
<stop offset="1" stop-color="#FD6748"/>
</linearGradient>
<linearGradient id="paint38_linear_287_7978" x1="18.167" y1="126.833" x2="39.8336" y2="105.194" gradientUnits="userSpaceOnUse">
<stop stop-color="#733480"/>
<stop offset="1" stop-color="#FD6748"/>
</linearGradient>
<linearGradient id="paint39_linear_287_7978" x1="18.167" y1="126.833" x2="39.8336" y2="105.194" gradientUnits="userSpaceOnUse">
<stop stop-color="#733480"/>
<stop offset="1" stop-color="#FD6748"/>
</linearGradient>
<linearGradient id="paint40_linear_287_7978" x1="18.167" y1="126.833" x2="39.8336" y2="105.194" gradientUnits="userSpaceOnUse">
<stop stop-color="#733480"/>
<stop offset="1" stop-color="#FD6748"/>
</linearGradient>
<linearGradient id="paint41_linear_287_7978" x1="18.167" y1="126.833" x2="39.8336" y2="105.194" gradientUnits="userSpaceOnUse">
<stop stop-color="#733480"/>
<stop offset="1" stop-color="#FD6748"/>
</linearGradient>
<linearGradient id="paint42_linear_287_7978" x1="18.167" y1="126.833" x2="39.8336" y2="105.194" gradientUnits="userSpaceOnUse">
<stop stop-color="#733480"/>
<stop offset="1" stop-color="#FD6748"/>
</linearGradient>
<linearGradient id="paint43_linear_287_7978" x1="18.167" y1="126.833" x2="39.8336" y2="105.194" gradientUnits="userSpaceOnUse">
<stop stop-color="#733480"/>
<stop offset="1" stop-color="#FD6748"/>
</linearGradient>
<linearGradient id="paint44_linear_287_7978" x1="18.167" y1="126.833" x2="39.8336" y2="105.194" gradientUnits="userSpaceOnUse">
<stop stop-color="#733480"/>
<stop offset="1" stop-color="#FD6748"/>
</linearGradient>
<linearGradient id="paint45_linear_287_7978" x1="18.167" y1="126.833" x2="39.8336" y2="105.194" gradientUnits="userSpaceOnUse">
<stop stop-color="#733480"/>
<stop offset="1" stop-color="#FD6748"/>
</linearGradient>
<linearGradient id="paint46_linear_287_7978" x1="236.167" y1="126.1" x2="257.087" y2="104.446" gradientUnits="userSpaceOnUse">
<stop stop-color="#733480"/>
<stop offset="1" stop-color="#FD6748"/>
</linearGradient>
<linearGradient id="paint47_linear_287_7978" x1="236.167" y1="126.1" x2="257.087" y2="104.446" gradientUnits="userSpaceOnUse">
<stop stop-color="#733480"/>
<stop offset="1" stop-color="#FD6748"/>
</linearGradient>
<linearGradient id="paint48_linear_287_7978" x1="236.167" y1="126.1" x2="257.087" y2="104.446" gradientUnits="userSpaceOnUse">
<stop stop-color="#733480"/>
<stop offset="1" stop-color="#FD6748"/>
</linearGradient>
<linearGradient id="paint49_linear_287_7978" x1="236.167" y1="126.1" x2="257.087" y2="104.446" gradientUnits="userSpaceOnUse">
<stop stop-color="#733480"/>
<stop offset="1" stop-color="#FD6748"/>
</linearGradient>
<linearGradient id="paint50_linear_287_7978" x1="236.167" y1="126.1" x2="257.087" y2="104.446" gradientUnits="userSpaceOnUse">
<stop stop-color="#733480"/>
<stop offset="1" stop-color="#FD6748"/>
</linearGradient>
<linearGradient id="paint51_linear_287_7978" x1="236.167" y1="126.1" x2="257.087" y2="104.446" gradientUnits="userSpaceOnUse">
<stop stop-color="#733480"/>
<stop offset="1" stop-color="#FD6748"/>
</linearGradient>
<linearGradient id="paint52_linear_287_7978" x1="236.167" y1="126.1" x2="257.087" y2="104.446" gradientUnits="userSpaceOnUse">
<stop stop-color="#733480"/>
<stop offset="1" stop-color="#FD6748"/>
</linearGradient>
<linearGradient id="paint53_linear_287_7978" x1="236.167" y1="126.1" x2="257.087" y2="104.446" gradientUnits="userSpaceOnUse">
<stop stop-color="#733480"/>
<stop offset="1" stop-color="#FD6748"/>
</linearGradient>
<linearGradient id="paint54_linear_287_7978" x1="236.167" y1="126.1" x2="257.087" y2="104.446" gradientUnits="userSpaceOnUse">
<stop stop-color="#733480"/>
<stop offset="1" stop-color="#FD6748"/>
</linearGradient>
<linearGradient id="paint55_linear_287_7978" x1="236.167" y1="126.1" x2="257.087" y2="104.446" gradientUnits="userSpaceOnUse">
<stop stop-color="#733480"/>
<stop offset="1" stop-color="#FD6748"/>
</linearGradient>
<linearGradient id="paint56_linear_287_7978" x1="236.167" y1="126.1" x2="257.087" y2="104.446" gradientUnits="userSpaceOnUse">
<stop stop-color="#733480"/>
<stop offset="1" stop-color="#FD6748"/>
</linearGradient>
<linearGradient id="paint57_linear_287_7978" x1="236.167" y1="126.1" x2="257.087" y2="104.446" gradientUnits="userSpaceOnUse">
<stop stop-color="#733480"/>
<stop offset="1" stop-color="#FD6748"/>
</linearGradient>
<linearGradient id="paint58_linear_287_7978" x1="236.167" y1="126.1" x2="257.087" y2="104.446" gradientUnits="userSpaceOnUse">
<stop stop-color="#733480"/>
<stop offset="1" stop-color="#FD6748"/>
</linearGradient>
<linearGradient id="paint59_linear_287_7978" x1="236.167" y1="126.1" x2="257.087" y2="104.446" gradientUnits="userSpaceOnUse">
<stop stop-color="#733480"/>
<stop offset="1" stop-color="#FD6748"/>
</linearGradient>
</defs>
</svg>
