<svg width="40" height="40" viewBox="0 0 40 40" fill="none" xmlns="http://www.w3.org/2000/svg">
<path d="M36.5066 26.1166L34.4627 25.8244C34.3387 25.421 34.1765 25.0303 33.9782 24.6578L35.2171 23.0066C35.2973 22.8997 35.3363 22.7673 35.3268 22.6339C35.3173 22.5006 35.26 22.3751 35.1655 22.2805L33.5943 20.7066C33.4998 20.6121 33.3743 20.5548 33.2409 20.5453C33.1075 20.5358 32.9752 20.5748 32.8682 20.655L31.2171 21.8939C30.8446 21.6956 30.4539 21.5334 30.0505 21.4094L29.7582 19.3655C29.7392 19.2327 29.6727 19.1113 29.5711 19.0237C29.4695 18.9361 29.3396 18.8882 29.2055 18.8889H26.9832C26.8495 18.8888 26.7203 18.937 26.6193 19.0246C26.5183 19.1121 26.4522 19.2332 26.4332 19.3655L26.141 21.4094C25.7376 21.5334 25.3469 21.6956 24.9743 21.8939L23.3232 20.655C23.2162 20.5748 23.0839 20.5358 22.9505 20.5453C22.8172 20.5548 22.6917 20.6121 22.5971 20.7066L21.0232 22.2778C20.9287 22.3723 20.8714 22.4978 20.8619 22.6312C20.8524 22.7645 20.8914 22.8969 20.9716 23.0039L22.2105 24.655C22.0122 25.0275 21.85 25.4182 21.726 25.8216L19.6821 26.1139C19.5493 26.1329 19.4279 26.1994 19.3403 26.301C19.2527 26.4026 19.2048 26.5325 19.2055 26.6666V28.8889C19.2054 29.0226 19.2536 29.1518 19.3412 29.2528C19.4287 29.3538 19.5498 29.4199 19.6821 29.4389L21.726 29.7311C21.85 30.1345 22.0122 30.5252 22.2105 30.8978L20.9716 32.5489C20.8914 32.6558 20.8524 32.7882 20.8619 32.9216C20.8714 33.0549 20.9287 33.1804 21.0232 33.275L22.5943 34.8489C22.6889 34.9434 22.8144 35.0007 22.9478 35.0102C23.0811 35.0197 23.2135 34.9807 23.3205 34.9005L24.9716 33.6616C25.3441 33.8599 25.7348 34.0222 26.1382 34.1461L26.4305 36.19C26.4495 36.3228 26.516 36.4442 26.6176 36.5318C26.7192 36.6194 26.8491 36.6673 26.9832 36.6666H29.2055C29.3391 36.6667 29.4684 36.6185 29.5694 36.5309C29.6704 36.4434 29.7365 36.3223 29.7555 36.19L30.0477 34.1461C30.4511 34.0222 30.8418 33.8599 31.2143 33.6616L32.8655 34.9005C32.9724 34.9807 33.1048 35.0197 33.2382 35.0102C33.3715 35.0007 33.497 34.9434 33.5916 34.8489L35.1655 33.2778C35.26 33.1832 35.3173 33.0577 35.3268 32.9243C35.3363 32.791 35.2973 32.6586 35.2171 32.5516L33.9782 30.9005C34.1765 30.528 34.3387 30.1373 34.4627 29.7339L36.5066 29.4416C36.6394 29.4226 36.7608 29.3561 36.8484 29.2545C36.936 29.1529 36.9839 29.023 36.9832 28.8889V26.6666C36.9832 26.533 36.9351 26.4037 36.8475 26.3027C36.7599 26.2017 36.6389 26.1356 36.5066 26.1166ZM35.8721 28.4072L33.9455 28.6822C33.8356 28.6979 33.733 28.7461 33.6508 28.8207C33.5686 28.8953 33.5106 28.9927 33.4843 29.1005C33.3508 29.649 33.1336 30.1737 32.8405 30.6561C32.7831 30.751 32.7554 30.861 32.761 30.9718C32.7667 31.0826 32.8054 31.1891 32.8721 31.2778L34.0388 32.8333L33.1499 33.7222L31.5943 32.5555C31.5056 32.489 31.399 32.4505 31.2882 32.445C31.1774 32.4396 31.0675 32.4674 30.9727 32.525C30.4903 32.8182 29.9656 33.0353 29.4171 33.1689C29.3093 33.1952 29.2119 33.2531 29.1373 33.3353C29.0627 33.4175 29.0145 33.5201 28.9988 33.63L28.7238 35.5555H27.4649L27.1899 33.6289C27.1742 33.519 27.126 33.4164 27.0514 33.3342C26.9768 33.252 26.8794 33.194 26.7716 33.1677C26.2231 33.0342 25.6984 32.817 25.216 32.5239C25.1212 32.4663 25.0113 32.4385 24.9005 32.4439C24.7897 32.4494 24.6831 32.4878 24.5943 32.5544L23.0388 33.7211L22.1499 32.8322L23.3166 31.2766C23.3831 31.1879 23.4216 31.0813 23.4271 30.9705C23.4325 30.8597 23.4047 30.7498 23.3471 30.655C23.0539 30.1726 22.8368 29.6479 22.7032 29.0994C22.6769 28.9916 22.619 28.8942 22.5368 28.8196C22.4546 28.745 22.352 28.6968 22.2421 28.6811L20.3166 28.4072V27.1483L22.2432 26.8733C22.3531 26.8576 22.4557 26.8094 22.5379 26.7348C22.6201 26.6602 22.6781 26.5628 22.7043 26.455C22.8379 25.9065 23.0551 25.3818 23.3482 24.8994C23.4058 24.8046 23.4336 24.6947 23.4282 24.5839C23.4227 24.4731 23.3843 24.3665 23.3177 24.2778L22.151 22.7222L23.0399 21.8333L24.5955 23C24.6842 23.0666 24.7908 23.105 24.9016 23.1105C25.0124 23.1159 25.1223 23.0881 25.2171 23.0305C25.6995 22.7373 26.2242 22.5202 26.7727 22.3866C26.8805 22.3604 26.978 22.3024 27.0525 22.2202C27.1271 22.138 27.1753 22.0354 27.191 21.9255L27.4649 20H28.7238L28.9988 21.9266C29.0145 22.0365 29.0627 22.1391 29.1373 22.2213C29.2119 22.3035 29.3093 22.3615 29.4171 22.3878C29.9656 22.5213 30.4903 22.7385 30.9727 23.0316C31.0676 23.089 31.1776 23.1167 31.2884 23.1111C31.3992 23.1054 31.5057 23.0667 31.5943 23L33.1499 21.8333L34.0388 22.7222L32.8721 24.2778C32.8055 24.3665 32.7671 24.4731 32.7616 24.5839C32.7562 24.6947 32.784 24.8046 32.8416 24.8994C33.1348 25.3818 33.3519 25.9065 33.4855 26.455C33.5117 26.5628 33.5697 26.6602 33.6519 26.7348C33.7341 26.8094 33.8367 26.8576 33.9466 26.8733L35.8721 27.1483V28.4072Z" fill="#595959"/>
<path d="M28.0943 23.8889C27.3252 23.8889 26.5733 24.1169 25.9338 24.5443C25.2943 24.9716 24.7958 25.5789 24.5015 26.2895C24.2071 27.0001 24.1301 27.7821 24.2802 28.5364C24.4302 29.2908 24.8006 29.9837 25.3445 30.5276C25.8884 31.0715 26.5813 31.4419 27.3357 31.5919C28.09 31.742 28.872 31.665 29.5826 31.3706C30.2932 31.0763 30.9005 30.5778 31.3278 29.9383C31.7551 29.2988 31.9832 28.5469 31.9832 27.7778C31.9821 26.7467 31.572 25.7582 30.8429 25.0292C30.1138 24.3001 29.1254 23.89 28.0943 23.8889ZM28.0943 30.5555C27.545 30.5555 27.0079 30.3926 26.5511 30.0874C26.0943 29.7822 25.7383 29.3483 25.528 28.8408C25.3178 28.3332 25.2628 27.7747 25.3699 27.2358C25.4771 26.697 25.7417 26.202 26.1302 25.8136C26.5186 25.4251 27.0136 25.1605 27.5524 25.0533C28.0913 24.9462 28.6498 25.0012 29.1574 25.2114C29.6649 25.4217 30.0988 25.7777 30.404 26.2345C30.7092 26.6913 30.8721 27.2284 30.8721 27.7778C30.8712 28.5142 30.5783 29.2202 30.0576 29.741C29.5368 30.2617 28.8308 30.5546 28.0943 30.5555Z" fill="#595959"/>
<path d="M4.76101 29.4444V8.88887H31.4277V19.4444C31.4277 19.7512 31.6764 20 31.9832 20C32.2901 20 32.5388 19.7512 32.5388 19.4444V6.11109C32.5379 5.37465 32.245 4.66862 31.7242 4.14788C31.2035 3.62714 30.4974 3.3342 29.761 3.33331H6.42768C5.69124 3.3342 4.98521 3.62714 4.46447 4.14788C3.94373 4.66862 3.65078 5.37465 3.6499 6.11109V29.4444C3.65078 30.1809 3.94373 30.8869 4.46447 31.4076C4.98521 31.9284 5.69124 32.2213 6.42768 32.2222H19.761V31.1111H6.42768C5.98565 31.1111 5.56173 30.9355 5.24917 30.6229C4.93661 30.3104 4.76101 29.8864 4.76101 29.4444ZM6.42768 4.44442H29.761C30.203 4.44442 30.627 4.62002 30.9395 4.93258C31.2521 5.24514 31.4277 5.66906 31.4277 6.11109V7.77776H4.76101V6.11109C4.76101 5.66906 4.93661 5.24514 5.24917 4.93258C5.56173 4.62002 5.98565 4.44442 6.42768 4.44442Z" fill="#595959"/>
<path d="M6.98323 6.11109C6.98323 6.41791 7.23197 6.66665 7.53879 6.66665C7.84561 6.66665 8.09435 6.41791 8.09435 6.11109C8.09435 5.80427 7.84561 5.55553 7.53879 5.55553C7.23197 5.55553 6.98323 5.80427 6.98323 6.11109Z" fill="#595959"/>
<path d="M9.20546 6.11109C9.20546 6.41791 9.45419 6.66665 9.76101 6.66665C10.0678 6.66665 10.3166 6.41791 10.3166 6.11109C10.3166 5.80427 10.0678 5.55553 9.76101 5.55553C9.45419 5.55553 9.20546 5.80427 9.20546 6.11109Z" fill="#595959"/>
<path d="M11.4277 6.11109C11.4277 6.41791 11.6764 6.66665 11.9832 6.66665C12.2901 6.66665 12.5388 6.41791 12.5388 6.11109C12.5388 5.80427 12.2901 5.55553 11.9832 5.55553C11.6764 5.55553 11.4277 5.80427 11.4277 6.11109Z" fill="#595959"/>
<path d="M26.4277 5.55553H15.3166C15.0097 5.55553 14.761 5.80427 14.761 6.11109C14.761 6.41791 15.0097 6.66665 15.3166 6.66665H26.4277C26.7345 6.66665 26.9832 6.41791 26.9832 6.11109C26.9832 5.80427 26.7345 5.55553 26.4277 5.55553Z" fill="#595959"/>
<path d="M28.6499 17.7778C28.9567 17.7778 29.2055 17.529 29.2055 17.2222V12.2222C29.2055 11.9275 29.0884 11.6449 28.88 11.4365C28.6716 11.2282 28.389 11.1111 28.0943 11.1111H8.09435C7.79966 11.1111 7.51705 11.2282 7.30867 11.4365C7.1003 11.6449 6.98323 11.9275 6.98323 12.2222V22.2222C6.98323 22.5169 7.1003 22.7995 7.30867 23.0079C7.51705 23.2162 7.79966 23.3333 8.09435 23.3333H19.2055C19.5123 23.3333 19.761 23.0846 19.761 22.7778C19.761 22.4709 19.5123 22.2222 19.2055 22.2222H8.09435V12.2222H28.0943V17.2222C28.0943 17.529 28.3431 17.7778 28.6499 17.7778Z" fill="#595959"/>
<path d="M15.8721 25.5555H8.09435C7.78752 25.5555 7.53879 25.8043 7.53879 26.1111C7.53879 26.4179 7.78752 26.6666 8.09435 26.6666H15.8721C16.1789 26.6666 16.4277 26.4179 16.4277 26.1111C16.4277 25.8043 16.1789 25.5555 15.8721 25.5555Z" fill="#595959"/>
<path d="M15.8721 27.7778H8.09435C7.78752 27.7778 7.53879 28.0265 7.53879 28.3333C7.53879 28.6401 7.78752 28.8889 8.09435 28.8889H15.8721C16.1789 28.8889 16.4277 28.6401 16.4277 28.3333C16.4277 28.0265 16.1789 27.7778 15.8721 27.7778Z" fill="#595959"/>
<path d="M17.5388 17.2222C17.5388 17.529 17.7875 17.7778 18.0943 17.7778C18.4012 17.7778 18.6499 17.529 18.6499 17.2222C18.6499 16.9154 18.4012 16.6666 18.0943 16.6666C17.7875 16.6666 17.5388 16.9154 17.5388 17.2222Z" fill="#595959"/>
<path d="M21.4277 16.6666H20.3166C20.0097 16.6666 19.761 16.9154 19.761 17.2222C19.761 17.529 20.0097 17.7778 20.3166 17.7778H21.4277C21.7345 17.7778 21.9832 17.529 21.9832 17.2222C21.9832 16.9154 21.7345 16.6666 21.4277 16.6666Z" fill="#595959"/>
<path d="M15.8721 16.6666H14.761C14.4542 16.6666 14.2055 16.9154 14.2055 17.2222C14.2055 17.529 14.4542 17.7778 14.761 17.7778H15.8721C16.1789 17.7778 16.4277 17.529 16.4277 17.2222C16.4277 16.9154 16.1789 16.6666 15.8721 16.6666Z" fill="#595959"/>
<path d="M28.3166 21.6666H27.8721C27.688 21.6666 27.5388 21.8159 27.5388 22V22.4444C27.5388 22.6285 27.688 22.7778 27.8721 22.7778H28.3166C28.5007 22.7778 28.6499 22.6285 28.6499 22.4444V22C28.6499 21.8159 28.5007 21.6666 28.3166 21.6666Z" fill="#595959"/>
<path d="M23.9303 23.2994L23.616 23.6137C23.4858 23.7439 23.4858 23.9549 23.616 24.0851L23.9303 24.3994C24.0604 24.5296 24.2715 24.5296 24.4017 24.3994L24.7159 24.0851C24.8461 23.9549 24.8461 23.7439 24.7159 23.6137L24.4017 23.2994C24.2715 23.1693 24.0604 23.1693 23.9303 23.2994Z" fill="#595959"/>
<path d="M22.761 27.2222H22.3166C22.1325 27.2222 21.9832 27.3714 21.9832 27.5555V28C21.9832 28.1841 22.1325 28.3333 22.3166 28.3333H22.761C22.9451 28.3333 23.0943 28.1841 23.0943 28V27.5555C23.0943 27.3714 22.9451 27.2222 22.761 27.2222Z" fill="#595959"/>
<path d="M23.9302 31.1561L23.6159 31.4703C23.4858 31.6005 23.4858 31.8116 23.6159 31.9417L23.9302 32.256C24.0604 32.3862 24.2714 32.3862 24.4016 32.256L24.7159 31.9417C24.8461 31.8116 24.8461 31.6005 24.7159 31.4703L24.4016 31.1561C24.2714 31.0259 24.0604 31.0259 23.9302 31.1561Z" fill="#595959"/>
<path d="M28.3166 32.7778H27.8721C27.688 32.7778 27.5388 32.927 27.5388 33.1111V33.5555C27.5388 33.7396 27.688 33.8889 27.8721 33.8889H28.3166C28.5007 33.8889 28.6499 33.7396 28.6499 33.5555V33.1111C28.6499 32.927 28.5007 32.7778 28.3166 32.7778Z" fill="#595959"/>
<path d="M31.7868 31.1561L31.4726 31.4704C31.3424 31.6006 31.3424 31.8116 31.4726 31.9418L31.7868 32.2561C31.917 32.3862 32.1281 32.3862 32.2582 32.2561L32.5725 31.9418C32.7027 31.8116 32.7027 31.6006 32.5725 31.4704L32.2582 31.1561C32.1281 31.0259 31.917 31.0259 31.7868 31.1561Z" fill="#595959"/>
<path d="M33.8721 27.2222H33.4277C33.2436 27.2222 33.0943 27.3714 33.0943 27.5555V28C33.0943 28.1841 33.2436 28.3333 33.4277 28.3333H33.8721C34.0562 28.3333 34.2054 28.1841 34.2054 28V27.5555C34.2054 27.3714 34.0562 27.2222 33.8721 27.2222Z" fill="#595959"/>
<path d="M31.7869 23.2995L31.4726 23.6138C31.3424 23.7439 31.3424 23.955 31.4726 24.0852L31.7869 24.3994C31.917 24.5296 32.1281 24.5296 32.2583 24.3994L32.5725 24.0852C32.7027 23.955 32.7027 23.7439 32.5725 23.6138L32.2583 23.2995C32.1281 23.1693 31.917 23.1693 31.7869 23.2995Z" fill="#595959"/>
</svg>
