<svg width="40" height="40" viewBox="0 0 40 40" fill="none" xmlns="http://www.w3.org/2000/svg">
<path d="M20.389 6.97915H28.0932C28.4528 6.97915 28.7442 6.6877 28.7442 6.3281C28.7442 5.96851 28.4528 5.67706 28.0932 5.67706H20.389C20.0294 5.67706 19.738 5.96851 19.738 6.3281C19.738 6.6877 20.0294 6.97915 20.389 6.97915Z" fill="#595959"/>
<path d="M14.3901 6.97915C14.5612 6.97915 14.7286 6.90946 14.8504 6.78841C14.9715 6.66736 15.0411 6.49926 15.0411 6.3281C15.0411 6.15695 14.9715 5.98885 14.8504 5.8678C14.7286 5.74674 14.5612 5.67706 14.3901 5.67706C14.2182 5.67706 14.0508 5.74674 13.9298 5.8678C13.808 5.98885 13.7391 6.15695 13.7391 6.3281C13.7391 6.49926 13.808 6.66736 13.9298 6.78841C14.0508 6.90946 14.2182 6.97915 14.3901 6.97915Z" fill="#595959"/>
<path d="M12.3572 6.97915C12.5286 6.97915 12.6965 6.90946 12.8175 6.78841C12.9386 6.66736 13.0083 6.49926 13.0083 6.3281C13.0083 6.15695 12.9386 5.98885 12.8175 5.8678C12.6965 5.74674 12.5286 5.67706 12.3572 5.67706C12.1861 5.67706 12.0182 5.74674 11.8964 5.8678C11.7754 5.98885 11.7062 6.15695 11.7062 6.3281C11.7062 6.49926 11.7754 6.66736 11.8964 6.78841C12.0182 6.90946 12.1861 6.97915 12.3572 6.97915Z" fill="#595959"/>
<path d="M16.4218 6.97915C16.5937 6.97915 16.7611 6.90946 16.8829 6.78841C17.0039 6.66736 17.0736 6.49926 17.0736 6.3281C17.0736 6.15695 17.0039 5.98885 16.8829 5.8678C16.7611 5.74674 16.5937 5.67706 16.4218 5.67706C16.2507 5.67706 16.0833 5.74674 15.9618 5.8678C15.8404 5.98885 15.7715 6.15695 15.7715 6.3281C15.7715 6.49926 15.8404 6.66736 15.9618 6.78841C16.0833 6.90946 16.2507 6.97915 16.4218 6.97915Z" fill="#595959"/>
<path d="M31.8789 8.28098H31.4883V5.15623C31.4883 4.15118 30.6704 3.33331 29.6654 3.33331H10.7852C9.78011 3.33331 8.96224 4.15118 8.96224 5.15623V8.28098H8.57161C6.77667 8.28098 5.31641 9.7415 5.31641 11.5362V16.4844C5.31641 16.844 5.60785 17.1354 5.96745 17.1354C6.32705 17.1354 6.61849 16.844 6.61849 16.4844V11.5362C6.61849 10.4594 7.4946 9.58306 8.57161 9.58306H8.96224V25.4685H6.61849V21.4262C6.61849 21.0666 6.32705 20.7751 5.96745 20.7751C5.60785 20.7751 5.31641 21.0666 5.31641 21.4262V27.9424C5.31641 29.7374 6.77667 31.1976 8.57161 31.1976H16.9723V35.3646H14.4318C14.0722 35.3646 13.7807 35.656 13.7807 36.0156C13.7807 36.3752 14.0722 36.6666 14.4318 36.6666H26.0236C26.3832 36.6666 26.6746 36.3752 26.6746 36.0156C26.6746 35.656 26.3832 35.3646 26.0236 35.3646H23.4828V31.1976H31.8789C33.6738 31.1976 35.1341 29.7374 35.1341 27.9424V11.5362C35.1341 9.7415 33.6738 8.28098 31.8789 8.28098ZM31.8789 9.58306C32.9559 9.58306 33.832 10.4594 33.832 11.5362V25.4685H31.4883V9.58306H31.8789ZM10.2643 9.3229H19.5742V13.3471L17.3653 11.1382C17.2432 11.0161 17.0776 10.9474 16.9049 10.9474C16.7323 10.9474 16.5667 11.0161 16.4446 11.1382L14.0729 13.5099L12.6615 12.0985C12.4072 11.8442 11.9952 11.8442 11.7409 12.0985L10.2643 13.575V9.3229ZM10.2643 15.4165L12.2012 13.4796L14.5548 15.8333H10.2643V15.4165ZM16.3963 15.8333L14.9935 14.4305L16.9049 12.5194L19.5742 15.1886V15.8333H16.3963ZM20.8763 9.3229H30.1862V15.8333H20.8763V9.3229ZM10.7852 4.6354H29.6654C29.9525 4.6354 30.1862 4.86911 30.1862 5.15623V8.02081H10.2643V5.15623C10.2643 4.86911 10.498 4.6354 10.7852 4.6354ZM10.2643 17.1354H30.1862V25.4685H10.2643V17.1354ZM22.1807 35.3646H18.2744V31.1976H22.1807V35.3646ZM31.8789 29.8956H8.57161C7.4946 29.8956 6.61849 29.0195 6.61849 27.9424V26.7706H33.832V27.9424C33.832 29.0195 32.9559 29.8956 31.8789 29.8956Z" fill="#595959"/>
<path d="M26.4537 18.4263C25.1254 18.4263 24.0448 19.5069 24.0448 20.8351C24.0448 22.1634 25.1254 23.244 26.4537 23.244C27.782 23.244 28.8626 22.1634 28.8626 20.8351C28.8626 19.5069 27.7817 18.4263 26.4537 18.4263ZM26.4537 21.9419C25.8433 21.9419 25.3469 21.4452 25.3469 20.8351C25.3469 20.2248 25.8433 19.7284 26.4537 19.7284C27.0638 19.7284 27.5605 20.2248 27.5605 20.8351C27.5605 21.4455 27.0638 21.9419 26.4537 21.9419Z" fill="#595959"/>
<path d="M20.1817 18.4263C18.8534 18.4263 17.7729 19.5069 17.7729 20.8351C17.7729 22.1634 18.8534 23.244 20.1817 23.244C21.51 23.244 22.5906 22.1634 22.5906 20.8351C22.5906 19.5069 21.51 18.4263 20.1817 18.4263ZM20.1817 21.9419C19.5716 21.9419 19.075 21.4452 19.075 20.8351C19.075 20.2248 19.5716 19.7284 20.1817 19.7284C20.7921 19.7284 21.2885 20.2248 21.2885 20.8351C21.2885 21.4455 20.7921 21.9419 20.1817 21.9419Z" fill="#595959"/>
<path d="M14.0729 18.4263C12.7446 18.4263 11.6641 19.5069 11.6641 20.8351C11.6641 22.1634 12.7446 23.244 14.0729 23.244C15.4012 23.244 16.4818 22.1634 16.4818 20.8351C16.4818 19.5069 15.4012 18.4263 14.0729 18.4263ZM14.0729 21.9419C13.4626 21.9419 12.9661 21.4452 12.9661 20.8351C12.9661 20.2248 13.4626 19.7284 14.0729 19.7284C14.6833 19.7284 15.1797 20.2248 15.1797 20.8351C15.1797 21.4455 14.6833 21.9419 14.0729 21.9419Z" fill="#595959"/>
<path d="M23.3287 11.9271H28.0935C28.4531 11.9271 28.7445 11.6356 28.7445 11.276C28.7445 10.9164 28.4531 10.625 28.0935 10.625H23.3287C22.9691 10.625 22.6777 10.9164 22.6777 11.276C22.6777 11.6356 22.9691 11.9271 23.3287 11.9271Z" fill="#595959"/>
<path d="M28.0935 13.2291H23.3287C22.9691 13.2291 22.6777 13.5206 22.6777 13.8802C22.6777 14.2398 22.9691 14.5312 23.3287 14.5312H28.0935C28.4531 14.5312 28.7445 14.2398 28.7445 13.8802C28.7445 13.5206 28.4529 13.2291 28.0935 13.2291Z" fill="#595959"/>
<path d="M5.96745 19.7284C6.1386 19.7284 6.3067 19.6589 6.42775 19.5376C6.54881 19.4166 6.61849 19.2487 6.61849 19.0773C6.61849 18.9057 6.54881 18.7383 6.42775 18.6173C6.3067 18.4955 6.1386 18.4263 5.96745 18.4263C5.7963 18.4263 5.62819 18.4955 5.50714 18.6173C5.38609 18.7383 5.31641 18.9057 5.31641 19.0773C5.31641 19.2487 5.38609 19.4166 5.50714 19.5376C5.62819 19.6589 5.7963 19.7284 5.96745 19.7284Z" fill="#595959"/>
<path d="M20.2253 27.6823C20.0541 27.6823 19.886 27.752 19.765 27.873C19.6439 27.9941 19.5742 28.1622 19.5742 28.3333C19.5742 28.5045 19.6439 28.6726 19.765 28.7936C19.886 28.9147 20.0541 28.9844 20.2253 28.9844C20.3964 28.9844 20.5645 28.9147 20.6856 28.7936C20.8066 28.6726 20.8763 28.5045 20.8763 28.3333C20.8763 28.1614 20.8066 27.9941 20.6856 27.873C20.5645 27.752 20.3964 27.6823 20.2253 27.6823Z" fill="#595959"/>
</svg>
