<svg xmlns="http://www.w3.org/2000/svg" width="22" height="22" viewBox="0 0 22 22" fill="none">
  <path d="M14.1316 10.4277L10.0066 7.67766C9.903 7.60856 9.78262 7.56889 9.65827 7.56286C9.53392 7.55684 9.41027 7.58469 9.30051 7.64345C9.19075 7.70221 9.09901 7.78967 9.03508 7.8965C8.97115 8.00333 8.93742 8.12551 8.9375 8.25V13.75C8.93742 13.8745 8.97115 13.9967 9.03508 14.1035C9.09901 14.2103 9.19075 14.2978 9.30051 14.3566C9.41027 14.4153 9.53392 14.4432 9.65827 14.4371C9.78262 14.4311 9.903 14.3914 10.0066 14.3223L14.1316 11.5723C14.2259 11.5096 14.3032 11.4245 14.3567 11.3247C14.4102 11.2248 14.4382 11.1133 14.4382 11C14.4382 10.8867 14.4102 10.7752 14.3567 10.6754C14.3032 10.5755 14.2259 10.4904 14.1316 10.4277ZM10.3125 12.4652V9.53907L12.5108 11L10.3125 12.4652ZM20.1377 5.97438C20.0568 5.65757 19.9016 5.36455 19.6851 5.1195C19.4686 4.87445 19.1969 4.68439 18.8925 4.565C15.9466 3.42719 11.2578 3.4375 11 3.4375C10.7422 3.4375 6.05344 3.42719 3.1075 4.565C2.80308 4.68439 2.5314 4.87445 2.31489 5.1195C2.09838 5.36455 1.94324 5.65757 1.86227 5.97438C1.63969 6.83203 1.375 8.39953 1.375 11C1.375 13.6005 1.63969 15.168 1.86227 16.0256C1.94312 16.3426 2.09821 16.6358 2.31472 16.881C2.53124 17.1262 2.80298 17.3164 3.1075 17.4359C5.92969 18.5247 10.3469 18.5625 10.9433 18.5625H11.0567C11.6531 18.5625 16.0729 18.5247 18.8925 17.4359C19.197 17.3164 19.4688 17.1262 19.6853 16.881C19.9018 16.6358 20.0569 16.3426 20.1377 16.0256C20.3603 15.1663 20.625 13.6005 20.625 11C20.625 8.39953 20.3603 6.83203 20.1377 5.97438ZM18.8066 15.6853C18.7804 15.7908 18.7296 15.8885 18.6583 15.9705C18.5871 16.0525 18.4974 16.1165 18.3966 16.1571C15.6767 17.2073 11.0507 17.1884 11.006 17.1884H11C10.9536 17.1884 6.33102 17.2056 3.60938 16.1571C3.50863 16.1165 3.41896 16.0525 3.3477 15.9705C3.27645 15.8885 3.22564 15.7908 3.19945 15.6853C2.99062 14.9007 2.75 13.4552 2.75 11C2.75 8.54477 2.99063 7.0993 3.19344 6.31899C3.21914 6.21292 3.26973 6.1145 3.34101 6.03187C3.41229 5.94923 3.50222 5.88475 3.60336 5.84375C6.22617 4.83055 10.621 4.8125 10.9811 4.8125H11.0043C11.0507 4.8125 15.6776 4.79703 18.3949 5.84375C18.4957 5.88441 18.5853 5.94837 18.6566 6.03038C18.7278 6.11239 18.7787 6.21011 18.8048 6.31555C19.0094 7.0993 19.25 8.54477 19.25 11C19.25 13.4552 19.0094 14.9007 18.8066 15.681V15.6853Z" fill="white"/>
</svg>